<svg viewBox="0 0 24 24" id="redesign--date" xmlns="http://www.w3.org/2000/svg"><path fill-rule="evenodd" d="M17 4v1a1 1 0 1 1-2 0V4H9v1a1 1 0 1 1-2 0V4H4v16h16V4h-3zM7 2a1 1 0 1 1 2 0h6a1 1 0 1 1 2 0h3a2 2 0 0 1 2 2v16a2 2 0 0 1-2 2H4a2 2 0 0 1-2-2V4a2 2 0 0 1 2-2h3zm1.707 11.707a1 1 0 0 1-1.414-1.414l2-2C9.923 9.663 11 10.109 11 11v7a1 1 0 1 1-2 0v-4.586l-.293.293zM15 17v-2h-2a1 1 0 0 1-1-1v-3a1 1 0 0 1 1-1h3a1 1 0 1 1 0 2h-2v1h1a2 2 0 0 1 2 2v2a2 2 0 0 1-2 2h-2a1 1 0 0 1-1-1v-.004a1 1 0 0 1 1-1h.002L15 17zM4 7h16v2H4V7z"></path></svg>