<svg xmlns="http://www.w3.org/2000/svg" xmlns:xlink="http://www.w3.org/1999/xlink" width="1416.347" height="679.38" viewBox="0 0 1416.347 679.38"><defs><style>.a,.b{fill:#1fcb5d;}.a,.f{opacity:0.1;}.c{fill:url(#a);}.d{opacity:0.29;}.e{fill:#fff;}.g{fill:#f9f9f9;}</style><linearGradient id="a" x1="0.5" x2="0.5" y2="1" gradientUnits="objectBoundingBox"><stop offset="0" stop-color="#1fcb5d"/><stop offset="1" stop-color="#52ef8b" stop-opacity="0"/></linearGradient></defs><g transform="translate(23.668)"><path class="a" d="M1833,804.347s273.78-159.879,684.162,0,681.837,0,681.837,0V945.969H1833Z" transform="translate(3199 1412.669) rotate(180)"/><path class="b" d="M1833,782.47s273.78-110.655,684.162,0,681.837,0,681.837,0v98.02H1833Z" transform="translate(3199 1361.779) rotate(180)"/><rect class="b" width="1366" height="512"/><path class="c" d="M1833,804.347s280.182-159.879,700.16,0,697.781,0,697.781,0v241.623H1833Z" transform="matrix(-0.998, 0.07, -0.07, -0.998, 3272.365, 1161.776)"/><g class="d" transform="translate(37.144 294.71)"><g transform="translate(342.507 210.375)"><path class="e" d="M337.6,175.913a3.254,3.254,0,1,1-3.254-3.254A3.255,3.255,0,0,1,337.6,175.913Z" transform="translate(-331.089 -172.659)"/><path class="e" d="M352.713,175.913a3.254,3.254,0,1,1-3.254-3.254A3.254,3.254,0,0,1,352.713,175.913Z" transform="translate(-325.38 -172.659)"/><path class="e" d="M367.829,175.913a3.253,3.253,0,1,1-3.254-3.254A3.254,3.254,0,0,1,367.829,175.913Z" transform="translate(-319.671 -172.659)"/><path class="e" d="M382.946,175.913a3.254,3.254,0,1,1-3.254-3.254A3.255,3.255,0,0,1,382.946,175.913Z" transform="translate(-313.963 -172.659)"/></g><g transform="translate(321.681 190.72)"><path class="e" d="M322.48,161.646a3.254,3.254,0,1,1-3.254-3.254A3.254,3.254,0,0,1,322.48,161.646Z" transform="translate(-315.972 -158.392)"/><path class="e" d="M337.6,161.646a3.254,3.254,0,1,1-3.254-3.254A3.255,3.255,0,0,1,337.6,161.646Z" transform="translate(-310.263 -158.392)"/><path class="e" d="M352.713,161.646a3.254,3.254,0,1,1-3.254-3.254A3.254,3.254,0,0,1,352.713,161.646Z" transform="translate(-304.554 -158.392)"/><path class="e" d="M367.829,161.646a3.253,3.253,0,1,1-3.254-3.254A3.254,3.254,0,0,1,367.829,161.646Z" transform="translate(-298.845 -158.392)"/><path class="e" d="M382.946,161.646a3.254,3.254,0,1,1-3.254-3.254A3.255,3.255,0,0,1,382.946,161.646Z" transform="translate(-293.137 -158.392)"/><path class="e" d="M398.062,161.646a3.254,3.254,0,1,1-3.254-3.254A3.254,3.254,0,0,1,398.062,161.646Z" transform="translate(-287.428 -158.392)"/></g><g transform="translate(321.681 171.065)"><path class="e" d="M322.48,147.379a3.254,3.254,0,1,1-3.254-3.254A3.254,3.254,0,0,1,322.48,147.379Z" transform="translate(-315.972 -144.125)"/><path class="e" d="M337.6,147.379a3.254,3.254,0,1,1-3.254-3.254A3.255,3.255,0,0,1,337.6,147.379Z" transform="translate(-310.263 -144.125)"/><path class="e" d="M352.713,147.379a3.254,3.254,0,1,1-3.254-3.254A3.254,3.254,0,0,1,352.713,147.379Z" transform="translate(-304.554 -144.125)"/><path class="e" d="M367.829,147.379a3.253,3.253,0,1,1-3.254-3.254A3.254,3.254,0,0,1,367.829,147.379Z" transform="translate(-298.845 -144.125)"/><path class="e" d="M382.946,147.379a3.254,3.254,0,1,1-3.254-3.254A3.255,3.255,0,0,1,382.946,147.379Z" transform="translate(-293.137 -144.125)"/><path class="e" d="M398.062,147.379a3.254,3.254,0,1,1-3.254-3.254A3.254,3.254,0,0,1,398.062,147.379Z" transform="translate(-287.428 -144.125)"/></g><g transform="translate(300.856 151.41)"><path class="e" d="M307.364,133.112a3.254,3.254,0,1,1-3.254-3.254A3.255,3.255,0,0,1,307.364,133.112Z" transform="translate(-300.856 -129.858)"/><path class="e" d="M322.48,133.112a3.254,3.254,0,1,1-3.254-3.254A3.254,3.254,0,0,1,322.48,133.112Z" transform="translate(-295.147 -129.858)"/><path class="e" d="M337.6,133.112a3.254,3.254,0,1,1-3.254-3.254A3.255,3.255,0,0,1,337.6,133.112Z" transform="translate(-289.438 -129.858)"/><path class="e" d="M352.713,133.112a3.254,3.254,0,1,1-3.254-3.254A3.254,3.254,0,0,1,352.713,133.112Z" transform="translate(-283.73 -129.858)"/><path class="e" d="M367.829,133.112a3.253,3.253,0,1,1-3.254-3.254A3.254,3.254,0,0,1,367.829,133.112Z" transform="translate(-278.021 -129.858)"/><path class="e" d="M382.946,133.112a3.254,3.254,0,1,1-3.254-3.254A3.255,3.255,0,0,1,382.946,133.112Z" transform="translate(-272.312 -129.858)"/><path class="e" d="M398.062,133.112a3.254,3.254,0,1,1-3.254-3.254A3.254,3.254,0,0,1,398.062,133.112Z" transform="translate(-266.603 -129.858)"/><path class="e" d="M413.179,133.112a3.254,3.254,0,1,1-3.254-3.254A3.255,3.255,0,0,1,413.179,133.112Z" transform="translate(-260.894 -129.858)"/></g><g transform="translate(300.856 131.755)"><path class="e" d="M307.364,118.845a3.254,3.254,0,1,1-3.254-3.254A3.255,3.255,0,0,1,307.364,118.845Z" transform="translate(-300.856 -115.591)"/><path class="e" d="M322.48,118.845a3.254,3.254,0,1,1-3.254-3.254A3.254,3.254,0,0,1,322.48,118.845Z" transform="translate(-295.147 -115.591)"/><path class="e" d="M337.6,118.845a3.254,3.254,0,1,1-3.254-3.254A3.255,3.255,0,0,1,337.6,118.845Z" transform="translate(-289.438 -115.591)"/><path class="e" d="M352.713,118.845a3.254,3.254,0,1,1-3.254-3.254A3.254,3.254,0,0,1,352.713,118.845Z" transform="translate(-283.73 -115.591)"/><path class="e" d="M367.829,118.845a3.253,3.253,0,1,1-3.254-3.254A3.254,3.254,0,0,1,367.829,118.845Z" transform="translate(-278.021 -115.591)"/><path class="e" d="M382.946,118.845a3.254,3.254,0,1,1-3.254-3.254A3.255,3.255,0,0,1,382.946,118.845Z" transform="translate(-272.312 -115.591)"/><path class="e" d="M398.062,118.845a3.254,3.254,0,1,1-3.254-3.254A3.254,3.254,0,0,1,398.062,118.845Z" transform="translate(-266.603 -115.591)"/><path class="e" d="M413.179,118.845a3.254,3.254,0,1,1-3.254-3.254A3.255,3.255,0,0,1,413.179,118.845Z" transform="translate(-260.894 -115.591)"/></g><g transform="translate(321.681 112.1)"><path class="e" d="M322.48,104.578a3.254,3.254,0,1,1-3.254-3.254A3.253,3.253,0,0,1,322.48,104.578Z" transform="translate(-315.972 -101.324)"/><path class="e" d="M337.6,104.578a3.254,3.254,0,1,1-3.254-3.254A3.254,3.254,0,0,1,337.6,104.578Z" transform="translate(-310.263 -101.324)"/><path class="e" d="M352.713,104.578a3.254,3.254,0,1,1-3.254-3.254A3.253,3.253,0,0,1,352.713,104.578Z" transform="translate(-304.554 -101.324)"/><path class="e" d="M367.829,104.578a3.253,3.253,0,1,1-3.254-3.254A3.253,3.253,0,0,1,367.829,104.578Z" transform="translate(-298.845 -101.324)"/><path class="e" d="M382.946,104.578a3.254,3.254,0,1,1-3.254-3.254A3.254,3.254,0,0,1,382.946,104.578Z" transform="translate(-293.137 -101.324)"/><path class="e" d="M398.062,104.578a3.254,3.254,0,1,1-3.254-3.254A3.253,3.253,0,0,1,398.062,104.578Z" transform="translate(-287.428 -101.324)"/></g><g transform="translate(321.681 92.445)"><path class="e" d="M322.48,90.311a3.254,3.254,0,1,1-3.254-3.254A3.253,3.253,0,0,1,322.48,90.311Z" transform="translate(-315.972 -87.057)"/><path class="e" d="M337.6,90.311a3.254,3.254,0,1,1-3.254-3.254A3.254,3.254,0,0,1,337.6,90.311Z" transform="translate(-310.263 -87.057)"/><path class="e" d="M352.713,90.311a3.254,3.254,0,1,1-3.254-3.254A3.253,3.253,0,0,1,352.713,90.311Z" transform="translate(-304.554 -87.057)"/><path class="e" d="M367.829,90.311a3.253,3.253,0,1,1-3.254-3.254A3.253,3.253,0,0,1,367.829,90.311Z" transform="translate(-298.845 -87.057)"/><path class="e" d="M382.946,90.311a3.254,3.254,0,1,1-3.254-3.254A3.254,3.254,0,0,1,382.946,90.311Z" transform="translate(-293.137 -87.057)"/><path class="e" d="M398.062,90.311a3.254,3.254,0,1,1-3.254-3.254A3.253,3.253,0,0,1,398.062,90.311Z" transform="translate(-287.428 -87.057)"/></g><g transform="translate(342.507 72.79)"><path class="e" d="M337.6,76.043a3.254,3.254,0,1,1-3.254-3.253A3.255,3.255,0,0,1,337.6,76.043Z" transform="translate(-331.089 -72.79)"/><path class="e" d="M352.713,76.043a3.254,3.254,0,1,1-3.254-3.253A3.254,3.254,0,0,1,352.713,76.043Z" transform="translate(-325.38 -72.79)"/><path class="e" d="M367.829,76.043a3.253,3.253,0,1,1-3.254-3.253A3.254,3.254,0,0,1,367.829,76.043Z" transform="translate(-319.671 -72.79)"/><path class="e" d="M382.946,76.043a3.254,3.254,0,1,1-3.254-3.253A3.255,3.255,0,0,1,382.946,76.043Z" transform="translate(-313.963 -72.79)"/></g></g><g class="f" transform="translate(1508.833 667.595) rotate(180)"><path class="g" d="M271.976,574.595c0-70.779-51.53-126.656-129.143-126.656V348.6c127.9,0,226,101.2,226,225.994Z" transform="translate(0 0)"/></g></g></svg>