<svg xmlns="http://www.w3.org/2000/svg" width="146.947" height="153.649" viewBox="0 0 146.947 153.649">
  <g id="Group_166" data-name="Group 166" transform="matrix(0.819, -0.574, 0.574, 0.819, -315.819, 174.803)" opacity="0.13">
    <g id="Group_158" data-name="Group 158" transform="translate(341.462 206.924)">
      <path id="Path_658" data-name="Path 658" d="M337.434,175.831a3.172,3.172,0,1,1-3.172-3.172A3.173,3.173,0,0,1,337.434,175.831Z" transform="translate(-331.089 -172.659)" fill="#fff"/>
      <path id="Path_659" data-name="Path 659" d="M352.55,175.831a3.172,3.172,0,1,1-3.172-3.172A3.172,3.172,0,0,1,352.55,175.831Z" transform="translate(-325.903 -172.659)" fill="#fff"/>
      <path id="Path_660" data-name="Path 660" d="M367.666,175.831a3.172,3.172,0,1,1-3.172-3.172A3.172,3.172,0,0,1,367.666,175.831Z" transform="translate(-320.716 -172.659)" fill="#fff"/>
      <path id="Path_661" data-name="Path 661" d="M382.783,175.831a3.172,3.172,0,1,1-3.172-3.172A3.173,3.173,0,0,1,382.783,175.831Z" transform="translate(-315.53 -172.659)" fill="#fff"/>
    </g>
    <g id="Group_159" data-name="Group 159" transform="translate(321.158 187.762)">
      <path id="Path_662" data-name="Path 662" d="M322.317,161.564a3.172,3.172,0,1,1-3.172-3.172A3.172,3.172,0,0,1,322.317,161.564Z" transform="translate(-315.972 -158.392)" fill="#fff"/>
      <path id="Path_663" data-name="Path 663" d="M337.434,161.564a3.172,3.172,0,1,1-3.172-3.172A3.173,3.173,0,0,1,337.434,161.564Z" transform="translate(-310.785 -158.392)" fill="#fff"/>
      <path id="Path_664" data-name="Path 664" d="M352.55,161.564a3.172,3.172,0,1,1-3.172-3.172A3.172,3.172,0,0,1,352.55,161.564Z" transform="translate(-305.599 -158.392)" fill="#fff"/>
      <path id="Path_665" data-name="Path 665" d="M367.666,161.564a3.172,3.172,0,1,1-3.172-3.172A3.172,3.172,0,0,1,367.666,161.564Z" transform="translate(-300.412 -158.392)" fill="#fff"/>
      <path id="Path_666" data-name="Path 666" d="M382.783,161.564a3.172,3.172,0,1,1-3.172-3.172A3.173,3.173,0,0,1,382.783,161.564Z" transform="translate(-295.226 -158.392)" fill="#fff"/>
      <path id="Path_667" data-name="Path 667" d="M397.9,161.564a3.172,3.172,0,1,1-3.172-3.172A3.172,3.172,0,0,1,397.9,161.564Z" transform="translate(-290.04 -158.392)" fill="#fff"/>
    </g>
    <g id="Group_160" data-name="Group 160" transform="translate(321.158 168.6)">
      <path id="Path_668" data-name="Path 668" d="M322.317,147.3a3.172,3.172,0,1,1-3.172-3.172A3.172,3.172,0,0,1,322.317,147.3Z" transform="translate(-315.972 -144.125)" fill="#fff"/>
      <path id="Path_669" data-name="Path 669" d="M337.434,147.3a3.172,3.172,0,1,1-3.172-3.172A3.173,3.173,0,0,1,337.434,147.3Z" transform="translate(-310.785 -144.125)" fill="#fff"/>
      <path id="Path_670" data-name="Path 670" d="M352.55,147.3a3.172,3.172,0,1,1-3.172-3.172A3.172,3.172,0,0,1,352.55,147.3Z" transform="translate(-305.599 -144.125)" fill="#fff"/>
      <path id="Path_671" data-name="Path 671" d="M367.666,147.3a3.172,3.172,0,1,1-3.172-3.172A3.172,3.172,0,0,1,367.666,147.3Z" transform="translate(-300.412 -144.125)" fill="#fff"/>
      <path id="Path_672" data-name="Path 672" d="M382.783,147.3a3.172,3.172,0,1,1-3.172-3.172A3.173,3.173,0,0,1,382.783,147.3Z" transform="translate(-295.226 -144.125)" fill="#fff"/>
      <path id="Path_673" data-name="Path 673" d="M397.9,147.3a3.172,3.172,0,1,1-3.172-3.172A3.172,3.172,0,0,1,397.9,147.3Z" transform="translate(-290.04 -144.125)" fill="#fff"/>
    </g>
    <g id="Group_161" data-name="Group 161" transform="translate(300.856 149.438)">
      <path id="Path_674" data-name="Path 674" d="M307.2,133.03a3.172,3.172,0,1,1-3.172-3.172A3.173,3.173,0,0,1,307.2,133.03Z" transform="translate(-300.856 -129.858)" fill="#fff"/>
      <path id="Path_675" data-name="Path 675" d="M322.317,133.03a3.172,3.172,0,1,1-3.172-3.172A3.172,3.172,0,0,1,322.317,133.03Z" transform="translate(-295.67 -129.858)" fill="#fff"/>
      <path id="Path_676" data-name="Path 676" d="M337.434,133.03a3.172,3.172,0,1,1-3.172-3.172A3.173,3.173,0,0,1,337.434,133.03Z" transform="translate(-290.483 -129.858)" fill="#fff"/>
      <path id="Path_677" data-name="Path 677" d="M352.55,133.03a3.172,3.172,0,1,1-3.172-3.172A3.172,3.172,0,0,1,352.55,133.03Z" transform="translate(-285.297 -129.858)" fill="#fff"/>
      <path id="Path_678" data-name="Path 678" d="M367.666,133.03a3.172,3.172,0,1,1-3.172-3.172A3.172,3.172,0,0,1,367.666,133.03Z" transform="translate(-280.11 -129.858)" fill="#fff"/>
      <path id="Path_679" data-name="Path 679" d="M382.783,133.03a3.172,3.172,0,1,1-3.172-3.172A3.173,3.173,0,0,1,382.783,133.03Z" transform="translate(-274.924 -129.858)" fill="#fff"/>
      <path id="Path_680" data-name="Path 680" d="M397.9,133.03a3.172,3.172,0,1,1-3.172-3.172A3.172,3.172,0,0,1,397.9,133.03Z" transform="translate(-269.737 -129.858)" fill="#fff"/>
      <path id="Path_681" data-name="Path 681" d="M413.016,133.03a3.172,3.172,0,1,1-3.172-3.172A3.173,3.173,0,0,1,413.016,133.03Z" transform="translate(-264.551 -129.858)" fill="#fff"/>
    </g>
    <g id="Group_162" data-name="Group 162" transform="translate(300.856 130.276)">
      <path id="Path_682" data-name="Path 682" d="M307.2,118.763a3.172,3.172,0,1,1-3.172-3.172A3.173,3.173,0,0,1,307.2,118.763Z" transform="translate(-300.856 -115.591)" fill="#fff"/>
      <path id="Path_683" data-name="Path 683" d="M322.317,118.763a3.172,3.172,0,1,1-3.172-3.172A3.172,3.172,0,0,1,322.317,118.763Z" transform="translate(-295.67 -115.591)" fill="#fff"/>
      <path id="Path_684" data-name="Path 684" d="M337.434,118.763a3.172,3.172,0,1,1-3.172-3.172A3.173,3.173,0,0,1,337.434,118.763Z" transform="translate(-290.483 -115.591)" fill="#fff"/>
      <path id="Path_685" data-name="Path 685" d="M352.55,118.763a3.172,3.172,0,1,1-3.172-3.172A3.172,3.172,0,0,1,352.55,118.763Z" transform="translate(-285.297 -115.591)" fill="#fff"/>
      <path id="Path_686" data-name="Path 686" d="M367.666,118.763a3.172,3.172,0,1,1-3.172-3.172A3.172,3.172,0,0,1,367.666,118.763Z" transform="translate(-280.11 -115.591)" fill="#fff"/>
      <path id="Path_687" data-name="Path 687" d="M382.783,118.763a3.172,3.172,0,1,1-3.172-3.172A3.173,3.173,0,0,1,382.783,118.763Z" transform="translate(-274.924 -115.591)" fill="#fff"/>
      <path id="Path_688" data-name="Path 688" d="M397.9,118.763a3.172,3.172,0,1,1-3.172-3.172A3.172,3.172,0,0,1,397.9,118.763Z" transform="translate(-269.737 -115.591)" fill="#fff"/>
      <path id="Path_689" data-name="Path 689" d="M413.016,118.763a3.172,3.172,0,1,1-3.172-3.172A3.173,3.173,0,0,1,413.016,118.763Z" transform="translate(-264.551 -115.591)" fill="#fff"/>
    </g>
    <g id="Group_163" data-name="Group 163" transform="translate(321.158 111.114)">
      <path id="Path_690" data-name="Path 690" d="M322.317,104.5a3.172,3.172,0,1,1-3.172-3.172A3.171,3.171,0,0,1,322.317,104.5Z" transform="translate(-315.972 -101.324)" fill="#fff"/>
      <path id="Path_691" data-name="Path 691" d="M337.434,104.5a3.172,3.172,0,1,1-3.172-3.172A3.172,3.172,0,0,1,337.434,104.5Z" transform="translate(-310.785 -101.324)" fill="#fff"/>
      <path id="Path_692" data-name="Path 692" d="M352.55,104.5a3.172,3.172,0,1,1-3.172-3.172A3.171,3.171,0,0,1,352.55,104.5Z" transform="translate(-305.599 -101.324)" fill="#fff"/>
      <path id="Path_693" data-name="Path 693" d="M367.666,104.5a3.172,3.172,0,1,1-3.172-3.172A3.171,3.171,0,0,1,367.666,104.5Z" transform="translate(-300.412 -101.324)" fill="#fff"/>
      <path id="Path_694" data-name="Path 694" d="M382.783,104.5a3.172,3.172,0,1,1-3.172-3.172A3.172,3.172,0,0,1,382.783,104.5Z" transform="translate(-295.226 -101.324)" fill="#fff"/>
      <path id="Path_695" data-name="Path 695" d="M397.9,104.5a3.172,3.172,0,1,1-3.172-3.172A3.171,3.171,0,0,1,397.9,104.5Z" transform="translate(-290.04 -101.324)" fill="#fff"/>
    </g>
    <g id="Group_164" data-name="Group 164" transform="translate(321.158 91.952)">
      <path id="Path_696" data-name="Path 696" d="M322.317,90.229a3.172,3.172,0,1,1-3.172-3.172A3.171,3.171,0,0,1,322.317,90.229Z" transform="translate(-315.972 -87.057)" fill="#fff"/>
      <path id="Path_697" data-name="Path 697" d="M337.434,90.229a3.172,3.172,0,1,1-3.172-3.172A3.172,3.172,0,0,1,337.434,90.229Z" transform="translate(-310.785 -87.057)" fill="#fff"/>
      <path id="Path_698" data-name="Path 698" d="M352.55,90.229a3.172,3.172,0,1,1-3.172-3.172A3.171,3.171,0,0,1,352.55,90.229Z" transform="translate(-305.599 -87.057)" fill="#fff"/>
      <path id="Path_699" data-name="Path 699" d="M367.666,90.229a3.172,3.172,0,1,1-3.172-3.172A3.171,3.171,0,0,1,367.666,90.229Z" transform="translate(-300.412 -87.057)" fill="#fff"/>
      <path id="Path_700" data-name="Path 700" d="M382.783,90.229a3.172,3.172,0,1,1-3.172-3.172A3.172,3.172,0,0,1,382.783,90.229Z" transform="translate(-295.226 -87.057)" fill="#fff"/>
      <path id="Path_701" data-name="Path 701" d="M397.9,90.229a3.172,3.172,0,1,1-3.172-3.172A3.171,3.171,0,0,1,397.9,90.229Z" transform="translate(-290.04 -87.057)" fill="#fff"/>
    </g>
    <g id="Group_165" data-name="Group 165" transform="translate(341.462 72.79)">
      <path id="Path_702" data-name="Path 702" d="M337.434,75.961a3.172,3.172,0,1,1-3.172-3.171A3.174,3.174,0,0,1,337.434,75.961Z" transform="translate(-331.089 -72.79)" fill="#fff"/>
      <path id="Path_703" data-name="Path 703" d="M352.55,75.961a3.172,3.172,0,1,1-3.172-3.171A3.173,3.173,0,0,1,352.55,75.961Z" transform="translate(-325.903 -72.79)" fill="#fff"/>
      <path id="Path_704" data-name="Path 704" d="M367.666,75.961a3.172,3.172,0,1,1-3.172-3.171A3.173,3.173,0,0,1,367.666,75.961Z" transform="translate(-320.716 -72.79)" fill="#fff"/>
      <path id="Path_705" data-name="Path 705" d="M382.783,75.961a3.172,3.172,0,1,1-3.172-3.171A3.174,3.174,0,0,1,382.783,75.961Z" transform="translate(-315.53 -72.79)" fill="#fff"/>
    </g>
  </g>
</svg>
