<svg xmlns="http://www.w3.org/2000/svg" width="74.616" height="29.63" viewBox="0 0 74.616 29.63"><defs><style>.a{fill:#5f6368;}.b{fill:#4285f4;}.c{fill:#34a853;}.d{fill:#fbbc04;}.e{fill:#ea4335;}</style></defs><g transform="translate(-0.003 0.005)"><path class="a" d="M192.855,22.757v8.685H190.1V9.993h7.308a6.608,6.608,0,0,1,4.732,1.857,5.969,5.969,0,0,1,1.977,4.527,5.942,5.942,0,0,1-1.977,4.552,6.588,6.588,0,0,1-4.732,1.826h-4.552Zm0-10.123v7.487h4.621A3.709,3.709,0,0,0,200.2,13.77a3.594,3.594,0,0,0-2.726-1.138h-4.621Z" transform="translate(-157.564 -8.286)"/><path class="a" d="M278.056,46.78a6.832,6.832,0,0,1,4.823,1.633,5.788,5.788,0,0,1,1.766,4.477v9.045h-2.636V59.9h-.12a5.263,5.263,0,0,1-4.552,2.516,5.918,5.918,0,0,1-4.058-1.438,4.59,4.59,0,0,1-1.633-3.594,4.358,4.358,0,0,1,1.722-3.623,7.28,7.28,0,0,1,4.6-1.349,8.136,8.136,0,0,1,4.042.9v-.63a3.137,3.137,0,0,0-1.138-2.439,3.9,3.9,0,0,0-2.66-1,4.218,4.218,0,0,0-3.654,1.948l-2.427-1.528A6.754,6.754,0,0,1,278.056,46.78Zm-3.565,10.662a2.2,2.2,0,0,0,.914,1.8,3.361,3.361,0,0,0,2.141.719,4.393,4.393,0,0,0,3.1-1.287,4.026,4.026,0,0,0,1.369-3.024,5.628,5.628,0,0,0-3.594-1.027,4.658,4.658,0,0,0-2.8.809A2.414,2.414,0,0,0,274.491,57.442Z" transform="translate(-225.154 -38.778)"/><path class="a" d="M364.9,49.58l-9.2,21.144h-2.844l3.414-7.4L350.22,49.58h2.995l4.373,10.542h.06L361.9,49.58Z" transform="translate(-290.281 -41.099)"/><path class="b" d="M83.833,61.505A14.683,14.683,0,0,0,83.62,59H72v4.746h6.656a5.7,5.7,0,0,1-2.461,3.745v3.08h3.972A12.05,12.05,0,0,0,83.833,61.505Z" transform="translate(-59.675 -48.907)"/><path class="c" d="M18.679,95.744a11.793,11.793,0,0,0,8.167-2.974l-3.972-3.08A7.474,7.474,0,0,1,11.762,85.78H7.67v3.175a12.322,12.322,0,0,0,11.009,6.789Z" transform="translate(-6.355 -71.104)"/><path class="d" d="M5.407,47.561a7.383,7.383,0,0,1,0-4.717V39.67H1.315a12.322,12.322,0,0,0,0,11.066Z" transform="translate(0 -32.885)"/><path class="e" d="M18.681,4.874a6.69,6.69,0,0,1,4.727,1.848h0L26.924,3.2A11.839,11.839,0,0,0,18.681,0,12.322,12.322,0,0,0,7.671,6.785L11.763,9.96A7.37,7.37,0,0,1,18.681,4.874Z" transform="translate(-6.356 0)"/></g></svg>