<svg xmlns="http://www.w3.org/2000/svg" width="35.43" height="31.887" viewBox="0 0 35.43 31.887">
  <path id="camera_account" data-name="camera account" d="M5.543,6.543h5.315L14.4,3H25.03l3.543,3.543h5.315a3.543,3.543,0,0,1,3.543,3.543V31.344a3.543,3.543,0,0,1-3.543,3.543H5.543A3.543,3.543,0,0,1,2,31.344V10.086A3.543,3.543,0,0,1,5.543,6.543ZM26.8,27.8V26.03c0-2.36-4.725-3.543-7.086-3.543s-7.086,1.183-7.086,3.543V27.8ZM19.715,13.629a3.543,3.543,0,1,0,3.543,3.543A3.545,3.545,0,0,0,19.715,13.629Z" transform="translate(-2 -3)" fill="#d6d6d6"/>
</svg>
