<svg xmlns="http://www.w3.org/2000/svg" width="20.111" height="20.11" viewBox="0 0 20.111 20.11"><defs><style>.a{fill:#fff;}</style></defs><g transform="translate(0)"><path class="a" d="M300.014,402.94V390.024h12.918v.208q0,5.621,0,11.241a1.428,1.428,0,0,1-1.461,1.465q-5.62,0-11.241,0Z" transform="translate(-292.821 -382.83)"/><path class="a" d="M284.989,380.728v-3.269c0-.329,0-.658,0-.988A1.43,1.43,0,0,1,286.465,375q5.755,0,11.51,0h5.632a1.435,1.435,0,0,1,1.491,1.481q0,2.042,0,4.084v.167Z" transform="translate(-284.989 -374.996)"/><path class="a" d="M284.99,390.019h5.733v12.918H290q-1.75,0-3.5,0a1.44,1.44,0,0,1-1.513-1.526q0-5.542,0-11.083Z" transform="translate(-284.989 -382.827)"/></g></svg>