<svg xmlns="http://www.w3.org/2000/svg" width="33.34" height="30.202" viewBox="0 0 33.34 30.202"><defs><style>.a{fill:#1fcb5d;}</style></defs><path class="a" d="M608,1487.876c.036-.134.074-.268.108-.4a3.111,3.111,0,0,1,3.1-2.384q5.257-.005,10.514,0c3.049,0,6.1-.011,9.147.005a2.971,2.971,0,0,1,2.867,1.832,3.31,3.31,0,0,1,.284,1.319q.029,7.193.01,14.388a3.114,3.114,0,0,1-3.279,3.267q-3.369.007-6.737,0h-.377v1.067c.224,0,.458,0,.691,0a7.394,7.394,0,0,1,3.115.539,5.679,5.679,0,0,1,1.183.774.511.511,0,0,1,.138.473.677.677,0,0,1-.494.26q-7.243.021-14.485,0a.659.659,0,0,1-.5-.249.56.56,0,0,1,.144-.5,3.821,3.821,0,0,1,.89-.638,7.068,7.068,0,0,1,2.992-.656c.357-.01.714,0,1.1,0v-1.056c-.1,0-.215-.014-.328-.014q-3.336,0-6.672,0a3.112,3.112,0,0,1-3.353-2.669.68.68,0,0,0-.054-.118Zm12.99,14.926h9.44c.469,0,.5-.036.5-.5q0-6.819,0-13.639c0-.443-.036-.479-.488-.479H611.6c-.45,0-.488.037-.488.479v13.64c0,.463.034.5.5.5Zm7.321.9a.649.649,0,1,0,.653.636A.675.675,0,0,0,628.311,1503.7Z" transform="translate(-608 -1478.83)"/><path class="a" d="M649.356,1503.41l-.127.467a3.034,3.034,0,0,1-2.857,2.307c-2.778.034-5.556.011-8.334.011a.573.573,0,0,1-.11-.026v-2.028c.119,0,.244.006.368,0a19.979,19.979,0,0,0,2.171-.127,2.746,2.746,0,0,0,2.572-2.793c.081-.982.075-1.972.077-2.959q.01-5.648,0-11.3v-.528h3.107v-1.072h-2.956c-.145-1.114.076-2.322-1.132-3.095h4.09V1481.2H633.743c0-.372-.014-.715,0-1.056a10.4,10.4,0,0,1,.131-1.841,2.987,2.987,0,0,1,2.892-2.292q4.769-.029,9.539,0a3.075,3.075,0,0,1,2.979,2.567,1.523,1.523,0,0,0,.07.213Zm-5.209-10.753h2.077v-1.019h-2.077Z" transform="translate(-616.016 -1476)"/></svg>