<svg xmlns="http://www.w3.org/2000/svg" width="20.015" height="20.015" viewBox="0 0 20.015 20.015"><defs><style>.a{fill:#1fcb5d;}</style></defs><path class="a" d="M5.224,3A2.216,2.216,0,0,0,3,5.224V20.791a2.224,2.224,0,0,0,2.224,2.224H20.791a2.224,2.224,0,0,0,2.224-2.224V13.007H20.791v7.783H5.224V5.224h7.783V3ZM19.436,4.112a.751.751,0,0,0-.53.217L17.542,5.684l2.78,2.78,1.364-1.355a.74.74,0,0,0,0-1.047L19.953,4.329A.709.709,0,0,0,19.436,4.112ZM16.758,6.47l-8.2,8.2v2.78h2.78l8.2-8.2Z" transform="translate(-3 -3)"/></svg>