<svg xmlns="http://www.w3.org/2000/svg" width="152.285" height="144.093" viewBox="0 0 152.285 144.093"><defs><style>.a{opacity:0.08;}</style></defs><g class="a" transform="translate(-300.856 -72.79)"><g transform="translate(342.507 210.375)"><path d="M337.6,175.913a3.254,3.254,0,1,1-3.254-3.254A3.255,3.255,0,0,1,337.6,175.913Z" transform="translate(-331.089 -172.659)"/><path d="M352.713,175.913a3.254,3.254,0,1,1-3.254-3.254A3.254,3.254,0,0,1,352.713,175.913Z" transform="translate(-325.38 -172.659)"/><path d="M367.829,175.913a3.253,3.253,0,1,1-3.254-3.254A3.254,3.254,0,0,1,367.829,175.913Z" transform="translate(-319.671 -172.659)"/><path d="M382.946,175.913a3.254,3.254,0,1,1-3.254-3.254A3.255,3.255,0,0,1,382.946,175.913Z" transform="translate(-313.963 -172.659)"/></g><g transform="translate(321.681 190.72)"><path d="M322.48,161.646a3.254,3.254,0,1,1-3.254-3.254A3.254,3.254,0,0,1,322.48,161.646Z" transform="translate(-315.972 -158.392)"/><path d="M337.6,161.646a3.254,3.254,0,1,1-3.254-3.254A3.255,3.255,0,0,1,337.6,161.646Z" transform="translate(-310.263 -158.392)"/><path d="M352.713,161.646a3.254,3.254,0,1,1-3.254-3.254A3.254,3.254,0,0,1,352.713,161.646Z" transform="translate(-304.554 -158.392)"/><path d="M367.829,161.646a3.253,3.253,0,1,1-3.254-3.254A3.254,3.254,0,0,1,367.829,161.646Z" transform="translate(-298.845 -158.392)"/><path d="M382.946,161.646a3.254,3.254,0,1,1-3.254-3.254A3.255,3.255,0,0,1,382.946,161.646Z" transform="translate(-293.137 -158.392)"/><path d="M398.062,161.646a3.254,3.254,0,1,1-3.254-3.254A3.254,3.254,0,0,1,398.062,161.646Z" transform="translate(-287.428 -158.392)"/></g><g transform="translate(321.681 171.065)"><path d="M322.48,147.379a3.254,3.254,0,1,1-3.254-3.254A3.254,3.254,0,0,1,322.48,147.379Z" transform="translate(-315.972 -144.125)"/><path d="M337.6,147.379a3.254,3.254,0,1,1-3.254-3.254A3.255,3.255,0,0,1,337.6,147.379Z" transform="translate(-310.263 -144.125)"/><path d="M352.713,147.379a3.254,3.254,0,1,1-3.254-3.254A3.254,3.254,0,0,1,352.713,147.379Z" transform="translate(-304.554 -144.125)"/><path d="M367.829,147.379a3.253,3.253,0,1,1-3.254-3.254A3.254,3.254,0,0,1,367.829,147.379Z" transform="translate(-298.845 -144.125)"/><path d="M382.946,147.379a3.254,3.254,0,1,1-3.254-3.254A3.255,3.255,0,0,1,382.946,147.379Z" transform="translate(-293.137 -144.125)"/><path d="M398.062,147.379a3.254,3.254,0,1,1-3.254-3.254A3.254,3.254,0,0,1,398.062,147.379Z" transform="translate(-287.428 -144.125)"/></g><g transform="translate(300.856 151.41)"><path d="M307.364,133.112a3.254,3.254,0,1,1-3.254-3.254A3.255,3.255,0,0,1,307.364,133.112Z" transform="translate(-300.856 -129.858)"/><path d="M322.48,133.112a3.254,3.254,0,1,1-3.254-3.254A3.254,3.254,0,0,1,322.48,133.112Z" transform="translate(-295.147 -129.858)"/><path d="M337.6,133.112a3.254,3.254,0,1,1-3.254-3.254A3.255,3.255,0,0,1,337.6,133.112Z" transform="translate(-289.438 -129.858)"/><path d="M352.713,133.112a3.254,3.254,0,1,1-3.254-3.254A3.254,3.254,0,0,1,352.713,133.112Z" transform="translate(-283.73 -129.858)"/><path d="M367.829,133.112a3.253,3.253,0,1,1-3.254-3.254A3.254,3.254,0,0,1,367.829,133.112Z" transform="translate(-278.021 -129.858)"/><path d="M382.946,133.112a3.254,3.254,0,1,1-3.254-3.254A3.255,3.255,0,0,1,382.946,133.112Z" transform="translate(-272.312 -129.858)"/><path d="M398.062,133.112a3.254,3.254,0,1,1-3.254-3.254A3.254,3.254,0,0,1,398.062,133.112Z" transform="translate(-266.603 -129.858)"/><path d="M413.179,133.112a3.254,3.254,0,1,1-3.254-3.254A3.255,3.255,0,0,1,413.179,133.112Z" transform="translate(-260.894 -129.858)"/></g><g transform="translate(300.856 131.755)"><path d="M307.364,118.845a3.254,3.254,0,1,1-3.254-3.254A3.255,3.255,0,0,1,307.364,118.845Z" transform="translate(-300.856 -115.591)"/><path d="M322.48,118.845a3.254,3.254,0,1,1-3.254-3.254A3.254,3.254,0,0,1,322.48,118.845Z" transform="translate(-295.147 -115.591)"/><path d="M337.6,118.845a3.254,3.254,0,1,1-3.254-3.254A3.255,3.255,0,0,1,337.6,118.845Z" transform="translate(-289.438 -115.591)"/><path d="M352.713,118.845a3.254,3.254,0,1,1-3.254-3.254A3.254,3.254,0,0,1,352.713,118.845Z" transform="translate(-283.73 -115.591)"/><path d="M367.829,118.845a3.253,3.253,0,1,1-3.254-3.254A3.254,3.254,0,0,1,367.829,118.845Z" transform="translate(-278.021 -115.591)"/><path d="M382.946,118.845a3.254,3.254,0,1,1-3.254-3.254A3.255,3.255,0,0,1,382.946,118.845Z" transform="translate(-272.312 -115.591)"/><path d="M398.062,118.845a3.254,3.254,0,1,1-3.254-3.254A3.254,3.254,0,0,1,398.062,118.845Z" transform="translate(-266.603 -115.591)"/><path d="M413.179,118.845a3.254,3.254,0,1,1-3.254-3.254A3.255,3.255,0,0,1,413.179,118.845Z" transform="translate(-260.894 -115.591)"/></g><g transform="translate(321.681 112.1)"><path d="M322.48,104.578a3.254,3.254,0,1,1-3.254-3.254A3.253,3.253,0,0,1,322.48,104.578Z" transform="translate(-315.972 -101.324)"/><path d="M337.6,104.578a3.254,3.254,0,1,1-3.254-3.254A3.254,3.254,0,0,1,337.6,104.578Z" transform="translate(-310.263 -101.324)"/><path d="M352.713,104.578a3.254,3.254,0,1,1-3.254-3.254A3.253,3.253,0,0,1,352.713,104.578Z" transform="translate(-304.554 -101.324)"/><path d="M367.829,104.578a3.253,3.253,0,1,1-3.254-3.254A3.253,3.253,0,0,1,367.829,104.578Z" transform="translate(-298.845 -101.324)"/><path d="M382.946,104.578a3.254,3.254,0,1,1-3.254-3.254A3.254,3.254,0,0,1,382.946,104.578Z" transform="translate(-293.137 -101.324)"/><path d="M398.062,104.578a3.254,3.254,0,1,1-3.254-3.254A3.253,3.253,0,0,1,398.062,104.578Z" transform="translate(-287.428 -101.324)"/></g><g transform="translate(321.681 92.445)"><path d="M322.48,90.311a3.254,3.254,0,1,1-3.254-3.254A3.253,3.253,0,0,1,322.48,90.311Z" transform="translate(-315.972 -87.057)"/><path d="M337.6,90.311a3.254,3.254,0,1,1-3.254-3.254A3.254,3.254,0,0,1,337.6,90.311Z" transform="translate(-310.263 -87.057)"/><path d="M352.713,90.311a3.254,3.254,0,1,1-3.254-3.254A3.253,3.253,0,0,1,352.713,90.311Z" transform="translate(-304.554 -87.057)"/><path d="M367.829,90.311a3.253,3.253,0,1,1-3.254-3.254A3.253,3.253,0,0,1,367.829,90.311Z" transform="translate(-298.845 -87.057)"/><path d="M382.946,90.311a3.254,3.254,0,1,1-3.254-3.254A3.254,3.254,0,0,1,382.946,90.311Z" transform="translate(-293.137 -87.057)"/><path d="M398.062,90.311a3.254,3.254,0,1,1-3.254-3.254A3.253,3.253,0,0,1,398.062,90.311Z" transform="translate(-287.428 -87.057)"/></g><g transform="translate(342.507 72.79)"><path d="M337.6,76.043a3.254,3.254,0,1,1-3.254-3.253A3.255,3.255,0,0,1,337.6,76.043Z" transform="translate(-331.089 -72.79)"/><path d="M352.713,76.043a3.254,3.254,0,1,1-3.254-3.253A3.254,3.254,0,0,1,352.713,76.043Z" transform="translate(-325.38 -72.79)"/><path d="M367.829,76.043a3.253,3.253,0,1,1-3.254-3.253A3.254,3.254,0,0,1,367.829,76.043Z" transform="translate(-319.671 -72.79)"/><path d="M382.946,76.043a3.254,3.254,0,1,1-3.254-3.253A3.255,3.255,0,0,1,382.946,76.043Z" transform="translate(-313.963 -72.79)"/></g></g></svg>