<svg id="Group_874" data-name="Group 874" xmlns="http://www.w3.org/2000/svg" width="36.35" height="36.35" viewBox="0 0 36.35 36.35">
  <path id="Path_1601" data-name="Path 1601" d="M311.35,415.5v1.136a8.256,8.256,0,0,1-2.464,4.217c-.243.258-.463.537-.7.805a1.975,1.975,0,0,0-.467,1.163c-.089,1.036-.142,2.077-.285,3.106a4.789,4.789,0,0,1-3.919,4.306,12.653,12.653,0,0,1-2.6.285,3.98,3.98,0,0,0-2.968,1.25,7.834,7.834,0,0,1-4.206,2.474h-1.136a8.191,8.191,0,0,1-4.189-2.44c-.268-.25-.555-.479-.832-.718a1.982,1.982,0,0,0-1.163-.469c-1.036-.088-2.077-.141-3.106-.285a4.788,4.788,0,0,1-4.307-3.916,12.217,12.217,0,0,1-.284-2.567,4.04,4.04,0,0,0-1.274-3.031A7.767,7.767,0,0,1,275,416.633V415.5a8.253,8.253,0,0,1,2.465-4.217c.242-.259.462-.539.694-.807a1.98,1.98,0,0,0,.469-1.163c.089-1.036.142-2.077.285-3.106a4.786,4.786,0,0,1,3.919-4.3,12.119,12.119,0,0,1,2.6-.287,4.007,4.007,0,0,0,2.995-1.274,7.794,7.794,0,0,1,4.179-2.45h1.136a8.15,8.15,0,0,1,4.163,2.416c.277.258.574.493.859.742a1.961,1.961,0,0,0,1.162.468c1.036.089,2.077.143,3.106.286a4.805,4.805,0,0,1,4.34,4.091,12.507,12.507,0,0,1,.254,2.428,3.955,3.955,0,0,0,1.247,2.97A7.836,7.836,0,0,1,311.35,415.5Zm-18.194-4.006v-4.482a8.971,8.971,0,0,0-9.014,9.056h4.323a1.011,1.011,0,0,0,.132-.017A4.66,4.66,0,0,1,293.156,411.491Zm.033,13.643a9.012,9.012,0,0,0,9.031-9.046h-4.49a4.6,4.6,0,0,1-4.541,4.537Z" transform="translate(-275 -397.89)" fill="#98a2c5"/>
</svg>
