<svg xmlns="http://www.w3.org/2000/svg" width="99.789" height="24.367" viewBox="0 0 99.789 24.367"><defs><style>.a{fill:#253b80;}.b{fill:#179bd7;}.c{fill:#222d65;}</style></defs><g transform="translate(0)"><path class="a" d="M44.179,6.749H38.657A.767.767,0,0,0,37.9,7.4l-2.233,14.16a.46.46,0,0,0,.455.531h2.636a.767.767,0,0,0,.758-.648l.6-3.819a.767.767,0,0,1,.757-.648h1.748c3.638,0,5.737-1.76,6.285-5.248a4.253,4.253,0,0,0-.7-3.565,5.123,5.123,0,0,0-4.025-1.41Zm.637,5.172C44.514,13.9,43,13.9,41.537,13.9H40.7l.585-3.7a.46.46,0,0,1,.455-.388h.382c1,0,1.938,0,2.424.568A1.84,1.84,0,0,1,44.816,11.921Zm15.87-.064H58.042a.46.46,0,0,0-.455.388l-.117.74-.185-.268a3.764,3.764,0,0,0-3.123-1.109,6.081,6.081,0,0,0-5.9,5.318,4.991,4.991,0,0,0,.985,4.062,4.138,4.138,0,0,0,3.331,1.345,5.06,5.06,0,0,0,3.66-1.514l-.118.735a.46.46,0,0,0,.454.533h2.382a.767.767,0,0,0,.758-.648l1.429-9.051a.459.459,0,0,0-.453-.531ZM57,17a2.947,2.947,0,0,1-2.984,2.525,2.048,2.048,0,0,1-2.191-2.571,2.96,2.96,0,0,1,2.963-2.545,2.231,2.231,0,0,1,1.763.72A2.289,2.289,0,0,1,57,17ZM74.77,11.857H72.112a.77.77,0,0,0-.635.337l-3.665,5.4L66.258,12.4a.77.77,0,0,0-.736-.547H62.911a.46.46,0,0,0-.437.609l2.927,8.59L62.649,24.94a.46.46,0,0,0,.375.727h2.654a.766.766,0,0,0,.631-.329L75.147,12.58a.46.46,0,0,0-.378-.723Z" transform="translate(-6.866 -1.3)"/><path class="b" d="M92.96,6.749H87.437a.767.767,0,0,0-.757.648l-2.233,14.16a.459.459,0,0,0,.454.531h2.834a.537.537,0,0,0,.53-.454L88.9,17.62a.767.767,0,0,1,.757-.648H91.4c3.638,0,5.737-1.76,6.286-5.248a4.25,4.25,0,0,0-.7-3.565,5.118,5.118,0,0,0-4.024-1.41Zm.637,5.172c-.3,1.981-1.815,1.981-3.28,1.981h-.832l.585-3.7a.459.459,0,0,1,.454-.388h.382c1,0,1.938,0,2.424.568A1.84,1.84,0,0,1,93.6,11.921Zm15.869-.064h-2.643a.458.458,0,0,0-.454.388l-.117.74-.186-.268a3.762,3.762,0,0,0-3.122-1.109,6.08,6.08,0,0,0-5.9,5.318,4.994,4.994,0,0,0,.984,4.062,4.14,4.14,0,0,0,3.331,1.345,5.06,5.06,0,0,0,3.66-1.514l-.118.735a.46.46,0,0,0,.455.533h2.381a.767.767,0,0,0,.757-.648l1.43-9.051a.461.461,0,0,0-.456-.531ZM105.78,17a2.946,2.946,0,0,1-2.984,2.525,2.048,2.048,0,0,1-2.191-2.571,2.961,2.961,0,0,1,2.963-2.545,2.231,2.231,0,0,1,1.763.72A2.277,2.277,0,0,1,105.78,17Zm6.8-9.866-2.267,14.419a.459.459,0,0,0,.454.531h2.279a.766.766,0,0,0,.758-.648L116.043,7.28a.46.46,0,0,0-.454-.532h-2.552A.461.461,0,0,0,112.584,7.137Z" transform="translate(-16.259 -1.299)"/><path class="a" d="M6.071,23.737l.422-2.682-.941-.022H1.061L4.183,1.24a.255.255,0,0,1,.254-.216H12.01c2.514,0,4.25.523,5.156,1.556a3.547,3.547,0,0,1,.826,1.548A5.588,5.588,0,0,1,18,6.263l-.01.062v.546l.425.241a2.979,2.979,0,0,1,.86.656,3.053,3.053,0,0,1,.7,1.565,6.619,6.619,0,0,1-.1,2.271,8,8,0,0,1-.93,2.57,5.286,5.286,0,0,1-1.474,1.615,5.978,5.978,0,0,1-1.985.9,9.9,9.9,0,0,1-2.48.287h-.589a1.773,1.773,0,0,0-1.753,1.5l-.044.241-.746,4.728-.034.174a.149.149,0,0,1-.047.1.125.125,0,0,1-.078.028Z" transform="translate(-0.204 -0.197)"/><path class="b" d="M19.8,7.667q-.034.217-.078.444c-1,5.128-4.416,6.9-8.78,6.9H8.722a1.079,1.079,0,0,0-1.067.914L6.518,23.14,6.2,25.185a.568.568,0,0,0,.561.657H10.7a.948.948,0,0,0,.937-.8l.039-.2.742-4.709.048-.258a.948.948,0,0,1,.937-.8h.589c3.818,0,6.808-1.55,7.681-6.036.365-1.874.176-3.439-.79-4.539A3.768,3.768,0,0,0,19.8,7.667Z" transform="translate(-1.192 -1.476)"/><path class="c" d="M19.107,7.065a7.878,7.878,0,0,0-.971-.216,12.341,12.341,0,0,0-1.959-.143H10.24a.946.946,0,0,0-.936.8l-1.263,8-.036.233a1.079,1.079,0,0,1,1.067-.914h2.222c4.364,0,7.781-1.772,8.78-6.9.03-.152.055-.3.078-.444a5.324,5.324,0,0,0-.821-.346q-.111-.037-.224-.07Z" transform="translate(-1.541 -1.291)"/><path class="a" d="M7.763,6.217a.944.944,0,0,1,.936-.8h5.936a12.341,12.341,0,0,1,1.959.143,7.878,7.878,0,0,1,1.2.285,5.4,5.4,0,0,1,.821.346,4.843,4.843,0,0,0-1.027-4.354C16.454.551,14.415,0,11.806,0H4.233a1.082,1.082,0,0,0-1.07.915l-3.155,20a.651.651,0,0,0,.642.753H5.326L6.5,14.215l1.263-8Z" transform="translate(0 0)"/></g></svg>