<svg id="Group_853" data-name="Group 853" xmlns="http://www.w3.org/2000/svg" width="34.986" height="30.15" viewBox="0 0 34.986 30.15">
  <path id="Path_1558" data-name="Path 1558" d="M219.959,492.21V479.69c1.01,0,2.023-.038,3.029.025.266.017.558.306.761.538,1.445,1.655,2.835,3.358,4.324,4.972a2.4,2.4,0,0,0,1.556.728q7.909.079,15.819,0a2.257,2.257,0,0,0,1.462-.683c1.365-1.479,2.681-3.008,3.933-4.584a2.251,2.251,0,0,1,2.215-1.017,15.671,15.671,0,0,0,1.888.014V492.21Z" transform="translate(-219.959 -462.06)" fill="#1fcb5d"/>
  <path id="Path_1559" data-name="Path 1559" d="M276.377,409.615l-9.132,11.5-9.1-11.46h5.582v-9.979h6.952v9.944Z" transform="translate(-249.749 -399.671)" fill="#ffa155"/>
</svg>
