<svg id="Group_875" data-name="Group 875" xmlns="http://www.w3.org/2000/svg" width="43.765" height="38.291" viewBox="0 0 43.765 38.291">
  <path id="Path_1602" data-name="Path 1602" d="M285.667,356.918h7.607a1.643,1.643,0,0,1,1.031,1.808c-.046.709-.008,1.423-.01,2.135a1.377,1.377,0,0,1-1.54,1.521q-3.1,0-6.194,0h-.442v12.3a2.7,2.7,0,0,0,2.712-2.694c.014-1.552,0-3.1,0-4.656V366.5h1.189c1.951,0,3.908-.1,5.85.035a10.213,10.213,0,0,1,8.937,7.285c.183.624.291,1.271.433,1.907V392.9c-.711,1.86-1.344,2.3-3.344,2.3q-11.255,0-22.51,0H264.352a2.726,2.726,0,0,1-2.794-2.109,1.769,1.769,0,0,0-.081-.2V375.723a2.373,2.373,0,0,0,.08-.285,10.189,10.189,0,0,1,6.8-8.374,6.432,6.432,0,0,1,2.96-.539,10.3,10.3,0,0,1,9.314,10.388q-.015,6.858-.012,13.717v.455a1.392,1.392,0,0,0,1.385-1.445c-.022-4.116,0-8.233-.013-12.349a13.857,13.857,0,0,0-3.036-8.743c-.557-.71-1.208-1.348-1.845-2.051h6.251v-.464c0-2.108,0-4.216,0-6.324a2.709,2.709,0,0,1,2.107-2.71A1.592,1.592,0,0,0,285.667,356.918Z" transform="translate(-261.477 -356.918)" fill="#98a2c5"/>
</svg>
