<svg xmlns="http://www.w3.org/2000/svg" width="252.173" height="91.67" viewBox="0 0 252.173 91.67"><defs><style>.a{fill:#0088ce;}</style></defs><path class="a" d="M24.282,19.373C23.885,12.16,34.5,6.918,42.567,7.027c4.3.054,7.568,1.569,7.075,4.442-.325,1.911-2.314,4.069-5.007,4.893-.805.252-1.094.6-1.094,1.274,0,1.04,3.084,3.005,5.59,3.005,5.722,0,10.735-3.847,10.735-9.389C59.86,4.682,51.649,0,42.6,0,28.568,0,13.745,9.761,13.745,20.437c0,16.427,26.76,15.285,26.76,27.223,0,8.181-8.848,14.516-18.3,14.516C14.761,62.175,9.5,59.4,9.5,54.626c0-3.252,4-6.011,7.021-6.011,1.7,0,2.921.956,2.921,2.476,0,1.929-2.044,1.713-2.044,3.456,0,1.443,2.242,2.975,5.41,2.975,5.41,0,8.415-3.528,8.415-7.6,0-4.508-4.851-9.383-13.284-9.353S1.081,46.728.1,53.892c-1.262,9.287,9.136,15.832,21.537,15.832,13.825,0,30.312-8.415,30.589-20.881C52.593,31.412,24.961,31.659,24.282,19.373Z" transform="translate(0.003)"/><path class="a" d="M118.058,36.833a1.887,1.887,0,0,0,1.725-.956,46.239,46.239,0,0,1,5.836-8.668,1.334,1.334,0,0,0,.06-1.761c-1.515-1.587-3.234-2.789-5.211-2.789-3.643,0-7.868,5.482-7.868,9.485C112.6,35.241,115.173,36.449,118.058,36.833Z" transform="translate(-44.917 -9.04)"/><path class="a" d="M188.748,56.174a14.179,14.179,0,0,0-12.581,7.213c.818-5.043-2.062-8.457-5.5-8.457a8.662,8.662,0,0,0-3.156.715,1.076,1.076,0,0,0-.475,1.533,11.818,11.818,0,0,1,1.166,5.608c0,5.344-4.857,11.757-5.41,17.9-.439,4.965,2.819,6.413,7,6.209a1.2,1.2,0,0,0,1.2-1.13c.487-9.557,6.738-22.841,13.284-22.841.781,0,1.154.6,1.154,1.334.012,3.787-6.305,9.761-6.305,16.56,0,4.941,2.1,5.939,5.776,6.179.655.042,2.26-.5,2.338-1.148,1.2-10.1,7.916-17.672,7.916-23.508A6.462,6.462,0,0,0,188.748,56.174Z" transform="translate(-64.925 -21.913)"/><path class="a" d="M265.491,15.8c-.108-3.745-2.927-6.4-6.612-5.957a1.569,1.569,0,0,0-1.2,1.461c-.739,12.274-11.378,30.943-13.891,42.25-2.4-11.18-3.005-24.945-3.372-36.96-.18-5.764-2.891-7.844-6.011-7.844S231.056,9.8,230.3,12.423c-.343,1.2-2.482,9.407-5.71,18-2.783,7.369-5.668,15.568-9.275,23.412s-4.28,10.627-3.973,12.232.415,2.513,4.147,2.513,5.127-2.765,6.876-7.309c1.893-4.9,8.962-26.724,11.114-31.106,1.875,27.986,3.005,39.226,14.792,38.283a1.334,1.334,0,0,0,1.2-1.328C249.581,47.916,265.912,29.132,265.491,15.8Z" transform="translate(-84.283 -3.491)"/><path class="a" d="M124.18,87.792c2.338-5.205,4.58-11.036,6.87-17.3a1.443,1.443,0,0,0-.6-1.719,9.3,9.3,0,0,0-3.606-1.034,1.985,1.985,0,0,0-2.182,1.322c-1.449,3.516-5.043,11.3-8.048,11.3-1.713,0-2.512-1.581-2.512-3.685,0-5.41,6.846-15.862,10.633-15.862a2,2,0,0,1,2.242,2.248c0,1.2-.487,2.476.944,2.476,2.555,0,4.55-2.579,4.55-5.446,0-3.606-4.033-7.045-8.054-7.045-9.7,0-18,13.4-18,22.24v.547c-1.076,2.14-2.747,4.147-4.256,4.147-1.3,0-2.4-1-2.4-2.921,0-4.592,4.1-14.288,6.726-18.97a1.953,1.953,0,0,0-.084-1.99,11.42,11.42,0,0,0-6.738-3.8,1.881,1.881,0,0,0-1.8.793c-3.312,5.41-6.984,17.047-6.984,22.955s3.174,9.924,7.646,9.924c3.709,0,6.774-2.242,8.848-5.476,1.334,3.39,4,5.494,7.267,5.494A4.123,4.123,0,0,0,117.8,84.57c-.4,1.028-.854,2.182-1.364,3.42a49.348,49.348,0,0,0-15.989,3.769C93.032,95.011,88.29,99.6,88.29,104.039c0,5.332,3.991,8.487,10.218,8.487,10.254,0,17.329-7.814,23.514-20.16,7.555.355,15.213,4.123,19,8.932a.944.944,0,0,0,.7.295,4.2,4.2,0,0,0,4.021-4.466C145.723,91,131.94,88.243,124.18,87.792ZM109,101.178a13.188,13.188,0,0,1-9.894,4.755c-2.014,0-3.877-1.154-3.564-2.843,1.052-5.644,9.245-9.233,18.76-10.363a39.353,39.353,0,0,1-5.32,8.445Z" transform="translate(-35.219 -20.856)"/><path class="a" d="M364.179,56.306c-4.983,1.7-12.893,1.3-17.551-.6-.6-.24-.787,0-.6.547a14.782,14.782,0,0,1,.745,4.809c0,6.131-7.261,21.344-12.022,21.344-.661,0-1.166-.805-1.166-1.6,0-2.116,3.005-7.177,5.049-10.218a1.527,1.527,0,0,0-.054-1.8,6.011,6.011,0,0,0-3.871-1.755c-1.515,0-2.807.331-3.09,1.881-.619,3.336-5.806,12.587-8.686,12.587-1.16,0-1.551-.914-1.551-2.17,0-4.971,7.7-15.321,13.584-19.547a1.04,1.04,0,0,0,.264-1.533,8.423,8.423,0,0,0-5.332-2.855c-2.026,0-4.7,2.116-7.213,5.241a54.832,54.832,0,0,1-9.413,7.543,19.763,19.763,0,0,0,1.539-6.84c0-3.883-2.074-6.221-5.878-6.221a10.068,10.068,0,0,0-7.88,4.063,8.914,8.914,0,0,0-4.809-1.25c-3.961,0-12.905,10.038-12.905,18.116,0,6.389,3.51,10.982,9.485,10.982,7.093,0,13.825-6.612,17.912-13.68a29.794,29.794,0,0,0,6.251-3.1,24.3,24.3,0,0,0-2.074,8.914,7.553,7.553,0,0,0,7.724,7.562,6.8,6.8,0,0,0,6.179-4.027c0,2.687,2.747,4.334,6.275,4.334,9.539,0,18.339-13.981,18.339-24.289,4.544,1.2,10.994-2.362,11.745-5.7C365.333,56.4,364.756,56.1,364.179,56.306ZM293.745,80.433c-1.3,0-2.284-.932-2.284-2.621,0-5.187,4.208-9.281,7.393-12.322v.493c0,4.105,1.761,6.684,4.316,7.718C300.206,77.284,296.618,80.433,293.745,80.433Zm12.364-10.765A2.714,2.714,0,0,1,304,67.113c0-2.2,2.47-4.556,3.9-4.556.721,0,.95.469.95,1.172,0,1.058-1.07,3.336-2.735,5.939Z" transform="translate(-113.029 -21.985)"/></svg>