<svg id="admin" xmlns="http://www.w3.org/2000/svg" width="13.747" height="13.169" viewBox="0 0 13.747 13.169">
  <path id="Path_9160" data-name="Path 9160" d="M0,61.723c0-.037.012-.086.012-.123A5.9,5.9,0,0,1,.32,60.074a4.515,4.515,0,0,1,.935-1.588,2.827,2.827,0,0,1,.972-.677c.738-.32,1.477-.64,2.228-.972.037-.012.062-.025.1-.037.025.074.037.148.062.222.135.554.271,1.12.455,1.661a16.993,16.993,0,0,0,.9,2.265c.222.443.455.886.714,1.3a1.3,1.3,0,0,0,.123.148.105.105,0,0,0,.16,0,.79.79,0,0,0,.123-.16c.2-.332.394-.665.566-1a17.158,17.158,0,0,0,1-2.412c.209-.64.382-1.28.529-1.932a.045.045,0,0,1,.012-.037c.012-.049.037-.062.086-.037.788.308,1.563.652,2.326,1.009a2.919,2.919,0,0,1,.9.64,3.8,3.8,0,0,1,.726,1.083,5.789,5.789,0,0,1,.455,1.489c.025.185.049.369.062.566v.258a.277.277,0,0,1-.185.185c-.012,0-.025.012-.037.012a8.387,8.387,0,0,1-1.723.5c-.32.062-.652.111-.985.16s-.652.086-.972.111l-.923.074c-.345.025-.689.037-1.034.049a.812.812,0,0,0-.172.012H6.166c-.332-.012-.665-.012-1-.025-.357-.012-.714-.037-1.071-.062-.283-.025-.566-.049-.849-.086s-.6-.086-.9-.135a6.887,6.887,0,0,1-1.108-.258C.9,62.3.566,62.191.222,62.08c-.111-.037-.2-.086-.222-.2Z" transform="translate(0 -49.809)" fill="#fff"/>
  <path id="Path_9161" data-name="Path 9161" d="M31.624,5.969a.687.687,0,0,0,.074.283c.037.086.062.16.1.246a.142.142,0,0,1-.062.172c-.012.012-.025.025-.037.025-.135.074-.271.16-.406.234a.167.167,0,0,1-.246-.049,1.809,1.809,0,0,1-.123-.16.994.994,0,0,0-.2-.2.371.371,0,0,0-.258-.062.544.544,0,0,0-.2.074.178.178,0,0,0-.086.123c-.025.172-.062.332-.086.5-.012.1-.062.135-.16.135h-.529c-.086,0-.123-.037-.148-.123l-.074-.406c-.012-.037-.012-.074-.025-.111a.2.2,0,0,0-.062-.111.4.4,0,0,0-.48-.037,2.363,2.363,0,0,0-.185.172,2.5,2.5,0,0,0-.16.222c-.074.086-.1.1-.2.037-.16-.086-.32-.185-.48-.283a.122.122,0,0,1-.062-.16c.037-.111.086-.234.123-.345.025-.062.037-.111.062-.172a.171.171,0,0,0,0-.111.453.453,0,0,0-.308-.271.384.384,0,0,0-.258.037c-.086.037-.172.074-.246.111a.111.111,0,0,1-.062.012.158.158,0,0,1-.185-.062c-.025,0-.049-.012-.049-.037l-.222-.369a.186.186,0,0,1,.049-.271l.222-.185a.415.415,0,0,0,.185-.246.351.351,0,0,0,0-.16,1.083,1.083,0,0,0-.062-.185.166.166,0,0,0-.148-.1c-.172-.025-.345-.062-.517-.086A.13.13,0,0,1,26,3.914V3.372a.118.118,0,0,1,.111-.135c.172-.025.357-.062.529-.086.037-.012.086-.025.1-.049a.42.42,0,0,0,.086-.394.38.38,0,0,0-.135-.2c-.074-.062-.16-.123-.246-.2-.123-.1-.135-.16-.062-.308.062-.123.135-.246.209-.369s.123-.123.246-.086.246.086.369.123l.148.037a.146.146,0,0,0,.135-.049c.074-.074.135-.148.2-.222a.146.146,0,0,0,.012-.123c-.062-.16-.111-.32-.172-.48,0-.012-.012-.025-.012-.037A.183.183,0,0,1,27.6.615c.086-.049.185-.1.283-.16a1.027,1.027,0,0,0,.148-.1.166.166,0,0,1,.246.037c.1.123.2.246.3.357a.183.183,0,0,0,.16.074.359.359,0,0,0,.418-.209A1.025,1.025,0,0,0,29.2.431c.012-.1.025-.185.037-.283A.163.163,0,0,1,29.409,0h.517a.13.13,0,0,1,.148.123c.012.086.025.16.037.246A3.148,3.148,0,0,0,30.172.7c0,.025.037.049.062.062a1.3,1.3,0,0,0,.234.074.813.813,0,0,0,.172.012.112.112,0,0,0,.086-.037c.111-.135.234-.271.345-.406a.13.13,0,0,1,.2-.037c.16.086.32.185.468.271A.126.126,0,0,1,31.8.812c-.062.172-.123.332-.185.5a.135.135,0,0,0,0,.1.452.452,0,0,0,.3.283.443.443,0,0,0,.283-.025,1.744,1.744,0,0,0,.222-.1c.025-.012.049-.012.074-.025a.178.178,0,0,1,.222.074,2.168,2.168,0,0,1,.172.283c.025.049.049.086.074.135a.185.185,0,0,1-.037.222c-.074.074-.16.135-.234.209-.049.049-.1.086-.148.135a.234.234,0,0,0-.062.234,1.794,1.794,0,0,0,.086.234.178.178,0,0,0,.123.086c.172.037.345.062.517.086.1.012.135.062.135.16v.542c0,.111-.025.135-.135.148s-.246.025-.369.049a.4.4,0,0,0-.308.209.671.671,0,0,0-.062.271.152.152,0,0,0,.049.1c.135.123.283.234.418.357a.127.127,0,0,1,.037.185c-.086.16-.185.308-.271.468a.122.122,0,0,1-.185.062c-.172-.062-.345-.123-.5-.185a.21.21,0,0,0-.123,0,.664.664,0,0,0-.2.172A.332.332,0,0,0,31.624,5.969Zm-3.68-2.314A1.723,1.723,0,1,0,29.68,1.932,1.731,1.731,0,0,0,27.945,3.655Z" transform="translate(-22.8 0)" fill="#fff"/>
  <path id="Path_9162" data-name="Path 9162" d="M50.991,81.477c-.049-.086-.086-.172-.135-.258-.148-.3-.308-.6-.468-.9a.384.384,0,0,1-.037-.258c.049-.246.111-.492.16-.726a.153.153,0,0,1,.172-.135h.628a.153.153,0,0,1,.172.135c.025.086.037.185.062.271l.111.48a.348.348,0,0,1-.025.222c-.185.357-.382.714-.566,1.071C51.04,81.415,51.016,81.44,50.991,81.477Z" transform="translate(-44.148 -69.453)" fill="#fff"/>
  <path id="Path_9163" data-name="Path 9163" d="M51.02,68.512h.529c.1,0,.135.049.123.148-.049.258-.1.529-.16.788-.012.1-.062.123-.16.123h-.689c-.1,0-.135-.037-.148-.123-.049-.271-.1-.529-.16-.8-.025-.1.025-.148.123-.148.185.012.357.012.542.012Z" transform="translate(-44.152 -60.069)" fill="#fff"/>
</svg>
