<svg xmlns="http://www.w3.org/2000/svg" width="17.5" height="17.5" viewBox="0 0 17.5 17.5">
  <g id="Group_8837" data-name="Group 8837" transform="translate(-839 -1271)">
    <path id="Path_9156" data-name="Path 9156" d="M839,1306.932c.416,0,.832.008,1.247,0a.84.84,0,0,1,.846.478c.386-.06.773-.118,1.159-.182a3.179,3.179,0,0,1,2.464.546c.408.291.825.569,1.222.874a3.372,3.372,0,0,1,.568.558.609.609,0,0,1,.063.705.489.489,0,0,1-.492.3,3.443,3.443,0,0,1-.811-.173c-.462-.175-.908-.391-1.359-.594a.268.268,0,0,1-.154-.365.278.278,0,0,1,.39-.126c.449.195.894.4,1.345.585a2.286,2.286,0,0,0,.475.131c.133.023.176-.045.1-.155a1.274,1.274,0,0,0-.277-.3c-.528-.386-1.058-.772-1.6-1.139a1.967,1.967,0,0,0-1.2-.347c-.611.029-1.218.125-1.828.192v1.673a1.9,1.9,0,0,1,1.86.378c.445.265.868.564,1.3.846a3.11,3.11,0,0,0,2.36.432c1.115-.219,2.22-.491,3.326-.752a2.55,2.55,0,0,0,.567-.229c.075-.038.12-.137.178-.208a.806.806,0,0,0-.257-.085c-.483.018-.966.049-1.45.077-.631.037-1.262.077-1.892.114a.286.286,0,0,1-.323-.258.273.273,0,0,1,.29-.287c.711-.045,1.421-.086,2.131-.128.375-.022.75-.048,1.126-.064a1.567,1.567,0,0,1,.389.026.612.612,0,0,1,.515.463.6.6,0,0,1-.227.67,2.41,2.41,0,0,1-.766.392c-1.175.292-2.358.55-3.538.818-.11.025-.223.036-.334.053h-.752a.73.73,0,0,0-.114-.029,2.925,2.925,0,0,1-1.212-.375c-.416-.246-.815-.519-1.229-.769-.33-.2-.668-.387-1.009-.568a.92.92,0,0,0-.9.061.171.171,0,0,0-.071.085.8.8,0,0,1-.9.633l-1.229,0Z" transform="translate(0 -23.354)" fill="#fff"/>
    <path id="Path_9157" data-name="Path 9157" d="M866.143,1275.922c-.416,0-.832-.008-1.247,0a.843.843,0,0,1-.847-.479c-.386.061-.773.117-1.159.182a3.173,3.173,0,0,1-2.449-.537c-.423-.3-.847-.6-1.267-.9a1.891,1.891,0,0,1-.61-.656.6.6,0,0,1,.588-.892,5.422,5.422,0,0,1,1.028.289c.356.133.7.309,1.042.469a.275.275,0,1,1-.224.5c-.448-.195-.894-.4-1.345-.586a2.991,2.991,0,0,0-.475-.131.135.135,0,0,0-.118.034.139.139,0,0,0,.021.124,1.416,1.416,0,0,0,.251.276c.542.4,1.079.8,1.642,1.166a2.4,2.4,0,0,0,1.625.333c.462-.056.92-.14,1.384-.213v-1.637c-.1.031-.191.067-.287.089a1.193,1.193,0,0,1-.817-.091c-.391-.195-.773-.409-1.149-.632-.4-.238-.781-.512-1.185-.743a2.846,2.846,0,0,0-1.786-.322,25.929,25.929,0,0,0-3.76.831,2.13,2.13,0,0,0-.479.216c-.059.033-.089.12-.132.183.07.028.14.084.209.081.5-.02,1-.049,1.5-.078.625-.036,1.25-.076,1.876-.112a.287.287,0,0,1,.337.26.277.277,0,0,1-.295.285c-.722.045-1.444.086-2.165.128-.387.023-.773.054-1.16.062a1.219,1.219,0,0,1-.466-.072.619.619,0,0,1-.256-.966,1.242,1.242,0,0,1,.69-.449c.706-.2,1.414-.39,2.128-.553.626-.142,1.261-.24,1.892-.359a.18.18,0,0,0,.045-.022h.752l.114.031a4.684,4.684,0,0,1,.932.251c.5.25.967.57,1.452.855.352.207.706.412,1.066.605a.913.913,0,0,0,.9-.062.185.185,0,0,0,.076-.1.8.8,0,0,1,.849-.616l1.28-.005Z" transform="translate(-9.643)" fill="#fff"/>
    <path id="Path_9158" data-name="Path 9158" d="M855.49,1290.488c0,.169,0,.379,0,.589a.53.53,0,0,1-.524.573,5.811,5.811,0,0,1-.649,0,.518.518,0,0,1-.509-.533c0-.182-.006-.364,0-.547,0-.086-.029-.121-.117-.154q-.541-.2-1.071-.435a.136.136,0,0,0-.188.034c-.124.134-.252.263-.381.392a.5.5,0,0,1-.707.053,4.143,4.143,0,0,1-.536-.524.494.494,0,0,1,.04-.707c.129-.136.265-.266.39-.407a.163.163,0,0,0,.03-.142c-.176-.392-.36-.78-.554-1.194h-.6a.527.527,0,0,1-.562-.516,5.812,5.812,0,0,1-.005-.649.52.52,0,0,1,.544-.515c.176,0,.353-.008.53,0,.095,0,.129-.032.163-.126.128-.351.267-.7.42-1.04a.163.163,0,0,0-.04-.229c-.132-.117-.256-.243-.38-.369a.494.494,0,0,1-.052-.694,4.125,4.125,0,0,1,.523-.537.5.5,0,0,1,.72.041c.131.127.257.259.394.378a.178.178,0,0,0,.155.029c.388-.173.771-.355,1.188-.549v-.592a.529.529,0,0,1,.525-.571,5.925,5.925,0,0,1,.649,0,.518.518,0,0,1,.507.534c0,.182.008.364.006.546,0,.086.029.121.116.153.356.132.709.272,1.055.427a.154.154,0,0,0,.216-.04c.119-.13.244-.255.369-.38a.5.5,0,0,1,.706-.052,4.232,4.232,0,0,1,.526.511.5.5,0,0,1-.03.721c-.13.136-.266.266-.391.406a.164.164,0,0,0-.029.142c.176.392.36.781.554,1.2h.6a.527.527,0,0,1,.562.516,5.812,5.812,0,0,1,0,.649.52.52,0,0,1-.544.516c-.176,0-.353.008-.53,0-.094,0-.129.032-.163.126-.128.351-.267.7-.42,1.04-.047.1-.041.157.04.229.128.113.247.236.368.357a.5.5,0,0,1,.055.72,4.254,4.254,0,0,1-.513.524.5.5,0,0,1-.721-.04c-.131-.127-.257-.259-.393-.379a.179.179,0,0,0-.155-.031C856.291,1290.111,855.908,1290.293,855.49,1290.488Zm-2.926-3.885a2.035,2.035,0,1,0,2.031-2.054A2.046,2.046,0,0,0,852.564,1286.6Z" transform="translate(-6.849 -6.849)" fill="#fff"/>
    <path id="Path_9159" data-name="Path 9159" d="M859.747,1293.211a1.489,1.489,0,1,1,1.494,1.5A1.5,1.5,0,0,1,859.747,1293.211Z" transform="translate(-13.486 -13.46)" fill="#fff"/>
  </g>
</svg>
