<svg viewBox="0 0 24 24" id="redesign--sign" xmlns="http://www.w3.org/2000/svg"><path fill-rule="evenodd" d="M13.768 5.49l-.707-.707a1 1 0 0 1 0-1.415l2.121-2.121a1 1 0 0 1 1.414 0l5.657 5.657a1 1 0 0 1 0 1.414l-2.121 2.121a1 1 0 0 1-1.415 0l-.707-.707-1.414 1.414v3.495a1 1 0 0 1-.718.96L4.575 18.924 7.9 7.622a1 1 0 0 1 .96-.718h3.494l1.414-1.414zM9.84 12.715a2.001 2.001 0 1 1 1.44 1.105L9.502 15.6l5.294-1.558v-2.896a1.8 1.8 0 0 1 .527-1.272l.849-.849-1.697-1.697-.849.849a1.8 1.8 0 0 1-1.272.527H9.458l-1.831 6.225 2.214-2.214zm1.523-.579a.4.4 0 1 0 .565-.565.4.4 0 0 0-.565.565zm3.535-8.06L19.425 8.6l.99-.99-4.526-4.526-.99.99zm1.407 15.394c.345-.275.619-.5.836-.688-1.148.198-3.1.752-5.794 1.62l-.825.269c-.746.243-3.425 1.132-3.968 1.31-1.333.433-2.07.652-2.448.71-.967.15-1.697-.431-1.217-1.39.219-.438.754-1.02 1.641-1.82a.7.7 0 1 1 .938 1.039c-.204.184-.387.355-.546.51.326-.1.725-.227 1.198-.381.539-.175 3.217-1.064 3.967-1.31l.83-.269c3.625-1.168 5.874-1.77 6.987-1.77 1.196 0 1.606.894.931 1.76-.3.386-.756.786-1.657 1.505l-.112.088c-.312.249-.544.434-.724.58 1.268-.263 3.471-.897 6.433-1.896a.7.7 0 1 1 .448 1.326c-5.005 1.69-7.664 2.346-8.575 1.989-.522-.205-.67-.736-.455-1.198.098-.21.263-.408.505-.645.313-.303.547-.496 1.497-1.251l.11-.088z"></path></svg>