<svg xmlns="http://www.w3.org/2000/svg" width="21.092" height="20.293" viewBox="0 0 21.092 20.293"><defs><style>.a{fill:#333;}</style></defs><g transform="translate(-283.045 -374)"><path class="a" d="M286.139,387.918c0-1.5,0-3.005,0-4.508a.261.261,0,0,0-.175-.283,5.029,5.029,0,0,1-.137-9.062.435.435,0,0,1,.668.4c.006.684,0,1.369,0,2.053a.371.371,0,0,0,.1.279q.691.744,1.371,1.5c.085.094.128.1.218,0q.678-.755,1.372-1.5a.371.371,0,0,0,.1-.279c0-.669,0-1.339,0-2.008,0-.437.323-.638.705-.427a5.034,5.034,0,0,1-.169,9.038.265.265,0,0,0-.18.28q.008,4.464,0,8.927a1.94,1.94,0,0,1-3.811.533,2.068,2.068,0,0,1-.073-.573Q286.14,390.105,286.139,387.918Z"/><path class="a" d="M313.009,392.943a.983.983,0,0,1-.14.411c-.085.2-.164.4-.267.588a.51.51,0,0,0-.02.5.45.45,0,0,0,.284.278c.274.092.543.2.814.3a.445.445,0,0,1,.318.458q0,.949,0,1.9a.454.454,0,0,1-.332.471c-.286.1-.571.213-.855.322a.537.537,0,0,0-.29.734c.114.25.23.5.344.749a.447.447,0,0,1-.1.587q-.652.657-1.31,1.31a.452.452,0,0,1-.6.105,6.264,6.264,0,0,1-.727-.338.617.617,0,0,0-.644.025.252.252,0,0,0-.133.166c-.109.292-.222.583-.329.876a.454.454,0,0,1-.473.329q-.949-.007-1.9,0a.441.441,0,0,1-.456-.319c-.118-.313-.236-.625-.358-.937a.531.531,0,0,0-.626-.252c-.284.128-.568.259-.853.384a.45.45,0,0,1-.549-.1c-.434-.439-.874-.873-1.308-1.311a.462.462,0,0,1-.111-.641c.126-.278.258-.552.385-.829a.541.541,0,0,0-.276-.654l-.813-.306a.477.477,0,0,1-.367-.518c0-.618,0-1.235,0-1.853a.475.475,0,0,1,.337-.475c.284-.108.571-.212.856-.318a.53.53,0,0,0,.3-.711c-.121-.263-.236-.529-.359-.791a.459.459,0,0,1,.1-.568l1.326-1.326a.458.458,0,0,1,.568-.1c.3.14.594.273.892.406a.547.547,0,0,0,.644-.265c.108-.284.216-.569.317-.857a.467.467,0,0,1,.49-.34c.61,0,1.22,0,1.83,0a.468.468,0,0,1,.522.359c.114.3.221.6.335.9a.563.563,0,0,0,.628.261c.272-.12.54-.247.813-.366a.447.447,0,0,1,.62.11c.438.435.874.872,1.312,1.308A.441.441,0,0,1,313.009,392.943ZM305,396.388a2.663,2.663,0,1,0,2.66-2.665A2.659,2.659,0,0,0,305,396.388Z" transform="translate(-9.861 -8.654)"/></g></svg>