<svg xmlns="http://www.w3.org/2000/svg" width="16.638" height="12.479" viewBox="0 0 16.638 12.479"><defs><style>.a{fill:#1fcb5d;}</style></defs><path class="a" d="M1.387,3H15.252a1.441,1.441,0,0,1,1.387,1.387v9.706a1.441,1.441,0,0,1-1.387,1.387H1.387A1.441,1.441,0,0,1,0,14.092V4.387A1.441,1.441,0,0,1,1.387,3ZM9.706,5.08v.693h5.546V5.08Zm0,1.387V7.16h5.546V6.466Zm0,1.387v.693h4.853V7.853Zm-4.16,2.708c-1.387,0-4.16.758-4.16,2.145V13.4H9.706v-.693C9.706,11.319,6.933,10.561,5.546,10.561Zm0-5.481a2.08,2.08,0,1,0,2.08,2.08A2.08,2.08,0,0,0,5.546,5.08Z" transform="translate(0 -3)"/></svg>