<svg xmlns="http://www.w3.org/2000/svg" width="23" height="23.851" viewBox="0 0 23 23.851"><defs><style>.a{fill:#333;}</style></defs><g transform="translate(-3 -2.001)"><path class="a" d="M12.37,19.889a7.66,7.66,0,0,1,4.274-6.868,3.771,3.771,0,0,0,.728-1.61c.3-.023.775-.3.915-1.393A1,1,0,0,0,17.884,9a4.508,4.508,0,0,0,.45-1.886c0-2.068-.812-3.833-2.556-3.833A2.71,2.71,0,0,0,13.222,2C9.609,2,8.111,4.319,8.111,7.112A5.077,5.077,0,0,0,8.561,9a1,1,0,0,0-.4,1.021c.14,1.093.613,1.37.915,1.393a4.449,4.449,0,0,0,1.595,2.515v1.7C9.815,18.185,3,16.482,3,22.445h9.816A7.629,7.629,0,0,1,12.37,19.889Z" transform="translate(0 0)"/><path class="a" d="M21.963,16a5.963,5.963,0,1,0,5.963,5.963A5.963,5.963,0,0,0,21.963,16Zm2.556,6.815h-1.7v1.7a.852.852,0,0,1-1.7,0v-1.7h-1.7a.852.852,0,0,1,0-1.7h1.7v-1.7a.852.852,0,0,1,1.7,0v1.7h1.7a.852.852,0,1,1,0,1.7Z" transform="translate(-1.926 -2.074)"/></g></svg>