<svg xmlns="http://www.w3.org/2000/svg" width="12.74" height="16.176" viewBox="0 0 12.74 16.176">
  <path id="Subtraction_3" data-name="Subtraction 3" d="M-2715.853-5280.825h-9.562a1.6,1.6,0,0,1-1.585-1.618l.008-12.94a1.6,1.6,0,0,1,1.584-1.618h6.37l4.778,4.853v9.705A1.607,1.607,0,0,1-2715.853-5280.825Zm-7.631-8.993a.9.9,0,0,0-.889.9.9.9,0,0,0,.889.9h1.777v1.805a.9.9,0,0,0,.889.9.9.9,0,0,0,.889-.9v-1.805h1.777a.9.9,0,0,0,.889-.9.9.9,0,0,0-.889-.9h-1.777v-1.806a.9.9,0,0,0-.889-.9.9.9,0,0,0-.889.9v1.806Z" transform="translate(2727 5297)" fill="#fff"/>
</svg>
