<svg xmlns="http://www.w3.org/2000/svg" width="14.024" height="16.027" viewBox="0 0 14.024 16.027"><defs><style>.a{fill:#486EB8;}</style></defs><path class="a" d="M13.648,5.008a.377.377,0,0,0,.376-.376V3.381a.377.377,0,0,0-.376-.376h-.626V1.5a1.5,1.5,0,0,0-1.5-1.5H1.5A1.5,1.5,0,0,0,0,1.5V14.525a1.5,1.5,0,0,0,1.5,1.5H11.519a1.5,1.5,0,0,0,1.5-1.5v-1.5h.626a.377.377,0,0,0,.376-.376V11.394a.377.377,0,0,0-.376-.376h-.626v-2h.626a.377.377,0,0,0,.376-.376V7.387a.377.377,0,0,0-.376-.376h-.626v-2Zm-7.137-1a2,2,0,1,1-2,2A2.005,2.005,0,0,1,6.511,4.007Zm3.506,7.413a.656.656,0,0,1-.7.6H3.706a.656.656,0,0,1-.7-.6v-.6a1.971,1.971,0,0,1,2.1-1.8h.157a3.224,3.224,0,0,0,2.492,0h.157a1.971,1.971,0,0,1,2.1,1.8Z"/></svg>