<svg xmlns="http://www.w3.org/2000/svg" width="16.355" height="16.351" viewBox="0 0 16.355 16.351"><defs><style>.a{fill:#486EB8;}</style></defs><g transform="translate(-281.375 -371.265)"><path class="a" d="M284.825,372.632c.066.039.119.067.168.1.373.247.742.5,1.121.739a.344.344,0,0,0,.269.024q.616-.236,1.219-.506a.326.326,0,0,0,.157-.2q.152-.663.274-1.332c.026-.14.08-.191.221-.191q1.3.006,2.608,0c.132,0,.183.05.208.183.081.446.183.887.265,1.333a.263.263,0,0,0,.193.221c.4.156.792.32,1.181.494a.262.262,0,0,0,.293-.022c.369-.253.746-.5,1.113-.752a.21.21,0,0,1,.322.03q.9.915,1.816,1.814a.191.191,0,0,1,.031.291c-.25.363-.486.736-.738,1.1a.319.319,0,0,0-.032.363c.175.382.319.777.49,1.161a.347.347,0,0,0,.209.171c.448.1.9.195,1.352.278a.168.168,0,0,1,.164.2q0,1.3,0,2.607c0,.136-.038.2-.184.226q-.669.119-1.331.275a.372.372,0,0,0-.215.19c-.173.383-.321.777-.491,1.161a.281.281,0,0,0,.019.312c.25.363.483.738.74,1.1.106.148.08.235-.04.354q-.894.879-1.773,1.773a.219.219,0,0,1-.338.037c-.36-.254-.733-.49-1.1-.739a.281.281,0,0,0-.311-.029c-.383.173-.772.332-1.164.485a.281.281,0,0,0-.206.235c-.082.446-.186.887-.267,1.333-.025.14-.089.173-.214.172q-1.314,0-2.628,0a.16.16,0,0,1-.186-.156c-.085-.458-.177-.916-.281-1.371a.324.324,0,0,0-.161-.2c-.4-.175-.8-.327-1.2-.5a.28.28,0,0,0-.31.029c-.37.252-.747.494-1.114.749a.2.2,0,0,1-.307-.035q-.893-.908-1.8-1.8a.217.217,0,0,1-.03-.338c.254-.36.491-.732.74-1.1a.276.276,0,0,0,.022-.31c-.174-.382-.334-.771-.486-1.163a.275.275,0,0,0-.235-.2c-.439-.08-.875-.182-1.314-.261-.141-.026-.192-.081-.192-.221q.007-1.293,0-2.587c0-.133.033-.2.182-.229.446-.08.89-.172,1.332-.275a.346.346,0,0,0,.21-.168c.175-.389.325-.789.5-1.179a.28.28,0,0,0-.019-.311c-.252-.37-.495-.746-.748-1.115a.2.2,0,0,1,.023-.309c.615-.605,1.222-1.217,1.833-1.826A1.473,1.473,0,0,1,284.825,372.632Zm9.843,6.822a5.119,5.119,0,1,0-4.916,5.1A5.133,5.133,0,0,0,294.668,379.453Z" transform="translate(0 0)"/><path class="a" d="M297.18,391.46a4.395,4.395,0,1,1,4.4-4.43A4.418,4.418,0,0,1,297.18,391.46Zm-1.929-3.432c.474,0,.474,0,.641.451.009.025.02.049.03.074.1.235.268.328.467.251a.354.354,0,0,0,.193-.495c-.329-.909-.663-1.816-.991-2.725a.36.36,0,0,0-.347-.28.366.366,0,0,0-.357.3c-.082.247-.172.491-.258.736q-.346.981-.69,1.962a.363.363,0,0,0,.255.527c.189.037.335-.079.425-.335C294.78,388.028,294.78,388.028,295.251,388.028Zm2.548-.605c.155,0,.268,0,.381,0a1.061,1.061,0,0,0,1.06-.974,1.03,1.03,0,0,0-.906-1.13,5.239,5.239,0,0,0-.921-.011.334.334,0,0,0-.316.354c0,.936-.007,1.871,0,2.807a.439.439,0,0,0,.163.3.336.336,0,0,0,.531-.3C297.807,388.128,297.8,387.788,297.8,387.423Zm2.668-.354h0c0-.461,0-.922,0-1.382a.355.355,0,1,0-.708-.007q-.009,1.392,0,2.784a.357.357,0,0,0,.391.364.375.375,0,0,0,.32-.417C300.471,387.964,300.468,387.517,300.468,387.069Z" transform="translate(-7.627 -7.625)"/><path class="a" d="M300.014,395.549h-.425l.183-.532.043-.011Z" transform="translate(-12.176 -15.871)"/><path class="a" d="M307.923,393.37c0-.2,0-.394,0-.584a.126.126,0,0,1,.037-.086.53.53,0,0,1,.694.263.338.338,0,0,1-.288.4C308.23,393.381,308.09,393.37,307.923,393.37Z" transform="translate(-17.747 -14.293)"/></g></svg>
