<svg xmlns="http://www.w3.org/2000/svg" width="16.151" height="17.084" viewBox="0 0 16.151 17.084"><defs><style>.a{fill:#486EB8;}</style></defs><g transform="translate(0)"><path class="a" d="M269.872,395.381c0,.505,0,.992,0,1.478a.774.774,0,0,0,.862.859H275.5a.773.773,0,0,0,.853-.851q0-.731,0-1.462a.429.429,0,0,1,.014-.062h2.686c.287,0,.371.083.371.366,0,1.141,0,2.283,0,3.424,0,.161-.031.224-.209.241a3.712,3.712,0,0,0-1.335,6.923.186.186,0,0,1,.1.19q-.005,1.256,0,2.512a3.889,3.889,0,0,0,.024.652,4.673,4.673,0,0,0,.2.631c-.037,0-.084.012-.132.012H267.1c-.275,0-.356-.084-.356-.361q0-7.106,0-14.213c0-.258.084-.346.334-.347h2.633C269.757,395.374,269.8,395.378,269.872,395.381Zm3.448,11.283h1.944c.178,0,.356,0,.533,0a.255.255,0,0,0,.268-.256.269.269,0,0,0-.254-.274,1.566,1.566,0,0,0-.172,0h-4.593a2,2,0,0,0-.223,0,.234.234,0,0,0-.228.252.253.253,0,0,0,.215.27.744.744,0,0,0,.171.007Zm.165-5.77h2.478a.937.937,0,0,0,.171-.007.263.263,0,0,0,0-.517.707.707,0,0,0-.154-.005H270.94a.57.57,0,0,0-.137.006.249.249,0,0,0-.209.257.24.24,0,0,0,.207.256.924.924,0,0,0,.188.01Zm-.405,7.156h0c-.728,0-1.457,0-2.185,0a.265.265,0,0,0-.3.277c0,.156.116.255.3.259.166,0,.333,0,.5,0h3.871a.3.3,0,0,0,.316-.274c.006-.149-.124-.263-.318-.263C274.536,408.049,273.807,408.051,273.079,408.051Zm-.406-5.235h1.754c.23,0,.347-.086.351-.258s-.116-.269-.341-.269H270.93c-.206,0-.332.1-.336.262s.113.264.326.264C271.5,402.817,272.089,402.815,272.673,402.816Zm.029,1.923c.584,0,1.169,0,1.754,0,.21,0,.324-.1.321-.27s-.113-.257-.317-.257q-1.762,0-3.524,0c-.219,0-.343.1-.341.274s.119.255.337.255Zm-3.872,3.847v0c.068,0,.137,0,.205,0a.246.246,0,0,0,.267-.249.251.251,0,0,0-.237-.282,3.377,3.377,0,0,0-.5,0,.265.265,0,0,0,0,.529A2.093,2.093,0,0,0,268.83,408.586Zm0-8.249v0c-.08,0-.16,0-.24,0a.263.263,0,0,0-.264.276.257.257,0,0,0,.266.257c.153.008.308.007.462,0a.238.238,0,0,0,.251-.247.26.26,0,0,0-.236-.285A1.969,1.969,0,0,0,268.828,400.337Zm0,6.326h0c.068,0,.137,0,.206,0a.242.242,0,0,0,.27-.245.252.252,0,0,0-.252-.285,4.318,4.318,0,0,0-.479,0,.235.235,0,0,0-.246.251.258.258,0,0,0,.245.277C268.654,406.67,268.741,406.663,268.826,406.663Zm0-1.925h0c.074,0,.149,0,.224,0a.234.234,0,0,0,.254-.243.248.248,0,0,0-.239-.28,4.4,4.4,0,0,0-.5,0,.247.247,0,0,0-.242.261.256.256,0,0,0,.243.261C268.653,404.744,268.739,404.738,268.825,404.738Zm-.008-2.448h0c-.074,0-.149,0-.223,0a.255.255,0,0,0-.269.268.251.251,0,0,0,.264.256c.154.006.309.005.463,0a.244.244,0,0,0,.251-.249.254.254,0,0,0-.246-.274C268.978,402.285,268.9,402.29,268.817,402.29Z" transform="translate(-266.745 -393.478)"/><path class="a" d="M283.291,391.94h-2.375c-.28,0-.369-.091-.37-.371q0-.791,0-1.582c0-.255.083-.335.342-.336.2,0,.4,0,.6,0,.1,0,.147-.02.172-.133a1.678,1.678,0,0,1,1.64-1.31,1.657,1.657,0,0,1,1.62,1.307c.024.106.065.14.171.137.212-.007.424,0,.637,0s.31.089.311.3q.006.843,0,1.686c0,.218-.1.3-.325.3Q284.5,391.941,283.291,391.94Zm1.106-2.324a1.119,1.119,0,0,0-1.15-.9,1.093,1.093,0,0,0-1.047.9Z" transform="translate(-276.939 -388.208)"/><path class="a" d="M310.442,415.922a3.2,3.2,0,1,1-3.226-3.2A3.215,3.215,0,0,1,310.442,415.922Zm-.5,0a2.715,2.715,0,0,0-2.7-2.724,2.7,2.7,0,1,0,2.7,2.724Z" transform="translate(-294.291 -406.316)"/><path class="a" d="M311.81,438.49a3.881,3.881,0,0,0,2.333,0c0,.181,0,.34,0,.5,0,.773.014,1.547-.006,2.32a1.162,1.162,0,0,1-1.673,1.008,1.1,1.1,0,0,1-.663-.991c-.019-.922-.006-1.844-.005-2.766A.361.361,0,0,1,311.81,438.49Z" transform="translate(-300.02 -425.348)"/></g></svg>
