<svg xmlns="http://www.w3.org/2000/svg" width="23" height="27.542" viewBox="0 0 23 27.542"><defs><style>.a{fill:#333;}</style></defs><g transform="translate(-234 -865)"><g transform="translate(234 865)"><path class="a" d="M13.82,22.657a8.845,8.845,0,0,1,4.935-7.93,4.354,4.354,0,0,0,.841-1.859c.348-.027.9-.346,1.056-1.608a1.151,1.151,0,0,0-.466-1.178A5.206,5.206,0,0,0,20.706,7.9c0-2.388-.937-4.427-2.951-4.427A3.13,3.13,0,0,0,14.8,2C10.631,2,8.9,4.678,8.9,7.9a5.863,5.863,0,0,0,.519,2.178,1.152,1.152,0,0,0-.466,1.178c.161,1.262.708,1.582,1.056,1.608a5.137,5.137,0,0,0,1.841,2.9v1.967C10.869,20.69,3,18.723,3,25.608H14.335A8.81,8.81,0,0,1,13.82,22.657Z" transform="translate(-3 -2.001)"/></g><path class="a" d="M13.232,5.616h-.659V4.3a3.3,3.3,0,1,0-6.594,0V5.616H5.319A1.323,1.323,0,0,0,4,6.935v6.594a1.323,1.323,0,0,0,1.319,1.319h7.913a1.323,1.323,0,0,0,1.319-1.319V6.935A1.323,1.323,0,0,0,13.232,5.616ZM9.276,11.551a1.319,1.319,0,1,1,1.319-1.319A1.323,1.323,0,0,1,9.276,11.551ZM11.32,5.616H7.231V4.3a2.044,2.044,0,0,1,4.089,0Z" transform="translate(242.449 877.694)"/></g></svg>