<svg xmlns="http://www.w3.org/2000/svg" width="145" height="145" viewBox="0 0 145 145"><defs><style>.a{fill:#eff2f9;}.b{fill:#c6cee2;}</style></defs><g transform="translate(-137 -1623)"><circle class="a" cx="72.5" cy="72.5" r="72.5" transform="translate(137 1623)"/><path class="b" d="M20.12,22.635A11.317,11.317,0,1,0,8.8,11.317,11.32,11.32,0,0,0,20.12,22.635ZM30.18,25.15h-4.33a13.681,13.681,0,0,1-11.459,0H10.06A10.059,10.059,0,0,0,0,35.21v1.257A3.773,3.773,0,0,0,3.772,40.24H36.467a3.773,3.773,0,0,0,3.772-3.772V35.21A10.059,10.059,0,0,0,30.18,25.15Z" transform="translate(188.743 1674.743)"/></g></svg>