<svg xmlns="http://www.w3.org/2000/svg" xmlns:xlink="http://www.w3.org/1999/xlink" width="1366" height="679" viewBox="0 0 1366 679">
  <defs>
    <clipPath id="clip-path">
      <rect id="Rectangle_590" data-name="Rectangle 590" width="1366" height="679" fill="#fff" stroke="#707070" stroke-width="1"/>
    </clipPath>
    <linearGradient id="linear-gradient" x1="0.5" x2="0.5" y2="1" gradientUnits="objectBoundingBox">
      <stop offset="0" stop-color="#4b77ce"/>
      <stop offset="1" stop-color="#416dc2" stop-opacity="0"/>
    </linearGradient>
  </defs>
  <g id="Mask_Group_3" data-name="Mask Group 3" clip-path="url(#clip-path)">
    <g id="Group_1354" data-name="Group 1354">
      <g id="Group_173" data-name="Group 173">
        <path id="Path_708" data-name="Path 708" d="M1833,804.347s273.78-159.879,684.162,0,681.837,0,681.837,0V945.969H1833Z" transform="translate(3199 1412.669) rotate(180)" fill="#486eb8" opacity="0.1"/>
        <path id="Path_707" data-name="Path 707" d="M1833,782.47s273.78-110.655,684.162,0,681.837,0,681.837,0v98.02H1833Z" transform="translate(3199 1361.779) rotate(180)" fill="#486eb8"/>
        <rect id="Rectangle_48" data-name="Rectangle 48" width="1366" height="512" fill="#486eb8"/>
        <path id="Path_709" data-name="Path 709" d="M1833,804.347s280.182-159.879,700.16,0,697.781,0,697.781,0v241.623H1833Z" transform="matrix(-0.998, 0.07, -0.07, -0.998, 3272.365, 1161.776)" fill="url(#linear-gradient)"/>
      </g>
      <g id="Group_169" data-name="Group 169" transform="translate(37.145 294.71)" opacity="0.29">
        <g id="Group_72" data-name="Group 72" transform="translate(342.507 210.375)">
          <path id="Path_367" data-name="Path 367" d="M337.6,175.913a3.254,3.254,0,1,1-3.254-3.254A3.255,3.255,0,0,1,337.6,175.913Z" transform="translate(-331.089 -172.659)" fill="#fff"/>
          <path id="Path_368" data-name="Path 368" d="M352.713,175.913a3.254,3.254,0,1,1-3.254-3.254A3.254,3.254,0,0,1,352.713,175.913Z" transform="translate(-325.38 -172.659)" fill="#fff"/>
          <path id="Path_369" data-name="Path 369" d="M367.829,175.913a3.253,3.253,0,1,1-3.254-3.254A3.254,3.254,0,0,1,367.829,175.913Z" transform="translate(-319.671 -172.659)" fill="#fff"/>
          <path id="Path_370" data-name="Path 370" d="M382.946,175.913a3.254,3.254,0,1,1-3.254-3.254A3.255,3.255,0,0,1,382.946,175.913Z" transform="translate(-313.963 -172.659)" fill="#fff"/>
        </g>
        <g id="Group_73" data-name="Group 73" transform="translate(321.681 190.72)">
          <path id="Path_371" data-name="Path 371" d="M322.48,161.646a3.254,3.254,0,1,1-3.254-3.254A3.254,3.254,0,0,1,322.48,161.646Z" transform="translate(-315.972 -158.392)" fill="#fff"/>
          <path id="Path_372" data-name="Path 372" d="M337.6,161.646a3.254,3.254,0,1,1-3.254-3.254A3.255,3.255,0,0,1,337.6,161.646Z" transform="translate(-310.263 -158.392)" fill="#fff"/>
          <path id="Path_373" data-name="Path 373" d="M352.713,161.646a3.254,3.254,0,1,1-3.254-3.254A3.254,3.254,0,0,1,352.713,161.646Z" transform="translate(-304.554 -158.392)" fill="#fff"/>
          <path id="Path_374" data-name="Path 374" d="M367.829,161.646a3.253,3.253,0,1,1-3.254-3.254A3.254,3.254,0,0,1,367.829,161.646Z" transform="translate(-298.845 -158.392)" fill="#fff"/>
          <path id="Path_375" data-name="Path 375" d="M382.946,161.646a3.254,3.254,0,1,1-3.254-3.254A3.255,3.255,0,0,1,382.946,161.646Z" transform="translate(-293.137 -158.392)" fill="#fff"/>
          <path id="Path_376" data-name="Path 376" d="M398.062,161.646a3.254,3.254,0,1,1-3.254-3.254A3.254,3.254,0,0,1,398.062,161.646Z" transform="translate(-287.428 -158.392)" fill="#fff"/>
        </g>
        <g id="Group_74" data-name="Group 74" transform="translate(321.681 171.065)">
          <path id="Path_377" data-name="Path 377" d="M322.48,147.379a3.254,3.254,0,1,1-3.254-3.254A3.254,3.254,0,0,1,322.48,147.379Z" transform="translate(-315.972 -144.125)" fill="#fff"/>
          <path id="Path_378" data-name="Path 378" d="M337.6,147.379a3.254,3.254,0,1,1-3.254-3.254A3.255,3.255,0,0,1,337.6,147.379Z" transform="translate(-310.263 -144.125)" fill="#fff"/>
          <path id="Path_379" data-name="Path 379" d="M352.713,147.379a3.254,3.254,0,1,1-3.254-3.254A3.254,3.254,0,0,1,352.713,147.379Z" transform="translate(-304.554 -144.125)" fill="#fff"/>
          <path id="Path_380" data-name="Path 380" d="M367.829,147.379a3.253,3.253,0,1,1-3.254-3.254A3.254,3.254,0,0,1,367.829,147.379Z" transform="translate(-298.845 -144.125)" fill="#fff"/>
          <path id="Path_381" data-name="Path 381" d="M382.946,147.379a3.254,3.254,0,1,1-3.254-3.254A3.255,3.255,0,0,1,382.946,147.379Z" transform="translate(-293.137 -144.125)" fill="#fff"/>
          <path id="Path_382" data-name="Path 382" d="M398.062,147.379a3.254,3.254,0,1,1-3.254-3.254A3.254,3.254,0,0,1,398.062,147.379Z" transform="translate(-287.428 -144.125)" fill="#fff"/>
        </g>
        <g id="Group_75" data-name="Group 75" transform="translate(300.856 151.41)">
          <path id="Path_383" data-name="Path 383" d="M307.364,133.112a3.254,3.254,0,1,1-3.254-3.254A3.255,3.255,0,0,1,307.364,133.112Z" transform="translate(-300.856 -129.858)" fill="#fff"/>
          <path id="Path_384" data-name="Path 384" d="M322.48,133.112a3.254,3.254,0,1,1-3.254-3.254A3.254,3.254,0,0,1,322.48,133.112Z" transform="translate(-295.147 -129.858)" fill="#fff"/>
          <path id="Path_385" data-name="Path 385" d="M337.6,133.112a3.254,3.254,0,1,1-3.254-3.254A3.255,3.255,0,0,1,337.6,133.112Z" transform="translate(-289.438 -129.858)" fill="#fff"/>
          <path id="Path_386" data-name="Path 386" d="M352.713,133.112a3.254,3.254,0,1,1-3.254-3.254A3.254,3.254,0,0,1,352.713,133.112Z" transform="translate(-283.73 -129.858)" fill="#fff"/>
          <path id="Path_387" data-name="Path 387" d="M367.829,133.112a3.253,3.253,0,1,1-3.254-3.254A3.254,3.254,0,0,1,367.829,133.112Z" transform="translate(-278.021 -129.858)" fill="#fff"/>
          <path id="Path_388" data-name="Path 388" d="M382.946,133.112a3.254,3.254,0,1,1-3.254-3.254A3.255,3.255,0,0,1,382.946,133.112Z" transform="translate(-272.312 -129.858)" fill="#fff"/>
          <path id="Path_389" data-name="Path 389" d="M398.062,133.112a3.254,3.254,0,1,1-3.254-3.254A3.254,3.254,0,0,1,398.062,133.112Z" transform="translate(-266.603 -129.858)" fill="#fff"/>
          <path id="Path_390" data-name="Path 390" d="M413.179,133.112a3.254,3.254,0,1,1-3.254-3.254A3.255,3.255,0,0,1,413.179,133.112Z" transform="translate(-260.894 -129.858)" fill="#fff"/>
        </g>
        <g id="Group_76" data-name="Group 76" transform="translate(300.856 131.755)">
          <path id="Path_391" data-name="Path 391" d="M307.364,118.845a3.254,3.254,0,1,1-3.254-3.254A3.255,3.255,0,0,1,307.364,118.845Z" transform="translate(-300.856 -115.591)" fill="#fff"/>
          <path id="Path_392" data-name="Path 392" d="M322.48,118.845a3.254,3.254,0,1,1-3.254-3.254A3.254,3.254,0,0,1,322.48,118.845Z" transform="translate(-295.147 -115.591)" fill="#fff"/>
          <path id="Path_393" data-name="Path 393" d="M337.6,118.845a3.254,3.254,0,1,1-3.254-3.254A3.255,3.255,0,0,1,337.6,118.845Z" transform="translate(-289.438 -115.591)" fill="#fff"/>
          <path id="Path_394" data-name="Path 394" d="M352.713,118.845a3.254,3.254,0,1,1-3.254-3.254A3.254,3.254,0,0,1,352.713,118.845Z" transform="translate(-283.73 -115.591)" fill="#fff"/>
          <path id="Path_395" data-name="Path 395" d="M367.829,118.845a3.253,3.253,0,1,1-3.254-3.254A3.254,3.254,0,0,1,367.829,118.845Z" transform="translate(-278.021 -115.591)" fill="#fff"/>
          <path id="Path_396" data-name="Path 396" d="M382.946,118.845a3.254,3.254,0,1,1-3.254-3.254A3.255,3.255,0,0,1,382.946,118.845Z" transform="translate(-272.312 -115.591)" fill="#fff"/>
          <path id="Path_397" data-name="Path 397" d="M398.062,118.845a3.254,3.254,0,1,1-3.254-3.254A3.254,3.254,0,0,1,398.062,118.845Z" transform="translate(-266.603 -115.591)" fill="#fff"/>
          <path id="Path_398" data-name="Path 398" d="M413.179,118.845a3.254,3.254,0,1,1-3.254-3.254A3.255,3.255,0,0,1,413.179,118.845Z" transform="translate(-260.894 -115.591)" fill="#fff"/>
        </g>
        <g id="Group_77" data-name="Group 77" transform="translate(321.681 112.1)">
          <path id="Path_399" data-name="Path 399" d="M322.48,104.578a3.254,3.254,0,1,1-3.254-3.254A3.253,3.253,0,0,1,322.48,104.578Z" transform="translate(-315.972 -101.324)" fill="#fff"/>
          <path id="Path_400" data-name="Path 400" d="M337.6,104.578a3.254,3.254,0,1,1-3.254-3.254A3.254,3.254,0,0,1,337.6,104.578Z" transform="translate(-310.263 -101.324)" fill="#fff"/>
          <path id="Path_401" data-name="Path 401" d="M352.713,104.578a3.254,3.254,0,1,1-3.254-3.254A3.253,3.253,0,0,1,352.713,104.578Z" transform="translate(-304.554 -101.324)" fill="#fff"/>
          <path id="Path_402" data-name="Path 402" d="M367.829,104.578a3.253,3.253,0,1,1-3.254-3.254A3.253,3.253,0,0,1,367.829,104.578Z" transform="translate(-298.845 -101.324)" fill="#fff"/>
          <path id="Path_403" data-name="Path 403" d="M382.946,104.578a3.254,3.254,0,1,1-3.254-3.254A3.254,3.254,0,0,1,382.946,104.578Z" transform="translate(-293.137 -101.324)" fill="#fff"/>
          <path id="Path_404" data-name="Path 404" d="M398.062,104.578a3.254,3.254,0,1,1-3.254-3.254A3.253,3.253,0,0,1,398.062,104.578Z" transform="translate(-287.428 -101.324)" fill="#fff"/>
        </g>
        <g id="Group_78" data-name="Group 78" transform="translate(321.681 92.445)">
          <path id="Path_405" data-name="Path 405" d="M322.48,90.311a3.254,3.254,0,1,1-3.254-3.254A3.253,3.253,0,0,1,322.48,90.311Z" transform="translate(-315.972 -87.057)" fill="#fff"/>
          <path id="Path_406" data-name="Path 406" d="M337.6,90.311a3.254,3.254,0,1,1-3.254-3.254A3.254,3.254,0,0,1,337.6,90.311Z" transform="translate(-310.263 -87.057)" fill="#fff"/>
          <path id="Path_407" data-name="Path 407" d="M352.713,90.311a3.254,3.254,0,1,1-3.254-3.254A3.253,3.253,0,0,1,352.713,90.311Z" transform="translate(-304.554 -87.057)" fill="#fff"/>
          <path id="Path_408" data-name="Path 408" d="M367.829,90.311a3.253,3.253,0,1,1-3.254-3.254A3.253,3.253,0,0,1,367.829,90.311Z" transform="translate(-298.845 -87.057)" fill="#fff"/>
          <path id="Path_409" data-name="Path 409" d="M382.946,90.311a3.254,3.254,0,1,1-3.254-3.254A3.254,3.254,0,0,1,382.946,90.311Z" transform="translate(-293.137 -87.057)" fill="#fff"/>
          <path id="Path_410" data-name="Path 410" d="M398.062,90.311a3.254,3.254,0,1,1-3.254-3.254A3.253,3.253,0,0,1,398.062,90.311Z" transform="translate(-287.428 -87.057)" fill="#fff"/>
        </g>
        <g id="Group_79" data-name="Group 79" transform="translate(342.507 72.79)">
          <path id="Path_411" data-name="Path 411" d="M337.6,76.043a3.254,3.254,0,1,1-3.254-3.253A3.255,3.255,0,0,1,337.6,76.043Z" transform="translate(-331.089 -72.79)" fill="#fff"/>
          <path id="Path_412" data-name="Path 412" d="M352.713,76.043a3.254,3.254,0,1,1-3.254-3.253A3.254,3.254,0,0,1,352.713,76.043Z" transform="translate(-325.38 -72.79)" fill="#fff"/>
          <path id="Path_413" data-name="Path 413" d="M367.829,76.043a3.253,3.253,0,1,1-3.254-3.253A3.254,3.254,0,0,1,367.829,76.043Z" transform="translate(-319.671 -72.79)" fill="#fff"/>
          <path id="Path_414" data-name="Path 414" d="M382.946,76.043a3.254,3.254,0,1,1-3.254-3.253A3.255,3.255,0,0,1,382.946,76.043Z" transform="translate(-313.963 -72.79)" fill="#fff"/>
        </g>
      </g>
      <g id="Group_100" data-name="Group 100" transform="translate(1508.833 667.595) rotate(180)" opacity="0.1">
        <path id="Path_453" data-name="Path 453" d="M271.976,574.595c0-70.779-51.53-126.656-129.143-126.656V348.6c127.9,0,226,101.2,226,225.994Z" transform="translate(0 0)" fill="#f9f9f9"/>
      </g>
    </g>
  </g>
</svg>
