<svg xmlns="http://www.w3.org/2000/svg" width="16.986" height="19.765" viewBox="0 0 16.986 19.765"><defs><style>.a{fill:#333;}</style></defs><g transform="translate(-292.564 -380)"><path class="a" d="M301.277,380a.777.777,0,0,0,.087.039,1.3,1.3,0,0,1,.813,1.929l-.054.1c.112.03.214.055.315.083a5.829,5.829,0,0,1,4.455,4.859,6.356,6.356,0,0,1,.069,1.134c.008,1.177.01,2.355,0,3.532a1.4,1.4,0,0,0,.876,1.408c.216.1.427.208.639.315a1.962,1.962,0,0,1-.679,3.7,4.222,4.222,0,0,1-.442.02q-6.388,0-12.775,0a1.965,1.965,0,0,1-1.1-3.623,8.811,8.811,0,0,1,.823-.421,1.366,1.366,0,0,0,.829-1.34c0-1.332-.041-2.665.014-3.994a5.735,5.735,0,0,1,3.39-5.188,12.873,12.873,0,0,1,1.417-.518c-.006-.014-.025-.058-.046-.1a1.3,1.3,0,0,1,.825-1.9.6.6,0,0,0,.086-.04Zm-4.184,7.689a1.863,1.863,0,0,0,0,.269.3.3,0,0,0,.3.277.309.309,0,0,0,.342-.222.706.706,0,0,0,.03-.208,3.258,3.258,0,0,1,2.526-3.093,7.593,7.593,0,0,1,.763-.093.339.339,0,1,0-.02-.678c-.038,0-.077,0-.115,0A3.963,3.963,0,0,0,297.093,387.689Zm4.616-6.38a.664.664,0,1,0-1.327.015.664.664,0,0,0,1.327-.015Z"/><path class="a" d="M304.854,410.791l-.312-.085a1.933,1.933,0,0,1-1.408-1.868h3.934a4.254,4.254,0,0,1-.12.6,1.923,1.923,0,0,1-1.526,1.317.658.658,0,0,0-.105.04Z" transform="translate(-4.04 -11.026)"/></g></svg>