<svg xmlns="http://www.w3.org/2000/svg" width="59.549" height="62.048" viewBox="0 0 59.549 62.048"><defs><style>.a{fill:#486EB8;}.b{fill:#C1484A;}</style></defs><g transform="translate(-264.919 -353.208)"><path class="a" d="M300.168,408.814c-1.519,0-3.038.006-4.557,0a2.491,2.491,0,0,1-2.689-2.254,14.41,14.41,0,0,0-3.715-7.431,15.27,15.27,0,1,1,25.9-13.722,14.569,14.569,0,0,1-3.633,13.306,15.614,15.614,0,0,0-4.079,7.98,2.436,2.436,0,0,1-2.611,2.12C303.247,408.822,301.707,408.814,300.168,408.814Zm-.438-31.339a11.091,11.091,0,0,0-10.124,7.92,13.861,13.861,0,0,0-.443,3.268,1.62,1.62,0,0,0,1.687,1.606,1.7,1.7,0,0,0,1.737-1.567c.03-.223.049-.448.066-.673a7.371,7.371,0,0,1,3.517-5.89,7.48,7.48,0,0,1,3.956-1.163,1.744,1.744,0,0,0,1.782-1.542,1.715,1.715,0,0,0-1.207-1.849A5.623,5.623,0,0,0,299.73,377.475Z" transform="translate(-5.485 -5.497)"/><path class="b" d="M303.329,425.553c1.663,0,3.325-.006,4.988,0a1.78,1.78,0,0,1,2.017,2c.006.575.015,1.151-.022,1.724a2.672,2.672,0,0,1-1.925,2.517.887.887,0,0,0-.636.71c-.658,2.43-.895,2.605-3.382,2.605-1.047,0-2.094.007-3.141,0a2.068,2.068,0,0,1-2.155-1.648c-.035-.118-.073-.235-.1-.355a1.658,1.658,0,0,0-1.183-1.485,2.347,2.347,0,0,1-1.526-2.139,17.483,17.483,0,0,1-.044-2.091,1.726,1.726,0,0,1,1.873-1.831C299.84,425.541,301.585,425.554,303.329,425.553Z" transform="translate(-8.59 -19.858)"/><path class="b" d="M338.741,391.9c.963,0,1.928-.01,2.891,0a1.7,1.7,0,1,1,.037,3.4c-1.989.027-3.979.03-5.967,0a1.68,1.68,0,0,1-1.719-1.776,1.7,1.7,0,0,1,1.805-1.624C336.772,391.9,337.757,391.9,338.741,391.9Z" transform="translate(-18.958 -10.621)"/><path class="b" d="M303.6,357.932c0-.963-.011-1.927,0-2.89a1.71,1.71,0,1,1,3.411,0q.02,2.889,0,5.779a1.71,1.71,0,1,1-3.411,0C303.594,359.858,303.6,358.895,303.6,357.932Z" transform="translate(-10.618)"/><path class="b" d="M269.634,391.894c.984,0,1.968-.009,2.953,0a1.689,1.689,0,0,1,1.778,1.647,1.658,1.658,0,0,1-1.685,1.743c-2.009.039-4.019.036-6.027,0a1.7,1.7,0,0,1-1.734-1.714,1.728,1.728,0,0,1,1.824-1.68C267.706,391.885,268.67,391.893,269.634,391.894Z" transform="translate(0 -10.618)"/><path class="b" d="M332.76,419.138a1.791,1.791,0,0,1-.967,1.713,1.484,1.484,0,0,1-1.781-.19c-1.551-1.492-3.08-3.009-4.567-4.566a1.624,1.624,0,0,1,.129-2.234,1.6,1.6,0,0,1,2.231-.123c1.555,1.488,3.067,3.023,4.563,4.569A2.488,2.488,0,0,1,332.76,419.138Z" transform="translate(-16.508 -16.506)"/><path class="b" d="M283.936,415.322a3.546,3.546,0,0,1-.53.957c-1.378,1.434-2.79,2.836-4.21,4.228a1.7,1.7,0,1,1-2.407-2.388q2.107-2.156,4.263-4.263a1.593,1.593,0,0,1,1.874-.337A1.756,1.756,0,0,1,283.936,415.322Z" transform="translate(-3.112 -16.51)"/><path class="b" d="M278.228,364.533a4.119,4.119,0,0,1,1,.583c1.4,1.349,2.774,2.734,4.138,4.122a1.7,1.7,0,1,1-2.4,2.4q-2.1-2.07-4.173-4.175a1.612,1.612,0,0,1-.369-1.92A1.782,1.782,0,0,1,278.228,364.533Z" transform="translate(-3.11 -3.109)"/><path class="b" d="M326.977,372.2a1.718,1.718,0,0,1-1.725-.954,1.507,1.507,0,0,1,.2-1.783c1.5-1.547,3.011-3.076,4.568-4.559a1.676,1.676,0,0,1,2.342,2.369c-1.487,1.555-3.02,3.067-4.566,4.562A2.264,2.264,0,0,1,326.977,372.2Z" transform="translate(-16.507 -3.103)"/></g></svg>