<svg id="box_logo_blue_simpleshape_vector" xmlns="http://www.w3.org/2000/svg" width="29.12" height="16.064" viewBox="0 0 29.12 16.064">
  <g id="Group_1460" data-name="Group 1460" transform="translate(0 0.001)">
    <path id="Path_4152" data-name="Path 4152" d="M135.122,74.816a3.484,3.484,0,1,0,3.484,3.484A3.488,3.488,0,0,0,135.122,74.816Zm0,6.876a3.392,3.392,0,1,1,3.392-3.392A3.392,3.392,0,0,1,135.122,81.692Z" transform="translate(-119.476 -67.905)" fill="#fff"/>
    <path id="Path_4153" data-name="Path 4153" d="M15.646,4.747a5.653,5.653,0,0,0-5,3A5.655,5.655,0,0,0,2.263,5.877V1.114h0A1.131,1.131,0,0,0,0,1.114H0V10.5H0A5.654,5.654,0,0,0,10.65,13.052a5.655,5.655,0,1,0,5-8.305Zm0,11.218a5.556,5.556,0,0,1-4.914-2.956l-.082-.153-.082.153A5.562,5.562,0,0,1,.095,10.494l0-.055V1.116A1.045,1.045,0,0,1,1.131.1,1.045,1.045,0,0,1,2.17,1.116V6.062l.148-.111a5.563,5.563,0,0,1,8.25,1.844l.082.153.082-.153a5.563,5.563,0,1,1,4.914,8.17Z" transform="translate(0 -0.006)" fill="#fff"/>
    <path id="Path_4154" data-name="Path 4154" d="M26.978,74.816A3.484,3.484,0,1,0,30.463,78.3,3.488,3.488,0,0,0,26.978,74.816Zm0,6.876A3.392,3.392,0,1,1,30.37,78.3,3.392,3.392,0,0,1,26.978,81.692Z" transform="translate(-21.323 -67.905)" fill="#fff"/>
    <path id="Path_4155" data-name="Path 4155" d="M226.147,60.812l-2.9-3.871,2.9-3.871h0a1.131,1.131,0,0,0-1.809-1.358h0l-2.5,3.341-2.5-3.341h0a1.131,1.131,0,0,0-1.808,1.358h0l2.9,3.871-2.9,3.871h0a1.131,1.131,0,0,0,1.808,1.358h0l2.5-3.341,2.5,3.341h0a1.131,1.131,0,0,0,1.809-1.358Zm-.3,1.492a1.039,1.039,0,0,1-1.441-.19l-.008-.01-2.49-3.329-.074-.1-.074.1-2.482,3.319-.016.021a1.039,1.039,0,0,1-1.661-1.247l.014-.019L220.5,57l.041-.055-.041-.055-2.877-3.846-.017-.024a1.045,1.045,0,0,1,.219-1.437,1.039,1.039,0,0,1,1.441.19l.013.017,2.485,3.322.074.1.074-.1,2.488-3.326.011-.014a1.039,1.039,0,0,1,1.661,1.247l-.014.02-2.881,3.85-.041.055.041.055,2.875,3.844.019.026A1.045,1.045,0,0,1,225.852,62.3Z" transform="translate(-197.239 -46.541)" fill="#fff"/>
  </g>
  <g id="Group_1461" data-name="Group 1461">
    <path id="Path_4156" data-name="Path 4156" d="M15.646,4.741a5.653,5.653,0,0,0-5,3A5.655,5.655,0,0,0,2.263,5.871V1.108h0A1.131,1.131,0,0,0,0,1.108H0V10.49H0A5.654,5.654,0,0,0,10.65,13.046a5.655,5.655,0,1,0,5-8.305ZM5.655,13.788A3.392,3.392,0,1,1,9.047,10.4,3.392,3.392,0,0,1,5.655,13.788Zm9.991,0A3.392,3.392,0,1,1,19.038,10.4,3.392,3.392,0,0,1,15.646,13.788Z" fill="#0081c6"/>
    <path id="Path_4157" data-name="Path 4157" d="M226.147,60.8l-2.9-3.871,2.9-3.871h0a1.131,1.131,0,0,0-1.809-1.358h0l-2.5,3.341-2.5-3.341h0a1.131,1.131,0,0,0-1.808,1.358h0l2.9,3.871-2.9,3.871h0a1.131,1.131,0,0,0,1.808,1.358h0l2.5-3.341,2.5,3.341h0a1.131,1.131,0,0,0,1.809-1.358Z" transform="translate(-197.239 -46.534)" fill="#0081c6"/>
  </g>
</svg>
