<svg xmlns="http://www.w3.org/2000/svg" width="18.684" height="13.355" viewBox="0 0 18.684 13.355"><defs><style>.a{fill:#333;}</style></defs><g transform="translate(-286.903 -382.319)"><path class="a" d="M296.234,395.674H289.24a2.226,2.226,0,0,1-2.336-2.332q0-4.345,0-8.69a2.222,2.222,0,0,1,2.336-2.331q7.017,0,14.032,0a2.222,2.222,0,0,1,2.314,2.31q0,4.367,0,8.734a2.221,2.221,0,0,1-2.314,2.309Q299.753,395.676,296.234,395.674Zm4.908-8v-.019c.166,0,.333,0,.5,0a1.33,1.33,0,0,0-.019-2.659q-.477-.009-.954,0a1.324,1.324,0,0,0-1.3,1.145,1.308,1.308,0,0,0,.995,1.471A5.11,5.11,0,0,0,301.142,387.676ZM292.661,393c.883,0,1.766,0,2.649,0a.45.45,0,0,0,.491-.437.445.445,0,0,0-.485-.443q-2.627,0-5.254,0a.551.551,0,0,0-.269.061.409.409,0,0,0-.2.481.424.424,0,0,0,.444.337C290.91,393,291.786,393,292.661,393Zm-1.75-3.559c-.289,0-.578-.005-.867,0a.447.447,0,1,0,0,.893q.856.01,1.712,0a.448.448,0,1,0,0-.893C291.475,389.434,291.193,389.439,290.912,389.439Zm10.662.9c.274,0,.549,0,.823,0,.32,0,.527-.184.522-.454a.458.458,0,0,0-.512-.442q-.823-.005-1.647,0a.463.463,0,0,0-.513.442c0,.266.205.45.524.453C301.039,390.337,301.306,390.335,301.573,390.335Zm-7.082-.9c-.3,0-.592-.006-.889,0a.447.447,0,1,0,0,.893q.856.01,1.712,0a.448.448,0,1,0,0-.893C295.04,389.434,294.765,389.439,294.491,389.439Zm3.53.9c.282,0,.563,0,.845,0a.449.449,0,1,0,0-.894q-.834-.007-1.668,0a.451.451,0,1,0,0,.9C297.472,390.338,297.747,390.335,298.021,390.335Z" transform="translate(0)"/><path class="a" d="M314.985,390.467c-.145,0-.289.007-.434,0a.452.452,0,0,1-.44-.447.44.44,0,0,1,.422-.441c.31-.015.621-.015.931,0a.432.432,0,0,1,.425.455.444.444,0,0,1-.449.434C315.289,390.473,315.137,390.467,314.985,390.467Z" transform="translate(-13.864 -3.693)"/></g></svg>