<svg xmlns="http://www.w3.org/2000/svg" width="35.417" height="38.225" viewBox="0 0 35.417 38.225">
  <g id="iconfinder_Graphic_Design_eraser_6602600" transform="translate(-4 -2.775)">
    <path id="Path_1764" data-name="Path 1764" d="M36.293,28H5.4a1.4,1.4,0,0,0,0,2.808H36.293a1.4,1.4,0,0,0,0-2.808Z" transform="translate(0 10.192)" fill="#98a2c5"/>
    <path id="Path_1765" data-name="Path 1765" d="M11.23,34.962a1.275,1.275,0,0,0,.983.421h9.969a1.275,1.275,0,0,0,.983-.421L37.345,20.782a7.208,7.208,0,0,0,0-9.969L31.308,4.776a7.208,7.208,0,0,0-9.969,0l-7.02,7.02h0L6.176,19.939a7.208,7.208,0,0,0,0,9.969ZM8.141,21.9l7.02-7.02L27.236,26.959,21.62,32.575H12.775L8.141,27.942A4.237,4.237,0,0,1,8.141,21.9Z" transform="translate(0.071 0)" fill="#98a2c5"/>
  </g>
</svg>
