<svg xmlns="http://www.w3.org/2000/svg" width="14.977" height="16.164" viewBox="0 0 14.977 16.164">
  <g id="iconfinder_Graphic_Design_eraser_6602600" transform="translate(-4 -2.775)">
    <path id="Path_4178" data-name="Path 4178" d="M17.656,28H4.594a.594.594,0,0,0,0,1.187H17.656a.594.594,0,1,0,0-1.187Z" transform="translate(0 -10.248)" fill="#c4c4c4"/>
    <path id="Path_4179" data-name="Path 4179" d="M7.158,16.386a.539.539,0,0,0,.416.178h4.215a.539.539,0,0,0,.416-.178l6-6a3.048,3.048,0,0,0,0-4.215L15.649,3.621a3.048,3.048,0,0,0-4.215,0L8.465,6.59h0L5.021,10.033a3.048,3.048,0,0,0,0,4.215ZM5.852,10.864,8.821,7.9,13.927,13l-2.375,2.375H7.812L5.852,13.417A1.792,1.792,0,0,1,5.852,10.864Z" transform="translate(-0.071)" fill="#c4c4c4"/>
  </g>
</svg>
