<svg xmlns="http://www.w3.org/2000/svg" width="97.405" height="75.715" viewBox="0 0 97.405 75.715"><defs><style>.a{fill:#486eb8;}</style></defs><g transform="translate(-711.342 -1176.541)"><path class="a" d="M779.918,1218.015a16.465,16.465,0,0,0-1.745,2.567c-2.12,4.839-4.146,9.72-6.222,14.579-1.349,3.16-2.614,6.363-4.138,9.438a21.141,21.141,0,0,1-3.3,4.827c-4.116,4.5-10.514,3.487-13.252-2-1.561-3.127-1.521-6.467-1.1-9.8,1.042-8.308,4.141-16.054,6.618-23.975,2.27-7.261,4.352-14.584,6.371-21.92a14.847,14.847,0,0,0,.264-4.887c-.186-2.647-1.643-3.758-4.211-3.018a15.293,15.293,0,0,0-4.918,2.438c-5.228,3.969-8.978,9.266-12.453,14.726-9.7,15.238-17.2,31.571-23.809,48.338-.763,1.935-1.993,2.861-3.627,2.695a3.467,3.467,0,0,1-3.037-3.013,5.329,5.329,0,0,1,.448-2.44c2.319-5.566,4.609-11.147,7.074-16.649,5.48-12.23,11.414-24.228,18.964-35.348a61.884,61.884,0,0,1,11.495-13.3,18.743,18.743,0,0,1,9.113-4.574c7.074-1.059,12.038,3.307,12.169,10.727.1,5.53-1.352,10.8-3.022,16-2.881,8.96-5.986,17.85-8.782,26.835a59.6,59.6,0,0,0-1.912,9.787,9.38,9.38,0,0,0,.632,4.16c.455,1.3,1.434,1.385,2.264.27a20.816,20.816,0,0,0,2.567-4.174c2.107-4.964,3.972-10.031,6.112-14.979a81.956,81.956,0,0,1,4.762-9.478,14.122,14.122,0,0,1,3.941-4.047c3.405-2.423,9.8-.841,10.06,4.562a44.576,44.576,0,0,1-.892,9.253c-.549,3.335-1.414,6.617-2.142,9.923-.011.052-.024.1-.032.156-.5,3.248-.046,3.987,3.289,3.861,4.7-.177,9.382-.678,14.069-1.084,1.21-.1,2.4-.464,3.608-.537a3.431,3.431,0,0,1,1.28,6.674c-7.223,1.481-14.492,2.8-21.885,1.437-5.691-1.051-8.1-4.319-7.345-10.08.5-3.819,1.46-7.576,2.188-11.366.4-2.109.756-4.229,1.131-6.344Z"/></g></svg>