<svg id="Group_859" data-name="Group 859" xmlns="http://www.w3.org/2000/svg" width="33.321" height="40.122" viewBox="0 0 33.321 40.122">
  <g id="Group_857" data-name="Group 857" transform="translate(18.017 24.308)">
    <path id="Path_1566" data-name="Path 1566" d="M-728.976,371.8h0l0,.006c0,.016,0,.031.006.047s0,0,0,.007l.633,4.11a.913.913,0,0,0,1.042.764.914.914,0,0,0,.765-1.042l-.1-.639c.115.095.23.188.35.276a7.886,7.886,0,0,0,5.878,1.438,7.886,7.886,0,0,0,5.173-3.139,7.9,7.9,0,0,0,1.276-2.705l-2.494-.687a5.322,5.322,0,0,1-.871,1.861,5.3,5.3,0,0,1-3.479,2.111,5.293,5.293,0,0,1-3.953-.967c-.136-.1-.265-.206-.391-.318l.723.07a.881.881,0,0,0,.926-.829.88.88,0,0,0-.75-.991l-3.811-.369a.864.864,0,0,0-.9.675c-.008.03-.012.06-.018.091s-.01.041-.012.063c0,.007,0,.012,0,.018,0,.028,0,.057,0,.085S-728.978,371.78-728.976,371.8Z" transform="translate(729.256 -361.047)" fill="#ffa155"/>
    <path id="Path_1567" data-name="Path 1567" d="M-715.671,318.255h0l0-.006c0-.016,0-.031-.006-.047s0,0,0-.007l-.633-4.11a.914.914,0,0,0-1.043-.764.914.914,0,0,0-.764,1.042l.1.639c-.115-.095-.231-.188-.351-.276a7.885,7.885,0,0,0-5.878-1.438,7.885,7.885,0,0,0-5.173,3.139,7.886,7.886,0,0,0-1.276,2.706l2.494.686a5.326,5.326,0,0,1,.87-1.861,5.3,5.3,0,0,1,3.479-2.111,5.3,5.3,0,0,1,3.953.967c.135.1.265.207.39.318l-.723-.07a.88.88,0,0,0-.926.829.88.88,0,0,0,.75.991l3.812.369a.864.864,0,0,0,.9-.675.859.859,0,0,0,.017-.091c0-.021.01-.041.012-.063,0-.006,0-.012,0-.018a.83.83,0,0,0,0-.085C-715.671,318.3-715.669,318.276-715.671,318.255Z" transform="translate(730.696 -313.194)" fill="#ffa155"/>
  </g>
  <g id="Group_858" data-name="Group 858" transform="translate(0 0)">
    <path id="Path_1568" data-name="Path 1568" d="M-702.1,179.295c-1.773-1.773-3.478-3.476-5.184-5.177a.839.839,0,0,0-.181-.105C-708.107,177.792-706.047,179.859-702.1,179.295Z" transform="translate(729.323 -172.127)" fill="#1fcb5d"/>
    <path id="Path_1569" data-name="Path 1569" d="M-828.013,194.524a11.224,11.224,0,0,1,.1-1.488,1.22,1.22,0,0,1-.1-.5,1.107,1.107,0,0,1,.37-.867,11.165,11.165,0,0,1,4.469-6.337c0-.007,0-.014,0-.021A1.2,1.2,0,0,1-822,184.084c.41-.028.822-.008,1.234-.006a11.123,11.123,0,0,1,3.905-.7,11.146,11.146,0,0,1,3.354.514q0-5.55,0-11.1v-.8c-1.2,0-2.328.006-3.455,0a6.049,6.049,0,0,1-6.218-6.2c-.008-1.128,0-2.257,0-3.474h-.71q-7.406,0-14.811,0a3.648,3.648,0,0,0-3.826,3.858q0,15.45,0,30.9A3.66,3.66,0,0,0-838.621,201q6.341,0,12.683,0A11.1,11.1,0,0,1-828.013,194.524Zm-.988-17.7q4.609-.01,9.218,0c.886,0,1.429.475,1.431,1.206s-.543,1.2-1.431,1.206c-1.536.009-3.073,0-4.609,0s-3.073.007-4.609,0c-.891-.005-1.432-.473-1.431-1.2S-829.888,176.824-829,176.822Zm-7.406-7.25c.78-.021,1.561,0,2.342,0s1.562-.016,2.342.006a1.2,1.2,0,0,1,1.279,1.2,1.2,1.2,0,0,1-1.281,1.2q-2.342.029-4.684,0a1.2,1.2,0,0,1-1.279-1.2A1.2,1.2,0,0,1-836.407,169.571Zm3.544,8.454a1.19,1.19,0,0,1-1.126,1.2c-.425.035-.855.007-1.283.007s-.858.029-1.283-.006a1.19,1.19,0,0,1-1.131-1.193,1.171,1.171,0,0,1,1.126-1.194c.854-.04,1.713-.04,2.567,0A1.174,1.174,0,0,1-832.862,178.026Zm-3.392,6.05c1.536-.009,3.073,0,4.609,0s3.073-.006,4.609,0c.886.005,1.429.476,1.429,1.208s-.543,1.2-1.432,1.2q-4.609.01-9.218,0c-.889,0-1.431-.475-1.43-1.206S-837.143,184.08-836.254,184.075Zm4.539,9.661q-2.342.032-4.684,0a1.2,1.2,0,0,1-1.288-1.194,1.2,1.2,0,0,1,1.271-1.21c.78-.022,1.561,0,2.342,0s1.562-.016,2.342,0a1.2,1.2,0,0,1,1.287,1.194A1.194,1.194,0,0,1-831.716,193.736Z" transform="translate(842.531 -162.309)" fill="#1fcb5d"/>
  </g>
</svg>
