<svg xmlns="http://www.w3.org/2000/svg" width="14.138" height="16.157" viewBox="0 0 14.138 16.157">
  <g id="Group_1" data-name="Group 1" transform="translate(-824 -183)">
    <path id="copy" d="M13.694,2.081,12.057.444A1.515,1.515,0,0,0,10.986,0H5.554A1.515,1.515,0,0,0,4.039,1.515V3.029H1.515A1.515,1.515,0,0,0,0,4.544v10.1a1.515,1.515,0,0,0,1.515,1.515H8.584A1.515,1.515,0,0,0,10.1,14.642V13.128h2.525a1.515,1.515,0,0,0,1.515-1.515V3.152a1.515,1.515,0,0,0-.444-1.071Zm-5.3,12.562H1.7a.189.189,0,0,1-.189-.189V4.734A.189.189,0,0,1,1.7,4.544H4.039v7.069a1.515,1.515,0,0,0,1.515,1.515H8.584v1.325A.189.189,0,0,1,8.394,14.642Zm4.039-3.029H5.743a.189.189,0,0,1-.189-.189V1.7a.189.189,0,0,1,.189-.189H9.088V4.292a.757.757,0,0,0,.757.757h2.777v6.375A.189.189,0,0,1,12.433,11.613Zm.189-8.079H10.6V1.515h.3a.189.189,0,0,1,.134.055L12.567,3.1a.189.189,0,0,1,.055.134Z" transform="translate(824 183)" fill="#98a2c5"/>
  </g>
</svg>
