<svg xmlns="http://www.w3.org/2000/svg" width="28.527" height="38.027" viewBox="0 0 28.527 38.027"><defs><style>.a{fill:#98a2c5;}</style></defs><g transform="translate(-223.125 -11.892)"><path class="a" d="M237.389,11.892v.557q0,5.172,0,10.345a3.181,3.181,0,0,0,3.377,3.366h10.862c.009.19.024.352.024.514q0,9.928,0,19.855a3.191,3.191,0,0,1-3.406,3.389l-21.715,0a3.188,3.188,0,0,1-3.4-3.391q0-15.634,0-31.267a3.182,3.182,0,0,1,3.38-3.366q5.173,0,10.347,0Zm1.584,30.069V38.8H242.1V35.639h-3.129V32.516h-3.175v3.143h-3.12v3.166h3.155v3.136Z"/><path class="a" d="M245.067,23.02V12.161l10.86,10.859Z" transform="translate(-4.494 -0.055)"/></g></svg>