<svg xmlns="http://www.w3.org/2000/svg" xmlns:xlink="http://www.w3.org/1999/xlink" width="577.289" height="458.948" viewBox="0 0 577.289 458.948">
  <defs>
    <linearGradient id="linear-gradient" x1="0.5" y1="1" x2="0.5" gradientUnits="objectBoundingBox">
      <stop offset="0" stop-color="#eaeaeb"/>
      <stop offset="0.506" stop-color="#aaaaae"/>
      <stop offset="0.663" stop-color="#c6c6c8"/>
      <stop offset="1" stop-color="#fff"/>
    </linearGradient>
    <filter id="Path_322" x="0.001" y="0" width="577.289" height="404.833" filterUnits="userSpaceOnUse">
      <feOffset dx="-21" dy="-24" input="SourceAlpha"/>
      <feGaussianBlur stdDeviation="12.5" result="blur"/>
      <feFlood flood-opacity="0.141"/>
      <feComposite operator="in" in2="blur"/>
      <feComposite in="SourceGraphic"/>
    </filter>
    <linearGradient id="linear-gradient-2" x1="0.71" y1="0.876" x2="0.151" y2="-0.124" gradientUnits="objectBoundingBox">
      <stop offset="0" stop-color="#c1484a"/>
      <stop offset="1" stop-color="#fb8688"/>
    </linearGradient>
  </defs>
  <g id="Group_1316" data-name="Group 1316" transform="translate(16916.303 4027.68)">
    <g id="Group_39" data-name="Group 39" transform="translate(-16857.803 -3966.18)">
      <g id="Group_38" data-name="Group 38">
        <path id="Path_127" data-name="Path 127" d="M1501,916.937h124.885L1636.664,976h-146.99Z" transform="translate(-1302.514 -587.278)" fill="#f7f7f7"/>
        <g id="Group_30" data-name="Group 30" transform="translate(194.497 329.659)">
          <path id="Path_128" data-name="Path 128" d="M1633.317,928.752l-2.156-11.814H1506.275l-2.286,11.925Z" transform="translate(-1502.286 -916.937)" fill="#a9a8a8"/>
          <path id="Path_129" data-name="Path 129" d="M1633.323,928.907l-2.16-11.834-124.919.005-2.29,11.951Z" transform="translate(-1502.274 -916.987)" fill="#aaa9a9"/>
          <path id="Path_130" data-name="Path 130" d="M1633.33,929.061l-2.163-11.854-124.952.011-2.294,11.977Z" transform="translate(-1502.261 -917.037)" fill="#abaaaa"/>
          <path id="Path_131" data-name="Path 131" d="M1633.337,929.217l-2.167-11.873-124.985.016-2.3,12Z" transform="translate(-1502.249 -917.087)" fill="#acabab"/>
          <path id="Path_132" data-name="Path 132" d="M1633.344,929.371l-2.171-11.893-125.017.022-2.3,12.028Z" transform="translate(-1502.237 -917.137)" fill="#adacac"/>
          <path id="Path_133" data-name="Path 133" d="M1633.351,929.526l-2.174-11.912-125.051.027-2.306,12.054Z" transform="translate(-1502.224 -917.187)" fill="#aeadad"/>
          <path id="Path_134" data-name="Path 134" d="M1633.357,929.681l-2.178-11.932-125.084.032-2.31,12.08Z" transform="translate(-1502.212 -917.236)" fill="#afaeae"/>
          <path id="Path_135" data-name="Path 135" d="M1633.364,929.836l-2.181-11.952-125.117.038-2.314,12.105Z" transform="translate(-1502.199 -917.286)" fill="#b0afaf"/>
          <path id="Path_136" data-name="Path 136" d="M1633.371,929.991l-2.185-11.971-125.15.043-2.318,12.131Z" transform="translate(-1502.187 -917.336)" fill="#b1b0b0"/>
          <path id="Path_137" data-name="Path 137" d="M1633.377,930.146l-2.188-11.991-125.183.048-2.322,12.157Z" transform="translate(-1502.175 -917.386)" fill="#b2b1b1"/>
          <path id="Path_138" data-name="Path 138" d="M1633.384,930.3l-2.192-12.01-125.216.054-2.325,12.183Z" transform="translate(-1502.162 -917.436)" fill="#b3b2b2"/>
          <path id="Path_139" data-name="Path 139" d="M1633.391,930.456l-2.2-12.03-125.249.059-2.329,12.208Z" transform="translate(-1502.15 -917.486)" fill="#b4b3b3"/>
          <path id="Path_140" data-name="Path 140" d="M1633.4,930.61l-2.2-12.05-125.282.065-2.333,12.234Z" transform="translate(-1502.137 -917.536)" fill="#b5b4b4"/>
          <path id="Path_141" data-name="Path 141" d="M1633.4,930.765l-2.2-12.069-125.314.07-2.337,12.26Z" transform="translate(-1502.125 -917.586)" fill="#b6b5b5"/>
          <path id="Path_142" data-name="Path 142" d="M1633.411,930.92l-2.206-12.089-125.348.075-2.341,12.286Z" transform="translate(-1502.112 -917.635)" fill="#b7b6b6"/>
          <path id="Path_143" data-name="Path 143" d="M1633.418,931.075l-2.21-12.109-125.381.081-2.344,12.311Z" transform="translate(-1502.1 -917.685)" fill="#b8b7b7"/>
          <path id="Path_144" data-name="Path 144" d="M1633.425,931.23l-2.213-12.128-125.414.086-2.349,12.337Z" transform="translate(-1502.088 -917.735)" fill="#b9b8b8"/>
          <path id="Path_145" data-name="Path 145" d="M1633.432,931.385l-2.217-12.148-125.447.091-2.352,12.363Z" transform="translate(-1502.075 -917.785)" fill="#bab9b9"/>
          <path id="Path_146" data-name="Path 146" d="M1633.438,931.54l-2.22-12.167-125.48.1-2.356,12.389Z" transform="translate(-1502.063 -917.835)" fill="#bbbaba"/>
          <path id="Path_147" data-name="Path 147" d="M1633.445,931.695l-2.224-12.187-125.513.1-2.36,12.414Z" transform="translate(-1502.051 -917.885)" fill="#bcbbbb"/>
          <path id="Path_148" data-name="Path 148" d="M1633.452,931.849l-2.228-12.206-125.546.107-2.364,12.44Z" transform="translate(-1502.038 -917.935)" fill="#bdbcbc"/>
          <path id="Path_149" data-name="Path 149" d="M1633.459,932l-2.231-12.226-125.578.113-2.368,12.466Z" transform="translate(-1502.026 -917.985)" fill="#bdbdbd"/>
          <path id="Path_150" data-name="Path 150" d="M1633.465,932.159l-2.235-12.246-125.611.118-2.372,12.492Z" transform="translate(-1502.013 -918.034)" fill="#bebebe"/>
          <path id="Path_151" data-name="Path 151" d="M1633.472,932.314l-2.238-12.265-125.645.123-2.376,12.517Z" transform="translate(-1502.001 -918.084)" fill="#bfbfbf"/>
          <path id="Path_152" data-name="Path 152" d="M1633.479,932.469l-2.242-12.285-125.678.129-2.379,12.543Z" transform="translate(-1501.989 -918.134)" fill="silver"/>
          <path id="Path_153" data-name="Path 153" d="M1633.486,932.624l-2.245-12.3-125.711.134-2.383,12.569Z" transform="translate(-1501.976 -918.184)" fill="#c1c1c1"/>
          <path id="Path_154" data-name="Path 154" d="M1633.492,932.779l-2.249-12.324-125.743.14-2.388,12.595Z" transform="translate(-1501.963 -918.234)" fill="#c2c2c2"/>
          <path id="Path_155" data-name="Path 155" d="M1633.5,932.934l-2.253-12.344-125.777.145-2.391,12.62Z" transform="translate(-1501.951 -918.283)" fill="#c3c3c3"/>
          <path id="Path_156" data-name="Path 156" d="M1633.506,933.089l-2.256-12.363-125.81.15-2.395,12.646Z" transform="translate(-1501.939 -918.333)" fill="#c4c4c4"/>
          <path id="Path_157" data-name="Path 157" d="M1633.513,933.243l-2.26-12.383-125.843.156-2.4,12.672Z" transform="translate(-1501.927 -918.383)" fill="#c5c5c5"/>
          <path id="Path_158" data-name="Path 158" d="M1633.519,933.4l-2.264-12.4-125.876.161-2.4,12.7Z" transform="translate(-1501.914 -918.433)" fill="#c6c6c6"/>
          <path id="Path_159" data-name="Path 159" d="M1633.526,933.553l-2.267-12.422-125.909.167-2.406,12.723Z" transform="translate(-1501.901 -918.483)" fill="#c7c7c7"/>
          <path id="Path_160" data-name="Path 160" d="M1633.533,933.708l-2.271-12.442-125.942.172-2.41,12.749Z" transform="translate(-1501.889 -918.533)" fill="#c8c8c8"/>
          <path id="Path_161" data-name="Path 161" d="M1633.54,933.863l-2.274-12.461-125.975.177-2.414,12.775Z" transform="translate(-1501.877 -918.583)" fill="#c9c9c9"/>
          <path id="Path_162" data-name="Path 162" d="M1633.546,934.018l-2.278-12.481-126.008.183-2.418,12.8Z" transform="translate(-1501.864 -918.633)" fill="#cacaca"/>
          <path id="Path_163" data-name="Path 163" d="M1633.553,934.173l-2.281-12.5-126.041.188-2.422,12.826Z" transform="translate(-1501.852 -918.682)" fill="#cbcbcb"/>
          <path id="Path_164" data-name="Path 164" d="M1633.56,934.328l-2.285-12.52L1505.2,922l-2.426,12.852Z" transform="translate(-1501.839 -918.732)" fill="#ccc"/>
          <path id="Path_165" data-name="Path 165" d="M1633.566,934.483l-2.288-12.54-126.107.2-2.429,12.878Z" transform="translate(-1501.827 -918.782)" fill="#cdcdcd"/>
          <path id="Path_166" data-name="Path 166" d="M1633.573,934.638l-2.292-12.559-126.14.2-2.434,12.9Z" transform="translate(-1501.815 -918.832)" fill="#cecece"/>
          <path id="Path_167" data-name="Path 167" d="M1633.58,934.793l-2.3-12.579-126.173.21-2.437,12.929Z" transform="translate(-1501.802 -918.882)" fill="#cfcfcf"/>
          <path id="Path_168" data-name="Path 168" d="M1633.587,934.947l-2.3-12.6-126.206.215-2.441,12.955Z" transform="translate(-1501.79 -918.932)" fill="#d0cfcf"/>
          <path id="Path_169" data-name="Path 169" d="M1633.594,935.1l-2.3-12.618-126.239.22-2.445,12.98Z" transform="translate(-1501.777 -918.982)" fill="#d1d0d0"/>
          <path id="Path_170" data-name="Path 170" d="M1633.6,935.257l-2.306-12.638-126.272.226-2.449,13.006Z" transform="translate(-1501.765 -919.031)" fill="#d2d1d1"/>
          <path id="Path_171" data-name="Path 171" d="M1633.607,935.412l-2.31-12.658-126.3.231-2.453,13.032Z" transform="translate(-1501.753 -919.081)" fill="#d3d2d2"/>
          <path id="Path_172" data-name="Path 172" d="M1633.614,935.567,1631.3,922.89l-126.338.236-2.457,13.058Z" transform="translate(-1501.74 -919.131)" fill="#d4d3d3"/>
          <path id="Path_173" data-name="Path 173" d="M1633.621,935.722l-2.317-12.7-126.371.242-2.461,13.084Z" transform="translate(-1501.728 -919.181)" fill="#d5d4d4"/>
          <path id="Path_174" data-name="Path 174" d="M1633.627,935.877l-2.32-12.716-126.4.247-2.465,13.109Z" transform="translate(-1501.715 -919.231)" fill="#d6d5d5"/>
          <path id="Path_175" data-name="Path 175" d="M1633.634,936.031,1631.31,923.3l-126.437.252-2.468,13.135Z" transform="translate(-1501.703 -919.281)" fill="#d7d6d6"/>
          <path id="Path_176" data-name="Path 176" d="M1633.641,936.186l-2.328-12.755-126.469.258-2.472,13.161Z" transform="translate(-1501.69 -919.331)" fill="#d8d7d7"/>
          <path id="Path_177" data-name="Path 177" d="M1633.648,936.341l-2.331-12.775-126.5.263-2.476,13.187Z" transform="translate(-1501.678 -919.38)" fill="#d9d8d8"/>
          <path id="Path_178" data-name="Path 178" d="M1633.654,936.5l-2.335-12.795-126.536.269-2.48,13.212Z" transform="translate(-1501.666 -919.43)" fill="#dad9d9"/>
          <path id="Path_179" data-name="Path 179" d="M1633.661,936.651l-2.338-12.814-126.569.274-2.484,13.238Z" transform="translate(-1501.653 -919.48)" fill="#dbdada"/>
          <path id="Path_180" data-name="Path 180" d="M1633.668,936.806l-2.342-12.834-126.6.279-2.488,13.264Z" transform="translate(-1501.641 -919.53)" fill="#dcdbdb"/>
          <path id="Path_181" data-name="Path 181" d="M1633.675,936.961l-2.346-12.854-126.635.285-2.491,13.289Z" transform="translate(-1501.629 -919.58)" fill="#dddcdc"/>
          <path id="Path_182" data-name="Path 182" d="M1633.681,937.116l-2.349-12.873-126.668.29-2.5,13.315Z" transform="translate(-1501.616 -919.63)" fill="#dedddd"/>
          <path id="Path_183" data-name="Path 183" d="M1633.688,937.271l-2.353-12.893-126.7.3-2.5,13.341Z" transform="translate(-1501.604 -919.68)" fill="#dfdede"/>
          <path id="Path_184" data-name="Path 184" d="M1633.695,937.426l-2.357-12.912-126.734.3-2.5,13.367Z" transform="translate(-1501.591 -919.729)" fill="#e0dfdf"/>
          <path id="Path_185" data-name="Path 185" d="M1633.7,937.58l-2.36-12.932-126.766.306-2.507,13.392Z" transform="translate(-1501.579 -919.779)" fill="#e1e0e0"/>
          <path id="Path_186" data-name="Path 186" d="M1633.708,937.735l-2.364-12.952-126.8.312-2.511,13.418Z" transform="translate(-1501.566 -919.829)" fill="#e2e1e1"/>
          <path id="Path_187" data-name="Path 187" d="M1633.715,937.89l-2.367-12.971-126.833.317L1502,938.68Z" transform="translate(-1501.554 -919.879)" fill="#e3e2e2"/>
          <path id="Path_188" data-name="Path 188" d="M1633.722,938.045l-2.37-12.991-126.866.322-2.519,13.47Z" transform="translate(-1501.541 -919.929)" fill="#e3e3e3"/>
          <path id="Path_189" data-name="Path 189" d="M1633.729,938.2l-2.374-13.01-126.9.328-2.522,13.5Z" transform="translate(-1501.529 -919.979)" fill="#e4e4e4"/>
          <path id="Path_190" data-name="Path 190" d="M1633.735,938.355l-2.378-13.03-126.932.333-2.526,13.521Z" transform="translate(-1501.516 -920.028)" fill="#e5e5e5"/>
          <path id="Path_191" data-name="Path 191" d="M1633.742,938.51l-2.381-13.05L1504.4,925.8l-2.53,13.547Z" transform="translate(-1501.504 -920.078)" fill="#e6e6e6"/>
          <path id="Path_192" data-name="Path 192" d="M1633.749,938.665l-2.385-13.069-127,.344-2.534,13.573Z" transform="translate(-1501.492 -920.128)" fill="#e7e7e7"/>
          <path id="Path_193" data-name="Path 193" d="M1633.755,938.819l-2.389-13.089-127.031.349-2.538,13.6Z" transform="translate(-1501.479 -920.178)" fill="#e8e8e8"/>
          <path id="Path_194" data-name="Path 194" d="M1633.762,938.974l-2.392-13.108-127.064.354-2.542,13.624Z" transform="translate(-1501.467 -920.228)" fill="#e9e9e9"/>
          <path id="Path_195" data-name="Path 195" d="M1633.769,939.129l-2.4-13.128-127.1.36-2.546,13.65Z" transform="translate(-1501.454 -920.278)" fill="#eaeaea"/>
          <path id="Path_196" data-name="Path 196" d="M1633.776,939.284l-2.4-13.148-127.13.365-2.549,13.676Z" transform="translate(-1501.442 -920.328)" fill="#ebebeb"/>
          <path id="Path_197" data-name="Path 197" d="M1633.782,939.439l-2.4-13.167-127.162.371-2.553,13.7Z" transform="translate(-1501.43 -920.378)" fill="#ececec"/>
          <path id="Path_198" data-name="Path 198" d="M1633.789,939.594l-2.407-13.187-127.2.376-2.557,13.727Z" transform="translate(-1501.417 -920.427)" fill="#ededed"/>
          <path id="Path_199" data-name="Path 199" d="M1633.8,939.749l-2.41-13.206-127.229.381-2.561,13.753Z" transform="translate(-1501.405 -920.477)" fill="#eee"/>
          <path id="Path_200" data-name="Path 200" d="M1633.8,939.9l-2.414-13.226-127.262.387-2.565,13.778Z" transform="translate(-1501.393 -920.527)" fill="#efefef"/>
          <path id="Path_201" data-name="Path 201" d="M1633.81,940.059l-2.417-13.246-127.294.392-2.569,13.8Z" transform="translate(-1501.38 -920.577)" fill="#f0f0f0"/>
          <path id="Path_202" data-name="Path 202" d="M1633.816,940.214l-2.421-13.265-127.328.4-2.573,13.83Z" transform="translate(-1501.367 -920.627)" fill="#f1f1f1"/>
          <path id="Path_203" data-name="Path 203" d="M1633.823,940.368l-2.425-13.285-127.361.4-2.576,13.856Z" transform="translate(-1501.355 -920.677)" fill="#f2f2f2"/>
          <path id="Path_204" data-name="Path 204" d="M1633.83,940.523l-2.428-13.3-127.394.408-2.58,13.882Z" transform="translate(-1501.343 -920.726)" fill="#f3f3f3"/>
          <path id="Path_205" data-name="Path 205" d="M1633.837,940.678l-2.431-13.324-127.427.414-2.584,13.907Z" transform="translate(-1501.331 -920.776)" fill="#f4f4f4"/>
          <path id="Path_206" data-name="Path 206" d="M1633.843,940.833l-2.435-13.344-127.459.419-2.588,13.933Z" transform="translate(-1501.318 -920.826)" fill="#f5f5f5"/>
          <path id="Path_207" data-name="Path 207" d="M1633.85,940.988l-2.439-13.363-127.493.424-2.592,13.959Z" transform="translate(-1501.306 -920.876)" fill="#f6f6f6"/>
          <path id="Path_208" data-name="Path 208" d="M1633.857,941.143l-2.443-13.383-127.526.43-2.6,13.984Z" transform="translate(-1501.293 -920.926)" fill="#f7f7f7"/>
        </g>
        <g id="Group_31" data-name="Group 31" transform="translate(187.161 374.747)">
          <path id="Path_209" data-name="Path 209" d="M1491.314,996.623l-1.639,8.547h146.99l-2.766-9.084Z" transform="translate(-1489.675 -991.194)" fill="#c4c4c4"/>
          <path id="Path_210" data-name="Path 210" d="M1491.34,996.468l-1.648,8.592,146.965-.01-2.747-9.1Z" transform="translate(-1489.682 -991.143)" fill="#c5c5c5"/>
          <path id="Path_211" data-name="Path 211" d="M1491.367,996.313l-1.656,8.636,146.941-.02-2.729-9.117Z" transform="translate(-1489.688 -991.093)" fill="#c6c6c6"/>
          <path id="Path_212" data-name="Path 212" d="M1491.394,996.158l-1.664,8.68,146.917-.031-2.711-9.133Z" transform="translate(-1489.695 -991.042)" fill="#c7c7c7"/>
          <path id="Path_213" data-name="Path 213" d="M1491.421,996l-1.673,8.725,146.893-.041-2.692-9.149Z" transform="translate(-1489.701 -990.992)" fill="#c8c8c8"/>
          <path id="Path_214" data-name="Path 214" d="M1491.447,995.849l-1.681,8.769,146.868-.051-2.674-9.165Z" transform="translate(-1489.708 -990.942)" fill="#c9c9c9"/>
          <path id="Path_215" data-name="Path 215" d="M1491.474,995.694l-1.69,8.814,146.844-.061-2.656-9.182Z" transform="translate(-1489.715 -990.891)" fill="#cacaca"/>
          <path id="Path_216" data-name="Path 216" d="M1491.5,995.539l-1.7,8.858,146.82-.071-2.637-9.2Z" transform="translate(-1489.722 -990.841)" fill="#cbcbcb"/>
          <path id="Path_217" data-name="Path 217" d="M1491.528,995.384l-1.707,8.9,146.795-.081L1634,994.991Z" transform="translate(-1489.729 -990.791)" fill="#ccc"/>
          <path id="Path_218" data-name="Path 218" d="M1491.554,995.174l-1.715,8.947,146.771-.092-2.6-9.23Z" transform="translate(-1489.735 -990.72)" fill="#cdcdcd"/>
          <path id="Path_219" data-name="Path 219" d="M1491.581,995.013l-1.724,8.991,146.747-.1-2.582-9.246Z" transform="translate(-1489.742 -990.667)" fill="#cecece"/>
          <path id="Path_220" data-name="Path 220" d="M1491.608,994.853l-1.733,9.036,146.722-.112-2.564-9.263Z" transform="translate(-1489.748 -990.615)" fill="#cfcfcf"/>
          <path id="Path_221" data-name="Path 221" d="M1491.635,994.692l-1.741,9.08,146.7-.122-2.546-9.279Z" transform="translate(-1489.755 -990.562)" fill="#d0d0d0"/>
          <path id="Path_222" data-name="Path 222" d="M1491.661,994.531l-1.75,9.125,146.674-.132-2.527-9.295Z" transform="translate(-1489.762 -990.509)" fill="#d1d1d1"/>
          <path id="Path_223" data-name="Path 223" d="M1491.688,994.37l-1.758,9.169,146.649-.143-2.509-9.311Z" transform="translate(-1489.769 -990.457)" fill="#d2d2d2"/>
          <path id="Path_224" data-name="Path 224" d="M1491.715,994.209l-1.766,9.214,146.625-.153-2.49-9.327Z" transform="translate(-1489.776 -990.404)" fill="#d3d3d3"/>
          <path id="Path_225" data-name="Path 225" d="M1491.741,994.048l-1.775,9.258,146.6-.163L1634.1,993.8Z" transform="translate(-1489.782 -990.351)" fill="#d4d4d4"/>
          <path id="Path_226" data-name="Path 226" d="M1491.768,993.887l-1.784,9.3,146.577-.173-2.454-9.36Z" transform="translate(-1489.789 -990.299)" fill="#d5d5d5"/>
          <path id="Path_227" data-name="Path 227" d="M1491.795,993.726l-1.792,9.347,146.552-.183-2.436-9.376Z" transform="translate(-1489.795 -990.246)" fill="#d6d6d6"/>
          <path id="Path_228" data-name="Path 228" d="M1491.822,993.565l-1.8,9.391,146.528-.193-2.417-9.392Z" transform="translate(-1489.802 -990.194)" fill="#d7d7d7"/>
          <path id="Path_229" data-name="Path 229" d="M1491.848,993.4l-1.809,9.436,146.5-.2-2.4-9.408Z" transform="translate(-1489.809 -990.141)" fill="#d8d8d8"/>
          <path id="Path_230" data-name="Path 230" d="M1491.875,993.243l-1.818,9.48,146.479-.214-2.38-9.424Z" transform="translate(-1489.815 -990.088)" fill="#d9d9d9"/>
          <path id="Path_231" data-name="Path 231" d="M1491.9,993.083l-1.826,9.525,146.455-.224-2.362-9.44Z" transform="translate(-1489.822 -990.036)" fill="#dadada"/>
          <path id="Path_232" data-name="Path 232" d="M1491.928,992.922l-1.835,9.569,146.431-.234-2.344-9.457Z" transform="translate(-1489.829 -989.983)" fill="#dbdbdb"/>
          <path id="Path_233" data-name="Path 233" d="M1491.955,992.761l-1.843,9.613,146.406-.244-2.325-9.473Z" transform="translate(-1489.836 -989.93)" fill="#dcdcdc"/>
          <path id="Path_234" data-name="Path 234" d="M1491.982,992.6l-1.852,9.658,146.382-.255-2.307-9.489Z" transform="translate(-1489.842 -989.878)" fill="#ddd"/>
          <path id="Path_235" data-name="Path 235" d="M1492.009,992.439l-1.86,9.7,146.358-.265-2.289-9.505Z" transform="translate(-1489.849 -989.825)" fill="#ddd"/>
          <path id="Path_236" data-name="Path 236" d="M1492.035,992.278l-1.869,9.747,146.334-.275-2.271-9.522Z" transform="translate(-1489.856 -989.772)" fill="#dedede"/>
          <path id="Path_237" data-name="Path 237" d="M1492.062,992.117l-1.877,9.791,146.309-.285-2.252-9.538Z" transform="translate(-1489.862 -989.72)" fill="#dfdfdf"/>
          <path id="Path_238" data-name="Path 238" d="M1492.089,991.956l-1.886,9.836,146.285-.3-2.234-9.554Z" transform="translate(-1489.869 -989.667)" fill="#e0e0e0"/>
          <path id="Path_239" data-name="Path 239" d="M1492.115,991.8l-1.894,9.88,146.261-.305-2.215-9.57Z" transform="translate(-1489.876 -989.613)" fill="#e1e1e1"/>
          <path id="Path_240" data-name="Path 240" d="M1492.142,991.639l-1.9,9.924,146.237-.315-2.2-9.586Z" transform="translate(-1489.883 -989.555)" fill="#e2e2e2"/>
          <path id="Path_241" data-name="Path 241" d="M1492.169,991.482l-1.912,9.969,146.213-.326-2.179-9.6Z" transform="translate(-1489.889 -989.497)" fill="#e3e3e3"/>
          <path id="Path_242" data-name="Path 242" d="M1492.2,991.325l-1.92,10.013,146.188-.336-2.16-9.618Z" transform="translate(-1489.896 -989.439)" fill="#e4e4e4"/>
          <path id="Path_243" data-name="Path 243" d="M1492.223,991.168l-1.929,10.058,146.164-.346-2.142-9.635Z" transform="translate(-1489.903 -989.382)" fill="#e5e5e5"/>
          <path id="Path_244" data-name="Path 244" d="M1492.249,991.011l-1.937,10.1,146.139-.356-2.124-9.651Z" transform="translate(-1489.909 -989.324)" fill="#e6e6e6"/>
          <path id="Path_245" data-name="Path 245" d="M1492.276,990.853,1490.33,1001l146.115-.367-2.1-9.667Z" transform="translate(-1489.916 -989.266)" fill="#e7e7e7"/>
          <path id="Path_246" data-name="Path 246" d="M1492.3,990.7l-1.954,10.191,146.091-.377-2.087-9.683Z" transform="translate(-1489.923 -989.208)" fill="#e8e8e8"/>
          <path id="Path_247" data-name="Path 247" d="M1492.329,990.539l-1.963,10.235,146.066-.387-2.068-9.7Z" transform="translate(-1489.93 -989.15)" fill="#e9e9e9"/>
          <path id="Path_248" data-name="Path 248" d="M1492.356,990.382l-1.971,10.28,146.042-.4-2.05-9.716Z" transform="translate(-1489.936 -989.092)" fill="#eaeaea"/>
          <path id="Path_249" data-name="Path 249" d="M1492.383,990.225l-1.98,10.324,146.018-.407-2.032-9.732Z" transform="translate(-1489.943 -989.034)" fill="#ebebeb"/>
          <path id="Path_250" data-name="Path 250" d="M1492.41,990.068l-1.988,10.369,145.993-.417-2.013-9.748Z" transform="translate(-1489.95 -988.976)" fill="#ececec"/>
          <path id="Path_251" data-name="Path 251" d="M1492.436,989.911l-2,10.413,145.969-.428-2-9.764Z" transform="translate(-1489.957 -988.918)" fill="#ededed"/>
          <path id="Path_252" data-name="Path 252" d="M1492.463,989.753l-2.005,10.458,145.945-.438-1.977-9.781Z" transform="translate(-1489.963 -988.86)" fill="#eee"/>
          <path id="Path_253" data-name="Path 253" d="M1492.49,989.6l-2.014,10.5,145.92-.448-1.958-9.8Z" transform="translate(-1489.97 -988.802)" fill="#efefef"/>
          <path id="Path_254" data-name="Path 254" d="M1492.516,989.439l-2.022,10.546,145.9-.458-1.94-9.813Z" transform="translate(-1489.977 -988.744)" fill="#f0f0f0"/>
          <path id="Path_255" data-name="Path 255" d="M1492.543,989.331l-2.031,10.591,145.872-.468-1.922-9.829Z" transform="translate(-1489.984 -988.705)" fill="#f1f1f1"/>
          <path id="Path_256" data-name="Path 256" d="M1492.57,989.166l-2.039,10.635,145.848-.478-1.9-9.845Z" transform="translate(-1489.99 -988.644)" fill="#f2f2f2"/>
          <path id="Path_257" data-name="Path 257" d="M1492.6,989l-2.048,10.68,145.823-.489-1.885-9.862Z" transform="translate(-1489.997 -988.583)" fill="#f3f3f3"/>
          <path id="Path_258" data-name="Path 258" d="M1492.623,988.835l-2.056,10.724,145.8-.5-1.867-9.878Z" transform="translate(-1490.003 -988.522)" fill="#f4f4f4"/>
          <path id="Path_259" data-name="Path 259" d="M1492.65,988.67l-2.065,10.769,145.775-.509-1.848-9.894Z" transform="translate(-1490.01 -988.461)" fill="#f5f5f5"/>
          <path id="Path_260" data-name="Path 260" d="M1492.677,988.5l-2.073,10.813,145.75-.519-1.83-9.91Z" transform="translate(-1490.017 -988.4)" fill="#f6f6f6"/>
          <path id="Path_261" data-name="Path 261" d="M1492.7,988.339l-2.082,10.858,145.726-.529-1.811-9.926Z" transform="translate(-1490.024 -988.339)" fill="#f7f7f7"/>
        </g>
        <path id="Path_262" data-name="Path 262" d="M1643.54,1013.658l-17.843-3.186h-146.99l-17.844,3.186a1.151,1.151,0,0,0-.949,1.134v3.563a.842.842,0,0,0,.842.842h182.892a.842.842,0,0,0,.842-.842v-3.563A1.151,1.151,0,0,0,1643.54,1013.658Z" transform="translate(-1291.546 -621.748)" fill="#f6f4f4"/>
        <g id="Group_32" data-name="Group 32" transform="translate(168.368 388.723)">
          <path id="Path_263" data-name="Path 263" d="M1642.193,1012.842l-13.278-2.371h-146.99l-13.278,2.371Z" transform="translate(-1463.132 -1010.471)" fill="#bdbcbc"/>
          <path id="Path_264" data-name="Path 264" d="M1481.563,1010.555c-.01,0-4.062.733-4.062.742l-9,1.67c0,.008,1.2.014,1.2.014s172.517,0,172.532-.014l-9-1.67c0-.009-4.052-.74-4.061-.742l-1.317-.005S1481.59,1010.55,1481.563,1010.555Z" transform="translate(-1463.077 -1010.5)" fill="#bebdbd"/>
          <path id="Path_265" data-name="Path 265" d="M1481.2,1010.639c-.019,0-4.007.73-4.007.749l-8.846,1.7c0,.016,1.182.029,1.2.029,0,0,172.7,0,172.727-.029l-8.846-1.7c0-.019-3.988-.745-4.006-.749l-1.323-.01S1481.256,1010.629,1481.2,1010.639Z" transform="translate(-1463.021 -1010.53)" fill="#bfbebe"/>
          <path id="Path_266" data-name="Path 266" d="M1480.836,1010.723c-.028.005-3.952.727-3.952.756l-8.688,1.736c0,.024,1.168.044,1.192.044,0,0,172.881,0,172.925-.044l-8.688-1.736c0-.029-3.924-.751-3.953-.756l-1.328-.015S1480.92,1010.708,1480.836,1010.723Z" transform="translate(-1462.966 -1010.559)" fill="#c0bfbf"/>
          <path id="Path_267" data-name="Path 267" d="M1480.473,1010.807c-.038.007-3.9.724-3.9.763l-8.53,1.769c0,.032,1.153.058,1.185.058,0,0,173.063,0,173.121-.058l-8.53-1.769c0-.039-3.86-.756-3.9-.763l-1.334-.02S1480.586,1010.787,1480.473,1010.807Z" transform="translate(-1462.911 -1010.588)" fill="#c1c0c0"/>
          <path id="Path_268" data-name="Path 268" d="M1480.11,1010.891c-.047.009-3.843.721-3.843.77l-8.372,1.8a11.049,11.049,0,0,0,1.18.073s173.245,0,173.317-.073l-8.373-1.8c0-.049-3.8-.761-3.842-.77l-1.34-.025S1480.251,1010.866,1480.11,1010.891Z" transform="translate(-1462.855 -1010.617)" fill="#c2c1c1"/>
          <path id="Path_269" data-name="Path 269" d="M1479.747,1010.975c-.057.01-3.789.719-3.789.777l-8.214,1.835a8.981,8.981,0,0,0,1.173.087s173.427,0,173.514-.087l-8.215-1.835c0-.058-3.731-.767-3.788-.777l-1.345-.03S1479.916,1010.945,1479.747,1010.975Z" transform="translate(-1462.8 -1010.646)" fill="#c3c2c2"/>
          <path id="Path_270" data-name="Path 270" d="M1479.383,1011.059c-.066.012-3.734.716-3.734.783l-8.056,1.869a7.51,7.51,0,0,0,1.167.1s173.609,0,173.711-.1l-8.056-1.869c0-.067-3.667-.771-3.734-.783l-1.351-.036S1479.581,1011.024,1479.383,1011.059Z" transform="translate(-1462.744 -1010.675)" fill="#c4c3c3"/>
          <path id="Path_271" data-name="Path 271" d="M1479.02,1011.144c-.076.014-3.679.713-3.679.79l-7.9,1.9a6.419,6.419,0,0,0,1.16.116s173.791,0,173.907-.116l-7.9-1.9c0-.077-3.6-.776-3.679-.79l-1.356-.04S1479.246,1011.1,1479.02,1011.144Z" transform="translate(-1462.689 -1010.704)" fill="#c5c4c4"/>
          <path id="Path_272" data-name="Path 272" d="M1478.657,1011.228c-.085.015-3.625.711-3.625.8l-7.74,1.935a5.652,5.652,0,0,0,1.154.131s173.974,0,174.1-.131l-7.74-1.935c0-.086-3.54-.782-3.625-.8l-1.362-.045S1478.911,1011.182,1478.657,1011.228Z" transform="translate(-1462.633 -1010.733)" fill="#c6c5c5"/>
          <path id="Path_273" data-name="Path 273" d="M1478.294,1011.312c-.095.017-3.57.708-3.57.8l-7.583,1.968a4.979,4.979,0,0,0,1.147.145s174.155,0,174.3-.145l-7.583-1.968c0-.1-3.475-.787-3.569-.8l-1.368-.05S1478.576,1011.261,1478.294,1011.312Z" transform="translate(-1462.578 -1010.762)" fill="#c7c6c6"/>
          <path id="Path_274" data-name="Path 274" d="M1477.931,1011.4c-.1.019-3.516.7-3.516.811l-7.424,2a4.473,4.473,0,0,0,1.141.16s174.337,0,174.5-.16l-7.424-2c0-.106-3.411-.792-3.515-.811l-1.373-.056S1478.241,1011.34,1477.931,1011.4Z" transform="translate(-1462.522 -1010.791)" fill="#c8c7c7"/>
          <path id="Path_275" data-name="Path 275" d="M1477.567,1011.48a35.485,35.485,0,0,0-3.46.818l-7.267,2.034c0,.1,1.039.174,1.135.174,0,0,174.519,0,174.693-.174l-7.266-2.034a35.509,35.509,0,0,0-3.461-.818l-1.379-.061S1477.907,1011.419,1477.567,1011.48Z" transform="translate(-1462.467 -1010.821)" fill="#c9c8c8"/>
          <path id="Path_276" data-name="Path 276" d="M1477.2,1011.564a31.766,31.766,0,0,0-3.406.825l-7.108,2.068c0,.1,1.024.188,1.128.188,0,0,174.7,0,174.89-.188l-7.109-2.068a31.766,31.766,0,0,0-3.406-.825l-1.384-.066S1477.571,1011.5,1477.2,1011.564Z" transform="translate(-1462.411 -1010.85)" fill="#cac9c9"/>
          <path id="Path_277" data-name="Path 277" d="M1476.841,1011.648a28.439,28.439,0,0,0-3.352.832l-6.951,2.1c0,.112,1.01.2,1.122.2,0,0,174.883,0,175.086-.2l-6.95-2.1a28.429,28.429,0,0,0-3.352-.832l-1.39-.071S1477.237,1011.577,1476.841,1011.648Z" transform="translate(-1462.356 -1010.879)" fill="#cbcaca"/>
          <path id="Path_278" data-name="Path 278" d="M1476.479,1011.732a25.637,25.637,0,0,0-3.3.839l-6.792,2.134c0,.12.995.217,1.115.217,0,0,175.065,0,175.283-.217l-6.793-2.134a25.647,25.647,0,0,0-3.3-.839l-1.4-.076S1476.9,1011.656,1476.479,1011.732Z" transform="translate(-1462.3 -1010.908)" fill="#cccaca"/>
          <path id="Path_279" data-name="Path 279" d="M1476.116,1011.816a23.334,23.334,0,0,0-3.243.845l-6.635,2.168c0,.128.981.232,1.109.232,0,0,175.248,0,175.479-.232l-6.635-2.168a23.328,23.328,0,0,0-3.242-.845l-1.4-.081S1476.567,1011.735,1476.116,1011.816Z" transform="translate(-1462.245 -1010.937)" fill="#cdcbcb"/>
          <path id="Path_280" data-name="Path 280" d="M1475.752,1011.9a21.172,21.172,0,0,0-3.188.852l-6.477,2.2c0,.136.967.246,1.1.246,0,0,175.429,0,175.676-.246l-6.477-2.2a21.168,21.168,0,0,0-3.188-.852l-1.407-.085S1476.232,1011.815,1475.752,1011.9Z" transform="translate(-1462.189 -1010.967)" fill="#cecccc"/>
          <path id="Path_281" data-name="Path 281" d="M1475.389,1011.984a19.3,19.3,0,0,0-3.133.859l-6.318,2.234c0,.145.952.261,1.1.261,0,0,175.611,0,175.873-.261l-6.319-2.234a19.3,19.3,0,0,0-3.134-.859l-1.413-.09S1475.9,1011.894,1475.389,1011.984Z" transform="translate(-1462.134 -1010.996)" fill="#cfcdcd"/>
          <path id="Path_282" data-name="Path 282" d="M1475.026,1012.068a17.634,17.634,0,0,0-3.078.866l-6.161,2.267c0,.152.938.275,1.09.275,0,0,175.794,0,176.07-.275l-6.161-2.267a17.639,17.639,0,0,0-3.079-.866l-1.418-.1S1475.563,1011.973,1475.026,1012.068Z" transform="translate(-1462.078 -1011.025)" fill="#d0cece"/>
          <path id="Path_283" data-name="Path 283" d="M1474.663,1012.152a16.145,16.145,0,0,0-3.024.873l-6,2.3c0,.16.923.291,1.084.291,0,0,175.975,0,176.266-.291l-6-2.3a16.14,16.14,0,0,0-3.024-.873l-1.424-.1S1475.227,1012.052,1474.663,1012.152Z" transform="translate(-1462.023 -1011.054)" fill="#d1cfcf"/>
          <path id="Path_284" data-name="Path 284" d="M1474.3,1012.236a14.83,14.83,0,0,0-2.97.88l-5.845,2.334c0,.168.91.3,1.077.3,0,0,176.158,0,176.462-.3l-5.845-2.334a14.821,14.821,0,0,0-2.969-.88l-1.43-.105S1474.893,1012.131,1474.3,1012.236Z" transform="translate(-1461.967 -1011.083)" fill="#d2d0d0"/>
          <path id="Path_285" data-name="Path 285" d="M1473.937,1012.321a13.632,13.632,0,0,0-2.915.887l-5.686,2.367c0,.177.894.32,1.07.32,0,0,176.34,0,176.659-.32l-5.687-2.367a13.63,13.63,0,0,0-2.915-.887l-1.435-.11S1474.558,1012.21,1473.937,1012.321Z" transform="translate(-1461.912 -1011.112)" fill="#d3d1d1"/>
          <path id="Path_286" data-name="Path 286" d="M1473.573,1012.4a12.54,12.54,0,0,0-2.86.894l-5.529,2.4c0,.184.88.333,1.065.333,0,0,176.521,0,176.855-.333l-5.528-2.4a12.544,12.544,0,0,0-2.861-.894l-1.44-.115S1474.223,1012.289,1473.573,1012.4Z" transform="translate(-1461.856 -1011.141)" fill="#d4d2d2"/>
          <path id="Path_287" data-name="Path 287" d="M1473.21,1012.489c-.227.041-2.806.669-2.806.9l-5.371,2.433c0,.193.866.349,1.058.349,0,0,176.7,0,177.052-.349l-5.371-2.433c0-.231-2.578-.859-2.806-.9l-1.446-.121S1473.887,1012.368,1473.21,1012.489Z" transform="translate(-1461.801 -1011.171)" fill="#d5d3d3"/>
          <path id="Path_288" data-name="Path 288" d="M1472.847,1012.573c-.237.042-2.751.666-2.751.907l-5.213,2.467c0,.2.851.363,1.051.363,0,0,176.886,0,177.249-.363l-5.213-2.467c0-.241-2.514-.864-2.751-.907l-1.452-.126S1473.553,1012.447,1472.847,1012.573Z" transform="translate(-1461.745 -1011.2)" fill="#d6d4d4"/>
          <path id="Path_289" data-name="Path 289" d="M1472.484,1012.657c-.246.044-2.7.664-2.7.914l-5.055,2.5c0,.208.837.378,1.046.378,0,0,177.067,0,177.444-.378l-5.055-2.5c0-.25-2.45-.87-2.7-.914l-1.458-.131S1473.218,1012.526,1472.484,1012.657Z" transform="translate(-1461.69 -1011.229)" fill="#d7d5d5"/>
          <path id="Path_290" data-name="Path 290" d="M1472.121,1012.741c-.256.046-2.641.661-2.641.921l-4.9,2.533c0,.217.822.392,1.039.392,0,0,177.25,0,177.642-.392l-4.9-2.533c0-.259-2.386-.875-2.642-.921l-1.463-.136S1472.884,1012.605,1472.121,1012.741Z" transform="translate(-1461.634 -1011.258)" fill="#d8d6d6"/>
          <path id="Path_291" data-name="Path 291" d="M1471.757,1012.825c-.265.047-2.587.658-2.587.928l-4.739,2.566c0,.225.808.407,1.032.407,0,0,177.432,0,177.838-.407l-4.739-2.566c0-.27-2.322-.88-2.587-.928l-1.469-.141S1472.548,1012.684,1471.757,1012.825Z" transform="translate(-1461.579 -1011.287)" fill="#d9d7d7"/>
          <path id="Path_292" data-name="Path 292" d="M1471.394,1012.909c-.275.049-2.533.656-2.533.935l-4.581,2.6c0,.232.794.42,1.027.42,0,0,177.613,0,178.034-.42l-4.581-2.6c0-.279-2.258-.885-2.533-.935l-1.474-.146S1472.213,1012.763,1471.394,1012.909Z" transform="translate(-1461.523 -1011.316)" fill="#dad8d8"/>
          <path id="Path_293" data-name="Path 293" d="M1471.031,1012.993c-.284.051-2.478.653-2.478.942l-4.424,2.633c0,.24.779.435,1.02.435,0,0,177.8,0,178.231-.435l-4.423-2.633c0-.289-2.194-.89-2.478-.942l-1.48-.151S1471.878,1012.842,1471.031,1012.993Z" transform="translate(-1461.468 -1011.345)" fill="#dad9d9"/>
          <path id="Path_294" data-name="Path 294" d="M1470.668,1013.077c-.294.052-2.424.65-2.424.948l-4.265,2.666c0,.248.765.45,1.013.45,0,0,177.978,0,178.428-.45l-4.265-2.666c0-.3-2.13-.9-2.424-.948l-1.486-.156S1471.544,1012.921,1470.668,1013.077Z" transform="translate(-1461.412 -1011.374)" fill="#dbdada"/>
          <path id="Path_295" data-name="Path 295" d="M1470.3,1013.161c-.3.054-2.369.647-2.369.955l-4.107,2.7c0,.256.751.464,1.007.464,0,0,178.16,0,178.624-.464l-4.107-2.7c0-.308-2.066-.9-2.369-.955l-1.491-.161S1471.208,1013,1470.3,1013.161Z" transform="translate(-1461.357 -1011.403)" fill="#dcdbdb"/>
          <path id="Path_296" data-name="Path 296" d="M1469.942,1013.245c-.312.056-2.315.645-2.315.962l-3.949,2.732c0,.265.736.479,1,.479,0,0,178.342,0,178.821-.479l-3.949-2.732c0-.318-2-.906-2.314-.962l-1.5-.166S1470.874,1013.079,1469.942,1013.245Z" transform="translate(-1461.301 -1011.432)" fill="#dddcdc"/>
          <path id="Path_297" data-name="Path 297" d="M1469.579,1013.329c-.322.057-2.259.642-2.259.969l-3.792,2.767c0,.272.722.493.994.493,0,0,178.524,0,179.018-.493l-3.792-2.767c0-.327-1.938-.911-2.26-.969l-1.5-.171S1470.539,1013.158,1469.579,1013.329Z" transform="translate(-1461.246 -1011.461)" fill="#dedddd"/>
          <path id="Path_298" data-name="Path 298" d="M1469.216,1013.413c-.332.059-2.205.639-2.205.976l-3.634,2.8c0,.28.708.508.989.508,0,0,178.706,0,179.213-.508l-3.634-2.8c0-.337-1.873-.916-2.2-.976l-1.508-.176S1470.2,1013.237,1469.216,1013.413Z" transform="translate(-1461.19 -1011.491)" fill="#dfdede"/>
          <path id="Path_299" data-name="Path 299" d="M1468.852,1013.5c-.341.061-2.151.636-2.151.982l-3.476,2.833c0,.288.693.522.982.522,0,0,178.887,0,179.41-.522l-3.476-2.833c0-.346-1.809-.921-2.15-.982l-1.514-.181S1469.868,1013.316,1468.852,1013.5Z" transform="translate(-1461.134 -1011.52)" fill="#e0dfdf"/>
          <path id="Path_300" data-name="Path 300" d="M1468.489,1013.581c-.35.062-2.1.633-2.1.99l-3.317,2.865c0,.3.679.537.975.537,0,0,179.07,0,179.606-.537l-3.317-2.865c0-.356-1.745-.927-2.1-.99l-1.52-.186S1469.534,1013.4,1468.489,1013.581Z" transform="translate(-1461.079 -1011.549)" fill="#e1e0e0"/>
          <path id="Path_301" data-name="Path 301" d="M1468.126,1013.665c-.36.064-2.041.631-2.041,1l-3.16,2.9c0,.3.665.551.969.551,0,0,179.252,0,179.8-.551l-3.159-2.9c0-.365-1.682-.932-2.042-1l-1.525-.191S1469.2,1013.474,1468.126,1013.665Z" transform="translate(-1461.024 -1011.578)" fill="#e2e1e1"/>
          <path id="Path_302" data-name="Path 302" d="M1467.763,1013.75c-.37.066-1.987.628-1.987,1l-3,2.932c0,.313.65.566.962.566,0,0,179.434,0,180-.566l-3-2.932c0-.375-1.617-.937-1.987-1l-1.53-.2S1468.864,1013.553,1467.763,1013.75Z" transform="translate(-1460.969 -1011.607)" fill="#e3e2e2"/>
          <path id="Path_303" data-name="Path 303" d="M1467.4,1013.833c-.379.068-1.932.625-1.932,1.01l-2.843,2.966c0,.32.636.58.957.58,0,0,179.616,0,180.2-.58l-2.844-2.966c0-.385-1.553-.943-1.932-1.01l-1.537-.2S1468.529,1013.632,1467.4,1013.833Z" transform="translate(-1460.913 -1011.636)" fill="#e4e3e3"/>
          <path id="Path_304" data-name="Path 304" d="M1467.037,1013.917c-.388.07-1.878.623-1.878,1.017l-2.685,3c0,.328.621.6.95.6,0,0,179.8,0,180.393-.6l-2.686-3c0-.395-1.489-.948-1.877-1.017l-1.542-.206S1468.194,1013.711,1467.037,1013.917Z" transform="translate(-1460.857 -1011.665)" fill="#e5e4e4"/>
          <path id="Path_305" data-name="Path 305" d="M1466.673,1014c-.4.071-1.822.62-1.822,1.024l-2.528,3.032c0,.336.607.609.943.609,0,0,179.98,0,180.589-.609l-2.527-3.032c0-.4-1.425-.952-1.823-1.024l-1.548-.211S1467.859,1013.79,1466.673,1014Z" transform="translate(-1460.802 -1011.694)" fill="#e6e5e5"/>
          <path id="Path_306" data-name="Path 306" d="M1466.31,1014.086c-.407.073-1.768.617-1.768,1.03l-2.37,3.065c0,.345.593.624.938.624,0,0,180.162,0,180.786-.624l-2.37-3.065c0-.413-1.361-.958-1.768-1.03l-1.553-.216S1467.524,1013.869,1466.31,1014.086Z" transform="translate(-1460.746 -1011.723)" fill="#e7e6e6"/>
          <path id="Path_307" data-name="Path 307" d="M1465.947,1014.17c-.417.075-1.714.614-1.714,1.038l-2.211,3.1c0,.352.578.638.931.638,0,0,180.344,0,180.982-.638l-2.211-3.1c0-.423-1.3-.963-1.714-1.038l-1.559-.222S1467.19,1013.948,1465.947,1014.17Z" transform="translate(-1460.691 -1011.753)" fill="#e8e6e6"/>
          <path id="Path_308" data-name="Path 308" d="M1465.584,1014.254c-.426.076-1.66.612-1.66,1.044l-2.053,3.131c0,.361.564.653.924.653,0,0,180.526,0,181.179-.653l-2.053-3.131c0-.433-1.233-.968-1.659-1.044l-1.565-.227S1466.854,1014.027,1465.584,1014.254Z" transform="translate(-1460.635 -1011.782)" fill="#e9e7e7"/>
          <path id="Path_309" data-name="Path 309" d="M1465.221,1014.338c-.436.078-1.6.609-1.6,1.051l-1.9,3.165c0,.368.549.668.918.668,0,0,180.707,0,181.376-.668l-1.9-3.165c0-.443-1.169-.974-1.6-1.051l-1.57-.232S1466.52,1014.106,1465.221,1014.338Z" transform="translate(-1460.58 -1011.811)" fill="#eae8e8"/>
          <path id="Path_310" data-name="Path 310" d="M1464.857,1014.422c-.445.08-1.549.606-1.549,1.058l-1.738,3.2c0,.377.536.682.912.682,0,0,180.89,0,181.572-.682l-1.738-3.2c0-.452-1.1-.979-1.55-1.058l-1.576-.237S1466.185,1014.185,1464.857,1014.422Z" transform="translate(-1460.524 -1011.84)" fill="#ebe9e9"/>
          <path id="Path_311" data-name="Path 311" d="M1464.495,1014.506c-.454.081-1.5.6-1.5,1.065l-1.579,3.231c0,.384.52.7.905.7,0,0,181.072,0,181.769-.7l-1.58-3.231c0-.462-1.04-.984-1.5-1.065l-1.581-.242S1465.85,1014.264,1464.495,1014.506Z" transform="translate(-1460.469 -1011.869)" fill="#eceaea"/>
          <path id="Path_312" data-name="Path 312" d="M1464.131,1014.59c-.464.083-1.44.6-1.44,1.072l-1.422,3.264c0,.393.507.711.9.711,0,0,181.254,0,181.965-.711l-1.421-3.264c0-.472-.977-.99-1.441-1.072l-1.587-.247S1465.515,1014.343,1464.131,1014.59Z" transform="translate(-1460.413 -1011.898)" fill="#edebeb"/>
          <path id="Path_313" data-name="Path 313" d="M1463.768,1014.674c-.473.085-1.386.6-1.386,1.079l-1.264,3.3c0,.4.492.726.893.726,0,0,181.436,0,182.162-.726l-1.264-3.3c0-.481-.913-.995-1.386-1.079l-1.593-.252S1465.18,1014.422,1463.768,1014.674Z" transform="translate(-1460.358 -1011.927)" fill="#eeecec"/>
          <path id="Path_314" data-name="Path 314" d="M1463.406,1014.758c-.483.086-1.332.595-1.332,1.085l-1.105,3.331a.879.879,0,0,0,.886.74s181.618,0,182.358-.74l-1.106-3.331c0-.491-.848-1-1.331-1.085l-1.6-.257S1464.846,1014.5,1463.406,1014.758Z" transform="translate(-1460.303 -1011.957)" fill="#efeded"/>
          <path id="Path_315" data-name="Path 315" d="M1463.042,1014.842c-.493.088-1.277.592-1.277,1.092l-.948,3.365a.872.872,0,0,0,.88.755s181.8,0,182.555-.755l-.948-3.365c0-.5-.785-1-1.277-1.092l-1.6-.262S1464.51,1014.58,1463.042,1014.842Z" transform="translate(-1460.246 -1011.985)" fill="#f0eeee"/>
          <path id="Path_316" data-name="Path 316" d="M1462.679,1014.926c-.5.09-1.222.59-1.222,1.1l-.79,3.4a.865.865,0,0,0,.873.769s181.982,0,182.752-.769l-.79-3.4c0-.51-.721-1.01-1.223-1.1l-1.61-.267S1464.176,1014.659,1462.679,1014.926Z" transform="translate(-1460.192 -1012.015)" fill="#f1efef"/>
          <path id="Path_317" data-name="Path 317" d="M1462.316,1015.01c-.512.092-1.168.587-1.168,1.106l-.632,3.431a.86.86,0,0,0,.867.784s182.164,0,182.948-.784l-.632-3.431c0-.52-.656-1.015-1.168-1.106l-1.615-.272S1463.84,1014.738,1462.316,1015.01Z" transform="translate(-1460.136 -1012.044)" fill="#f2f0f0"/>
          <path id="Path_318" data-name="Path 318" d="M1461.953,1015.094a1.347,1.347,0,0,0-1.113,1.113l-.474,3.464a.854.854,0,0,0,.861.8s182.346,0,183.144-.8l-.474-3.464a1.347,1.347,0,0,0-1.113-1.113l-1.621-.277S1463.506,1014.817,1461.953,1015.094Z" transform="translate(-1460.081 -1012.073)" fill="#f3f1f1"/>
          <path id="Path_319" data-name="Path 319" d="M1461.59,1015.178a1.276,1.276,0,0,0-1.059,1.12l-.316,3.5a.849.849,0,0,0,.854.813s182.528,0,183.341-.813l-.315-3.5a1.276,1.276,0,0,0-1.058-1.12l-1.627-.282S1463.171,1014.9,1461.59,1015.178Z" transform="translate(-1460.025 -1012.102)" fill="#f4f2f2"/>
          <path id="Path_320" data-name="Path 320" d="M1461.226,1015.262a1.21,1.21,0,0,0-1,1.127l-.159,3.53a.846.846,0,0,0,.848.827s182.711,0,183.538-.827l-.158-3.53a1.211,1.211,0,0,0-1-1.127l-1.632-.287S1462.835,1014.975,1461.226,1015.262Z" transform="translate(-1459.969 -1012.131)" fill="#f5f3f3"/>
          <path id="Path_321" data-name="Path 321" d="M1643.54,1015.346l-1.638-.292H1462.5l-1.638.292a1.151,1.151,0,0,0-.949,1.134v3.563a.842.842,0,0,0,.842.842h182.892a.841.841,0,0,0,.842-.842v-3.563A1.151,1.151,0,0,0,1643.54,1015.346Z" transform="translate(-1459.914 -1012.16)" fill="#f6f4f4"/>
        </g>
        <g id="Group_37" data-name="Group 37">
          <g transform="matrix(1, 0, 0, 1, -58.5, -61.5)" filter="url(#Path_322)">
            <path id="Path_322-2" data-name="Path 322" d="M1681.437,394.884H1207.42c-7.807,0-14.136,6.861-14.136,15.324V709.393c0,8.464,6.329,15.324,14.136,15.324h474.017c7.807,0,14.136-6.861,14.136-15.324V410.208C1695.573,401.745,1689.244,394.884,1681.437,394.884Z" transform="translate(-1134.78 -333.38)" fill="url(#linear-gradient)"/>
          </g>
          <path id="Path_323" data-name="Path 323" d="M1680.4,399.068H1210.367c-7.738,0-14.012,6.751-14.012,15.079V708.539c0,8.328,6.274,15.079,14.012,15.079H1680.4c7.739,0,14.011-6.751,14.011-15.079V414.147C1694.411,405.819,1688.138,399.068,1680.4,399.068Z" transform="translate(-1194.416 -396.426)" fill="#0f0f0f"/>
          <g id="Group_34" data-name="Group 34" transform="translate(251.901 5.69)">
            <g id="Group_33" data-name="Group 33">
              <circle id="Ellipse_1" data-name="Ellipse 1" cx="4.55" cy="4.55" r="4.55" fill="none" stroke="#262626" stroke-miterlimit="10" stroke-width="0.075"/>
            </g>
          </g>
          <g id="Group_36" data-name="Group 36" transform="translate(12.693 15.068)">
            <g id="Group_35" data-name="Group 35" transform="translate(0 0)">
              <rect id="Rectangle_6" data-name="Rectangle 6" width="475.956" height="302.454" fill="#fff"/>
            </g>
          </g>
        </g>
      </g>
    </g>
    <path id="Path_2" data-name="Path 2" d="M708.747,572.514s71.6-109.88-4.415-139.932c-19.147-7.57-25.826-113.547-110.876-60.559-33.823,21.073-82.525-4.428-129.164,9.51-42.832,12.8-43.817,49.725-38.4,63.018,5.917,14.525-17.68,31.89-41.848,43.817-37.909,18.708-10.033,84.457,25.78,84.771S708.747,572.514,708.747,572.514Z" transform="translate(-17159.949 -4240.279)" fill="#c1484a" opacity="0.04"/>
    <g id="Group_47" data-name="Group 47" transform="translate(-16684.922 -3933.166)">
      <path id="Path_324" data-name="Path 324" d="M3785.927,350.991H3630.083c-39.972,2.66-39.8,46.694-39.8,46.694h0V608.1h156.04V397.685S3747.065,353.5,3785.927,350.991Z" transform="translate(-3579.413 -348.134)" fill="#f89496"/>
      <g id="Group_41" data-name="Group 41" transform="translate(0 52.21)">
        <rect id="Rectangle_7" data-name="Rectangle 7" width="1.8" height="161.949" fill="#c1484a"/>
      </g>
      <path id="Path_325" data-name="Path 325" d="M3758.24,338.3c-38.862,2.512-39.6,46.694-39.6,46.694V595.406H3562.6V384.99s-.177-44.034,39.8-46.694Z" transform="translate(-3557.956 -338.296)" fill="url(#linear-gradient-2)"/>
      <g id="Group_43" data-name="Group 43" transform="translate(170.487 9.703)">
        <path id="Path_327" data-name="Path 327" d="M4301.419,450.272h-1.8V428.846c-.025-.356-2.31-41.454,32.369-47.433l.306,1.774c-33.1,5.707-30.9,45.2-30.876,45.6Z" transform="translate(-4299.58 -381.413)" fill="#c1484a"/>
      </g>
      <g id="Group_44" data-name="Group 44" transform="translate(139.503 213.247)">
        <path id="Path_328" data-name="Path 328" d="M4195.6,1338.847h-33.7v-1.8h31.9v-51.113h1.8Z" transform="translate(-4161.893 -1285.934)" fill="#c1484a"/>
      </g>
      <g id="Group_1315" data-name="Group 1315">
        <rect id="Rectangle_8" data-name="Rectangle 8" width="107.178" height="9.457" transform="translate(25.133 54.968)" fill="#f69ea0"/>
        <rect id="Rectangle_9" data-name="Rectangle 9" width="91.515" height="6.699" transform="translate(25.133 76.837)" fill="#f69ea0"/>
        <rect id="Rectangle_10" data-name="Rectangle 10" width="46.004" height="9.949" transform="translate(25.133 94.52)" fill="#f69ea0"/>
        <rect id="Rectangle_11" data-name="Rectangle 11" width="47.58" height="9.949" transform="translate(84.732 94.52)" fill="#f69ea0"/>
        <rect id="Rectangle_12" data-name="Rectangle 12" width="73.291" height="7.093" transform="translate(25.133 113.68)" fill="#f69ea0"/>
        <rect id="Rectangle_13" data-name="Rectangle 13" width="82.576" height="3.94" transform="translate(25.133 131.412)" fill="#f69ea0"/>
        <rect id="Rectangle_14" data-name="Rectangle 14" width="99.298" height="3.94" transform="translate(25.133 149.143)" fill="#f69ea0"/>
        <g id="Group_42" data-name="Group 42" transform="translate(24.797 166.538)">
          <path id="Path_326" data-name="Path 326" d="M3698.832,1100.71h-46.679v-22.347h46.679Zm-46-.675h45.329v-21h-45.329Z" transform="translate(-3652.153 -1078.363)" fill="#f69ea0"/>
        </g>
        <rect id="Rectangle_15" data-name="Rectangle 15" width="41.768" height="5.123" transform="translate(82.662 166.875)" fill="#f69ea0"/>
        <rect id="Rectangle_16" data-name="Rectangle 16" width="29.604" height="5.123" transform="translate(82.662 177.711)" fill="#f69ea0"/>
        <rect id="Rectangle_17" data-name="Rectangle 17" width="89.299" height="3.94" transform="translate(25.133 202.339)" fill="#f69ea0"/>
        <rect id="Rectangle_18" data-name="Rectangle 18" width="47.038" height="3.94" transform="translate(25.133 220.07)" fill="#f69ea0"/>
        <g id="Group_45" data-name="Group 45" transform="translate(118.057 201.108)">
          <path id="Path_329" data-name="Path 329" d="M4095.939,1261.335h-29.348v-29.348h29.348Zm-26.647-2.7h23.946v-23.947h-23.946Z" transform="translate(-4066.591 -1231.987)" fill="#f69ea0"/>
        </g>
        <g id="Group_46" data-name="Group 46" transform="translate(122.887 202.57)">
          <path id="Path_330" data-name="Path 330" d="M4098.364,1257.789l-10.307-9.716,3.086-3.275,7.425,7,16.2-13.311,2.856,3.477Z" transform="translate(-4088.057 -1238.485)" fill="#f69ea0"/>
        </g>
        <path id="file_pdf_box" data-name="file pdf box" d="M12.754,12.179a17.043,17.043,0,0,1-1.175,2.785,10.02,10.02,0,0,0-.57,1.2l.126-.049h0A21.187,21.187,0,0,1,15,15.046c-.176-.124-.339-.25-.484-.375A7.184,7.184,0,0,1,12.754,12.179Zm7.489,4.411a1.319,1.319,0,0,1-1.04.346,8.374,8.374,0,0,1-3.453-.855,23.011,23.011,0,0,0-4.683.868c-.061.023-.135.051-.213.082-1.438,2.455-2.5,3.55-3.44,3.55a1.127,1.127,0,0,1-.508-.12L6.352,20.1l-.027-.06a.965.965,0,0,1-.061-.623,4.392,4.392,0,0,1,2.177-2.45A6.313,6.313,0,0,1,9.47,16.4c.342-.6.713-1.3,1.1-2.088a19.889,19.889,0,0,0,1.257-3.382l0-.014a5.7,5.7,0,0,1-.253-3.777c.126-.446.484-.9.92-.9l.273,0a.979.979,0,0,1,.7.282c.762.762.413,2.622.025,4.159l-.04.163A6.7,6.7,0,0,0,15.3,13.8a8.71,8.71,0,0,0,1,.677,13.843,13.843,0,0,1,1.5-.086c1.434,0,2.3.259,2.635.795a.937.937,0,0,1,.142.637A1.11,1.11,0,0,1,20.243,16.59ZM21.508,3H5.313A2.313,2.313,0,0,0,3,5.312V21.506A2.314,2.314,0,0,0,5.313,23.82H21.508a2.314,2.314,0,0,0,2.314-2.314V5.312A2.314,2.314,0,0,0,21.508,3Zm-1.72,12.775c-.128-.124-.6-.412-2.218-.412a.3.3,0,0,0-.265.116,6.265,6.265,0,0,0,2.2.592,1.52,1.52,0,0,0,.226-.016l.039-.008c.056-.019.093-.036.1-.149A.782.782,0,0,0,19.788,15.773ZM9.165,17.455a4.448,4.448,0,0,0-.551.364,4.241,4.241,0,0,0-1.405,1.958C7.734,19.6,8.415,18.838,9.165,17.455Zm3.489-7.987.062-.044c.084-.375.14-.7.186-.952l.035-.189a1.553,1.553,0,0,0-.112-1.267l-.171-.058a.842.842,0,0,0-.078.136A4.23,4.23,0,0,0,12.654,9.468Z" transform="translate(22.006 24.723)" fill="#f69ea0"/>
      </g>
    </g>
    <g id="Group_40" data-name="Group 40" transform="translate(-16534.051 -3837.94)">
      <g id="Group_28" data-name="Group 28" transform="translate(3.234)">
        <path id="Path_94" data-name="Path 94" d="M2265.5,1521.436l-2.708,11.4-4.056-.023-.148-11.382Z" transform="translate(-2201.833 -1370.295)" fill="#ffb27d"/>
        <path id="Path_95" data-name="Path 95" d="M2045.16,1516.936l-7.7,10.919-3-3.856,4.637-8.564Z" transform="translate(-2015.606 -1365.31)" fill="#ffb27d"/>
        <path id="Path_96" data-name="Path 96" d="M2194.585,629.177a7.852,7.852,0,0,1,4.252-.813,1.988,1.988,0,0,0-.9-.426,6.589,6.589,0,0,1,2.352.614c10.124-3.9,11.715,11.006,11.5,14.469s3.4,4.594,8.669,7.323c10.05,5.206,10.933,12.178,10.933,12.178-.078.046-.16.1-.247.158-.5-.845-1.525-2.431-2.391-2.67a35.739,35.739,0,0,1,1.393,3.391c-2.965,2.255-8.511,7.253-12.377,10.8a5.677,5.677,0,0,0-.263-2.195l-.478,2.876c-2.068,1.9-3.495,3.239-3.495,3.239.255-2.8-12.657-17.567-19.394-21.99-1.64-2.414-2.223-6.679-2.266-7.015a18.426,18.426,0,0,0,1.378,6.347C2187.552,650.207,2190.874,631.286,2194.585,629.177Z" transform="translate(-2145 -627.906)" fill="#163560"/>
        <path id="Path_97" data-name="Path 97" d="M2215.933,747.049c-.033.015,3.253,1.722,5.725,1.045,2.325-.634,3.844-3.649,3.812-3.656-.985-.2-1.269-1.549-1.247-7.364l-.446.088-7.485,1.482s.17,2.356.175,4.575C2216.473,745.083,2216.36,746.85,2215.933,747.049Z" transform="translate(-2166.389 -718.609)" fill="#ffb27d"/>
        <path id="Path_98" data-name="Path 98" d="M2225.069,640.968a5.983,5.983,0,0,0-8.329-.2A32.458,32.458,0,0,1,2225.069,640.968Z" transform="translate(-2167.061 -637.256)" fill="#e37970"/>
        <path id="Path_99" data-name="Path 99" d="M2218.058,739.075s.17,2.356.176,4.575c4.189-.118,6.4-3.939,7.31-6.057Z" transform="translate(-2168.155 -719.039)" fill="#d68d5d"/>
        <path id="Path_100" data-name="Path 100" d="M2203.161,657.23a22.023,22.023,0,0,0,2.722-6.434c.376-2.117-.7-9.966-8.589-8.835a10.718,10.718,0,0,0-4.444,1.68c-1.712,1.156-4.184,3.653-1.42,10.5l.718,2.314Z" transform="translate(-2145 -639.491)" fill="#163560"/>
        <path id="Path_101" data-name="Path 101" d="M2041.679,1126.663l3.968.122,4.3.131a84.772,84.772,0,0,0,15.484-28.75q.2-.617.412-1.25c3.046-8.88,9.359-20.026,12.686-30.115.53-1.607,1-3.119,1.432-4.551.136-.458.269-.909.4-1.352a107.008,107.008,0,0,0,3.816-20.088l-24.024.192A447.809,447.809,0,0,1,2041.679,1126.663Z" transform="translate(-2021.61 -970.967)" fill="#486eb8"/>
        <path id="Path_102" data-name="Path 102" d="M2153.62,807.36c.06,11.432-1.677,16.337-1.677,16.337a32.283,32.283,0,0,0,22.512,1.379c.144-.045,10.123-2.323,10.123-2.323-.2-.463-2.024-8.167-2.224-8.592-2.581-5.543-4.541-7.973-4.847-9.677a36.238,36.238,0,0,1-.3-9.578,76.827,76.827,0,0,1,2.965-15.041,78.847,78.847,0,0,1-10-3.354,7.505,7.505,0,0,1-5.264,1.949c-2.435-.054-3.2-1.083-3.106-2.243-2.6,1.444-4.658,2.817-4.658,2.817-2.205,3.831-6.678,7.552-7,13.428C2150.059,793.908,2153.618,807.04,2153.62,807.36Z" transform="translate(-2111.724 -751.13)" fill="#e7f1fd"/>
        <path id="Path_103" data-name="Path 103" d="M2275.141,870.281c1.051,1.486,3.064,10.52,8.073,11.656-2.581-6.439-4.541-9.262-4.847-11.241a48.824,48.824,0,0,1-.3-11.126c-1.677-2.939-2.928-4.954-2.928-4.954-.132-.476-2.665-8.308-3.477-1.307S2273.969,868.618,2275.141,870.281Z" transform="translate(-2212.584 -812.777)" fill="#5f9aa8"/>
        <path id="Path_104" data-name="Path 104" d="M2193.576,676.639s9.91.163,9.916-6.01,1.291-10.31-5.036-10.675-7.559,1.989-8.062,4.049S2191,676.438,2193.576,676.639Z" transform="translate(-2145.072 -654.502)" fill="#ffb27d"/>
        <path id="Path_105" data-name="Path 105" d="M2187.358,653.854c1.53-1.854,2.686-1.451,3.335-.894,2.142-3.2,8.91,1.428,8.91,1.428a11.793,11.793,0,0,0,3.857,6.967s-1.806,1.116-5.971.045c-3.277-.843-5.656-5.507-6.52-7.456a7.867,7.867,0,0,0-2.206,2.92c-.493,1.572-.716,4.808-1.659,4.7C2187.1,661.561,2185.061,656.639,2187.358,653.854Z" transform="translate(-2141.742 -647.785)" fill="#163560"/>
        <path id="Path_106" data-name="Path 106" d="M2258.483,1585.092a10.986,10.986,0,0,0,.516,4.676s.664,3.025-2.315,3.081-3.71-.225-3.372-2.079.978-5.063.978-5.063Z" transform="translate(-2197.384 -1423.185)" fill="#ffb27d"/>
        <path id="Path_107" data-name="Path 107" d="M2252.011,1616.918l.01.007h6.163l.01-.007a15.893,15.893,0,0,0-.214-4.562c-3.374,3.225-5.485-.081-5.485-.081A17.225,17.225,0,0,0,2252.011,1616.918Z" transform="translate(-2196.364 -1445.77)" fill="#c45446"/>
        <path id="Path_108" data-name="Path 108" d="M1992,1575.405s5.493-6.237,7.179-9.339l4.084,2.092-9.129,8.574-2.136-.281Z" transform="translate(-1980.332 -1407.377)" fill="#ffb27d"/>
        <path id="Path_109" data-name="Path 109" d="M1972.095,1588.694h7.621a12.443,12.443,0,0,0,2.095-3.421,3.687,3.687,0,0,1,2.487-1.7v5.117h1.577l1.46-5.441c.972-1.823.242-3.495-.442-4.935-.8,0-3.1.573-7.161,5.235a5.277,5.277,0,0,1-4.268,2.032.332.332,0,0,1-.06.032C1973.093,1586.677,1972.34,1587.98,1972.095,1588.694Z" transform="translate(-1963.797 -1417.556)" fill="#c45446"/>
        <path id="Path_110" data-name="Path 110" d="M1969.2,783.513s6.505,3.638,8.829,4.686c.826.373,2.323,1.069,3.853,1.784.924.431,1.859.87,2.667,1.251a3.352,3.352,0,0,0,3.973-.857c3.523-4.113,12.639-13.028,22.053-14.145l.032-.014,0,.01.012,0-.052.1c-.529,1.316-5.69,14.211-5.85,16.93-.168,2.867-.674,46.878-.674,46.878s.337,2.024-3.542,1.18-4.89-1.686-4.89-1.686,3.71-27.149,2.7-36.592a21.019,21.019,0,0,1,.395-6.086,48.365,48.365,0,0,1-12.494,5.018,56.862,56.862,0,0,1-6.439-3.528,40.421,40.421,0,0,1-5.43-4.369,79.687,79.687,0,0,1-6.172-7.1Z" transform="translate(-1960.534 -751.13)" fill="#e37970"/>
        <path id="Path_111" data-name="Path 111" d="M2065.137,1212.271l4.294.132a84.767,84.767,0,0,0,15.485-28.751c.13-.411.266-.828.411-1.249,3.046-8.88,9.359-20.026,12.686-30.115.53-1.607,1.006-3.119,1.432-4.551q.2-.687.4-1.352l-3.538-2.684s-10.622,17.2-13.91,33.386C2079.538,1191.146,2068.1,1208.063,2065.137,1212.271Z" transform="translate(-2041.101 -1056.453)" fill="#375da7"/>
        <path id="Path_112" data-name="Path 112" d="M2235.615,1156.171c-.06,7.871.337,25.968,1.363,33.46h3.8c2.1,0,3.151-.03,3.151-.03,2.571-13.026,4.4-23.805,5.733-33.093,1.093-7.622,2.064-14.156,2.811-19.781.752-5.661,1.275-10.4,1.462-14.406q.044-.946.062-1.84t.01-1.745l-20.758-2.024C2233.516,1130.5,2235.649,1151.6,2235.615,1156.171Z" transform="translate(-2180.781 -1034.032)" fill="#486eb8"/>
        <path id="Path_113" data-name="Path 113" d="M2277.756,1217.18c2.1,0,3.151-.03,3.151-.03,2.572-13.027,4.4-23.805,5.734-33.093,1.093-7.622,2.064-14.156,2.811-19.781.752-5.661,1.275-10.4,1.462-14.405l-7.617,4.48s4.861,1.715,3.007,14.7S2280.338,1215.342,2277.756,1217.18Z" transform="translate(-2217.756 -1061.58)" fill="#375da7"/>
        <path id="Path_114" data-name="Path 114" d="M2237.118,840.738s1.462,5.283,6.521,4.608,12.253-3.71,12.253-3.71-2.162-6.831-4.85-15.805c-3.255-10.865-7.283-24.871-9.182-33.7a54.588,54.588,0,0,1-1.032-6.023l-4.284-8.146s-6.171,14.048-6.508,17.589S2237.118,840.738,2237.118,840.738Z" transform="translate(-2178.098 -752.576)" fill="#e37970"/>
        <path id="Path_115" data-name="Path 115" d="M2148.081,904.233a3.756,3.756,0,0,1,3.669,3.359,7.427,7.427,0,0,0,1.06,2.531c2.426.13,8.2.445,13.054.752l.4,6.365a72.67,72.67,0,0,1-14.522-3.437,3.8,3.8,0,0,1-1.653-.9c-3.493-2.861-5.476-7.653-5.482-8.339S2145.647,903.913,2148.081,904.233Z" transform="translate(-2107.128 -857.31)" fill="#ffb27d"/>
        <path id="Path_116" data-name="Path 116" d="M2273.265,872.567c.226,5.733,1.575,16.862,13.6,22.82.032.015.064.032.1.046-3.255-10.865-7.283-24.871-9.182-33.7C2275.573,865.03,2273.142,869.411,2273.265,872.567Z" transform="translate(-2214.021 -822.177)" fill="#c45446"/>
        <path id="Path_117" data-name="Path 117" d="M2265.751,777.957s10.289.729,12.763,6.238,3.26,23.832.113,29.228c0,0-4.334,1.234-12-.2l-.283-.054s-2.445-5.986-.253-7.167c0,0,6.464.337,5.79-1.8S2265.751,777.957,2265.751,777.957Z" transform="translate(-2207.305 -752.576)" fill="#e37970"/>
        <g id="Group_27" data-name="Group 27" transform="translate(0 27.99)">
          <path id="Path_118" data-name="Path 118" d="M1924.73,793.45a6.186,6.186,0,0,1,6.932,4.324l-1.034,3.458a4.383,4.383,0,0,1-4.575-2.178c-1.376-1.969-1.754-1.213-2.629-2.678C1922.239,794.389,1924.095,793.649,1924.73,793.45Z" transform="translate(-1923.037 -793.381)" fill="#ffb27d"/>
          <path id="Path_119" data-name="Path 119" d="M1978.031,824.034c.826.372,2.323,1.069,3.853,1.784a19.666,19.666,0,0,0-2.115,8.46,35.333,35.333,0,0,1-5.592-4.5,74.135,74.135,0,0,1-6.01-6.968l1.034-3.458S1975.707,822.986,1978.031,824.034Z" transform="translate(-1960.534 -814.956)" fill="#ffb27d"/>
        </g>
      </g>
      <path id="Path_120" data-name="Path 120" d="M1918.115,805.89l-14,.615a.193.193,0,0,1-.2-.18h0a.193.193,0,0,1,.172-.205l13.931-1.5a.637.637,0,0,1,.7.59h0A.637.637,0,0,1,1918.115,805.89Z" transform="translate(-1903.915 -774.726)" fill="#163560"/>
    </g>
    <g id="man_2" data-name="man 2" transform="translate(-16778.855 -3815.495)">
      <path id="Path_65" data-name="Path 65" d="M1037.369,1578.445s-.479,7.932.966,8.047c.192.016,7.329.016,7.329.016l9.11-.057a3.113,3.113,0,0,0-2.723-2.856c-2.663-.5-7.341-2.326-8.132-6.4S1037.369,1578.445,1037.369,1578.445Z" transform="translate(-947.19 -1437.798)" fill="#163560"/>
      <path id="Path_66" data-name="Path 66" d="M1139.92,1578.445s-.479,7.932.966,8.047c.192.016,7.328.016,7.328.016l9.11-.057a3.113,3.113,0,0,0-2.723-2.856c-2.663-.5-7.341-2.326-8.133-6.4S1139.92,1578.445,1139.92,1578.445Z" transform="translate(-1032.395 -1437.798)" fill="#163560"/>
      <path id="Path_67" data-name="Path 67" d="M825.929,993.468l-7.984,2.753s-5.081-10.342-6.317-11.747c-1.412-1.6-2.426-13.931-3.065-25.083-.558-9.753-.829-18.605-.829-18.605s2.717.618,4.491,5.206c3.041,7.865,3.019,23.222,4.711,31.141C817.909,981.692,824.284,992.82,825.929,993.468Z" transform="translate(-756.461 -910.309)" fill="#699dee"/>
      <path id="Path_68" data-name="Path 68" d="M815.113,1087.9c-3.044-3.541-5.08-10.341-6.317-11.746-1.412-1.6-8.091-10.706-1.85-25.022,3.059,9.055.507,13.988,1.468,19.333C809.368,1075.77,814.835,1084.364,815.113,1087.9Z" transform="translate(-753.629 -1001.993)" fill="#3b76ca"/>
      <path id="Path_69" data-name="Path 69" d="M707.122,1480.714a3.926,3.926,0,0,1-2.515.663c-2,0-2.515-.663-2.515-.663v-28.148h5.031Z" transform="translate(-668.689 -1335.522)" fill="#486eb8"/>
      <path id="Path_70" data-name="Path 70" d="M570.726,1186.025c0,.019-.005.042-.009.064a26.4,26.4,0,0,1-.722,3.487,20.722,20.722,0,0,1-2.033,4.944c-2.724,4.595-7.891,9.708-20.28,11.378-.6.079-1.219.155-1.855.219q-1.734.177-3.647.265c-.081,0-.162.007-.244.009s-.162.007-.245.009a60.107,60.107,0,0,1-12.133-1.818c-9.23-2.19-15.244-6.7-19.046-12.183a0,0,0,0,1,0,0q-.484-.7-.923-1.417a30.33,30.33,0,0,1-1.978-3.85,40.334,40.334,0,0,1-3-15.184,50.129,50.129,0,0,1,1.6-11.911,21.627,21.627,0,0,1,2.934-6.532,17.663,17.663,0,0,1,1.122-1.491,16.587,16.587,0,0,1,4.553-3.835c4.41-2.512,18.912-5.016,31.2,1.466C568.637,1161.574,572.041,1176.313,570.726,1186.025Z" transform="translate(-504.614 -1080.417)" fill="#d0def9"/>
      <path id="Path_71" data-name="Path 71" d="M591.359,1401.284c-3.607,4.2-6.854,8.5-19.243,9.876-.6.065-1.219.127-1.855.178q-1.734.148-3.647.219c-.081,0-.162.007-.244.007s-.162.007-.245.009a60.1,60.1,0,0,1-12.133-1.818c-9.23-2.19-15.244-6.7-19.046-12.182a0,0,0,0,1,0,0q-.484-.7-.923-1.417c7-1.671,21.962-4.6,36.823-3.4,8.062.649,16.424,1.367,23.585,2C594.671,1394.77,592.548,1399.9,591.359,1401.284Z" transform="translate(-529.048 -1285.591)" fill="#d0def9"/>
      <path id="Path_72" data-name="Path 72" d="M611.738,945.849q.173-.713.369-1.4c1.771-6.262,4.656-10.8,9.19-11.546.569,1.549,6.119,4.122,10.976,3.871a3.185,3.185,0,0,0,1.336-.758c3.836-.541,5.66-2.6,5.48-2.874.162.013,4.027,1.1,4.027,1.1,3.355,14.672,3.757,22.825-.281,43.748-1.474,7.643.78,11.794.281,12.3-.874.875-10.539,1.127-18.31,1.428-.932.035-1.854.068-2.749.1-5.681.185-10.359.251-10.359.251-.385-.481-1.1-4.915-1.58-11.159C609.341,970.926,609.138,956.342,611.738,945.849Z" transform="translate(-591.844 -903.756)" fill="#699dee"/>
      <path id="Path_73" data-name="Path 73" d="M694.515,884.778l4.62,3.827,7.035-1.086c-.066-.677-.417-3.614-.718-6.119-.248-2.046-.463-3.8-.463-3.8l-8.4-3.362-.253-.1c0,.042.005.084.007.126.024.336.038.665.046.988A20.843,20.843,0,0,1,694.515,884.778Z" transform="translate(-662.393 -854.93)" fill="#e49963"/>
      <path id="Path_74" data-name="Path 74" d="M669.026,1293.116c23.518,1.688,30.839,1.384,31.664,2.515,5.192,7.114,5.717,8.342,16.248,22.6,2.01,2.72,4.382,5.914,7.222,9.713h11s-11.862-22.636-21.347-37.97c-3.743-6.053-7.117-10.968-9.244-12.907-7.35-6.7-36.633-6.543-36.633-6.543s-25.425-.615-27.426,3.151C640.072,1274.49,651.319,1291.842,669.026,1293.116Z" transform="translate(-617.51 -1184.237)" fill="#1c468a"/>
      <path id="Path_75" data-name="Path 75" d="M669.026,1293.116c23.518,1.688,30.839,1.384,31.664,2.515,5.192,7.114,5.717,8.342,16.248,22.6l-3.129-28.257c-3.743-6.053-7.117-10.968-9.244-12.907-7.35-6.7-36.633-6.543-36.633-6.543s-25.425-.615-27.426,3.151C640.072,1274.49,651.319,1291.842,669.026,1293.116Z" transform="translate(-617.51 -1184.237)" fill="#163560"/>
      <path id="Path_76" data-name="Path 76" d="M728.008,953.906l4.628-.491a.685.685,0,0,1,.468.856c-.111.729-1.637,2.7-2.212,2.8S726.754,955.247,728.008,953.906Z" transform="translate(-690 -920.801)" fill="#a8d29f"/>
      <path id="Path_77" data-name="Path 77" d="M625.7,1276.173s.785,14.241,18.493,15.514c23.518,1.69,28.37,1.132,29.908,2.57,7.56,7.067,2.563,8.565,20.286,32.28h11.132s-13.587-45.005-19.74-50.389c-7.473-6.54-38-7.032-38-7.032s-20.347-1.567-22.347,2.2C625,1272.133,625.7,1276.173,625.7,1276.173Z" transform="translate(-604.881 -1182.832)" fill="#1c468a"/>
      <g id="Group_25" data-name="Group 25" transform="translate(0.001 71.594)">
        <path id="Path_78" data-name="Path 78" d="M547.688,1237.751a25.169,25.169,0,0,1-3.771.48c-.538.025-1.085.034-1.645.028-.047,0-.1,0-.143,0l-.432-.009a60.07,60.07,0,0,1-12.133-1.818c-12.057-2.86-18.625-9.678-21.949-17.451a40.332,40.332,0,0,1-3-15.184,50.132,50.132,0,0,1,1.6-11.911,21.645,21.645,0,0,1,2.934-6.532c.261-.388.538-.768.833-1.134.094-.12.191-.238.289-.357C518.587,1192.552,543.691,1220.174,547.688,1237.751Z" transform="translate(-504.619 -1183.863)" fill="#89a6df"/>
        <path id="Path_79" data-name="Path 79" d="M547.058,1239.5a25.117,25.117,0,0,1-3.771.48c-.335.016-.672.025-1.015.029-.047,0-.1,0-.143,0L541.7,1240a60.061,60.061,0,0,1-12.133-1.818c-12.057-2.86-18.625-9.679-21.949-17.451a40.333,40.333,0,0,1-3-15.184,50.131,50.131,0,0,1,1.6-11.911,21.646,21.646,0,0,1,2.934-6.532c.261-.388.538-.768.833-1.135C518.621,1195.035,543.114,1222.158,547.058,1239.5Z" transform="translate(-504.619 -1185.614)" fill="#cad8f2"/>
      </g>
      <g id="Group_26" data-name="Group 26" transform="translate(29.11 27.73)">
        <path id="Path_80" data-name="Path 80" d="M746.434,925.619s-.77,3.439-2.8,5.1l3.133,4.074s3.795-4.492,3.683-7.707A25.349,25.349,0,0,0,746.434,925.619Z" transform="translate(-732.313 -925.437)" fill="#3b76ca"/>
        <path id="Path_81" data-name="Path 81" d="M747.337,925.619s-.587,3.237-2.618,4.9l3.01,3.705s3.3-3.84,3.623-7.136A25.356,25.356,0,0,0,747.337,925.619Z" transform="translate(-733.215 -925.437)" fill="#699dee"/>
        <path id="Path_82" data-name="Path 82" d="M680.288,925.619s4.791,4.539,7.924,4.9l-2.144,5.353s-9.332-5.528-9.36-8.84A13.921,13.921,0,0,1,680.288,925.619Z" transform="translate(-676.708 -925.437)" fill="#3b76ca"/>
        <path id="Path_83" data-name="Path 83" d="M682.31,924.545s4.449,4.721,7.582,5.082l-1.737,4.933s-9.4-5.291-9.426-8.6A13.926,13.926,0,0,1,682.31,924.545Z" transform="translate(-678.388 -924.545)" fill="#699dee"/>
      </g>
      <path id="Path_84" data-name="Path 84" d="M612.354,1080.785c.484,6.244.354,9.507,2.281,11.343,0,0,3.9,1.469,9.658-.435a8.479,8.479,0,0,0,4.26-4.277c3.794-9.421-3.425-17.252-3.792-23.492s-6.087-10.8-6.087-10.8S611.578,1070.816,612.354,1080.785Z" transform="translate(-594.081 -1003.646)" fill="#3b76ca"/>
      <path id="Path_85" data-name="Path 85" d="M734.036,970.783s-.877,8.279-1.033,11.049c-.439,7.792-.6,31.212-.6,31.212a5.32,5.32,0,0,0,1.134,3.675,20.962,20.962,0,0,0,2.79,2.747,10.325,10.325,0,0,0,2.8-5.044c.529-2.191-.74-20.579-2.019-32.828a109.884,109.884,0,0,0-1.706-10.978S734.353,970.434,734.036,970.783Z" transform="translate(-693.861 -935.053)" fill="#a8d29f"/>
      <path id="Path_86" data-name="Path 86" d="M548.67,1590.318h55.021c-2.619-5.726-13.94-10.034-27.511-10.034S551.289,1584.592,548.67,1590.318Z" transform="translate(-541.218 -1441.636)" fill="#c9d6f1"/>
      <path id="Path_87" data-name="Path 87" d="M706.4,1224.024a34.784,34.784,0,0,1,4.955,1.652c1.224.673,3.679,3.9,3.128,4.4-2.763,2.533-3.189-.275-6.584-1.193-.617-.167-3.457-3.334-3.457-3.334Z" transform="translate(-670.639 -1145.637)" fill="#e49963"/>
      <path id="Path_88" data-name="Path 88" d="M683.888,1175.037l5.6-19.373h32.017l-5.781,20.159H673.7v-.786Z" transform="translate(-645.096 -1088.84)" fill="#c65447"/>
      <path id="Path_89" data-name="Path 89" d="M849.122,1207.016a.934.934,0,0,0-.915-1.283,1.838,1.838,0,0,0-1.651,1.283.934.934,0,0,0,.915,1.283A1.839,1.839,0,0,0,849.122,1207.016Z" transform="translate(-788.673 -1130.44)" fill="#f1a34f"/>
      <path id="Path_90" data-name="Path 90" d="M595.374,932.9s-6.358,1.034-9.539,4.338-8.565,30.345-7.219,34.138,12.113,11.5,19.822,14.683c0,0,3.793-1.713,4.038-4.65,0,0-13.093-11.012-13.7-13.949S595.374,932.9,595.374,932.9Z" transform="translate(-565.922 -903.756)" fill="#699dee"/>
      <path id="Path_91" data-name="Path 91" d="M705.3,874.755c.024.336.038.664.046.988,1.626,1.753,5.449,5.49,9.067,6.152-.248-2.046-.463-3.8-.463-3.8l-8.4-3.362Z" transform="translate(-671.354 -855.426)" fill="#d68d5d"/>
      <path id="Path_92" data-name="Path 92" d="M709.875,815.526s-10.079.461-10.269-5.82-1.619-10.451,4.808-11.011,7.75,1.8,8.324,3.88S712.492,815.244,709.875,815.526Z" transform="translate(-666.402 -792.182)" fill="#e49963"/>
      <path id="Path_93" data-name="Path 93" d="M687.625,778.128s.753-8.381,9.732-8.08,5.094-8.191-2.621-9.443c0,0,.805,2.992-4.048,3.465C680.5,765.062,686.72,776.8,687.625,778.128Z" transform="translate(-654.421 -760.605)" fill="#1c468a"/>
    </g>
    <text id="PDFwriter" transform="translate(-16803.109 -3712.504) rotate(-90)" fill="rgba(193,72,74,0.05)" font-size="36" font-family="Poppins-ExtraBold, Poppins" font-weight="800"><tspan x="0" y="0">PDFwriter</tspan></text>
  </g>
</svg>
