<svg xmlns="http://www.w3.org/2000/svg" width="37.391" height="37.374" viewBox="0 0 37.391 37.374">
  <g id="Group_1347" data-name="Group 1347" transform="translate(-292.89 -383)">
    <path id="Path_1787" data-name="Path 1787" d="M315.668,419H312.4q-7.748,0-15.5,0a3.922,3.922,0,0,1-3.959-3.3,10.406,10.406,0,0,1-.04-1.469c0-9.046.029-18.094-.019-27.139a4.024,4.024,0,0,1,4.1-4.087q6.406.007,12.812,0h.636c0,.935,0,1.825,0,2.714-.006,2.625-.019,5.252-.014,7.877,0,.561.268.77.916.77q4.566,0,9.133-.017c.574,0,1.146,0,1.746,0V403.1c-3.941.291-6.9,2.093-8.437,5.773S313.054,415.928,315.668,419Zm-8.1-22.309h0q-3.722,0-7.443,0a3.3,3.3,0,0,0-.56.039,1.365,1.365,0,0,0-1.136,1.375c.007.854.636,1.4,1.63,1.4q7.509,0,15.018,0a2.8,2.8,0,0,0,.6-.055,1.356,1.356,0,0,0,1.047-1.273,1.4,1.4,0,0,0-1.584-1.482C312.617,396.684,310.093,396.688,307.568,396.688Zm-.413,7.786c2.437,0,4.874.006,7.31,0a1.394,1.394,0,1,0,.02-2.788q-7.334-.009-14.665,0a1.328,1.328,0,0,0-1.25.784,1.38,1.38,0,0,0,1.273,2C302.28,404.482,304.717,404.475,307.155,404.475Zm-1.785,2.2h0c-1.8,0-3.6-.012-5.4.012a1.994,1.994,0,0,0-.935.249,1.309,1.309,0,0,0-.551,1.51,1.41,1.41,0,0,0,1.473,1.029q5.381,0,10.764,0a1.422,1.422,0,0,0,1.581-1.4,1.4,1.4,0,0,0-1.568-1.4C308.945,406.674,307.158,406.677,305.37,406.677Zm-.4,4.845c-1.689,0-3.376,0-5.063,0a1.382,1.382,0,0,0-1.39.9,1.4,1.4,0,0,0,1.372,1.9c1.5.02,3,.007,4.5.007,1.86,0,3.72.007,5.581-.006a1.394,1.394,0,0,0,1.474-1.653,1.372,1.372,0,0,0-1.457-1.141C308.315,411.517,306.642,411.522,304.969,411.522Z" transform="translate(0)" fill="#98a2c5"/>
    <path id="Path_1788" data-name="Path 1788" d="M315.812,397.983a7.911,7.911,0,1,1-7.926,7.865A7.913,7.913,0,0,1,315.812,397.983Zm1.377,10.121c0-.575.023-1.152-.006-1.728a1.4,1.4,0,0,0-2.791.024q-.039,1.683,0,3.369a1.4,1.4,0,0,0,2.794-.024C317.2,409.2,317.19,408.652,317.188,408.1Zm.135-5.551a1.529,1.529,0,1,0-1.518,1.562A1.557,1.557,0,0,0,317.324,402.553Z" transform="translate(6.575 6.569)" fill="#98a2c5"/>
    <path id="Path_1789" data-name="Path 1789" d="M316.18,392.964c-1.207,0-2.342,0-3.477,0q-2.512-.006-5.02-.02c-1.125,0-1.617-.488-1.615-1.6q0-3.961.011-7.92v-.416a3.582,3.582,0,0,1,.606.385q4.7,4.691,9.4,9.395A1.515,1.515,0,0,1,316.18,392.964Z" transform="translate(5.778 0.004)" fill="#98a2c5"/>
  </g>
</svg>
