<svg xmlns="http://www.w3.org/2000/svg" width="94.686" height="89.593" viewBox="0 0 94.686 89.593"><defs><style>.a{fill:#e8e8e8;}</style></defs><g transform="translate(-300.856 -72.79)"><g transform="translate(326.753 158.336)"><path class="a" d="M335.135,174.682a2.023,2.023,0,1,1-2.023-2.023A2.024,2.024,0,0,1,335.135,174.682Z" transform="translate(-331.089 -172.659)"/><path class="a" d="M350.252,174.682a2.023,2.023,0,1,1-2.023-2.023A2.023,2.023,0,0,1,350.252,174.682Z" transform="translate(-333.257 -172.659)"/><path class="a" d="M365.368,174.682a2.023,2.023,0,1,1-2.023-2.023A2.023,2.023,0,0,1,365.368,174.682Z" transform="translate(-335.425 -172.659)"/><path class="a" d="M380.484,174.682a2.023,2.023,0,1,1-2.023-2.023A2.024,2.024,0,0,1,380.484,174.682Z" transform="translate(-337.593 -172.659)"/></g><g transform="translate(313.804 146.116)"><path class="a" d="M320.019,160.415A2.023,2.023,0,1,1,318,158.392,2.023,2.023,0,0,1,320.019,160.415Z" transform="translate(-315.972 -158.392)"/><path class="a" d="M335.135,160.415a2.023,2.023,0,1,1-2.023-2.023A2.024,2.024,0,0,1,335.135,160.415Z" transform="translate(-318.14 -158.392)"/><path class="a" d="M350.252,160.415a2.023,2.023,0,1,1-2.023-2.023A2.023,2.023,0,0,1,350.252,160.415Z" transform="translate(-320.308 -158.392)"/><path class="a" d="M365.368,160.415a2.023,2.023,0,1,1-2.023-2.023A2.023,2.023,0,0,1,365.368,160.415Z" transform="translate(-322.476 -158.392)"/><path class="a" d="M380.484,160.415a2.023,2.023,0,1,1-2.023-2.023A2.024,2.024,0,0,1,380.484,160.415Z" transform="translate(-324.644 -158.392)"/><path class="a" d="M395.6,160.415a2.023,2.023,0,1,1-2.023-2.023A2.023,2.023,0,0,1,395.6,160.415Z" transform="translate(-326.811 -158.392)"/></g><g transform="translate(313.804 133.895)"><path class="a" d="M320.019,146.148A2.023,2.023,0,1,1,318,144.125,2.023,2.023,0,0,1,320.019,146.148Z" transform="translate(-315.972 -144.125)"/><path class="a" d="M335.135,146.148a2.023,2.023,0,1,1-2.023-2.023A2.024,2.024,0,0,1,335.135,146.148Z" transform="translate(-318.14 -144.125)"/><path class="a" d="M350.252,146.148a2.023,2.023,0,1,1-2.023-2.023A2.023,2.023,0,0,1,350.252,146.148Z" transform="translate(-320.308 -144.125)"/><path class="a" d="M365.368,146.148a2.023,2.023,0,1,1-2.023-2.023A2.023,2.023,0,0,1,365.368,146.148Z" transform="translate(-322.476 -144.125)"/><path class="a" d="M380.484,146.148a2.023,2.023,0,1,1-2.023-2.023A2.024,2.024,0,0,1,380.484,146.148Z" transform="translate(-324.644 -144.125)"/><path class="a" d="M395.6,146.148a2.023,2.023,0,1,1-2.023-2.023A2.023,2.023,0,0,1,395.6,146.148Z" transform="translate(-326.811 -144.125)"/></g><g transform="translate(300.856 121.674)"><path class="a" d="M304.9,131.881a2.023,2.023,0,1,1-2.023-2.023A2.024,2.024,0,0,1,304.9,131.881Z" transform="translate(-300.856 -129.858)"/><path class="a" d="M320.019,131.881A2.023,2.023,0,1,1,318,129.858,2.023,2.023,0,0,1,320.019,131.881Z" transform="translate(-303.024 -129.858)"/><path class="a" d="M335.135,131.881a2.023,2.023,0,1,1-2.023-2.023A2.024,2.024,0,0,1,335.135,131.881Z" transform="translate(-305.192 -129.858)"/><path class="a" d="M350.252,131.881a2.023,2.023,0,1,1-2.023-2.023A2.023,2.023,0,0,1,350.252,131.881Z" transform="translate(-307.36 -129.858)"/><path class="a" d="M365.368,131.881a2.023,2.023,0,1,1-2.023-2.023A2.023,2.023,0,0,1,365.368,131.881Z" transform="translate(-309.528 -129.858)"/><path class="a" d="M380.484,131.881a2.023,2.023,0,1,1-2.023-2.023A2.024,2.024,0,0,1,380.484,131.881Z" transform="translate(-311.695 -129.858)"/><path class="a" d="M395.6,131.881a2.023,2.023,0,1,1-2.023-2.023A2.023,2.023,0,0,1,395.6,131.881Z" transform="translate(-313.863 -129.858)"/><path class="a" d="M410.718,131.881a2.023,2.023,0,1,1-2.023-2.023A2.024,2.024,0,0,1,410.718,131.881Z" transform="translate(-316.031 -129.858)"/></g><g transform="translate(300.856 109.453)"><path class="a" d="M304.9,117.614a2.023,2.023,0,1,1-2.023-2.023A2.024,2.024,0,0,1,304.9,117.614Z" transform="translate(-300.856 -115.591)"/><path class="a" d="M320.019,117.614A2.023,2.023,0,1,1,318,115.591,2.023,2.023,0,0,1,320.019,117.614Z" transform="translate(-303.024 -115.591)"/><path class="a" d="M335.135,117.614a2.023,2.023,0,1,1-2.023-2.023A2.024,2.024,0,0,1,335.135,117.614Z" transform="translate(-305.192 -115.591)"/><path class="a" d="M350.252,117.614a2.023,2.023,0,1,1-2.023-2.023A2.023,2.023,0,0,1,350.252,117.614Z" transform="translate(-307.36 -115.591)"/><path class="a" d="M365.368,117.614a2.023,2.023,0,1,1-2.023-2.023A2.023,2.023,0,0,1,365.368,117.614Z" transform="translate(-309.528 -115.591)"/><path class="a" d="M380.484,117.614a2.023,2.023,0,1,1-2.023-2.023A2.024,2.024,0,0,1,380.484,117.614Z" transform="translate(-311.695 -115.591)"/><path class="a" d="M395.6,117.614a2.023,2.023,0,1,1-2.023-2.023A2.023,2.023,0,0,1,395.6,117.614Z" transform="translate(-313.863 -115.591)"/><path class="a" d="M410.718,117.614a2.023,2.023,0,1,1-2.023-2.023A2.024,2.024,0,0,1,410.718,117.614Z" transform="translate(-316.031 -115.591)"/></g><g transform="translate(313.804 97.232)"><path class="a" d="M320.019,103.347A2.023,2.023,0,1,1,318,101.324,2.023,2.023,0,0,1,320.019,103.347Z" transform="translate(-315.972 -101.324)"/><path class="a" d="M335.135,103.347a2.023,2.023,0,1,1-2.023-2.023A2.023,2.023,0,0,1,335.135,103.347Z" transform="translate(-318.14 -101.324)"/><path class="a" d="M350.252,103.347a2.023,2.023,0,1,1-2.023-2.023A2.023,2.023,0,0,1,350.252,103.347Z" transform="translate(-320.308 -101.324)"/><path class="a" d="M365.368,103.347a2.023,2.023,0,1,1-2.023-2.023A2.023,2.023,0,0,1,365.368,103.347Z" transform="translate(-322.476 -101.324)"/><path class="a" d="M380.484,103.347a2.023,2.023,0,1,1-2.023-2.023A2.023,2.023,0,0,1,380.484,103.347Z" transform="translate(-324.644 -101.324)"/><path class="a" d="M395.6,103.347a2.023,2.023,0,1,1-2.023-2.023A2.023,2.023,0,0,1,395.6,103.347Z" transform="translate(-326.811 -101.324)"/></g><g transform="translate(313.804 85.011)"><path class="a" d="M320.019,89.08A2.023,2.023,0,1,1,318,87.057,2.023,2.023,0,0,1,320.019,89.08Z" transform="translate(-315.972 -87.057)"/><path class="a" d="M335.135,89.08a2.023,2.023,0,1,1-2.023-2.023A2.023,2.023,0,0,1,335.135,89.08Z" transform="translate(-318.14 -87.057)"/><path class="a" d="M350.252,89.08a2.023,2.023,0,1,1-2.023-2.023A2.023,2.023,0,0,1,350.252,89.08Z" transform="translate(-320.308 -87.057)"/><path class="a" d="M365.368,89.08a2.023,2.023,0,1,1-2.023-2.023A2.023,2.023,0,0,1,365.368,89.08Z" transform="translate(-322.476 -87.057)"/><path class="a" d="M380.484,89.08a2.023,2.023,0,1,1-2.023-2.023A2.023,2.023,0,0,1,380.484,89.08Z" transform="translate(-324.644 -87.057)"/><path class="a" d="M395.6,89.08a2.023,2.023,0,1,1-2.023-2.023A2.023,2.023,0,0,1,395.6,89.08Z" transform="translate(-326.811 -87.057)"/></g><g transform="translate(326.753 72.79)"><path class="a" d="M335.135,74.812a2.023,2.023,0,1,1-2.023-2.022A2.024,2.024,0,0,1,335.135,74.812Z" transform="translate(-331.089 -72.79)"/><path class="a" d="M350.252,74.812a2.023,2.023,0,1,1-2.023-2.022A2.023,2.023,0,0,1,350.252,74.812Z" transform="translate(-333.257 -72.79)"/><path class="a" d="M365.368,74.812a2.023,2.023,0,1,1-2.023-2.022A2.023,2.023,0,0,1,365.368,74.812Z" transform="translate(-335.425 -72.79)"/><path class="a" d="M380.484,74.812a2.023,2.023,0,1,1-2.023-2.022A2.024,2.024,0,0,1,380.484,74.812Z" transform="translate(-337.593 -72.79)"/></g></g></svg>