<svg xmlns="http://www.w3.org/2000/svg" width="42.731" height="35.796" viewBox="0 0 42.731 35.796">
  <g id="Group_188" data-name="Group 188" transform="translate(-837.65 -1273.825)">
    <path id="Path_716" data-name="Path 716" d="M853.789,1291.856h6.28v-6.314h4.656v6.3h6.3v4.642h-6.277v6.3h-4.656v-6.282h-6.3Z" transform="translate(-3.374 -2.449)" fill="#d9d9d9"/>
    <path id="Path_717" data-name="Path 717" d="M842.254,1288.335h-4.588V1283.1h4.588Z" transform="translate(-0.003 -1.938)" fill="#d9d9d9"/>
    <path id="Path_718" data-name="Path 718" d="M837.671,1293.143h4.588v5.226h-4.588Z" transform="translate(-0.004 -4.038)" fill="#d9d9d9"/>
    <path id="Path_719" data-name="Path 719" d="M837.652,1308.434v-5.22h4.6v5.22Z" transform="translate(0 -6.143)" fill="#d9d9d9"/>
    <path id="Path_720" data-name="Path 720" d="M890.46,1288.329h-4.578v-5.241h4.578Z" transform="translate(-10.082 -1.936)" fill="#d9d9d9"/>
    <path id="Path_721" data-name="Path 721" d="M890.46,1298.379h-4.579v-5.239h4.579Z" transform="translate(-10.082 -4.037)" fill="#d9d9d9"/>
    <path id="Path_722" data-name="Path 722" d="M885.882,1303.2h4.575v5.228h-4.575Z" transform="translate(-10.082 -6.141)" fill="#d9d9d9"/>
    <path id="Path_723" data-name="Path 723" d="M856.573,1278.42v-4.595h5.09v4.595Z" transform="translate(-3.956 0)" fill="#d9d9d9"/>
    <path id="Path_724" data-name="Path 724" d="M876.115,1273.828H881.2v4.607h-5.082Z" transform="translate(-8.04 -0.001)" fill="#d9d9d9"/>
    <path id="Path_725" data-name="Path 725" d="M856.578,1313.248h5.082v4.6h-5.082Z" transform="translate(-3.956 -8.24)" fill="#d9d9d9"/>
    <path id="Path_726" data-name="Path 726" d="M881.2,1317.865h-5.089v-4.6H881.2Z" transform="translate(-8.038 -8.244)" fill="#d9d9d9"/>
    <path id="Path_727" data-name="Path 727" d="M846.8,1278.406v-4.577h5.086v4.577Z" transform="translate(-1.913 -0.001)" fill="#d9d9d9"/>
    <path id="Path_728" data-name="Path 728" d="M846.8,1317.863v-4.593h5.1v4.593Z" transform="translate(-1.912 -8.245)" fill="#d9d9d9"/>
    <path id="Path_729" data-name="Path 729" d="M866.353,1278.432v-4.6h5.077v4.6Z" transform="translate(-6 -0.001)" fill="#d9d9d9"/>
    <path id="Path_730" data-name="Path 730" d="M866.353,1317.861v-4.6h5.076v4.6Z" transform="translate(-6 -8.243)" fill="#d9d9d9"/>
    <path id="Path_731" data-name="Path 731" d="M837.65,1278.427v-4.584h4.6v4.584Z" transform="translate(0 -0.004)" fill="#d9d9d9"/>
    <path id="Path_732" data-name="Path 732" d="M842.262,1313.263v4.6h-4.6v-4.6Z" transform="translate(-0.002 -8.244)" fill="#d9d9d9"/>
    <path id="Path_733" data-name="Path 733" d="M885.869,1278.428v-4.591h4.591v4.591Z" transform="translate(-10.079 -0.002)" fill="#d9d9d9"/>
    <path id="Path_734" data-name="Path 734" d="M885.881,1317.858v-4.581h4.578v4.581Z" transform="translate(-10.082 -8.247)" fill="#d9d9d9"/>
  </g>
</svg>
