<svg xmlns="http://www.w3.org/2000/svg" width="38.877" height="21.446" viewBox="0 0 38.877 21.446"><defs><style>.a{opacity:0.3;}.b{fill:#333;}</style></defs><g class="a"><path class="b" d="M198.336,91.457a7.548,7.548,0,0,0-6.67,4.012,7.549,7.549,0,0,0-11.2-2.5v-6.36h0a1.51,1.51,0,0,0-3.02,0h0V99.131h0a7.548,7.548,0,0,0,14.216,3.413,7.55,7.55,0,1,0,6.67-11.088ZM185,103.535a4.529,4.529,0,1,1,4.529-4.529A4.528,4.528,0,0,1,185,103.535Zm13.339,0a4.529,4.529,0,1,1,4.529-4.529A4.529,4.529,0,0,1,198.336,103.535Z" transform="translate(-177.447 -85.127)"/><path class="b" d="M220.3,105.185l-3.867-5.168,3.867-5.169h0a1.51,1.51,0,0,0-2.414-1.814h0l-3.337,4.46-3.337-4.46h0a1.51,1.51,0,0,0-2.414,1.813h0l3.867,5.169-3.867,5.168h0A1.51,1.51,0,0,0,211.208,107h0l3.337-4.461L217.883,107h0a1.51,1.51,0,0,0,2.414-1.813Z" transform="translate(-181.705 -86.132)"/></g></svg>