<svg xmlns="http://www.w3.org/2000/svg" width="18.438" height="18.438" viewBox="0 0 18.438 18.438"><g transform="translate(-283.205 -373.205)"><path d="M283.2,387.224a.858.858,0,0,1,.939-.578c2.263.013,4.525.006,6.788.006h.224v.743H285.24v11.488h14.37V387.406h-3.227v-.753h.216c1.362,0,2.725.011,4.087-.006a.864.864,0,0,1,.957.578v11.848a.9.9,0,0,1-.576.576H283.781a.9.9,0,0,1-.576-.576Zm18.012,5.92a.523.523,0,0,0-.528-.521.526.526,0,1,0,.008,1.052A.523.523,0,0,0,301.217,393.144Zm-17.271,0c0,.252,0,.5,0,.755,0,.129.035.235.184.234s.189-.1.189-.234v-1.511c0-.129-.044-.233-.189-.234s-.185.1-.184.234C283.948,392.645,283.946,392.9,283.946,393.148Z" transform="translate(0 -8.005)"/><path d="M308.326,373.2q0,2.582,0,5.164,0,.881,0,1.763v.21h-4.281V373.2Z" transform="translate(-12.409)"/><path d="M303.091,392.384h3.919c0,.072,0,.14,0,.209.01.473.006.947.034,1.42a2.827,2.827,0,0,0,.779,1.775l.134.146a.273.273,0,0,1,.021.036l-2.92,5.305c-.032-.045-.058-.074-.076-.108q-1.4-2.535-2.792-5.071c-.046-.083-.08-.145.009-.233a3.126,3.126,0,0,0,.9-2.3c0-.318,0-.636,0-.954C303.091,392.541,303.091,392.47,303.091,392.384Zm1.433,4.465a.537.537,0,0,0,.531.524.544.544,0,0,0,.524-.534.529.529,0,0,0-.534-.517A.523.523,0,0,0,304.524,396.849Z" transform="translate(-11.279 -11.422)"/><path d="M298.082,410.678l.036.505a1.811,1.811,0,0,1-2.331-1.035,2.953,2.953,0,0,0-.263-.509.562.562,0,0,0-.575-.292.632.632,0,0,0-.468.535c-.018.1-.027.2-.055.3a.76.76,0,0,1-.637.556.728.728,0,0,1-.764-.452c-.063-.142-.092-.3-.15-.441-.095-.234-.22-.471-.508-.464s-.411.233-.488.467-.111.461-.169.709h-.5c.017-.175.022-.345.051-.511a1.655,1.655,0,0,1,.445-.924.9.9,0,0,1,1.343.007,3.365,3.365,0,0,1,.388.657,1.131,1.131,0,0,1,.057.188c.038.11.083.228.226.216s.171-.135.208-.255a2.623,2.623,0,0,1,.263-.694,1.013,1.013,0,0,1,1.528-.186,3.452,3.452,0,0,1,.459.612,1.061,1.061,0,0,1,.086.2,1.282,1.282,0,0,0,1.479.838C297.844,410.689,297.952,410.687,298.082,410.678Z" transform="translate(-4.765 -21.193)"/></g></svg>