<svg xmlns="http://www.w3.org/2000/svg" width="65.033" height="62" viewBox="0 0 65.033 62">
  <g id="Group_94" data-name="Group 94" transform="translate(-608 -1052.102)">
    <path id="Path_443" data-name="Path 443" d="M732.886,1080.947l-1.346,3.864-.074.215.08.015h-.085c-.951,2.746-1.891,5.5-2.871,8.231a30.4,30.4,0,0,0-1.276,9.2c-.02.5,0,1.009,0,1.7-1.593-.2-3.122-.324-4.623-.6a8.866,8.866,0,0,1-2.5-.866,1.812,1.812,0,0,1-.633-3c.037-.051.078-.1.113-.153.289-.435.729-.862.421-1.429a1.264,1.264,0,0,0-1.528-.474c-1.493.358-2.976.772-4.434,1.252-1.06.349-2.063.868-3.115,1.247a3.045,3.045,0,0,1-1.3.142c-.693-.072-.889-.459-.551-1.062a5.161,5.161,0,0,1,.938-1.269c1.131-1.049,2.314-2.041,3.468-3.065a13.766,13.766,0,0,0,1.375-1.31c.668-.783.414-1.487-.631-1.563a8.428,8.428,0,0,0-2.764.2c-3,.808-5.962,1.729-8.94,2.6-1.134.333-2.27.661-3.406.992a.952.952,0,0,1-.185.044c-.6.047-1.32.266-1.666-.393a1.5,1.5,0,0,1,.519-1.769,5.565,5.565,0,0,1,4.47-1.719,1.993,1.993,0,0,0,1.586-.546q0-.116.008-.232a10.145,10.145,0,0,0-1.684-.191,8.862,8.862,0,0,0-5.983,2.848,1.634,1.634,0,0,0,1.182,2.92,10.425,10.425,0,0,0,2.756-.323c2.089-.6,4.153-1.3,6.2-2.016a27.584,27.584,0,0,1,5.974-1.4,10.23,10.23,0,0,1,1.168-.006l.109.2a9.118,9.118,0,0,1-.9.979c-1.013.833-2.092,1.589-3.075,2.455a20.171,20.171,0,0,0-1.938,2.076,2.027,2.027,0,0,0-.374.863c-.224,1.011.258,1.725,1.277,1.61a23.249,23.249,0,0,0,3.814-.835c1.642-.474,3.248-1.069,4.879-1.582a6.469,6.469,0,0,1,1.223-.112,12.743,12.743,0,0,1-.714,1.349c-.983,1.394-.34,2.526.644,3.32a6.453,6.453,0,0,0,3.527,1.3c1.723.166,3.459.2,5.191.264a.893.893,0,0,0,.633-.3,37.352,37.352,0,0,0,5-7.395c.929-2.005,1.577-4.142,2.319-6.231.736-2.069,1.448-4.146,2.168-6.228l1.625-4.777h.031l6.512-18.761.208-.019a3.93,3.93,0,0,1,.613,1.269,5.484,5.484,0,0,1-.207,2.1c-1.068,3.229-2.21,6.433-3.319,9.648a1.054,1.054,0,0,0,.563,1.469,1.035,1.035,0,0,0,1.357-.791c1.163-3.331,2.328-6.661,3.472-10a4.575,4.575,0,0,0-.848-4.808c-.319-.362-.7-.666-1.086-1.024.221-.641.452-1.3.673-1.955a.7.7,0,0,0-.479-1c-.274-.1-.546-.2-.861-.316.273-.8.535-1.551.788-2.307s.117-.985-.676-1.257c-.744-.255-1-.142-1.253.582-.268.754-.529,1.511-.8,2.287-.139-.035-.239-.055-.336-.085-1.286-.4-1.3-.388-1.751.9q-4.322,12.453-8.628,24.912C732.918,1080.866,732.9,1080.907,732.886,1080.947Z" transform="translate(-76.492)" fill="#C1484A"/>
    <path id="Path_444" data-name="Path 444" d="M669.139,1283.79c-2.024.079-4.054.039-6.133.026l-.653,2.049h2.5v28.393h-50.73V1285.89h40.2l.764-2.064q-21.791-.026-43.581-.011a5.342,5.342,0,0,0-1.072.075,3.379,3.379,0,0,0-2.44,2.335v27.69a11.578,11.578,0,0,0,1.11,1.65,2.943,2.943,0,0,0,2.273.77q26.341-.013,52.681-.006c1.693,0,3.389-.071,5.077.019a3.519,3.519,0,0,0,3.892-2.432v-27.69A3.55,3.55,0,0,0,669.139,1283.79Zm-.148,18.312A2.032,2.032,0,1,1,671,1300.06,2.049,2.049,0,0,1,668.991,1302.1Z" transform="translate(0 -202.254)" fill="#486EB8"/>
  </g>
</svg>
