<svg xmlns="http://www.w3.org/2000/svg" width="62.05" height="62.048" viewBox="0 0 62.05 62.048"><defs><style>.a{fill:#486EB8;}.b{fill:#C1484A;}</style></defs><g transform="translate(-289.896 -379.888)"><path class="a" d="M339.532,410.952q0,13.763,0,27.528a3.135,3.135,0,0,1-3.436,3.454q-21.389,0-42.779,0a3.128,3.128,0,0,1-3.421-3.406V383.346a3.137,3.137,0,0,1,3.434-3.458q21.424,0,42.844,0a3.128,3.128,0,0,1,3.357,3.4Q339.535,397.123,339.532,410.952Zm-24.885,18.574q9.628,0,19.253,0c1.194,0,1.494-.295,1.494-1.477q0-19.255,0-38.509c0-1.051-.329-1.378-1.392-1.378H295.427c-1.063,0-1.392.325-1.392,1.378q0,19.284,0,38.572c0,1.1.322,1.413,1.425,1.413Q305.054,429.524,314.648,429.526Zm3.167,5.157a3.1,3.1,0,1,0-3.059,3.115A3.122,3.122,0,0,0,317.815,434.684Zm-5.109-48.593c.99,0,1.979,0,2.969,0,.77,0,1.207-.385,1.2-1.032s-.458-1.028-1.222-1.03q-2.969-.009-5.937,0a1.053,1.053,0,0,0-1.176,1.013c-.015.639.435,1.042,1.2,1.047C310.726,386.1,311.716,386.091,312.705,386.091Zm8.215-1.059a1.03,1.03,0,0,0-1.038-1,1.032,1.032,0,1,0,.054,2.064A1.033,1.033,0,0,0,320.92,385.032Z" transform="translate(0)"/><path class="b" d="M317.827,385.811H326.1v.718q0,18.675,0,37.35a10.217,10.217,0,0,1-.912,4.131c-.682,1.554-1.429,3.08-2.208,4.588-.531,1.024-1.475,1.034-2.023.039a23.546,23.546,0,0,1-3.047-7.558,6.688,6.688,0,0,1-.081-1.092q-.009-18.773-.006-37.544Z" transform="translate(25.841 5.48)"/><path class="b" d="M326.107,387.682h-8.259a10.14,10.14,0,0,1,.25-3.488,4.133,4.133,0,0,1,8.007,1.351C326.118,386.232,326.107,386.922,326.107,387.682Z" transform="translate(25.835 1.485)"/><path class="b" d="M319.871,405.385c.612,0,1.192-.008,1.769,0,.732.013,1.14.391,1.142,1.03s-.4,1.024-1.134,1.034c-.97.012-1.941.014-2.909,0-.832-.012-1.223-.526-1.111-1.365a8.273,8.273,0,0,0,.094-1.54c-.054-.986-.7-1.475-1.633-1.138a3.427,3.427,0,0,0-1.5,1.032,10.221,10.221,0,0,0-1.124,2.154c-.269.61-.662.934-1.2.843-.554-.092-.847-.487-.874-1.174-.062-1.654-.682-2.576-1.956-2.905a1.683,1.683,0,0,0-.31-.027,17.985,17.985,0,0,1-.206,1.8,2.7,2.7,0,0,1-2.433,2.314,2.637,2.637,0,0,1-2.774-3.66,4.028,4.028,0,0,1,2.422-2.345,2.116,2.116,0,0,0-3.171-.837,5.254,5.254,0,0,0-1.633,1.937,27.1,27.1,0,0,0-1.288,3.9c-.223.789-.581,1.144-1.276,1.018-.631-.115-.92-.618-.774-1.39a14.571,14.571,0,0,1,2.073-5.518,4.8,4.8,0,0,1,3.656-2.381,4.462,4.462,0,0,1,4.428,2.439.942.942,0,0,0,.82.578,4.571,4.571,0,0,1,3.748,2.168c1.382-1.659,3-2.6,5.165-1.852C319.184,401.958,319.615,402.861,319.871,405.385ZM307.038,403.5l-.306-.173a10.205,10.205,0,0,0-1.034,1.109.533.533,0,0,0,.293.876.927.927,0,0,0,.8-.4A5.9,5.9,0,0,0,307.038,403.5Z" transform="translate(7.455 16.901)"/><path class="b" d="M308.68,395.467h12.342c.194,0,.389-.01.581,0a1.008,1.008,0,0,1,1.022,1.026,1,1,0,0,1-1.016,1.032c-.884.025-1.767.008-2.649.008H296.213a5.125,5.125,0,0,1-.516-.008,1.031,1.031,0,0,1-.006-2.056c.15-.013.3-.006.452-.006Z" transform="translate(4.481 14.41)"/><path class="b" d="M310.317,392.162q-6.235,0-12.467,0a3.786,3.786,0,0,1-.645-.019,1.02,1.02,0,0,1-.212-1.948,1.592,1.592,0,0,1,.564-.092q12.726-.009,25.454-.006a2.228,2.228,0,0,1,.321.012.994.994,0,0,1,.934,1.041.976.976,0,0,1-.965,1c-.279.023-.56.01-.839.01Z" transform="translate(5.979 9.442)"/><path class="b" d="M306.611,394.857c-3.531,0-7.063.008-10.594-.013a1.415,1.415,0,0,1-.986-.312,1.358,1.358,0,0,1-.239-1.1c.091-.277.547-.443.857-.633.079-.048.212-.01.32-.01H317.22c.8,0,1.205.281,1.278.882.089.724-.35,1.182-1.165,1.184-3.036.006-6.072,0-9.108,0Z" transform="translate(4.495 11.92)"/><path class="b" d="M306.453,389.476c-2.174,0-4.347.006-6.522,0-.812,0-1.265-.46-1.167-1.18a.931.931,0,0,1,1.011-.882q6.749-.009,13.5,0a.958.958,0,0,1,1.015,1.076.984.984,0,0,1-1.117.982C310.931,389.482,308.692,389.476,306.453,389.476Z" transform="translate(8.192 6.957)"/><path class="b" d="M310.777,392.784c.516,0,1.032-.017,1.546,0a1.028,1.028,0,1,1-.029,2.056c-1.03.019-2.062.021-3.092,0a1,1,0,0,1-1.049-1.059c0-.626.373-.986,1.078-1,.514-.012,1.03,0,1.546,0Z" transform="translate(16.891 11.925)"/></g></svg>