<svg xmlns="http://www.w3.org/2000/svg" width="78.83" height="62" viewBox="0 0 78.83 62">
  <g id="Group_95" data-name="Group 95" transform="translate(-608 -1094.755)">
    <path id="Path_445" data-name="Path 445" d="M608,1129.434a31,31,0,0,1,1.3-4.471,13.046,13.046,0,0,1,10.012-7.88.892.892,0,0,0,.882-.889c1.29-8.34,9.693-13.7,17.482-10.833a3.413,3.413,0,0,0,.383.093c.587-.966,1.122-1.956,1.758-2.876a17.706,17.706,0,0,1,30.379,1.668,39.593,39.593,0,0,1,1.891,4.844c.127.337.179.609.652.694a17.33,17.33,0,0,1,13.97,15.294,1.583,1.583,0,0,0,.125.352v3.387c-.31,1.341-.525,2.712-.945,4.017a17.036,17.036,0,0,1-15.947,11.852c-.251,0-.5,0-.792,0v-3.051a13.575,13.575,0,0,0,11.5-5.4,14.54,14.54,0,0,0,3.094-9.838c-.254-6.593-5.467-13.86-14.08-13.921-1.307-8.233-5.57-14-14.242-14.628-8.25-.6-13.07,4.385-15.7,11.929-3.8-2.527-7.744-3.039-11.686-.52-3.868,2.472-5.133,6.272-4.9,10.79-3.864-.28-7.129.816-9.593,3.793a10.736,10.736,0,0,0-2.466,6.807,10.594,10.594,0,0,0,9.184,10.843v3.137a20.183,20.183,0,0,1-2.467-.485c-5.462-1.787-8.588-5.607-9.634-11.2-.046-.248-.109-.492-.164-.739Z" fill="#C1484A"/>
    <path id="Path_446" data-name="Path 446" d="M748.653,1364.539H732.029c-1.37,0-1.744-.368-1.745-1.723q0-3.54,0-7.08c0-1.256.417-1.675,1.654-1.676q16.739,0,33.478,0c1.2,0,1.613.42,1.614,1.62q0,3.579,0,7.157c0,1.32-.377,1.7-1.679,1.7Q757,1364.54,748.653,1364.539Zm11.973-2.765a2.527,2.527,0,0,0,2.547-2.517,2.528,2.528,0,1,0-2.547,2.517Zm-24.765.116v-5.324h-1.977v5.324Zm2.59,0h1.958v-5.336h-1.958Z" transform="translate(-103.455 -219.38)" fill="#486EB8"/>
    <path id="Path_447" data-name="Path 447" d="M748.7,1278.9q8.312,0,16.624,0c1.323,0,1.69.367,1.691,1.682q0,3.617,0,7.234c0,1.109-.437,1.559-1.524,1.56q-16.855.005-33.709,0c-1.047,0-1.5-.448-1.509-1.5q-.02-3.732,0-7.465c.006-1.094.446-1.505,1.575-1.506Q740.273,1278.9,748.7,1278.9Zm11.9,7.712a2.525,2.525,0,1,0,.006-5.05,2.524,2.524,0,0,0-2.506,2.49A2.5,2.5,0,0,0,760.6,1286.615Zm-26.729-5.219v5.332h1.971V1281.4Zm6.526.023h-1.944v5.291H740.4Z" transform="translate(-103.437 -155.796)" fill="#486EB8"/>
    <path id="Path_448" data-name="Path 448" d="M748.688,1439.786q-8.273,0-16.546,0c-1.518,0-1.851-.335-1.852-1.855q0-3.463,0-6.926c0-1.3.4-1.709,1.7-1.709q16.661,0,33.322,0c1.358,0,1.723.378,1.723,1.749q0,3.54,0,7.08c0,1.259-.391,1.66-1.65,1.661Q757.037,1439.79,748.688,1439.786ZM760.678,1432a2.485,2.485,0,0,0-2.555,2.494,2.511,2.511,0,0,0,2.529,2.536,2.565,2.565,0,0,0,2.526-2.479A2.486,2.486,0,0,0,760.678,1432Zm-24.816,5.086v-5.307h-1.918a.919.919,0,0,0-.09.249q-.013,1.727-.015,3.454c0,1.878,0,1.878,1.879,1.678A.8.8,0,0,0,735.863,1437.087Zm4.541.06v-5.357h-1.955v5.357Z" transform="translate(-103.46 -283.032)" fill="#486EB8"/>
  </g>
</svg>
