<svg xmlns="http://www.w3.org/2000/svg" width="50.859" height="62.857" viewBox="0 0 50.859 62.857"><defs><style>.a{fill:#486EB8;stroke:rgba(0,0,0,0);}.b{fill:#C1484A;}</style></defs><g transform="translate(-324.5 -1559.5)"><path class="a" d="M25,59.624H1.834C.394,59.624,0,59.235,0,57.812V29.824q0-7,0-13.993T0,1.838C0,.409.4.017,1.835.016H14.5c5.368,0,11.145,0,17.026-.017h.01A3.119,3.119,0,0,1,34,1.01c3.892,3.979,7.82,7.875,11.619,11.643a2.435,2.435,0,0,1,.758,1.859c-.009,9.3-.011,14.609-.011,22.489H43.7V15.776H33.115c-1.678,0-2.017-.346-2.017-2.05q0-3.43,0-6.861,0-1.715,0-3.43V2.677H2.661v54.3H25v2.65Zm8.721-55q0,1.162,0,2.309c0,2,0,3.879,0,5.8a.453.453,0,0,0,.1.333.424.424,0,0,0,.309.091l.109,0,.111,0,2.946,0q2.261,0,4.522,0a1.414,1.414,0,0,0,.27-.037c.037-.007.072-.015.1-.02ZM11.331,46.265a1.739,1.739,0,0,1-1.5-2.629,6.908,6.908,0,0,1,2.956-3.317c.72-.467,1.49-.881,2.235-1.281.427-.23.867-.466,1.294-.71a1.546,1.546,0,0,0,.673-.566c1.151-2.676,2.083-4.92,2.933-7.06a1.578,1.578,0,0,0-.1-1.1,13.259,13.259,0,0,1-1.463-7.15,5.046,5.046,0,0,1,.423-1.567,1.486,1.486,0,0,1,1.325-.921,1.649,1.649,0,0,1,1.2.579,5.655,5.655,0,0,1,1.222,3.123c.072.462.106.923.146,1.458.019.262.04.534.066.83-.034.265-.069.544-.1.833-.092.747-.2,1.589-.328,2.413a1.63,1.63,0,0,0,.246,1.284,19.374,19.374,0,0,0,3.757,4.084,1.112,1.112,0,0,0,.676.191,1.35,1.35,0,0,0,.207-.015,19.571,19.571,0,0,1,2.991-.31,7.34,7.34,0,0,1,2.073.275,5.955,5.955,0,0,1,1.548.674,2.512,2.512,0,0,1,.974,3.318,2.4,2.4,0,0,1-2.29,1.506,3.334,3.334,0,0,1-.683-.074A10.456,10.456,0,0,1,27.24,37.8a2.437,2.437,0,0,0-1.6-.655,2.939,2.939,0,0,0-1.023.206c-.971.36-1.965.7-2.926,1.038-.941.327-1.915.664-2.867,1.016a2.328,2.328,0,0,0-.87.718c-.447.54-.891,1.1-1.321,1.637-.746.936-1.517,1.9-2.325,2.811a7.3,7.3,0,0,1-1.951,1.4A2.126,2.126,0,0,1,11.331,46.265ZM14,41.747l-2.21,2.065.322.311,1.975-2.284L14,41.747Zm16.237-5.341a8.911,8.911,0,0,0-1.46.131l.144.092a9.536,9.536,0,0,0,3.31,1.587,1.334,1.334,0,0,0,.253.028.5.5,0,0,0,.529-.4.668.668,0,0,0-.336-.882A5.307,5.307,0,0,0,30.232,36.406ZM21.507,32.5h0l-1.86,4.4,4.526-1.482L21.507,32.5ZM20.485,23.1l-.324.033.347,3.1.262-.028-.285-3.1Z" transform="translate(325 1560)"/><path class="b" d="M18.882,2.734a1.728,1.728,0,0,0-1.217.5L15.243,5.658l6.06,6.061L23.724,9.3a1.7,1.7,0,0,0,0-2.421L20.092,3.237A1.713,1.713,0,0,0,18.882,2.734ZM14.433,6.468,5.176,15.73l2.924.324.2,2.611,2.606.2.329,2.924,9.258-9.263m-16,4.274-1.98,7.645L10.153,22.4l-.279-2.466-2.64-.2-.206-2.646" transform="translate(351.128 1597.909)"/></g></svg>
