<svg xmlns="http://www.w3.org/2000/svg" width="18.439" height="18.439" viewBox="0 0 18.439 18.439"><g transform="translate(-285.997 -375.997)"><path d="M304.436,379.563c-.031.152-.057.305-.094.455a3.266,3.266,0,0,1-4.176,2.315.248.248,0,0,0-.3.071q-3.73,3.738-7.468,7.469a.246.246,0,0,0-.075.295,3.236,3.236,0,0,1-2.681,4.235.808.808,0,0,0-.119.034h-.576l-.55-.121-.057-.072a.709.709,0,0,0,.176-.094q.869-.861,1.732-1.728a.51.51,0,0,0,0-.837q-.692-.695-1.386-1.387a.519.519,0,0,0-.863,0l-1.717,1.717c-.045.045-.093.088-.159.149l-.125-.577v-.576a8.008,8.008,0,0,1,.194-.8,3.233,3.233,0,0,1,4.062-2,.26.26,0,0,0,.312-.075q3.726-3.735,7.461-7.461a.247.247,0,0,0,.076-.3,3.254,3.254,0,0,1,2.649-4.24.844.844,0,0,0,.12-.034h.577l.58.126.036.07a.95.95,0,0,0-.168.108q-.862.856-1.719,1.716a.51.51,0,0,0,0,.838q.693.694,1.387,1.386a.516.516,0,0,0,.863,0l1.718-1.717c.044-.044.091-.084.159-.145l.131.6Z"/><path d="M313.984,406.448a2.065,2.065,0,0,1-.971-.674q-2.319-2.326-4.645-4.646a1.362,1.362,0,0,0-.118-.1l2.75-2.752c.014.013.058.052.1.094q2.33,2.328,4.66,4.656a2.066,2.066,0,0,1,.674.971v.216a1.47,1.47,0,0,1-.448.631q-.583.571-1.154,1.154a1.466,1.466,0,0,1-.631.448Z" transform="translate(-11.997 -12.012)"/><path d="M286.934,376a1.217,1.217,0,0,0,.134.133c.678.5,1.359.987,2.031,1.49a.559.559,0,0,1,.164.273c.043.135.041.285.083.422a.6.6,0,0,0,.151.233q2.429,2.434,4.862,4.863a1.118,1.118,0,0,0,.168.117l-.968.968c-.035-.032-.078-.072-.12-.113-1.562-1.561-3.129-3.117-4.678-4.69a1.246,1.246,0,0,0-.85-.422.378.378,0,0,1-.307-.181c-.486-.677-.979-1.349-1.473-2.022a1.206,1.206,0,0,0-.132-.134V376.9l.9-.9Z"/><path d="M308.547,394.995a.815.815,0,0,1,.609.472.49.49,0,0,1-.163.577q-1.454,1.446-2.9,2.9a.489.489,0,0,1-.592.159.655.655,0,0,1-.418-.6.554.554,0,0,1,.139-.314q1.5-1.515,3.013-3.015A1.466,1.466,0,0,1,308.547,394.995Z" transform="translate(-10.289 -10.242)"/></g></svg>