<svg xmlns="http://www.w3.org/2000/svg" width="19.216" height="14.941" viewBox="0 0 19.216 14.941">
  <g id="Group_1" data-name="Group 1" transform="translate(-150.174 -363.37)">
    <path id="Path_4197" data-name="Path 4197" d="M151.932,363.37a1.752,1.752,0,0,0-1.758,1.746V375.67a1.758,1.758,0,0,0,1.758,1.758h7.031V375.77l8.789-8.787v-.1a1.757,1.757,0,0,0-1.758-1.755h-7.031l-1.758-1.758Z" fill="#486eb8"/>
    <path id="Path_4198" data-name="Path 4198" d="M167.783,369.641a.465.465,0,0,0-.338.146l-.879.879,1.8,1.8.879-.879a.466.466,0,0,0,.016-.66l-.016-.016-1.124-1.124A.465.465,0,0,0,167.783,369.641Z" fill="#c1484a"/>
    <path id="Path_4199" data-name="Path 4199" d="M166.056,371.176l-5.335,5.324v1.811h1.811l5.325-5.335Z" fill="#c1484a"/>
  </g>
</svg>
