<svg xmlns="http://www.w3.org/2000/svg" width="15.498" height="18.031" viewBox="0 0 15.498 18.031">
  <path id="file_document_edit_outline" data-name="file document edit outline" d="M7.435,10.586H14.3V12.3H7.435Zm1.717,6.869H5.717V3.717h6.01V8.01h4.293v2.662l1.717-1.717v-1.8L12.586,2H5.717A1.722,1.722,0,0,0,4,3.717V17.455a1.722,1.722,0,0,0,1.717,1.717H9.152ZM7.435,15.738h3.52l.773-.773v-.944H7.435ZM17.91,11.445a.651.651,0,0,1,.343.172l1.116,1.116a.522.522,0,0,1,0,.687l-.859.859-1.8-1.8.859-.859a.446.446,0,0,1,.343-.172m0,3.349-5.238,5.238h-1.8v-1.8l5.238-5.238Z" transform="translate(-4 -2)" fill="#fff"/>
</svg>
