<svg xmlns="http://www.w3.org/2000/svg" width="37.45" height="29.541" viewBox="0 0 37.45 29.541">
  <path id="Path_1598" data-name="Path 1598" d="M28.1,16.35q2.989-2.095,7.258-5a11.529,11.529,0,0,0,2.09-1.825V25.736Zm5.775-7.241-7.666,5.343L24.1,15.927l-.313.223-.576.417q-.679.493-1.129.8t-1.086.682a6.322,6.322,0,0,1-1.2.567,3.31,3.31,0,0,1-1.045.188h-.041a3.319,3.319,0,0,1-1.045-.188,6.317,6.317,0,0,1-1.2-.567q-.639-.378-1.087-.682t-1.128-.8l-.576-.417-.312-.223c-.583-.412-1.29-.908-2.109-1.481-.961-.673-2.08-1.453-3.366-2.348Q4.305,9.612,3.595,9.108A10.38,10.38,0,0,1,1.15,6.685,4.913,4.913,0,0,1,0,3.821,4.246,4.246,0,0,1,.868,1.094,2.98,2.98,0,0,1,3.344,0H34.106a3.228,3.228,0,0,1,2.351.986A3.226,3.226,0,0,1,37.45,3.36a5.564,5.564,0,0,1-1.023,3.168A9.971,9.971,0,0,1,33.878,9.108ZM2.111,11.354q4.439,3.028,7.241,4.993L0,25.735V9.528A11.1,11.1,0,0,0,2.111,11.354ZM12.5,18.592q1.191.881,1.933,1.374A11.9,11.9,0,0,0,16.4,20.973a6,6,0,0,0,2.3.514h.041a6,6,0,0,0,2.3-.514,11.932,11.932,0,0,0,1.974-1.007q.742-.493,1.933-1.374c.233-.17.48-.348.735-.531L36.3,28.714a3.193,3.193,0,0,1-2.191.831H3.344a3.193,3.193,0,0,1-2.192-.831L11.764,18.059C12.03,18.25,12.275,18.429,12.5,18.592Z" transform="translate(0 -0.003)" fill="#98a2c5" fill-rule="evenodd"/>
</svg>
