<svg xmlns="http://www.w3.org/2000/svg" width="39.862" height="40.662" viewBox="0 0 39.862 40.662">
  <g id="Group_1346" data-name="Group 1346" transform="translate(525.971 -150.905)">
    <path id="Path_1780" data-name="Path 1780" d="M-255.859,439.96q-3.8,0-7.6,0a1.433,1.433,0,0,1-1.574-1.581q0-7.663,0-15.326a1.435,1.435,0,0,1,1.492-1.5l15.324,0a1.436,1.436,0,0,1,1.594,1.6q0,7.6,0,15.2a1.427,1.427,0,0,1-1.591,1.6Q-252.039,439.961-255.859,439.96Zm.029-15.777v0c-2.012,0-4.025.005-6.037,0-.382,0-.571.132-.539.526a2.841,2.841,0,0,1,0,.328c-.012.328.141.468.471.468q6.078-.007,12.156-.006c.479,0,.515-.087.524-.79.005-.394-.158-.526-.543-.524C-251.806,424.189-253.818,424.183-255.831,424.183Zm-.009,2.627v0h-.205q-2.916,0-5.832,0c-.2,0-.389.005-.493.211a.714.714,0,0,0,.654,1.105q5.935,0,11.869,0c.533,0,.59-.062.59-.633,0-.62-.05-.682-.587-.682Zm-.033,3.945v0h6.039c.548,0,.575-.037.574-.766,0-.477-.075-.545-.593-.545l-11.954,0c-.571,0-.594.03-.594.746,0,.506.066.566.613.566Zm0,2.63v0h.287q2.9,0,5.791,0c.2,0,.39,0,.5-.206a.716.716,0,0,0-.646-1.11q-5.955,0-11.91,0c-.5,0-.556.07-.555.668,0,.579.059.646.582.646Q-258.846,433.387-255.868,433.385Zm.08,1.315q-3.019,0-6.037,0c-.545,0-.585.06-.579.772,0,.475.075.538.6.538l11.951,0c.519,0,.595-.068.6-.544,0-.715-.036-.771-.578-.771Q-252.811,434.7-255.789,434.7Z" transform="translate(-239.482 -248.393)" fill="#98a2c5"/>
    <path id="Path_1781" data-name="Path 1781" d="M-522.529,184.62c-.615,0-1.119-.012-1.589-.037a1.947,1.947,0,0,1-1.849-2.206c-.006-2.088-.005-4.21,0-6.262v-3.849q0-9.489,0-18.977a2.079,2.079,0,0,1,2.354-2.372h5.775c3.374,0,6.418,0,9.505-.011h.013a3.135,3.135,0,0,1,2.331.974c1.869,1.885,3.779,3.791,5.626,5.635l.643.641a2.865,2.865,0,0,1,.88,2.092v2.141c0,2.7,0,5.5.006,8.251a.857.857,0,0,1-.205.634.81.81,0,0,1-.595.2h-.1c-.5-.012-.8-.019-1.028-.253s-.221-.539-.222-1.048v-1.453c0-2.55,0-5.186.008-7.779-.873.007-1.794.01-2.9.01q-1.344,0-2.687,0h-.084a2.12,2.12,0,0,1-2.228-2.238l0-.81c0-1.589-.007-3.23,0-4.847-3.636.006-7.329.006-10.9.006H-523.7l-.126,0c0,.034,0,.078,0,.135q0,8.945,0,17.889v7.3q0,.881,0,1.763,0,1.091,0,2.181c0,.062,0,.109,0,.145l.154,0,.688,0,.833,0c.342,0,.627,0,.9,0h.023a.847.847,0,0,1,.832.5,7.828,7.828,0,0,0,.4.679c.068.107.137.216.206.329l.381.625h-.732c-.4,0-.808,0-1.2.01S-522.134,184.62-522.529,184.62Zm15.8-25.819a.359.359,0,0,0,.053,0h4.361l-4.418-4.433v.332c0,1.323,0,2.675,0,4.026A.4.4,0,0,0-506.728,158.8Z" transform="translate(0 0)" fill="#98a2c5"/>
    <path id="Path_1782" data-name="Path 1782" d="M-447.11,466.57c-.682-.665-1.319-1.282-1.951-1.9-.42-.413-.834-.831-1.25-1.248-.124-.125-.285-.238-.21-.45s.272-.2.448-.2c.753,0,1.506,0,2.259,0a.923.923,0,0,1,.693.3c1.429,1.436,2.865,2.865,4.292,4.3a.75.75,0,0,1-.011,1.239q-2.111,2.1-4.224,4.2a1.083,1.083,0,0,1-.836.355c-.711-.017-1.424,0-2.135,0-.177,0-.365.028-.459-.181-.1-.232.065-.357.2-.49q1.476-1.486,2.955-2.97c.053-.053.139-.091.122-.226-1.361,0-2.725-.021-4.087,0a5.671,5.671,0,0,1-5.716-5.361c-.039-1.067-.014-2.136-.009-3.2,0-.439.154-.6.587-.622.492-.02.986-.021,1.478,0,.44.019.571.173.574.626,0,.917-.005,1.835,0,2.752a3.033,3.033,0,0,0,3.154,3.159c1.314,0,2.628,0,3.942-.006A1.184,1.184,0,0,0-447.11,466.57Z" transform="translate(-63.258 -283.769)" fill="#98a2c5"/>
    <path id="Path_1783" data-name="Path 1783" d="M-476.588,328.729c-.1,0-.188,0-.281-.005a1.069,1.069,0,0,1-1.1-1.1,1.08,1.08,0,0,1,1.162-1.037h9.933q3.448,0,6.9,0c.9,0,1.233.537,1.242,1.038a1.024,1.024,0,0,1-.281.761,1.294,1.294,0,0,1-.96.338l-4.03,0h-3.984l-.4,0h-8.194Z" transform="translate(-44.053 -161.235)" fill="#98a2c5"/>
    <path id="Path_1784" data-name="Path 1784" d="M-476.777,376.187a1.143,1.143,0,0,1-1.172-.706,1.019,1.019,0,0,1,.1-.955,1.17,1.17,0,0,1,.989-.481q1.734-.005,3.468,0h9.354c.1,0,.179,0,.255.007a1.07,1.07,0,0,1,1.06,1.094,1.067,1.067,0,0,1-1.116,1.044q-.724,0-1.449,0H-472.3q-2.236,0-4.472,0Z" transform="translate(-44.004 -204.79)" fill="#98a2c5"/>
    <path id="Path_1785" data-name="Path 1785" d="M-472.642,233.818v0h-2.109q-1,0-2,0a1.045,1.045,0,0,1-1.148-1.049,1.046,1.046,0,0,1,.291-.759,1.161,1.161,0,0,1,.839-.324q2.777,0,5.553,0l3.487,0a1.068,1.068,0,0,1,1.168.963,1.043,1.043,0,0,1-.728,1.118,1.164,1.164,0,0,1-.4.059h-4.95Z" transform="translate(-44.119 -74.131)" fill="#98a2c5"/>
    <path id="Path_1786" data-name="Path 1786" d="M-472.687,281.279v0h-3.944c-1.178,0-1.273-.806-1.274-1.053a1.023,1.023,0,0,1,.286-.751,1.312,1.312,0,0,1,.967-.334h2.307q3.3,0,6.608,0a1.21,1.21,0,0,1,.892.334,1.012,1.012,0,0,1,.28.75,1.063,1.063,0,0,1-1.189,1.051q-.992,0-1.985,0Z" transform="translate(-44.115 -117.69)" fill="#98a2c5"/>
  </g>
</svg>
