<svg xmlns="http://www.w3.org/2000/svg" width="17.436" height="15.692" viewBox="0 0 17.436 15.692">
  <path id="fax" d="M9.846,5.615h4.359V7.359H9.846ZM7.231,8.231V3h9.59V8.231a2.612,2.612,0,0,1,2.615,2.615v5.231H16.821v2.615H7.231V16.077H6.359V8.231ZM8.974,4.744V8.231h6.1V4.744Zm0,8.718v3.487h6.1V13.462Zm7.846-3.487a.872.872,0,1,0,.872.872A.872.872,0,0,0,16.821,9.974ZM3.744,8.231h.872a.872.872,0,0,1,.872.872v6.1a.872.872,0,0,1-.872.872H3.744A1.744,1.744,0,0,1,2,14.333V9.974A1.744,1.744,0,0,1,3.744,8.231Z" transform="translate(-2 -3)" fill="#fff"/>
</svg>
