<svg xmlns="http://www.w3.org/2000/svg" width="36.44" height="32.796" viewBox="0 0 36.44 32.796">
  <path id="fax" d="M18.4,8.466h9.11V12.11H18.4Zm-5.466,5.466V3H32.974V13.932A5.458,5.458,0,0,1,38.44,19.4V30.33H32.974V35.8H12.932V30.33H11.11v-16.4Zm3.644-7.288v7.288H29.33V6.644Zm0,18.22v7.288H29.33V24.864Zm16.4-7.288A1.822,1.822,0,1,0,34.8,19.4,1.822,1.822,0,0,0,32.974,17.576ZM5.644,13.932H7.466a1.822,1.822,0,0,1,1.822,1.822V28.508A1.822,1.822,0,0,1,7.466,30.33H5.644A3.644,3.644,0,0,1,2,26.686v-9.11A3.644,3.644,0,0,1,5.644,13.932Z" transform="translate(-2 -3)" fill="#98a2c5"/>
</svg>
