<svg xmlns="http://www.w3.org/2000/svg" width="37.13" height="43.32" viewBox="0 0 37.13 43.32">
  <g id="Group_750" data-name="Group 750" transform="translate(-953 -2346)">
    <path id="Path_1223" data-name="Path 1223" d="M279,386.178q0-9.137,0-18.273a3.114,3.114,0,0,1,3.389-3.4q12.012,0,24.025.012a1.169,1.169,0,0,1,.742.316q4.344,4.3,8.648,8.648a1.168,1.168,0,0,1,.313.743q.023,15.082.012,30.164a3.127,3.127,0,0,1-3.452,3.434H282.42A3.122,3.122,0,0,1,279,404.4Q279,395.29,279,386.178Zm3.118,18.516h30.895V376.877h-9.277v-9.252H282.122Z" transform="translate(673.996 1981.494)" fill="#333"/>
    <path id="Path_1224" data-name="Path 1224" d="M300.43,391.5q5.317,0,10.633,0a1.55,1.55,0,1,1,.016,3.089q-4.011.009-8.022,0-6.669,0-13.34,0a1.554,1.554,0,1,1-.016-3.093q4.519-.005,9.038,0Z" transform="translate(671.184 1973.061)" fill="#486eb8"/>
    <path id="Path_1225" data-name="Path 1225" d="M300.382,403.6c-3.577,0-7.153,0-10.729,0a1.545,1.545,0,0,1-1.542-2.1,1.562,1.562,0,0,1,1.562-.993q3.142-.007,6.283,0,7.515,0,15.03,0a1.6,1.6,0,0,1,1.641.951,1.54,1.54,0,0,1-1.516,2.144c-2.255.012-4.511,0-6.766,0Z" transform="translate(671.185 1970.252)" fill="#486eb8"/>
    <path id="Path_1226" data-name="Path 1226" d="M300.38,412.6q-5.34,0-10.68,0a1.55,1.55,0,1,1-.026-3.09c1.965-.006,3.931,0,5.9,0q7.733,0,15.465,0a1.553,1.553,0,1,1,.026,3.092q-4.519.006-9.038,0Z" transform="translate(671.185 1967.44)" fill="#486eb8"/>
    <path id="Path_1227" data-name="Path 1227" d="M295.739,378q3,0,5.991,0a1.556,1.556,0,1,1,.027,3.092q-6.015.005-12.032,0a1.556,1.556,0,1,1,.021-3.092Q292.743,378,295.739,378Z" transform="translate(671.182 1977.278)" fill="#486eb8"/>
  </g>
</svg>
