<svg xmlns="http://www.w3.org/2000/svg" width="16" height="20" viewBox="0 0 16 20">
  <path id="file_pdf" data-name="file pdf" d="M14,9h5.5L14,3.5ZM7,2h8l6,6V20a2,2,0,0,1-2,2H6.99A1.992,1.992,0,0,1,5,20L5.01,4A1.992,1.992,0,0,1,7,2Zm4.932,10.435a6.21,6.21,0,0,0,1.523,2.154l.418.324a18.316,18.316,0,0,0-3.341.925h0l-.109.042.493-1.036A14.733,14.733,0,0,0,11.932,12.435Zm6.474,3.813a.959.959,0,0,0,.285-.662.809.809,0,0,0-.123-.551c-.293-.463-1.038-.687-2.278-.687l-1.3.074-.862-.585a5.793,5.793,0,0,1-1.6-2.557l.035-.141c.335-1.328.637-2.936-.022-3.6a.846.846,0,0,0-.607-.244l-.236,0c-.377,0-.686.39-.8.776a4.93,4.93,0,0,0,.219,3.265l0,.012a17.186,17.186,0,0,1-1.087,2.924l-.952,1.8-.89.49a3.8,3.8,0,0,0-1.882,2.118.834.834,0,0,0,.053.539l.023.052.48.315.439.1c.813,0,1.731-.947,2.974-3.069l.184-.071a19.893,19.893,0,0,1,4.048-.75,7.239,7.239,0,0,0,2.985.739A1.141,1.141,0,0,0,18.406,16.248Zm-.394-.706.075.106c-.01.1-.042.113-.09.129l-.034.007-.195.014a5.415,5.415,0,0,1-1.9-.512.259.259,0,0,1,.229-.1C17.492,15.186,17.9,15.435,18.012,15.542ZM8.829,17C8.181,18.191,7.592,18.847,7.138,19a3.666,3.666,0,0,1,1.215-1.693Zm3.016-6.9a3.656,3.656,0,0,1-.067-2.051l.067-.118.148.05a1.342,1.342,0,0,1,.1,1.095l-.03.163-.161.823Z" transform="translate(-5 -2)" fill="#db2828"/>
</svg>
