<svg xmlns="http://www.w3.org/2000/svg" width="13.738" height="18.031" viewBox="0 0 13.738 18.031">
  <g id="Group_1481" data-name="Group 1481" transform="translate(-718 -489)">
    <path id="file_document_edit_outline" data-name="file document edit outline" d="M9.152,17.455H5.717V3.717h6.01V8.01h4.293v2.662l1.717-1.717v-1.8L12.586,2H5.717A1.722,1.722,0,0,0,4,3.717V17.455a1.722,1.722,0,0,0,1.717,1.717H9.152Z" transform="translate(714 487)" fill="#fff"/>
    <path id="share-alt" d="M6.9,6.27a1.873,1.873,0,0,0-1.171.409L3.717,5.424a1.892,1.892,0,0,0,0-.817L5.725,3.352A1.877,1.877,0,1,0,5.06,2.289L3.052,3.544a1.881,1.881,0,1,0,0,2.943L5.06,7.742A1.881,1.881,0,1,0,6.9,6.27Z" transform="translate(721 497)" fill="#fff"/>
  </g>
</svg>
