<svg xmlns="http://www.w3.org/2000/svg" width="34.784" height="37.097" viewBox="0 0 34.784 37.097">
  <g id="Group_1344" data-name="Group 1344" transform="translate(-294.752 -367)">
    <path id="Path_1766" data-name="Path 1766" d="M294.758,408.669q0-14.326-.006-28.652c0-.263.05-.338.329-.338q7.788.014,15.575,0a.727.727,0,0,1,.568.233q3.257,3.274,6.531,6.532a.6.6,0,0,1,.193.474c-.008,1.159-.011,2.318,0,3.477a.389.389,0,0,1-.29.444,10.25,10.25,0,0,0-5.43,4.811.454.454,0,0,1-.476.269c-4-.006-7.992,0-11.989-.011-.29,0-.4.047-.377.363.031.542.024,1.086,0,1.629-.01.261.045.341.326.34,2.656-.013,5.313-.008,7.969-.008h3.537c-.066.489-.135.959-.191,1.43a6.934,6.934,0,0,0,0,1.734c.033.255-.01.322-.278.32-1.714-.012-3.429-.005-5.143-.005-1.968,0-3.936,0-5.9-.007-.247,0-.33.048-.32.31.022.567.021,1.136,0,1.7-.008.249.051.319.31.318,3.623-.01,7.245.017,10.866-.027a1.215,1.215,0,0,1,1.409.887,9.177,9.177,0,0,0,2.62,3.548c.065.056.217.072.16.223Zm11.629-18.549c-2.234,0-4.468,0-6.7-.005-.235,0-.3.057-.3.295.019.592.016,1.184,0,1.775,0,.206.054.258.258.258q6.7-.009,13.4,0c.2,0,.264-.052.26-.258-.014-.579-.021-1.159,0-1.738.011-.272-.063-.334-.334-.333C310.782,390.127,308.585,390.121,306.387,390.12Zm-3.514-3.478c1.063,0,2.125-.007,3.187.006.237,0,.3-.063.3-.3-.017-.591-.015-1.183,0-1.775.005-.208-.06-.257-.261-.256q-3.223.011-6.446,0c-.206,0-.263.056-.258.26.014.592.018,1.183,0,1.774-.007.24.063.3.3.295C300.749,386.635,301.811,386.642,302.873,386.642Zm8.116-4.61c0,1.521,0,2.976,0,4.431,0,.263.177.175.3.175q2.044.008,4.089,0c.061,0,.148.043.178-.05Z" transform="translate(0 -4.571)" fill="#98a2c5"/>
    <path id="Path_1767" data-name="Path 1767" d="M325.564,367c0,.157.143.21.23.3q3.208,3.219,6.427,6.429a.642.642,0,0,1,.233.494q-.011,6.446-.006,12.893c0,.046-.006.091-.012.18a11.236,11.236,0,0,0-2.266-1.134,10.164,10.164,0,0,0-2.5-.556c.15-.066.138-.168.138-.268,0-.615-.008-1.231,0-1.847,0-.2-.051-.267-.258-.262-.6.013-1.207,0-1.811.01-.2,0-.29-.054-.255-.258a.227.227,0,0,0,0-.036,5.17,5.17,0,0,0-.065-1.826c-.214-.512-.815-.863-1.244-1.282.082-.135.189-.077.273-.077,1.026-.005,2.053-.01,3.078,0,.215,0,.291-.04.283-.273-.019-.579-.02-1.159,0-1.738.008-.25-.056-.32-.313-.318-1.787.012-3.573,0-5.36.012a.715.715,0,0,1-.565-.236c-.983-1-1.976-1.984-2.967-2.974-.074-.073-.156-.137-.314-.274.834,0,1.552-.011,2.269.006.242.006.3-.068.293-.3-.016-.591-.015-1.183,0-1.774.005-.21-.063-.255-.262-.254q-3.224.01-6.447,0c-.208,0-.256.06-.258.261,0,.3.146.7-.061.858s-.578.043-.879.044c-1.134,0-2.269-.008-3.4.006-.242,0-.293-.066-.293-.3.01-1.835.006-3.67.006-5.5Zm-.071,2.345c0,1.52,0,2.975,0,4.429,0,.259.173.178.294.179q2.043.006,4.086,0c.062,0,.148.043.18-.051Z" transform="translate(-5.229)" fill="#98a2c5"/>
    <path id="Path_1768" data-name="Path 1768" d="M330.938,415.87a2.694,2.694,0,0,0-.824-.2,8.11,8.11,0,1,1,9.814-8.9c.007.049.015.094.067.114V408.7c-.1.046-.067.144-.08.221a8.165,8.165,0,0,1-6.338,6.774,3.025,3.025,0,0,0-.827.179Zm-3.5-3.493c1.157-.109,2.31-.219,3.462-.322a.525.525,0,0,0,.337-.185q3.069-3.072,6.144-6.139a.721.721,0,0,0-.031-1.2,1.511,1.511,0,0,1-.206-.2c-.708-.708-1.413-1.42-2.127-2.122-.358-.352-.721-.369-1.016-.073q-3.107,3.112-6.214,6.224a.62.62,0,0,0-.223.4q-.15,1.711-.313,3.422C327.242,412.329,327.274,412.416,327.443,412.377Z" transform="translate(-10.459 -11.773)" fill="#98a2c5"/>
    <path id="Path_1769" data-name="Path 1769" d="M338.729,408.262c-.059.063-.106.117-.157.168q-1.906,1.907-3.81,3.816c-.136.137-.224.173-.37.012-.251-.276-.52-.538-.793-.793-.142-.132-.164-.22-.011-.372q1.928-1.911,3.84-3.838c.118-.118.189-.141.314-.006.279.3.577.583.866.874C338.649,408.163,338.683,408.209,338.729,408.262Z" transform="translate(-13.964 -14.478)" fill="#98a2c5"/>
  </g>
</svg>
