<svg xmlns="http://www.w3.org/2000/svg" width="71.298" height="62.048" viewBox="0 0 71.298 62.048"><defs><style>.a{fill:#486EB8;}.b{fill:#C1484A;}</style></defs><g transform="translate(-272.611 -366.462)"><path class="a" d="M326.074,388.039c-7.74-1.686-14.245.2-18.88,6.6-4.62,6.375-4.36,13.113-.39,19.877H272.66c-.014-.26-.041-.533-.041-.8,0-8.56-.021-17.12.008-25.679a9.371,9.371,0,0,1,7.687-9.536,12.167,12.167,0,0,1,2.3-.173q16.732-.016,33.464,0c4.99,0,8.747,2.92,9.745,7.553C325.967,386.554,325.987,387.265,326.074,388.039Z" transform="translate(0 0.876)"/><path class="b" d="M330.941,412.1c1.129,1.668,1.115,3.058-.04,4.157-1.109,1.056-2.511,1.017-4.1-.112a14.53,14.53,0,1,1,4.137-4.045Zm-12.132,2.113a10.3,10.3,0,1,0-10.261-10.31A10.325,10.325,0,0,0,318.809,414.214Z" transform="translate(2.346 1.695)"/><path class="a" d="M272.737,380.542a62.5,62.5,0,0,1,.056-7.525c.5-4.043,3.22-6.412,7.525-6.5,5.984-.119,11.975-.032,17.96.112a10.984,10.984,0,0,1,7.372,3.391c.968.927,1.88,1.915,2.88,2.8a2.213,2.213,0,0,0,1.317.555c4.193.048,8.386-.043,12.576.067a9.493,9.493,0,0,1,9.172,9.175c.088,2.878.024,5.76.025,8.642a3.373,3.373,0,0,1-.067.447c-.862-.515-1.683-.963-2.444-1.494a1.119,1.119,0,0,1-.272-.806c-.021-2.054-.01-4.108-.012-6.162a6.884,6.884,0,0,0-7.015-7.055c-4.135-.027-8.271-.038-12.406.025a3.128,3.128,0,0,1-2.6-1.063c-1.2-1.3-2.5-2.5-3.807-3.687a8.118,8.118,0,0,0-5.47-2.111c-5.7-.059-11.407-.091-17.11-.031-3.186.033-4.906,1.878-5,5.074,0,.114,0,.228,0,.343-.008,1.168.323,2.493-.119,3.462S273.643,379.761,272.737,380.542Z" transform="translate(0.002 0)"/><path class="b" d="M328.449,418.4l4.361-4.68c1.225,1.181,2.38,2.308,3.548,3.42s2.364,2.223,3.425,3.22l-4.39,4.656Z" transform="translate(4.126 3.492)"/></g></svg>
