<svg xmlns="http://www.w3.org/2000/svg" width="44.841" height="38" viewBox="0 0 44.841 38">
  <g id="Group_1" data-name="Group 1" transform="translate(-286 -378.014)">
    <path id="Path_4193" data-name="Path 4193" d="M329.841,389.228v1.489a2.59,2.59,0,0,0-.072.332c-.155,1.728-.294,3.459-.461,5.187q-.389,4.007-.812,8.01c-.3,2.9-.625,5.8-.94,8.7-.089.82-.184,1.64-.275,2.451H287.556c-.179-1.629-.361-3.236-.533-4.843-.306-2.871-.615-5.742-.908-8.614-.295-2.888-.571-5.777-.856-8.665-.084-.853-.173-1.705-.259-2.557v-1.489c.579-1.546,1.313-2.088,2.82-2.088l38.983,0C328.571,387.142,329.229,387.6,329.841,389.228Z" transform="translate(1 0.617)" fill="#486eb8"/>
    <path id="Path_4194" data-name="Path 4194" d="M287.762,385.794c0-1.407-.005-2.789.005-4.17a3.18,3.18,0,0,1,.11-.69,3.5,3.5,0,0,1,3.629-2.911q4.945-.014,9.892,0a3.692,3.692,0,0,1,3.894,3.876c.005.317,0,.634,0,1h.564l17.946,0a2.852,2.852,0,0,1,2.926,2.666c.006.068,0,.139,0,.232Z" transform="translate(1.187 0)" fill="#c1484a"/>
  </g>
</svg>
