<svg id="Group_62" data-name="Group 62" xmlns="http://www.w3.org/2000/svg" width="67.514" height="75" viewBox="0 0 67.514 75">
  <path id="Path_349" data-name="Path 349" d="M602.634,1281.672l-12.455,7.785-12.455-7.785v-3.114l12.455,7.784,12.455-7.784m0-3.114h-24.91a3.1,3.1,0,0,0-3.1,3.114l-.016,18.682a3.114,3.114,0,0,0,3.114,3.114h24.91a3.115,3.115,0,0,0,3.114-3.114v-18.682A3.114,3.114,0,0,0,602.634,1275.444Z" transform="translate(-538.233 -1236.492)" fill="#fff"/>
  <g id="Group_61" data-name="Group 61">
    <path id="Path_350" data-name="Path 350" d="M427.573,1128.516q0,.906,0,1.811c0,2.1-.684,2.768-2.81,2.767q-15.51,0-31.019,0-5.753,0-11.507,0c-1.825,0-2.534-.709-2.547-2.5,0-.417,0-.834,0-1.251q0-20.141,0-40.283,0-10.175,0-20.35a2.012,2.012,0,0,1,2.184-2.262c.166-.008.333-.007.5-.007q15.009,0,30.018,0c.3,0,.592.026.859.038,0,4-.005,7.917,0,11.834,0,2.036.854,2.867,2.907,2.867q5.045,0,10.089,0h1.3v17.737h4.187v-15.1a7.7,7.7,0,0,0,.029-2.03,7.352,7.352,0,0,0-1.746-4.393q-5.879-6.433-11.75-12.872a6.733,6.733,0,0,0-5.249-2.276q-15.509.018-31.019,0a6.173,6.173,0,0,0-6.486,6.426q-.018,31.066.006,62.133a6.131,6.131,0,0,0,6.538,6.435q21.555,0,43.109,0a6.209,6.209,0,0,0,6.561-6.605q0-1.062,0-2.125Z" transform="translate(-375.512 -1062.249)" fill="#fff"/>
    <path id="Path_351" data-name="Path 351" d="M440.9,1238.843H470a2.113,2.113,0,0,0,0-4.227H440.9a2.113,2.113,0,0,0,0,4.227Z" transform="translate(-427.223 -1203.123)" fill="#fff"/>
    <path id="Path_352" data-name="Path 352" d="M440.9,1356.19h20.789v-4.226H440.9a2.113,2.113,0,1,0,0,4.226Z" transform="translate(-427.223 -1299.03)" fill="#fff"/>
    <path id="Path_353" data-name="Path 353" d="M440.9,1297.516h20.789v-4.227H440.9a2.113,2.113,0,0,0,0,4.227Z" transform="translate(-427.223 -1251.076)" fill="#fff"/>
    <path id="Path_354" data-name="Path 354" d="M440.9,1180.168h14.665a2.113,2.113,0,1,0,0-4.226H440.9a2.113,2.113,0,1,0,0,4.226Z" transform="translate(-427.223 -1155.169)" fill="#fff"/>
  </g>
</svg>
