<svg id="Group_52" data-name="Group 52" xmlns="http://www.w3.org/2000/svg" width="74.923" height="75" viewBox="0 0 74.923 75">
  <path id="Path_331" data-name="Path 331" d="M872.32,1297.919a2.52,2.52,0,0,1,1.424,2.715c-.064,5.643-.026,11.287-.029,16.93a6.209,6.209,0,0,1-6.561,6.6q-21.556,0-43.11,0c-3.9,0-6.535-2.554-6.538-6.434q-.027-31.067-.007-62.133a6.172,6.172,0,0,1,6.486-6.425q15.509-.005,31.019,0a6.73,6.73,0,0,1,5.248,2.276q5.861,6.447,11.749,12.872a7.344,7.344,0,0,1,1.746,4.393,5.448,5.448,0,0,1-2.246,5.545,14.245,14.245,0,0,0-1.742,1.752l-.227-.074V1268.1h-1.3q-5.044,0-10.089,0c-2.052,0-2.9-.831-2.907-2.867-.007-3.916,0-7.833,0-11.834-.268-.011-.564-.037-.86-.037q-15.009,0-30.018,0c-.167,0-.333,0-.5.007a2.013,2.013,0,0,0-2.184,2.263q-.008,10.175,0,20.349,0,20.142,0,40.283c0,.417,0,.834,0,1.252.013,1.792.722,2.5,2.547,2.5q5.753.009,11.506,0,15.51,0,31.02,0c2.126,0,2.811-.67,2.81-2.768,0-5.2.01-10.4-.012-15.6a1.83,1.83,0,0,1,.606-1.458C870.927,1299.448,871.645,1298.634,872.32,1297.919Z" transform="translate(-817.492 -1249.171)" fill="#fff"/>
  <path id="Path_332" data-name="Path 332" d="M897.163,1283.468l2.21,2.142a14.307,14.307,0,0,1,1.039-1.346,1.51,1.51,0,0,1,2.275-.216,1.548,1.548,0,0,1-.141,2.348q-5.167,5.208-10.352,10.4c-.921.925-1.836,1.859-2.767,2.774a1.529,1.529,0,0,1-2.346.146,1.571,1.571,0,0,1,.2-2.291q4.64-4.673,9.294-9.334c.117-.117.224-.244.332-.363l-2.082-1.926-16.174,16.182-7.09-7.154c.076-.083.264-.307.47-.514,6.149-6.153,12.278-12.324,18.467-18.437a18.065,18.065,0,0,1,3.793-2.947,4.775,4.775,0,0,1,6.922,3.407,4.55,4.55,0,0,1-1.022,3.586C899.283,1281.143,898.222,1282.247,897.163,1283.468Z" transform="translate(-828.239 -1253.78)" fill="#fff"/>
  <path id="Path_333" data-name="Path 333" d="M861.431,1302.692l7.116,7.085c-2.1,2-4.175,4.092-6.371,6.039a38.471,38.471,0,0,1-10.978,7.145c-.794.323-1.707.345-2.523.627a2.25,2.25,0,0,0-.956.85c-.622.874-1.306.94-2.026.129-1.369-1.542-2.294-1.635-4.029-.469a12.06,12.06,0,0,1-2.348,1.377,2.068,2.068,0,0,1-2.948-2,8.751,8.751,0,0,1,.878-4.026,8.4,8.4,0,0,0,.581-1.64c.2-1.025-.517-1.613-1.434-1.128a4.249,4.249,0,0,0-1.664,1.443c-.923,1.571-1.7,3.23-2.493,4.874-.257.532-.5.99-1.176,1a1.087,1.087,0,0,1-1.135-1.379c.95-2.617,1.983-5.21,4.078-7.168a4.08,4.08,0,0,1,3.584-1.189,3.226,3.226,0,0,1,2.494,4.049c-.18.831-.588,1.61-.85,2.427s-.462,1.622-.691,2.435l.263.158a9.628,9.628,0,0,1,.9-.647,16.063,16.063,0,0,1,2.828-1.511,3.987,3.987,0,0,1,4.195,1.141c.2.2.272.542.491.707.888-4.22,3.087-7.5,5.42-10.7A76.9,76.9,0,0,1,861.431,1302.692Z" transform="translate(-819.951 -1259.808)" fill="#fff"/>
  <path id="Path_334" data-name="Path 334" d="M864.493,1293.194c-1.032,1-2.052,2.016-3.107,2.992a1.2,1.2,0,0,1-.757.215q-13.166.016-26.331.007a2.017,2.017,0,0,1-2.108-1.425,1.849,1.849,0,0,1,.948-2.186,3.971,3.971,0,0,1,1.532-.277q12.207-.026,24.414-.013c1.223,0,2.446-.033,3.666.017a10.614,10.614,0,0,1,1.659.323Z" transform="translate(-820.4 -1257.783)" fill="#fff"/>
  <path id="Path_335" data-name="Path 335" d="M853.886,1306.641c-1.025,1.232-1.949,2.373-2.917,3.474a1.172,1.172,0,0,1-.8.287q-7.993.022-15.987,0a1.911,1.911,0,1,1-.055-3.817q9.659-.016,19.318,0C853.55,1306.588,853.655,1306.612,853.886,1306.641Z" transform="translate(-820.404 -1260.582)" fill="#fff"/>
  <path id="Path_336" data-name="Path 336" d="M841.4,1278.513c2.473,0,4.944-.009,7.417.005a1.89,1.89,0,0,1,1.925,1.409,1.849,1.849,0,0,1-.923,2.194,2.883,2.883,0,0,1-1.2.259q-7.207.024-14.416,0c-1.328,0-2.13-.606-2.261-1.621a1.9,1.9,0,0,1,2.042-2.244C836.456,1278.5,838.929,1278.513,841.4,1278.513Z" transform="translate(-820.359 -1255.003)" fill="#fff"/>
</svg>
