<svg xmlns="http://www.w3.org/2000/svg" width="10.054" height="10.257" viewBox="0 0 10.054 10.257"><defs><style>.a{fill:#4285f4;}.b{fill:#34a853;}.c{fill:#fbbc04;}.d{fill:#ea4335;}</style></defs><g transform="translate(0 0)"><path class="a" d="M277.026,224.142a6.034,6.034,0,0,0-.089-1.042H272.1v1.975h2.77a2.374,2.374,0,0,1-1.025,1.558v1.281H275.5A5.008,5.008,0,0,0,277.026,224.142Z" transform="translate(-266.972 -218.896)"/><path class="b" d="M33.483,328.446a4.909,4.909,0,0,0,3.4-1.238l-1.653-1.281a3.11,3.11,0,0,1-4.624-1.626H28.9v1.321A5.129,5.129,0,0,0,33.483,328.446Z" transform="translate(-28.354 -318.189)"/><path class="c" d="M2.2,153.284a3.072,3.072,0,0,1,0-1.964V150H.5a5.133,5.133,0,0,0,0,4.605Z" transform="translate(0.05 -147.173)"/><path class="d" d="M33.483,2.011a2.787,2.787,0,0,1,1.967.769h0l1.464-1.464A4.929,4.929,0,0,0,33.483-.018,5.127,5.127,0,0,0,28.9,2.809l1.7,1.321A3.067,3.067,0,0,1,33.483,2.011Z" transform="translate(-28.354 0.018)"/></g></svg>