<svg xmlns="http://www.w3.org/2000/svg" width="22" height="19.553" viewBox="0 0 22 19.553">
  <g id="Google_Drive_New_2020_Logo_SVG_-_Vector69Com" data-name="Google Drive New 2020 Logo (SVG) - Vector69Com" transform="translate(0.021)">
    <path id="Path_4146" data-name="Path 4146" d="M80.459,257.164,77.02,251.2H68.838L65.4,257.164a1.75,1.75,0,0,0,.886.26H79.572A1.75,1.75,0,0,0,80.459,257.164Z" transform="translate(-61.95 -237.871)" fill="#467cbf" fill-rule="evenodd"/>
    <path id="Path_4147" data-name="Path 4147" d="M284.4,251.2l3.438,5.964a1.621,1.621,0,0,0,.584-.568l2.669-4.6a1.729,1.729,0,0,0,.218-.8Z" transform="translate(-269.33 -237.871)" fill="#e83927" fill-rule="evenodd"/>
    <path id="Path_4148" data-name="Path 4148" d="M211.486,17.306h6.9a1.687,1.687,0,0,0-.2-.891l-1.533-2.658-5.136-8.925a1.792,1.792,0,0,0-.658-.631l-3.46,6.006,2.048,3.55Z" transform="translate(-196.415 -3.977)" fill="#f9bb00" fill-rule="evenodd"/>
    <path id="Path_4149" data-name="Path 4149" d="M145.56,6.229l3.46-6.006A1.665,1.665,0,0,0,148.229,0h-5.338a1.649,1.649,0,0,0-.791.223Z" transform="translate(-134.58 0)" fill="#007c3c" fill-rule="evenodd"/>
    <path id="Path_4150" data-name="Path 4150" d="M10.979,10.206,7.514,4.2a1.714,1.714,0,0,0-.658.631L1.715,13.756.181,16.415a1.675,1.675,0,0,0-.2.891h6.9l2.048-3.55Z" transform="translate(0 -3.977)" fill="#1ea74b" fill-rule="evenodd"/>
    <path id="Path_4151" data-name="Path 4151" d="M6.908,251.2H0a1.766,1.766,0,0,0,.218.8l2.669,4.6a1.621,1.621,0,0,0,.584.568Z" transform="translate(-0.02 -237.871)" fill="#1c63af" fill-rule="evenodd"/>
  </g>
</svg>
