<svg xmlns="http://www.w3.org/2000/svg" width="73.421" height="75.792" viewBox="0 0 73.421 75.792"><defs><style>.a{fill:#486eb8;}.b{fill:#c1484a;}</style></defs><g transform="translate(-842.588 -1269.688)"><path class="a" d="M870.374,1337.171c-6.5,0-13,.016-19.5-.005a7.805,7.805,0,0,1-7.938-5.722,7.285,7.285,0,0,1-.3-1.958c-.018-4.94-.11-9.883.033-14.819a21.732,21.732,0,0,1,9.545-17.773c1.2-.866,1.565-.8,2.521.345a25.968,25.968,0,0,0,39.524.331c.226-.263.445-.532.674-.793a1.133,1.133,0,0,1,1.625-.226,22.3,22.3,0,0,1,9.451,13.314c.225.884-.266,1.413-1.233,1.577a29.381,29.381,0,0,0-4.65.907,15.652,15.652,0,0,0-8.5,22.444c.888,1.6.428,2.379-1.4,2.379Q880.294,1337.173,870.374,1337.171Z" transform="translate(0 7.422)"/><path class="a" d="M871.765,1269.688a18.315,18.315,0,1,1-18.422,18.57A18.336,18.336,0,0,1,871.765,1269.688Z" transform="translate(2.999 0)"/><path class="b" d="M891.52,1325.326c-2.021,0-3.922.031-5.823-.008a2.426,2.426,0,1,1,.1-4.848c1.871.009,3.743,0,5.727,0,0-1.883-.026-3.692.015-5.5a3.961,3.961,0,0,1,.345-1.578,2.331,2.331,0,0,1,2.563-1.186,2.387,2.387,0,0,1,1.916,2.27c.036,1.616.014,3.234.017,4.852v1.142h4.537c.462,0,.925-.017,1.385,0a2.421,2.421,0,0,1,.005,4.841c-1.789.038-3.581.011-5.371.016-.142,0-.284.021-.558.042v1.791c0,1.329.015,2.657-.006,3.986a2.418,2.418,0,1,1-4.835.09c-.051-.95-.013-1.906-.013-2.858C891.518,1327.4,891.52,1326.425,891.52,1325.326Z" transform="translate(11.33 11.842)"/></g></svg>