<svg id="appstore_white" xmlns="http://www.w3.org/2000/svg" width="194.4" height="67.4" viewBox="0 0 194.4 67.4">
  <path id="Path_611" data-name="Path 611" d="M7.7,0h179a7.7,7.7,0,0,1,7.7,7.7v52a7.7,7.7,0,0,1-7.7,7.7H7.7A7.7,7.7,0,0,1,0,59.7V7.7A7.64,7.64,0,0,1,7.7,0Z" fill="#fff"/>
  <g id="Group_146" data-name="Group 146" transform="translate(32 16.41)">
    <path id="Path_612" data-name="Path 612" d="M47.03,16.87H34.68A2.68,2.68,0,0,0,32,19.55V46.91a2.68,2.68,0,0,0,2.68,2.68H47.03a2.68,2.68,0,0,0,2.68-2.68V19.55A2.68,2.68,0,0,0,47.03,16.87ZM40.86,47.62a1.785,1.785,0,1,1,1.79-1.79A1.78,1.78,0,0,1,40.86,47.62Zm6.75-4.44H34.11V23h13.5Z" transform="translate(-32 -16.41)"/>
    <g id="Group_144" data-name="Group 144" transform="translate(26.11)">
      <path id="Path_613" data-name="Path 613" d="M59.83,21.74l-.75,2.27h-.97l2.46-7.23H61.7l2.47,7.23h-1l-.77-2.27Zm2.37-.72-.72-2.08c-.15-.47-.26-.9-.36-1.32h-.03c-.1.42-.21.87-.35,1.31l-.71,2.09Z" transform="translate(-58.11 -16.41)"/>
      <path id="Path_614" data-name="Path 614" d="M65.12,18.83l1.02,2.91c.17.48.31.91.42,1.34h.03c.12-.43.27-.86.44-1.34l1.01-2.91h.99l-2.04,5.19h-.9l-1.97-5.19Z" transform="translate(-58.11 -16.41)"/>
      <path id="Path_615" data-name="Path 615" d="M73.37,22.77a7.747,7.747,0,0,0,.08,1.24H72.6l-.09-.65h-.03a1.917,1.917,0,0,1-1.59.77,1.482,1.482,0,0,1-1.59-1.49c0-1.26,1.12-1.94,3.12-1.93V20.6a1.066,1.066,0,0,0-1.18-1.2,2.466,2.466,0,0,0-1.36.39l-.22-.63a3.345,3.345,0,0,1,1.72-.45c1.6,0,1.98,1.08,1.98,2.12l.01,1.94Zm-.92-1.4c-1.03-.02-2.2.16-2.2,1.17a.829.829,0,0,0,.88.9,1.312,1.312,0,0,0,1.28-.87,1.032,1.032,0,0,0,.04-.3Z" transform="translate(-58.11 -16.41)"/>
      <path id="Path_616" data-name="Path 616" d="M75.28,17.87a.605.605,0,0,1,.02-1.21.577.577,0,0,1,.6.6.594.594,0,0,1-.61.61Zm-.45,6.15V18.83h.94v5.19Z" transform="translate(-58.11 -16.41)"/>
      <path id="Path_617" data-name="Path 617" d="M77.28,16.41h.94v7.61h-.94Z" transform="translate(-58.11 -16.41)"/>
      <path id="Path_618" data-name="Path 618" d="M83.4,22.77a9.233,9.233,0,0,0,.07,1.24h-.85l-.09-.65H82.5a1.917,1.917,0,0,1-1.59.77,1.482,1.482,0,0,1-1.59-1.49c0-1.26,1.12-1.94,3.12-1.93V20.6a1.066,1.066,0,0,0-1.18-1.2,2.466,2.466,0,0,0-1.36.39l-.22-.63a3.345,3.345,0,0,1,1.72-.45c1.6,0,1.98,1.08,1.98,2.12l.02,1.94Zm-.93-1.4c-1.03-.02-2.2.16-2.2,1.17a.829.829,0,0,0,.88.9,1.312,1.312,0,0,0,1.28-.87,1.032,1.032,0,0,0,.04-.3Z" transform="translate(-58.11 -16.41)"/>
      <path id="Path_619" data-name="Path 619" d="M84.85,16.41h.94v3.25h.02a1.916,1.916,0,0,1,1.77-.94c1.29,0,2.19,1.07,2.19,2.64,0,1.87-1.18,2.79-2.34,2.79a1.864,1.864,0,0,1-1.74-.98h-.02l-.05.86h-.81c.03-.35.04-.88.04-1.34V16.41Zm.95,5.53a1.793,1.793,0,0,0,.03.34,1.462,1.462,0,0,0,1.41,1.1c1,0,1.58-.8,1.58-1.99,0-1.05-.54-1.94-1.54-1.94a1.509,1.509,0,0,0-1.43,1.16,1.62,1.62,0,0,0-.05.4v.93Z" transform="translate(-58.11 -16.41)"/>
      <path id="Path_620" data-name="Path 620" d="M90.9,16.41h.94v7.61H90.9Z" transform="translate(-58.11 -16.41)"/>
      <path id="Path_621" data-name="Path 621" d="M93.89,21.58a1.653,1.653,0,0,0,1.77,1.8,3.587,3.587,0,0,0,1.44-.26l.17.66a4.228,4.228,0,0,1-1.74.33,2.418,2.418,0,0,1-2.55-2.62,2.529,2.529,0,0,1,2.45-2.81,2.188,2.188,0,0,1,2.13,2.44,2.642,2.642,0,0,1-.03.45Zm2.76-.67a1.346,1.346,0,0,0-1.3-1.53,1.565,1.565,0,0,0-1.45,1.53Z" transform="translate(-58.11 -16.41)"/>
      <path id="Path_622" data-name="Path 622" d="M103.01,24.14a2.478,2.478,0,0,1-2.49-2.67,2.543,2.543,0,0,1,2.57-2.76,2.454,2.454,0,0,1,2.5,2.66,2.545,2.545,0,0,1-2.57,2.77Zm.03-.71c.9,0,1.58-.85,1.58-2.03,0-.88-.44-1.98-1.55-1.98s-1.59,1.03-1.59,2.02c0,1.14.64,1.99,1.55,1.99Z" transform="translate(-58.11 -16.41)"/>
      <path id="Path_623" data-name="Path 623" d="M106.73,20.23c0-.55-.01-.98-.04-1.41h.84l.05.85h.02a1.932,1.932,0,0,1,1.72-.96c.72,0,1.84.43,1.84,2.21v3.1h-.95V21.03c0-.83-.31-1.54-1.2-1.54a1.353,1.353,0,0,0-1.26.97,1.51,1.51,0,0,0-.06.44v3.13h-.94l-.02-3.8Z" transform="translate(-58.11 -16.41)"/>
      <path id="Path_624" data-name="Path 624" d="M115.98,17.58v1.24h1.35v.72h-1.35v2.8c0,.64.18,1.01.71,1.01a1.9,1.9,0,0,0,.55-.06l.04.72a2.676,2.676,0,0,1-.84.13,1.345,1.345,0,0,1-1.02-.4,2.011,2.011,0,0,1-.36-1.36V19.55h-.8v-.72h.8v-.95Z" transform="translate(-58.11 -16.41)"/>
      <path id="Path_625" data-name="Path 625" d="M118.34,16.41h.94v3.24h.02a1.664,1.664,0,0,1,.68-.66,1.858,1.858,0,0,1,.97-.27c.7,0,1.81.43,1.81,2.22v3.09h-.94V21.05c0-.85-.31-1.55-1.2-1.55a1.362,1.362,0,0,0-1.26.94,1.227,1.227,0,0,0-.06.45v3.13h-.94l-.02-7.61Z" transform="translate(-58.11 -16.41)"/>
      <path id="Path_626" data-name="Path 626" d="M124.77,21.58a1.653,1.653,0,0,0,1.77,1.8,3.587,3.587,0,0,0,1.44-.26l.17.66a4.228,4.228,0,0,1-1.74.33,2.418,2.418,0,0,1-2.55-2.62,2.529,2.529,0,0,1,2.45-2.81,2.188,2.188,0,0,1,2.13,2.44,2.641,2.641,0,0,1-.03.45Zm2.76-.67a1.346,1.346,0,0,0-1.3-1.53,1.565,1.565,0,0,0-1.45,1.53Z" transform="translate(-58.11 -16.41)"/>
      <path id="Path_627" data-name="Path 627" d="M132.22,17.87a.605.605,0,0,1,.02-1.21.605.605,0,1,1-.02,1.21Zm-.45,6.15V18.83h.94v5.19Z" transform="translate(-58.11 -16.41)"/>
      <path id="Path_628" data-name="Path 628" d="M134.26,16.89a10.133,10.133,0,0,1,1.79-.15,2.964,2.964,0,0,1,2.03.6,1.933,1.933,0,0,1,.64,1.51,2.06,2.06,0,0,1-.57,1.54,2.974,2.974,0,0,1-2.21.79,3.4,3.4,0,0,1-.75-.06v2.89h-.93V16.89Zm.93,3.47a3.31,3.31,0,0,0,.77.08c1.14,0,1.81-.56,1.81-1.53s-.68-1.43-1.7-1.43a4,4,0,0,0-.88.08v2.8Z" transform="translate(-58.11 -16.41)"/>
      <path id="Path_629" data-name="Path 629" d="M139.82,16.41h.94v3.24h.02a1.7,1.7,0,0,1,.67-.66,1.858,1.858,0,0,1,.97-.27c.7,0,1.81.43,1.81,2.22v3.09h-.94V21.05c0-.85-.31-1.55-1.2-1.55a1.361,1.361,0,0,0-1.26.94,1.227,1.227,0,0,0-.06.45v3.13h-.94l-.01-7.61Z" transform="translate(-58.11 -16.41)"/>
      <path id="Path_630" data-name="Path 630" d="M147.83,24.14a2.478,2.478,0,0,1-2.49-2.67,2.543,2.543,0,0,1,2.57-2.76,2.454,2.454,0,0,1,2.5,2.66,2.545,2.545,0,0,1-2.57,2.77Zm.04-.71c.9,0,1.58-.85,1.58-2.03,0-.88-.44-1.98-1.56-1.98-1.1,0-1.59,1.03-1.59,2.02,0,1.14.64,1.99,1.55,1.99Z" transform="translate(-58.11 -16.41)"/>
      <path id="Path_631" data-name="Path 631" d="M151.55,20.23c0-.55-.01-.98-.04-1.41h.84l.05.85h.02a1.932,1.932,0,0,1,1.72-.96c.72,0,1.83.43,1.83,2.21v3.1h-.94V21.03c0-.83-.31-1.54-1.2-1.54a1.353,1.353,0,0,0-1.26.97,1.5,1.5,0,0,0-.07.44v3.13h-.94l-.01-3.8Z" transform="translate(-58.11 -16.41)"/>
      <path id="Path_632" data-name="Path 632" d="M157.99,21.58a1.653,1.653,0,0,0,1.77,1.8,3.624,3.624,0,0,0,1.44-.26l.17.66a4.228,4.228,0,0,1-1.74.33,2.418,2.418,0,0,1-2.55-2.62,2.527,2.527,0,0,1,2.44-2.81,2.188,2.188,0,0,1,2.13,2.44,2.641,2.641,0,0,1-.03.45Zm2.75-.67a1.346,1.346,0,0,0-1.3-1.53,1.557,1.557,0,0,0-1.45,1.53Z" transform="translate(-58.11 -16.41)"/>
    </g>
    <g id="Group_145" data-name="Group 145" transform="translate(25.91 12.2)">
      <path id="Path_633" data-name="Path 633" d="M64.27,28.91,57.91,47.63h2.91l1.9-5.75h6.16l1.95,5.75h2.99L67.43,28.91Zm1.51,3.08c.21.84.45,1.7.74,2.64l1.71,4.96H63.35l1.69-4.99C65.31,33.79,65.55,32.91,65.78,31.99Z" transform="translate(-57.91 -28.61)"/>
      <path id="Path_634" data-name="Path 634" d="M82.05,33.77a5.284,5.284,0,0,0-4.5,2.16l-.11-1.86H74.85l.02.24c.08,1.16.11,2.44.11,4.27V53.01h2.83V46.28a4.974,4.974,0,0,0,3.87,1.66,5.845,5.845,0,0,0,4.29-1.82,7.747,7.747,0,0,0,1.89-5.45,7.5,7.5,0,0,0-1.65-4.97A5.36,5.36,0,0,0,82.05,33.77Zm-.71,2.34c2.52,0,3.65,2.34,3.65,4.66,0,2.99-1.44,4.85-3.76,4.85a3.461,3.461,0,0,1-3.44-3.55V39.79a4.633,4.633,0,0,1,.09-.7c.01-.08.03-.15.04-.23A3.6,3.6,0,0,1,81.34,36.11Z" transform="translate(-57.91 -28.61)"/>
      <path id="Path_635" data-name="Path 635" d="M96.63,33.77a5.284,5.284,0,0,0-4.5,2.16l-.11-1.86H89.43l.01.24c.08,1.16.11,2.44.11,4.27V53.01h2.83V46.28a4.974,4.974,0,0,0,3.87,1.66,5.845,5.845,0,0,0,4.29-1.82,7.747,7.747,0,0,0,1.89-5.45,7.5,7.5,0,0,0-1.65-4.97A5.311,5.311,0,0,0,96.63,33.77Zm-.71,2.34c2.52,0,3.65,2.34,3.65,4.66,0,2.99-1.44,4.85-3.76,4.85a3.461,3.461,0,0,1-3.44-3.55V39.79a3.631,3.631,0,0,1,.09-.7c.01-.08.03-.15.04-.23A3.6,3.6,0,0,1,95.92,36.11Z" transform="translate(-57.91 -28.61)"/>
      <path id="Path_636" data-name="Path 636" d="M114.9,36.84c-2.64-1.02-3.49-1.83-3.49-3.32,0-1.25.99-2.51,3.22-2.51a6.493,6.493,0,0,1,3.32.83l.24.15.8-2.36-.16-.09a8.159,8.159,0,0,0-4.12-.93c-3.61,0-6.13,2.13-6.13,5.18,0,2.46,1.58,4.18,4.97,5.41,2.4.9,3.3,1.82,3.3,3.4,0,1.79-1.38,2.89-3.6,2.89a7.7,7.7,0,0,1-4.08-1.16l-.25-.16-.76,2.42.14.09a9.743,9.743,0,0,0,4.79,1.23c4.87,0,6.59-2.97,6.59-5.51C119.67,39.8,118.29,38.18,114.9,36.84Z" transform="translate(-57.91 -28.61)"/>
      <path id="Path_637" data-name="Path 637" d="M124.77,30.84l-2.78.87v2.35h-2.03v2.26h2.03v6.93a5.279,5.279,0,0,0,.98,3.59,3.649,3.649,0,0,0,2.74,1.08,6.579,6.579,0,0,0,2.19-.34l.16-.06-.14-2.27-.27.08a4.311,4.311,0,0,1-1.32.15c-1.1,0-1.57-.69-1.57-2.32V36.31h3.42V34.05h-3.42l.01-3.21Z" transform="translate(-57.91 -28.61)"/>
      <path id="Path_638" data-name="Path 638" d="M135.2,33.77c-3.96,0-6.73,2.96-6.73,7.19,0,4.11,2.68,6.97,6.51,6.97h.03c3.24,0,6.73-2.26,6.73-7.22a7.152,7.152,0,0,0-1.8-5.01A6.335,6.335,0,0,0,135.2,33.77ZM135.12,36c2.55,0,3.71,2.48,3.71,4.79,0,2.84-1.58,4.9-3.76,4.9h-.03c-2.15,0-3.71-2.03-3.71-4.82C131.33,38.45,132.5,36,135.12,36Z" transform="translate(-57.91 -28.61)"/>
      <path id="Path_639" data-name="Path 639" d="M150.41,33.9l-.17-.04a2.8,2.8,0,0,0-.7-.09,4.036,4.036,0,0,0-3.55,2.28l-.08-1.98h-2.54l.02.24c.08,1.12.11,2.38.11,4.08l-.03,9.25h2.83V40.42a7.582,7.582,0,0,1,.08-1.1,3.13,3.13,0,0,1,2.98-2.85,5.815,5.815,0,0,1,.76.05l.3.03-.01-2.65Z" transform="translate(-57.91 -28.61)"/>
      <path id="Path_640" data-name="Path 640" d="M156.78,33.74c-3.77,0-6.4,3.01-6.4,7.32,0,4.15,2.62,6.84,6.67,6.84a10.855,10.855,0,0,0,4.48-.86l.17-.08-.54-2.11-.24.1a8.864,8.864,0,0,1-3.55.63,3.938,3.938,0,0,1-4.24-4.11l9.14.03.04-.18a6.07,6.07,0,0,0,.09-1.18C162.4,37.19,160.92,33.74,156.78,33.74Zm-.19,2.15a2.828,2.828,0,0,1,2.08.79,4.006,4.006,0,0,1,.97,2.64h-6.46C153.45,37.69,154.47,35.89,156.59,35.89Z" transform="translate(-57.91 -28.61)"/>
    </g>
  </g>
</svg>
