<svg xmlns="http://www.w3.org/2000/svg" width="35.418" height="35.418" viewBox="0 0 35.418 35.418">
  <g id="Group_2449" data-name="Group 2449" transform="translate(-288.291 -378.791)">
    <path id="Path_5389" data-name="Path 5389" d="M303.291,399.209a1.916,1.916,0,0,1-2.71,2.71,9.58,9.58,0,0,1,0-13.548h0l6.774-6.774A9.58,9.58,0,0,1,320.9,395.145l-2.846,2.846a13.478,13.478,0,0,0-.776-4.644l.913-.913a5.748,5.748,0,0,0-8.129-8.129h0l-6.774,6.774a5.747,5.747,0,0,0,0,8.129Z" fill="#c1484a"/>
    <path id="Path_5390" data-name="Path 5390" d="M308.71,391.08a1.916,1.916,0,0,1,2.709,0h0a9.58,9.58,0,0,1,0,13.548h0l-6.774,6.775A9.581,9.581,0,0,1,291.1,397.854h0l2.847-2.846a13.427,13.427,0,0,0,.776,4.644l-.913.913a5.748,5.748,0,0,0,8.127,8.128l6.774-6.774a5.749,5.749,0,0,0,0-8.129h0a1.917,1.917,0,0,1,0-2.71Z" fill="#486eb8"/>
  </g>
</svg>
