<svg xmlns="http://www.w3.org/2000/svg" width="40.631" height="30.481" viewBox="0 0 40.631 30.481">
  <g id="Gmail_icon__2020_" data-name="Gmail_icon_(2020)" transform="translate(-52 -41.983)">
    <path id="Path_4106" data-name="Path 4106" d="M54.77,81.624h6.464v-15.7L52,59V78.854a2.77,2.77,0,0,0,2.77,2.77" transform="translate(0 -9.16)" fill="#4285f4"/>
    <path id="Path_4107" data-name="Path 4107" d="M120,81.624h6.464a2.77,2.77,0,0,0,2.77-2.77V59L120,65.926" transform="translate(-36.603 -9.16)" fill="#34a853"/>
    <path id="Path_4108" data-name="Path 4108" d="M120,44.761v12l9.234-6.926V46.146a4.155,4.155,0,0,0-6.649-3.324" transform="translate(-36.603)" fill="#fbbc04"/>
    <path id="Path_4109" data-name="Path 4109" d="M72,60V48l11.081,8.311L94.162,48V60L83.081,68.316" transform="translate(-10.766 -3.239)" fill="#ea4335"/>
    <path id="Path_4110" data-name="Path 4110" d="M52,46.146V49.84l9.234,6.926v-12l-2.586-1.939A4.155,4.155,0,0,0,52,46.146" transform="translate(0 0)" fill="#c5221f"/>
  </g>
</svg>
