<svg xmlns="http://www.w3.org/2000/svg" width="17.436" height="17.448" viewBox="0 0 17.436 17.448">
  <g id="Group_1" data-name="Group 1" transform="translate(-219.272 -13.858)">
    <path id="Path_4214" data-name="Path 4214" d="M219.274,23.706c0-.731,0-1.44,0-2.15,0-.117.074-.13.155-.149.473-.112.945-.226,1.419-.333a.243.243,0,0,0,.212-.211,6.243,6.243,0,0,1,.6-1.588.23.23,0,0,0-.018-.284c-.283-.4-.557-.8-.835-1.2-.033-.047-.063-.1-.1-.152l1.49-1.686c.486.255.965.5,1.437.759a.255.255,0,0,0,.314-.018,6.714,6.714,0,0,1,2.276-1.03.292.292,0,0,0,.249-.26c.107-.474.226-.945.348-1.416.013-.051.079-.126.12-.127.715-.008,1.431-.006,2.16-.006.092.374.183.742.276,1.11.053.21.05.473.179.612s.385.136.585.2a6.863,6.863,0,0,1,2,1.009.231.231,0,0,0,.282.025c.483-.25.971-.491,1.468-.74l.8.941c.19.224.377.45.572.669a.15.15,0,0,1,.008.226c-.3.405-.591.817-.892,1.223a.229.229,0,0,0-.026.253c.192.5.379,1.006.554,1.514a.233.233,0,0,0,.193.168c.49.118.979.235,1.467.36.051.013.127.079.127.12.008.715.006,1.431.006,2.162l-1.11.274c-.2.051-.463.043-.6.169s-.132.385-.208.579c-.15.381-.306.76-.475,1.133a.27.27,0,0,0,.02.315c.313.439.613.887.927,1.345l-1.5,1.68-.584-.309c-.289-.154-.58-.307-.868-.465a.194.194,0,0,0-.238.006,6.807,6.807,0,0,1-2.4,1.084c-.114.026-.143.1-.166.194-.13.528-.262,1.057-.4,1.592-.4,0-.793,0-1.185,0-.311,0-.622-.009-.933-.007-.106,0-.152-.037-.176-.144-.107-.48-.227-.957-.336-1.437a.233.233,0,0,0-.2-.2,6.875,6.875,0,0,1-2.457-1.135.233.233,0,0,0-.282-.026c-.443.228-.892.442-1.336.669a.163.163,0,0,1-.237-.047q-.634-.766-1.28-1.522c-.075-.087-.043-.138.01-.21.3-.4.588-.806.887-1.2a.225.225,0,0,0,.027-.253c-.191-.49-.376-.982-.547-1.48a.27.27,0,0,0-.217-.21C220.321,23.969,219.8,23.836,219.274,23.706Zm8.7,4.764a5.886,5.886,0,1,0-5.88-5.859A5.884,5.884,0,0,0,227.979,28.47Z" fill="#fff"/>
    <path id="Path_4215" data-name="Path 4215" d="M235.039,38.6c.014-.1.029-.2.04-.3.047-.425.1-.849.13-1.275.006-.073-.088-.151-.126-.231s-.1-.173-.077-.226a.356.356,0,0,1,.214-.174,1.023,1.023,0,0,1,.367,0c.19.024.308.23.185.338-.234.205-.152.446-.133.682.026.338.063.675.1,1.013a1.178,1.178,0,0,0,.044.173h.045c.085-.222.172-.443.257-.666.2-.52.4-1.04.589-1.563.05-.138.112-.161.246-.114.474.167.958.309,1.427.488a1.165,1.165,0,0,1,.772,1.148c.018.457.049.912.077,1.368a.924.924,0,0,1-.366.815,5.2,5.2,0,0,1-3.811,1.2,5.136,5.136,0,0,1-3.092-1.332.843.843,0,0,1-.318-.678c.026-.537.053-1.077.114-1.611a1.027,1.027,0,0,1,.715-.9c.514-.183,1.028-.361,1.543-.541a.719.719,0,0,1,.1-.017l.9,2.407Z" transform="translate(-7.416 -13.43)" fill="#fff"/>
    <path id="Path_4216" data-name="Path 4216" d="M236.733,25.361c-.018-.142-.055-.4-.079-.652A3.594,3.594,0,0,1,236.8,23.5a.154.154,0,0,1,.048-.07,3.912,3.912,0,0,1,.353-.3,1.867,1.867,0,0,1,.522-.3,1.648,1.648,0,0,1,.618-.012,5.965,5.965,0,0,1,.87.166,1.19,1.19,0,0,1,.425.232,1.119,1.119,0,0,1,.5.865c0,.608.018,1.216-.01,1.822a1.631,1.631,0,0,1-.21.585c-.087.183-.216.347-.311.528a1.3,1.3,0,0,1-2.349.013,5.286,5.286,0,0,0-.329-.538A1.642,1.642,0,0,1,236.733,25.361Zm3.122-.021h0c0-.188.008-.376,0-.563a.448.448,0,0,0-.672-.392,2.183,2.183,0,0,1-.618.175,1.982,1.982,0,0,1-.986-.211.333.333,0,0,0-.438.107.822.822,0,0,0-.126.391,7.8,7.8,0,0,0,0,.985,1.376,1.376,0,0,0,.154.493c.1.2.241.386.351.586a1.019,1.019,0,0,0,1.833-.015c.1-.19.239-.363.331-.557a2.224,2.224,0,0,0,.169-.543A2.563,2.563,0,0,0,239.855,25.34Z" transform="translate(-10.446 -5.371)" fill="#fff"/>
  </g>
</svg>
