<svg xmlns="http://www.w3.org/2000/svg" width="16.157" height="16.164" viewBox="0 0 16.157 16.164">
  <g id="Group_3" data-name="Group 3" transform="translate(-274.768 -364.87)">
    <path id="Path_4180" data-name="Path 4180" d="M284.3,364.87a1.821,1.821,0,0,0,.117.143q2.187,2.189,4.377,4.374a.35.35,0,0,1,.118.273c0,1.036,0,2.073,0,3.109v.169h-2.018v-.645c0-.6,0-1.21,0-1.815a.364.364,0,0,0-.093-.231q-1.624-1.636-3.259-3.26a.341.341,0,0,0-.215-.1q-3.2-.007-6.41,0c-.036,0-.072,0-.117,0V379.01h4.034v2.025h-6.061V364.87Z" fill="#98a2c5"/>
    <path id="Path_4181" data-name="Path 4181" d="M309.97,409.642v-2.018h-4.031v-2.016h4.029v-2.1l4.035,3.1c-.055.045-.093.078-.134.109l-3.76,2.821a1.087,1.087,0,0,0-.107.106Z" transform="translate(-23.078 -28.607)" fill="#98a2c5"/>
  </g>
</svg>
