<svg xmlns="http://www.w3.org/2000/svg" width="22" height="13.034" viewBox="0 0 22 13.034">
  <path id="onedrive" d="M21.885,14.389a2.5,2.5,0,0,1,.739,4.711l-.188.085H9.878a2.9,2.9,0,0,1,.018-5.8l.239.011-.007-.223a3.632,3.632,0,0,1,6.866-1.656,3.165,3.165,0,0,1,4.9,2.649Zm-12.38-1.63a3.54,3.54,0,0,0-2.529,5.527H5.006a3.005,3.005,0,0,1-.218-6l-.08-.731A3.385,3.385,0,0,1,9.983,8.745a4.679,4.679,0,0,1,8.844,1.61l-.1,0a3.8,3.8,0,0,0-1.5.309,4.275,4.275,0,0,0-7.719,2.1Z" transform="translate(-2 -6.151)" fill="#094ab1"/>
</svg>
