<svg xmlns="http://www.w3.org/2000/svg" width="36.199" height="21.446" viewBox="0 0 36.199 21.446"><defs><style>.a{fill:#333;opacity:0.3;}</style></defs><path class="a" d="M34.719,19.706a4.122,4.122,0,0,1,1.216,7.751l-.309.141H14.962a4.775,4.775,0,0,1,.03-9.551l.394.018-.012-.366a5.977,5.977,0,0,1,11.3-2.725,5.209,5.209,0,0,1,8.063,4.358Zm-20.37-2.682a5.825,5.825,0,0,0-4.161,9.094H6.946a4.945,4.945,0,0,1-.359-9.877l-.132-1.2a5.569,5.569,0,0,1,8.681-4.618,7.7,7.7,0,0,1,14.552,2.648l-.164,0a6.247,6.247,0,0,0-2.474.509,7.035,7.035,0,0,0-12.7,3.452Z" transform="translate(-2 -6.151)"/></svg>