<svg xmlns="http://www.w3.org/2000/svg" width="40.051" height="40.494" viewBox="0 0 40.051 40.494">
  <g id="Outlook.com_icon" transform="translate(0)">
    <path id="path3" d="M64.566,22.116v7.921l2.768,1.743a.708.708,0,0,0,.3,0l11.913-8.032a1.7,1.7,0,0,0-1.387-1.632h-13.6Z" transform="translate(-39.502 -13.531)" fill="#0072c6"/>
    <path id="path5" d="M64.564,40.61l2.526,1.735a.755.755,0,0,0,.785,0c-.427.262,11.676-7.778,11.676-7.778V49.125A2.037,2.037,0,0,1,77.4,51.375H64.563V40.61Z" transform="translate(-39.5 -21.149)" fill="#0072c6"/>
    <g id="g23" transform="translate(0 0)">
      <path id="path25" d="M39.92,82.111a2.326,2.326,0,0,0-2.053,1.212,5.974,5.974,0,0,0-.76,3.208,5.857,5.857,0,0,0,.76,3.2,2.31,2.31,0,0,0,4.008.032,5.805,5.805,0,0,0,.745-3.179,6.319,6.319,0,0,0-.722-3.3A2.222,2.222,0,0,0,39.92,82.111Z" transform="translate(-27.935 -66.301)" fill="#0072c6"/>
      <path id="path27" d="M13.481,45.947V76.935l23.574,4.943V41.384ZM29.256,66.68a4.673,4.673,0,0,1-3.9,1.968,4.613,4.613,0,0,1-3.817-1.906,7.9,7.9,0,0,1-1.475-4.967,8.486,8.486,0,0,1,1.5-5.229,4.725,4.725,0,0,1,3.97-2,4.506,4.506,0,0,1,3.775,1.91A8.156,8.156,0,0,1,30.75,61.5,8.334,8.334,0,0,1,29.256,66.68Z" transform="translate(-13.481 -41.384)" fill="#0072c6"/>
    </g>
  </g>
</svg>
