<svg xmlns="http://www.w3.org/2000/svg" width="38" height="38" viewBox="0 0 38 38">
  <path id="hashtag" d="M37.378,44.732l.606-3.393a1.018,1.018,0,0,0-1-1.2H30.636l1.24-6.946a1.018,1.018,0,0,0-1-1.2H27.428a1.018,1.018,0,0,0-1,.839l-1.3,7.3H16.756L18,33.2a1.018,1.018,0,0,0-1-1.2H13.547a1.018,1.018,0,0,0-1,.839l-1.3,7.3H4.532a1.018,1.018,0,0,0-1,.839l-.606,3.393a1.018,1.018,0,0,0,1,1.2h6.345L8.333,56.429H1.624a1.018,1.018,0,0,0-1,.839L.016,60.66a1.018,1.018,0,0,0,1,1.2H7.363L6.123,68.8a1.018,1.018,0,0,0,1,1.2h3.446a1.018,1.018,0,0,0,1-.839l1.3-7.3h8.366L20,68.8a1.018,1.018,0,0,0,1,1.2h3.446a1.018,1.018,0,0,0,1-.839l1.3-7.3h6.709a1.018,1.018,0,0,0,1-.839l.606-3.393a1.018,1.018,0,0,0-1-1.2H27.728l1.939-10.857h6.709a1.018,1.018,0,0,0,1-.839Zm-15.164,11.7H13.847l1.939-10.857h8.366Z" transform="translate(0 -32)" fill="#C1484A"/>
</svg>
