<svg xmlns="http://www.w3.org/2000/svg" width="75.702" height="33" viewBox="0 0 75.702 33"><defs><style>.a,.b{fill:#fff;}.a{font-size:24px;font-family:Poppins-Bold, Poppins;font-weight:700;}</style></defs><g transform="translate(-771.195 -598)"><text class="a" transform="translate(822.898 623)"><tspan x="-23.172" y="0">Pay</tspan></text><g transform="translate(771.195 600.406)"><path class="b" d="M28.149,24.7A6.6,6.6,0,0,1,31.3,19.144a6.809,6.809,0,0,0-5.333-2.888c-2.27-.231-4.432,1.337-5.583,1.337s-2.928-1.3-4.811-1.271A7.139,7.139,0,0,0,9.536,19.98c-2.572,4.461-.657,11.073,1.848,14.694,1.225,1.769,2.686,3.761,4.6,3.689,1.848-.073,2.545-1.2,4.779-1.2s2.861,1.2,4.815,1.158c1.987-.036,3.246-1.8,4.461-3.581A16.1,16.1,0,0,0,32.062,30.6,6.44,6.44,0,0,1,28.149,24.7Z" transform="translate(-8.316 -9.204)"/><path class="b" d="M32.585,9.03A6.436,6.436,0,0,0,34.1,4.374a6.536,6.536,0,0,0-4.3,2.209,6.115,6.115,0,0,0-1.548,4.512A5.413,5.413,0,0,0,32.585,9.03Z" transform="translate(-16.424 -4.374)"/></g></g></svg>