<svg xmlns="http://www.w3.org/2000/svg" width="18" height="12.422" viewBox="0 0 18 12.422"><defs><style>.a{fill:#486EB8;fill-rule:evenodd;}</style></defs><path class="a" d="M3.662,0H18.338A1.667,1.667,0,0,1,20,1.662v9.1a1.667,1.667,0,0,1-1.662,1.662H3.662A1.667,1.667,0,0,1,2,10.76v-9.1A1.667,1.667,0,0,1,3.662,0ZM2.977,1.719H19.023V4.453H2.977ZM4.158,7.178H7.134v.938H4.158Zm9.23-.488a1.749,1.749,0,0,1,.815.2A2.441,2.441,0,0,0,14.2,10a1.758,1.758,0,1,1-.815-3.315Zm2.7,0a1.758,1.758,0,1,1-1.758,1.758A1.758,1.758,0,0,1,16.084,6.689ZM4.158,9.043H9.442V9.98H4.158Z" transform="translate(-2)"/></svg>
