<svg xmlns="http://www.w3.org/2000/svg" width="20.14" height="23.978" viewBox="0 0 20.14 23.978">
  <g id="pin" transform="translate(0 0)">
    <path id="Path_4164" data-name="Path 4164" d="M0,10.333A10.072,10.072,0,0,1,20,8.39a9.877,9.877,0,0,1-2.862,8.875c-2.1,2.132-4.229,4.237-6.346,6.352a.875.875,0,0,1-1.363.065c-2.24-2.236-4.5-4.451-6.7-6.727A9.554,9.554,0,0,1,0,10.333ZM10.048,14.9a4.81,4.81,0,1,0-4.784-4.829A4.811,4.811,0,0,0,10.048,14.9Z" transform="translate(0 0)" fill="#333"/>
  </g>
</svg>
