<svg xmlns="http://www.w3.org/2000/svg" width="34.971" height="38.242" viewBox="0 0 34.971 38.242">
  <g id="Group_1349" data-name="Group 1349" transform="translate(-270.187 -370.968)">
    <path id="Path_1790" data-name="Path 1790" d="M309.26,380.88c-1.2,0-2.327,0-3.455,0q-2.494-.007-4.988-.02c-1.117,0-1.606-.485-1.6-1.587q0-3.934.012-7.869v-.414a3.621,3.621,0,0,1,.6.383q4.676,4.661,9.338,9.334A1.444,1.444,0,0,1,309.26,380.88Z" transform="translate(-10.19 -0.007)" fill="#98a2c5"/>
    <g id="Group_1348" data-name="Group 1348" transform="translate(287.899 388.119)">
      <path id="Path_1791" data-name="Path 1791" d="M314.356,402.441a14.18,14.18,0,0,1-7.579-4.535l-.306-.35a.481.481,0,0,0-.355-.158h0a.475.475,0,0,0-.355.153l-.47.518a14.212,14.212,0,0,1-7.119,4.3l-.316.077a.476.476,0,0,0-.364.451c-.173,6.725,3.8,11.571,5.513,13.34,1.079,1.117,2.459,2.248,3.106,2.253h.014c.729-.019,2.152-1.251,3.15-2.3,1.706-1.8,5.651-6.692,5.464-13.292A.48.48,0,0,0,314.356,402.441Zm-7.621,10.694a.484.484,0,0,1-.263.082.476.476,0,0,1-.225-.058.483.483,0,0,1-.254-.422V403.15a.472.472,0,0,1,.221-.4.48.48,0,0,1,.456-.038l4.794,2.157a.483.483,0,0,1,.282.489A11.422,11.422,0,0,1,306.734,413.135Z" transform="translate(-297.483 -397.398)" fill="#98a2c5"/>
    </g>
    <path id="Path_1792" data-name="Path 1792" d="M287.548,402.042a1.874,1.874,0,0,1-.39.045c-1.849.012-3.7.005-5.546.005-1.491,0-2.981.013-4.471-.007a1.392,1.392,0,0,1-1.365-1.883,1.376,1.376,0,0,1,1.382-.892c1.677-.006,3.354,0,5.03,0q2.174,0,4.348,0a19.215,19.215,0,0,1-.471-2.034q-4.43,0-8.86,0a1.4,1.4,0,0,1-1.464-1.023,1.3,1.3,0,0,1,.548-1.5,1.979,1.979,0,0,1,.929-.247c1.79-.023,3.579-.011,5.369-.011v0h3.2c-.007-.307-.01-.616,0-.931a2.57,2.57,0,0,1,.361-1.256h-1.787c-2.422,0-4.844.007-7.265,0a1.372,1.372,0,0,1-1.265-1.99,1.319,1.319,0,0,1,1.241-.779q7.248-.008,14.5,0a12.754,12.754,0,0,0,2.57-2.169l.467-.515a2.606,2.606,0,0,1,3.854.007l.33.376c.176.2.358.39.544.576V382.24c-.6,0-1.165,0-1.735,0q-4.537.008-9.074.016c-.644,0-.91-.207-.91-.764,0-2.609.009-5.218.014-7.827,0-.884,0-1.768,0-2.7H287q-6.365,0-12.73,0a4,4,0,0,0-4.078,4.06c.047,8.989.017,17.978.019,26.967a10.414,10.414,0,0,0,.04,1.459,3.9,3.9,0,0,0,3.933,3.279q7.7,0,15.4,0h.84A22.85,22.85,0,0,1,287.548,402.042ZM276.82,384.61a3.244,3.244,0,0,1,.556-.038q3.7,0,7.4,0v0c2.509,0,5.017,0,7.525,0a1.4,1.4,0,0,1,1.572,1.472,1.346,1.346,0,0,1-1.04,1.265,2.787,2.787,0,0,1-.6.055q-7.461,0-14.922,0c-.988,0-1.613-.538-1.62-1.387A1.357,1.357,0,0,1,276.82,384.61Z" fill="#98a2c5"/>
  </g>
</svg>
