<svg xmlns="http://www.w3.org/2000/svg" width="16.624" height="16.624" viewBox="0 0 16.624 16.624">
  <g id="Group_1" data-name="Group 1" transform="translate(-168.378 -376.898)">
    <path id="Path_4203" data-name="Path 4203" d="M176.69,376.9A8.312,8.312,0,1,0,185,385.21,8.312,8.312,0,0,0,176.69,376.9Zm0,14.962a6.65,6.65,0,1,1,6.65-6.65A6.65,6.65,0,0,1,176.69,391.86Z" transform="translate(0 0)" fill="#486eb8"/>
    <path id="Path_4204" data-name="Path 4204" d="M176.1,383.786a.831.831,0,1,1-.831.831.831.831,0,0,1,.831-.831h0" transform="translate(0.592 0.592)" fill="#c1484a"/>
    <path id="Path_4205" data-name="Path 4205" d="M176.427,381.486v0a5.362,5.362,0,0,0-4.988,3.321,5.4,5.4,0,0,0,9.975,0A5.361,5.361,0,0,0,176.427,381.486Zm0,5.406a2.077,2.077,0,1,1,2.078-2.077A2.078,2.078,0,0,1,176.427,386.892Z" transform="translate(0.263 0.395)" fill="#c1484a"/>
  </g>
</svg>
