<svg xmlns="http://www.w3.org/2000/svg" width="36.418" height="36.413" viewBox="0 0 36.418 36.413">
  <g id="Group_1342" data-name="Group 1342" transform="translate(-273.074 -363)">
    <path id="Path_1740" data-name="Path 1740" d="M282.194,363q3.843,0,7.686,0c.88,0,1.259.371,1.259,1.249q.005,7.709,0,15.418a1.089,1.089,0,0,1-1.251,1.226q-7.686,0-15.372,0c-.9,0-1.271-.375-1.271-1.284q0-7.686,0-15.372c0-.863.367-1.237,1.216-1.238q3.866,0,7.733,0Z" transform="translate(-0.082)" fill="#98a2c5"/>
    <path id="Path_1741" data-name="Path 1741" d="M284.53,414.877c-.287-.259-.588-.5-.858-.78a1.022,1.022,0,1,1,1.436-1.445q1.3,1.279,2.594,2.575a1.02,1.02,0,0,1,.014,1.6q-1.281,1.3-2.584,2.585a1.032,1.032,0,0,1-1.539.078,1.042,1.042,0,0,1,.092-1.535c.258-.263.527-.516.894-.875-.465,0-.785,0-1.1,0-1.358-.022-2.723.039-4.071-.088a7.131,7.131,0,0,1-6.31-6.81c-.031-1.171-.014-2.343-.006-3.514a1.032,1.032,0,1,1,2.059.012c.009,1.046,0,2.093,0,3.139a5.109,5.109,0,0,0,4.843,5.168c1.476.084,2.962.015,4.443.015Z" transform="translate(0 -20.407)" fill="#98a2c5"/>
    <path id="Path_1742" data-name="Path 1742" d="M317.786,365.74c1.135,0,2.271.029,3.4-.007a7.58,7.58,0,0,1,4.839,1.3,7.145,7.145,0,0,1,3.136,5.933c.022,1.046.007,2.094,0,3.141a1.051,1.051,0,0,1-1.018,1.159,1.068,1.068,0,0,1-1.042-1.148c-.009-1.047,0-2.094-.006-3.141a5.107,5.107,0,0,0-4.874-5.138c-1.465-.071-2.936-.013-4.532-.013.34.347.609.63.889.9a1.051,1.051,0,0,1,.326,1.065,1.012,1.012,0,0,1-1.652.5c-.977-.922-1.919-1.882-2.851-2.849a.948.948,0,0,1,.031-1.358q1.372-1.411,2.785-2.783a.987.987,0,0,1,1.4.013,1,1,0,0,1,.026,1.432c-.285.309-.612.579-.92.867Z" transform="translate(-19.684 -0.007)" fill="#98a2c5"/>
    <path id="Path_1743" data-name="Path 1743" d="M340.929,399.6a1,1,0,0,1-1.032,1.039,1.028,1.028,0,0,1-1.028-1.005,1.064,1.064,0,0,1,1.044-1.05A1.023,1.023,0,0,1,340.929,399.6Z" transform="translate(-31.541 -17.057)" fill="#98a2c5"/>
    <path id="Path_1744" data-name="Path 1744" d="M340.932,414.815a1.038,1.038,0,0,1-1.018,1.055,1.055,1.055,0,0,1-1.041-1.039,1.029,1.029,0,0,1,2.059-.016Z" transform="translate(-31.544 -24.358)" fill="#98a2c5"/>
    <path id="Path_1745" data-name="Path 1745" d="M340.932,422.448a1.031,1.031,0,0,1-1.056,1.012,1.031,1.031,0,0,1,.037-2.061A1.028,1.028,0,0,1,340.932,422.448Z" transform="translate(-31.543 -27.996)" fill="#98a2c5"/>
    <path id="Path_1746" data-name="Path 1746" d="M324.727,431.048a1.013,1.013,0,0,1-1.03-1.03,1.032,1.032,0,0,1,1.042-1.028,1.055,1.055,0,0,1,1.016,1.017A1.027,1.027,0,0,1,324.727,431.048Z" transform="translate(-24.268 -31.635)" fill="#98a2c5"/>
    <path id="Path_1747" data-name="Path 1747" d="M332.3,431.048a1.03,1.03,0,0,1-1.018-1.015,1.055,1.055,0,0,1,1.046-1.044,1.03,1.03,0,1,1-.028,2.059Z" transform="translate(-27.905 -31.634)" fill="#98a2c5"/>
    <path id="Path_1748" data-name="Path 1748" d="M339.888,431.047a1.021,1.021,0,0,1-1.015-1.053,1.061,1.061,0,0,1,1.03-1.005,1.025,1.025,0,0,1,1.028,1.041A1.007,1.007,0,0,1,339.888,431.047Z" transform="translate(-31.543 -31.634)" fill="#98a2c5"/>
    <path id="Path_1749" data-name="Path 1749" d="M332.289,400.638a1.024,1.024,0,0,1-1.008-1.021,1.046,1.046,0,0,1,1.051-1.037,1.059,1.059,0,0,1,1.013,1.032A1.036,1.036,0,0,1,332.289,400.638Z" transform="translate(-27.904 -17.056)" fill="#98a2c5"/>
    <path id="Path_1750" data-name="Path 1750" d="M310.524,414.846a1.049,1.049,0,0,1-1.013,1.026,1.07,1.07,0,0,1-1.043-1.053,1.022,1.022,0,0,1,1.07-1.007A1,1,0,0,1,310.524,414.846Z" transform="translate(-16.967 -24.358)" fill="#98a2c5"/>
    <path id="Path_1751" data-name="Path 1751" d="M310.523,422.427a1.035,1.035,0,0,1-1.047,1.033,1.059,1.059,0,0,1-1.011-1.032,1.029,1.029,0,1,1,2.058,0Z" transform="translate(-16.966 -27.995)" fill="#98a2c5"/>
    <path id="Path_1752" data-name="Path 1752" d="M310.521,430.014a.994.994,0,0,1-1.026,1.032,1.018,1.018,0,0,1-1.03-1.039,1.062,1.062,0,0,1,1.014-1.021A1.031,1.031,0,0,1,310.521,430.014Z" transform="translate(-16.966 -31.633)" fill="#98a2c5"/>
    <path id="Path_1753" data-name="Path 1753" d="M309.495,400.637a1.024,1.024,0,0,1-1.028-1.005,1.052,1.052,0,0,1,1.04-1.05,1.021,1.021,0,0,1,1.015,1.015A1,1,0,0,1,309.495,400.637Z" transform="translate(-16.967 -17.057)" fill="#98a2c5"/>
    <path id="Path_1754" data-name="Path 1754" d="M317.109,400.64a1.028,1.028,0,0,1,.015-2.056,1.056,1.056,0,0,1,1.025,1.065A1.031,1.031,0,0,1,317.109,400.64Z" transform="translate(-20.624 -17.058)" fill="#98a2c5"/>
    <path id="Path_1755" data-name="Path 1755" d="M309.5,406.21a1,1,0,0,1,1.023,1.043,1.031,1.031,0,0,1-1.02,1.012,1.057,1.057,0,0,1-1.034-1.01A1.022,1.022,0,0,1,309.5,406.21Z" transform="translate(-16.968 -20.714)" fill="#98a2c5"/>
    <path id="Path_1756" data-name="Path 1756" d="M340.932,407.217a1.031,1.031,0,0,1-1.022,1.047,1.051,1.051,0,0,1-1.037-1.042,1.027,1.027,0,0,1,1.009-1.012A1,1,0,0,1,340.932,407.217Z" transform="translate(-31.543 -20.715)" fill="#98a2c5"/>
    <path id="Path_1757" data-name="Path 1757" d="M317.119,431.048A1.012,1.012,0,0,1,316.095,430a1.038,1.038,0,0,1,1.022-1.012A1.053,1.053,0,0,1,318.148,430,1.021,1.021,0,0,1,317.119,431.048Z" transform="translate(-20.623 -31.634)" fill="#98a2c5"/>
    <path id="Path_1758" data-name="Path 1758" d="M324.732,400.64a1.017,1.017,0,0,1-1.036-.988,1.033,1.033,0,0,1,1.012-1.068,1.069,1.069,0,0,1,1.048,1.046A1.036,1.036,0,0,1,324.732,400.64Z" transform="translate(-24.267 -17.058)" fill="#98a2c5"/>
  </g>
</svg>
