<svg xmlns="http://www.w3.org/2000/svg" width="17.777" height="13.997" viewBox="0 0 17.777 13.997">
  <g id="Group_2" data-name="Group 2" transform="translate(-273.805 -370.578)">
    <path id="Path_4182" data-name="Path 4182" d="M273.8,389.77v-7.6h10.78v7.6Z" transform="translate(0 -8.395)" fill="#98a2c5"/>
    <path id="Path_4183" data-name="Path 4183" d="M310.683,371.857v-1.252a2.748,2.748,0,0,1,2.534.863,2.738,2.738,0,0,1,2.533-.862v1.251h-.566a1.257,1.257,0,0,0-1.331,1.332q0,4.378,0,8.756a1.257,1.257,0,0,0,1.351,1.351h.544v1.251a2.74,2.74,0,0,1-2.53-.862,2.734,2.734,0,0,1-2.53.863v-1.252c.206,0,.409,0,.612,0a1.249,1.249,0,0,0,1.28-1.281q0-4.438,0-8.875a1.249,1.249,0,0,0-1.28-1.281C311.1,371.855,310.9,371.857,310.683,371.857Z" transform="translate(-26.71)" fill="#98a2c5"/>
    <path id="Path_4184" data-name="Path 4184" d="M326.84,382.162h3.154v7.6H326.84Z" transform="translate(-38.412 -8.39)" fill="#98a2c5"/>
  </g>
</svg>
