<svg xmlns="http://www.w3.org/2000/svg" width="23.421" height="23.42" viewBox="0 0 23.421 23.42"><defs><style>.a{fill:#333;}</style></defs><g transform="translate(-270.499 -360.903)"><path class="a" d="M282.308,384.3c-1.629,0-3.258.023-4.886-.006a21.532,21.532,0,0,1-4.673-.457,7.287,7.287,0,0,1-1.252-.458,1.292,1.292,0,0,1-.668-.786,5.6,5.6,0,0,1,.313-4.461,3.294,3.294,0,0,1,1.455-1.469,17.164,17.164,0,0,1,2.974-1.192c.765-.261,1.533-.512,2.3-.766l.073-.02c.5-.153.606-.335.537-.859a3.609,3.609,0,0,0-.437-1.41,5.893,5.893,0,0,1-.344-.918c-.022-.06-.07-.144-.12-.155a.846.846,0,0,1-.639-.741c-.09-.435-.124-.881-.185-1.323-.048-.348-.084-.7-.152-1.043a.622.622,0,0,1,.193-.684c.127-.1.117-.183.09-.321a5.413,5.413,0,0,1,.53-4.006,4.483,4.483,0,0,1,2.74-1.979,6.873,6.873,0,0,1,2.007-.345,5.861,5.861,0,0,1,4.367,1.669,4.113,4.113,0,0,1,1.154,3.016c-.018.578-.107,1.153-.156,1.73a.282.282,0,0,0,.062.21.717.717,0,0,1,.185.786,2.6,2.6,0,0,0-.078.668,4.7,4.7,0,0,1-.149,1.678.872.872,0,0,1-.634.687c-.05.011-.1.1-.121.159a7.961,7.961,0,0,1-.411,1.053,3.1,3.1,0,0,0-.354,1.354c-.038.526.026.6.519.77,1.013.343,2.03.675,3.038,1.032.595.21,1.181.447,1.763.692a3.88,3.88,0,0,1,2.361,2.838,5.539,5.539,0,0,1-.086,3.307,1.566,1.566,0,0,1-.791.9,6.759,6.759,0,0,1-2.158.594,48.75,48.75,0,0,1-6.645.271c-.574,0-1.148,0-1.722,0Zm4.2-14.541c-.017-.274-.05-.533-.044-.791a.377.377,0,0,0-.237-.409.66.66,0,0,1-.308-.318,4.907,4.907,0,0,1-.315-1.028,3.717,3.717,0,0,0-.581-1.7.478.478,0,0,0-.477-.251c-.443.054-.891.073-1.33.149a5.41,5.41,0,0,1-1.884.016,13.1,13.1,0,0,0-1.507-.153.493.493,0,0,0-.353.175,2.712,2.712,0,0,0-.583,1.431,5.727,5.727,0,0,1-.089.6,1.41,1.41,0,0,1-.754,1.178.13.13,0,0,0-.073.088c-.005.341,0,.682,0,1.013.551.06.761.234.819.635a5.8,5.8,0,0,1,.076.6,2.247,2.247,0,0,0,.531,1.341,5.526,5.526,0,0,0,2.481,1.766,1.341,1.341,0,0,0,1.008-.087,6.04,6.04,0,0,0,2.13-1.55,2.454,2.454,0,0,0,.627-1.356c.025-.225.051-.452.094-.674C285.832,369.924,285.944,369.827,286.5,369.764Zm-.079-4.238.08-.02a5.9,5.9,0,0,0-.163-.946,3.2,3.2,0,0,0-1.945-2.033,5.844,5.844,0,0,0-4.3-.018,3.275,3.275,0,0,0-2.078,2.316,3.38,3.38,0,0,0-.053.65c.221-.266.384-.541.574-.8a1.372,1.372,0,0,1,1.011-.6,5.183,5.183,0,0,1,.859.021c.636.06,1.272.19,1.907.192a10.862,10.862,0,0,0,1.729-.2,1.866,1.866,0,0,1,2.16,1.057C286.274,365.272,286.351,365.4,286.424,365.526Zm-7.35,10a3.643,3.643,0,0,0,6.268.059l-.587-1.241a6.318,6.318,0,0,1-2.183,1.006,1.911,1.911,0,0,1-.631,0c-.082-.018-.167-.023-.248-.043a6.4,6.4,0,0,1-1.768-.85l-.248-.151A1.8,1.8,0,0,1,279.074,375.53Z"/></g></svg>