<svg xmlns="http://www.w3.org/2000/svg" width="44.39" height="39.371" viewBox="0 0 44.39 39.371">
  <path id="Union_4" data-name="Union 4" d="M14258.778-6441.626h-10.2a4.856,4.856,0,0,1-4.925-4.882c-.011-6.7-.015-13.5-.011-20.218a7.47,7.47,0,0,0,2.516.609v19.422a2.379,2.379,0,0,0,2.553,2.574h22.3a2.408,2.408,0,0,0,2.577-2.6v-.957c0-.936,0-1.9.011-2.861a.907.907,0,0,1,.229-.566c.5-.527,1-1.032,1.538-1.57l.024-.025.108-.107c.183-.179.361-.362.548-.552.008.054.008.1.011.147l0,.025,0,.018c.007.1.011.165.011.24,0,2.147.007,4.251,0,6.406a4.864,4.864,0,0,1-4.911,4.9Zm-8.033-6.7v-2.456h11.044l-.416,2.452v0Zm13.378-.616h-.111c.058-.33.111-.66.165-.986l.025-.129c.2-1.2.4-2.373.609-3.563a.8.8,0,0,1,.218-.376l1.338-1.34c4.244-4.248,8.065-8.077,11.9-11.9a2.922,2.922,0,0,1,2.068-.871,2.852,2.852,0,0,1,2.025.846,2.876,2.876,0,0,1-.021,4.094c-3.653,3.664-7.37,7.381-10.97,10.973l-.229.233-2.039,2.036a.855.855,0,0,1-.373.229c-1.2.208-2.431.412-3.613.609l-.832.14h-.018a.411.411,0,0,1-.072.007C14264.169-6448.935,14264.147-6448.938,14264.123-6448.938Zm-2.513-6.388c-1.388-.021-2.886-.029-4.722-.029-.972,0-1.961,0-2.832,0-.828,0-1.856,0-2.831,0h-.478v-2.459h14.579c-.179.179-.358.348-.541.52a11.493,11.493,0,0,0-1.051,1.076,2.372,2.372,0,0,1-2.039.885Zm-10.869-7.1v-2.427h18.246v2.427Zm22.849-3.8v-7.251a2.416,2.416,0,0,0-2.631-2.628q-5.522-.005-11.048,0h-6.194a7.49,7.49,0,0,0-1.48-2.5h7.546q5.666,0,11.334,0a4.857,4.857,0,0,1,4.965,4.964c0,.341,0,.685,0,1.025,0,1.2,0,2.434-.015,3.656a.949.949,0,0,1-.24.6c-.516.545-1.075,1.107-1.526,1.559l-.606.606Zm-26.024-1.05c-.025-.011-.047-.025-.068-.032a.45.45,0,0,1-.33-.47v-3.473a1.124,1.124,0,0,1,.04-.294.278.278,0,0,1,.4-.2,1.381,1.381,0,0,1,.459.337c.265.269.534.538.8.8.1.1.137.1.244.029a3.88,3.88,0,0,0,1.706-2.606,3.9,3.9,0,0,0-1.19-3.621,3.753,3.753,0,0,0-2.2-1.054c-.09-.011-.18-.025-.272-.043a.266.266,0,0,1-.24-.283c0-.093,0-.187,0-.276v-.917c0-.251.107-.358.358-.344a5.576,5.576,0,0,1,3.169,1.168,5.711,5.711,0,0,1,2.169,3.517c.054.272.071.549.1.825a4.11,4.11,0,0,1-.011.767,6,6,0,0,1-.384,1.685,5.746,5.746,0,0,1-1.828,2.449c-.054.046-.11.089-.176.143.068.072.137.14.205.208.3.3.6.6.9.907a1.232,1.232,0,0,1,.219.341.256.256,0,0,1-.165.376c-.046.021-.1.039-.143.057Zm-2.055-.276a5.629,5.629,0,0,1-3.667-1.549,5.68,5.68,0,0,1-1.738-3.251c-.043-.24-.061-.484-.09-.724,0-.021-.011-.043-.015-.064v-.477c.019-.136.044-.272.055-.409a5.479,5.479,0,0,1,.5-1.828,5.838,5.838,0,0,1,1.76-2.172l.055-.043c.011-.011.021-.018.043-.036-.032-.032-.058-.068-.09-.1-.334-.337-.674-.67-1-1.014a1.167,1.167,0,0,1-.229-.344.26.26,0,0,1,.168-.38,1,1,0,0,1,.3-.058c1.169,0,2.338-.007,3.506,0a.469.469,0,0,1,.484.477v3.556a.828.828,0,0,1-.036.229.3.3,0,0,1-.43.208.89.89,0,0,1-.237-.161c-.326-.319-.648-.638-.971-.957-.008-.007-.015-.018-.021-.025-.1-.1-.122-.107-.248-.025a3.807,3.807,0,0,0-1.516,1.9,3.911,3.911,0,0,0,.093,3.061,3.945,3.945,0,0,0,2.742,2.255c.2.047.4.064.595.1l.087.021a.238.238,0,0,1,.2.255v1.276a.268.268,0,0,1-.283.283A.049.049,0,0,1,14245.511-6467.55Zm7.381-1.9a7.5,7.5,0,0,0,1.062-2.456h15.041v2.456Z" transform="translate(-14239.501 6480.497)" fill="#98a2c5" stroke="rgba(0,0,0,0)" stroke-miterlimit="10" stroke-width="1"/>
</svg>
