<svg xmlns="http://www.w3.org/2000/svg" width="16.616" height="19.346" viewBox="0 0 16.616 19.346"><defs><style>.a{fill:#333;}</style></defs><g transform="translate(-293.019 -380.67)"><path class="a" d="M309.608,387.946c0,1.2.035,2.4-.009,3.592a6.78,6.78,0,0,1-1.426,3.809,12.257,12.257,0,0,1-4.147,3.473c-.8.431-1.638.777-2.465,1.147a.564.564,0,0,1-.39.024,15.617,15.617,0,0,1-5.826-3.627,7.568,7.568,0,0,1-2.076-3.537,8.43,8.43,0,0,1-.233-1.837c-.027-2.236-.012-4.473-.012-6.709,0-.447.07-.531.514-.559a13.467,13.467,0,0,0,6-1.964c.5-.292.974-.618,1.456-.934.309-.2.37-.208.675.007a17.126,17.126,0,0,0,4.354,2.273,11.82,11.82,0,0,0,3.192.624c.3.015.418.143.418.454q0,1.883,0,3.766Zm-8.276,2.4c0,.043-.012.086-.012.129q0,3.625,0,7.25a1.154,1.154,0,0,0,.016.132,1,1,0,0,0,.136-.031,12.765,12.765,0,0,0,3.412-1.84,6.206,6.206,0,0,0,2.662-4.373c.04-.418.006-.842.006-1.274h-.23q-1.947,0-3.9,0c-.7,0-1.4.007-2.1.01,0-.043.011-.086.011-.129q0-3.441,0-6.883c0-.049-.008-.1-.015-.184a17.286,17.286,0,0,1-6.221,2.512v4.69h.234q1.862,0,3.723,0C299.817,390.356,300.574,390.351,301.332,390.347Z"/></g></svg>