<svg id="Group_900" data-name="Group 900" xmlns="http://www.w3.org/2000/svg" width="33.977" height="38.863" viewBox="0 0 33.977 38.863">
  <path id="Path_1540" data-name="Path 1540" d="M287.318,400.121h6.465c0-1,.042-1.957-.014-2.913a1.323,1.323,0,0,1,.788-1.423,7.625,7.625,0,0,0,4.05-6.642c.084-2.4.1-4.806,0-7.2a7.751,7.751,0,0,0-4.4-6.819.684.684,0,0,1-.429-.723c.023-1.118.008-2.236.008-3.4H287.4c-.3-2.113,0-3.948,2.2-4.712a2.894,2.894,0,0,1,.928-.154q6.353-.015,12.7-.006c.063,0,.125.012.275.026v.538q0,4.48,0,8.96a3.234,3.234,0,0,0,3.446,3.437q4.456.006,8.911,0h.574v.541q0,10.952,0,21.9a3.234,3.234,0,0,1-3.431,3.452q-11.139,0-22.278,0a3.244,3.244,0,0,1-3.415-3.427C287.318,401.108,287.318,400.652,287.318,400.121Zm24.255-3.2h-9.647V400.1h9.647Zm0-12.947h-9.65v3.179h9.65Zm-9.655,9.637h9.636v-3.161h-9.636Z" transform="translate(-282.466 -366.129)" fill="#98a2c5"/>
  <path id="Path_1541" data-name="Path 1541" d="M284.731,378.6h3.22v3.19a4.9,4.9,0,0,1,4.083,2.233,4.435,4.435,0,0,1,.769,2.619H289.63c-.3-1.225-.766-1.588-2.033-1.588-.932,0-1.865-.005-2.8,0a1.6,1.6,0,0,0-1.681,1.606,1.614,1.614,0,0,0,1.676,1.623c1.058.009,2.117-.007,3.176,0a4.85,4.85,0,0,1,.789,9.637c-.245.044-.5.057-.8.089v3.192h-3.219v-3.2a4.906,4.906,0,0,1-3.9-1.979,4.659,4.659,0,0,1-.953-2.858h3.049a6.835,6.835,0,0,0,.813,1.217,1.522,1.522,0,0,0,.945.343c1.089.041,2.181.026,3.27.013a1.612,1.612,0,0,0,.008-3.224c-1.074-.019-2.149,0-3.223-.007a4.851,4.851,0,0,1-.885-9.625c.261-.051.53-.064.862-.1Z" transform="translate(-279.882 -370.472)" fill="#98a2c5"/>
  <path id="Path_1542" data-name="Path 1542" d="M317.187,366.335l9.546,9.548h-9.546Z" transform="translate(-292.874 -366.201)" fill="#98a2c5"/>
</svg>
