<svg id="Group_871" data-name="Group 871" xmlns="http://www.w3.org/2000/svg" width="47.462" height="37.895" viewBox="0 0 47.462 37.895">
  <path id="Path_1589" data-name="Path 1589" d="M297.086,397.082,296,400.859c-.84-.475-1.624-.972-2.452-1.378a20.743,20.743,0,0,0-10.9-2.011,19.441,19.441,0,0,0-9.627,3.236,12.453,12.453,0,0,0-5.411,7.132c-1.084,4.072.178,7.526,3,10.509a16.637,16.637,0,0,0,4.134,3.066.58.58,0,0,1,.329.718,17.423,17.423,0,0,1-1.622,5.075c-.034.068-.054.145-.108.295.275-.07.5-.12.713-.182a12.891,12.891,0,0,0,6.205-3.648.879.879,0,0,1,.9-.227,21.527,21.527,0,0,0,4.772.192,22.6,22.6,0,0,0,4.739-.875c.132-.04.268-.072.466-.125.115.7.226,1.36.334,2.024.076.468.144.936.223,1.4a.356.356,0,0,1-.3.477,25.03,25.03,0,0,1-8.953.895,1.2,1.2,0,0,0-.93.318,17.54,17.54,0,0,1-7.979,3.62,3.339,3.339,0,0,1-3.413-1.394,3.533,3.533,0,0,1-.418-3.837c.331-.733.645-1.474.987-2.2.15-.319.072-.5-.212-.7A16.7,16.7,0,0,1,265.1,417.2a13.834,13.834,0,0,1,1-14.966,19.093,19.093,0,0,1,10.378-7.409,24.628,24.628,0,0,1,19.72,1.734C296.486,396.718,296.767,396.895,297.086,397.082Z" transform="translate(-263.362 -393.54)" fill="#98a2c5"/>
  <path id="Path_1590" data-name="Path 1590" d="M307.1,420.364c.208-.773.406-1.551.627-2.32,2-6.947,4.02-13.889,5.994-20.844a2.35,2.35,0,0,1,3.048-1.662c1.822.57,3.666,1.072,5.5,1.6a2.254,2.254,0,0,1,1.679,3.062q-2.182,7.552-4.357,15.107c-.67,2.321-1.361,4.635-2.005,6.963a5.671,5.671,0,0,1-1.381,2.177q-2.363,2.722-4.736,5.435a4.46,4.46,0,0,1-.433.438,1.436,1.436,0,0,1-2.417-.734c-.218-.9-.339-1.828-.485-2.746-.31-1.962-.61-3.925-.911-5.889-.029-.187-.038-.376-.056-.564Zm14.5-19.948c.011-.949-.231-1.333-.9-1.542-1.144-.357-2.293-.7-3.452-1.008a1.274,1.274,0,0,0-1.67.921c-.229.7-.4,1.428-.624,2.135-.1.3.007.438.289.513.427.114.85.242,1.274.364,1.273.369,2.544.747,3.822,1.095.169.046.518-.013.548-.1C321.178,401.927,321.417,401.045,321.6,400.416Zm-11.947,21.371a1.049,1.049,0,0,0-.075.24c.091,1.195.176,2.389.291,3.581.012.121.194.279.33.326.445.157.912.252,1.358.407a.565.565,0,0,0,.755-.254c.561-.822,1.153-1.622,1.729-2.433.1-.135.178-.281.318-.505Z" transform="translate(-276.619 -394.107)" fill="#98a2c5"/>
  <path id="Path_1591" data-name="Path 1591" d="M295.805,413.134a3.345,3.345,0,0,1,3.319,3.316,3.363,3.363,0,1,1-6.727,0A3.3,3.3,0,0,1,295.805,413.134Z" transform="translate(-272.163 -399.479)" fill="#98a2c5"/>
  <path id="Path_1592" data-name="Path 1592" d="M283.107,416.473a3.3,3.3,0,0,1-3.378,3.34,3.356,3.356,0,0,1-3.283-3.308,3.33,3.33,0,1,1,6.661-.032Z" transform="translate(-267.328 -399.479)" fill="#98a2c5"/>
</svg>
