<svg id="Group_873" data-name="Group 873" xmlns="http://www.w3.org/2000/svg" width="42.797" height="38.291" viewBox="0 0 42.797 38.291">
  <path id="Path_1599" data-name="Path 1599" d="M312.421,417.324a62.652,62.652,0,0,1-2.892,11.183l-.559-.23c-.458-.189-.913-.386-1.376-.564a.5.5,0,0,1-.328-.376c-.461-1.678-.947-3.351-1.391-5.035-.752-2.848-1.452-5.709-2.017-8.6a.221.221,0,0,0-.226-.215,10.614,10.614,0,0,0-2.628-.108,3.674,3.674,0,0,0-.834.225.6.6,0,0,0-.384.489h2.023l-.651.706a2.021,2.021,0,0,1,1.209,1.381c.18.434.314.888.478,1.366l-2.561.086c.455.372.4.861.4,1.338q0,3.808,0,7.615v.272h.275c1.631,0,3.262,0,4.893,0a.229.229,0,0,1,.258.179q2.195,6.038,4.395,12.074c.019.051.033.106.06.186-.316.15-.625.3-.938.443a18.4,18.4,0,0,1-3.841,1.274,4.843,4.843,0,0,1-2.782-.351c-1-.393-1.985-.8-2.966-1.216a1.209,1.209,0,0,0-1.016-.008c-1.012.423-2.028.841-3.054,1.227a8.585,8.585,0,0,1-1.471.4,4.234,4.234,0,0,1-1.745-.162,22.134,22.134,0,0,1-4.325-1.612c.022-.071.042-.136.065-.2q2.182-6,4.363-11.994a.3.3,0,0,1,.34-.244c1.61.011,3.219.006,4.829.006h.275v-8.63c0-.447-.147-.607-.6-.6-.544.013-1.09.031-1.631.082a1.062,1.062,0,0,0-.826.487,6.176,6.176,0,0,1-.622-3.211,1.057,1.057,0,0,1,.521-.765,4.145,4.145,0,0,1,1.727-.55c.344-.043.693-.049,1.038-.082.061-.006.157-.056.169-.1a2.294,2.294,0,0,1,1.85-1.649,7.687,7.687,0,0,1,2.279-.211c1.231.056,2.461.147,3.692.224.04,0,.079.018.064.049.1.575.19,1.154.305,1.725.648,3.2,1.466,6.36,2.286,9.52a.877.877,0,0,0,.05.1c.037-.154.068-.269.093-.386.326-1.53.664-3.058.97-4.592a14.169,14.169,0,0,0,.164-1.477,3.243,3.243,0,0,0-.747-2.37q-1.68-2.155-3.326-4.338c-.268-.354-.493-.743-.745-1.111a1.558,1.558,0,0,1-.192-1.376,7.443,7.443,0,0,1,1.259-2.442c.5-.676,1.049-1.32,1.587-1.97a.334.334,0,0,1,.268-.09,49.475,49.475,0,0,1,10.188,3.14c.645.287,1.259.647,1.88.986a1.947,1.947,0,0,1,.861.99,10.985,10.985,0,0,1,.662,2.413,59.172,59.172,0,0,1,.816,6.942c.139,2.335.294,4.67.391,7.007.043,1.024-.026,2.054-.075,3.08-.062,1.347-.129,2.693-.244,4.034-.079.922-.239,1.838-.382,2.754a1.1,1.1,0,0,1-.228.516,8.074,8.074,0,0,1-2.556,2.078c-.081.04-.168.067-.3.117.043-.321.075-.605.121-.888.447-2.772.752-5.561.937-8.364a89.608,89.608,0,0,0,.153-9.439,49.575,49.575,0,0,0-.634-6.534,13.046,13.046,0,0,0-.852-2.843.739.739,0,0,0-.31-.329,15.168,15.168,0,0,0-1.384-.7,49.037,49.037,0,0,0-7.885-2.571c-.071-.017-.19-.011-.225.032-.414.539-.818,1.084-1.219,1.632a.592.592,0,0,0-.011.716c.39.6.77,1.206,1.194,1.781.525.711,1.088,1.394,1.639,2.095a6.473,6.473,0,0,0-.784-4c.144-.035.276-.072.41-.1a4.918,4.918,0,0,1,1.774-.069.55.55,0,0,1,.4.275,6.4,6.4,0,0,1,.737,2.333c.078.447.128.9.175,1.349.014.144.075.165.2.168.347.007.7.015,1.04.051a1.118,1.118,0,0,1,.893.54,2.034,2.034,0,0,0,.162.207,3.291,3.291,0,0,0-.251-2.744c.007-.011.014-.032.019-.032.616.006,1.234-.021,1.846.028a1.036,1.036,0,0,1,.937.909,5.8,5.8,0,0,1-.019,2.429c-.128.636-.314,1.26-.482,1.918.042.022.117.06.187.1.326.185.658.362.977.558a1.39,1.39,0,0,1,.7,1.26c-.013,1.567,0,3.136-.072,4.7a36.278,36.278,0,0,1-.364,3.956,73.5,73.5,0,0,1-1.563,8.8c-.38,1.326-.816,2.636-1.223,3.953a.472.472,0,0,1-.3.332q-1.245.454-2.493.908a.464.464,0,0,1-.11,0c.067-.336.119-.662.2-.981.479-2.025,1.005-4.041,1.431-6.077.368-1.753.632-3.527.922-5.3.169-1.034.319-2.073.443-3.114.082-.7.1-1.4.154-2.1q.117-1.612.235-3.223a14.6,14.6,0,0,0-.158-3.18,1.157,1.157,0,0,0-1.065-.923,11.506,11.506,0,0,1-1.217,3.176,3.437,3.437,0,0,1,.551.351,6.78,6.78,0,0,1,.74.808,1.073,1.073,0,0,1,.172.773c-.121,1.206-.207,2.415-.376,3.615a64.809,64.809,0,0,1-1.346,6.856,31.4,31.4,0,0,1-1.663,4.743.413.413,0,0,1-.167.205,13.368,13.368,0,0,1-2.308.7c.1-.457.18-.872.29-1.276.636-2.345,1.269-4.689,1.735-7.074.4-2.043.762-4.094,1.134-6.143.118-.655.244-1.31.308-1.973a4.7,4.7,0,0,0-.064-1.263A1.117,1.117,0,0,0,312.421,417.324Zm-16.506,12.01,3.455,9.624,3.454-9.7h-2.307v3.026c-.2-.053-.369-.1-.539-.144-.529-.154-1.058-.311-1.587-.466a.238.238,0,0,1-.179-.272c0-.482,0-.963,0-1.446v-.618Zm8.831,1.212-.047.006-2.443,7.735a19.655,19.655,0,0,0,5.1,0Zm-10.628.076h-.042l-2.61,7.749a17.588,17.588,0,0,0,5.086-.04Zm6.638-14.238a1.216,1.216,0,0,0-1.036-1.223,6.864,6.864,0,0,0-2.159-.061,1.979,1.979,0,0,0-.494.114.526.526,0,0,0-.372.559,5.23,5.23,0,0,0,.1.611Zm9.781-3.974a14.975,14.975,0,0,1,1.925,3.109,6.158,6.158,0,0,0,.466-2.375,2.037,2.037,0,0,0-.092-.541.668.668,0,0,0-.79-.487c-.183.022-.368.033-.548.071C311.192,412.249,310.887,412.328,310.537,412.41Z" transform="translate(-279.946 -402.812)" fill="#98a2c5"/>
  <path id="Path_1600" data-name="Path 1600" d="M287.995,406.58c.083.407.175.783.236,1.166a16.55,16.55,0,0,1,.067,4.009c-.051.643-.093,1.287-.139,1.93,0,.061,0,.124,0,.185l.058.039a9.782,9.782,0,0,0,.614-.763,6.818,6.818,0,0,0,.894-2.393c.211-.983.383-1.974.6-2.955A3.907,3.907,0,0,1,293,404.757c.855-.3,1.707-.6,2.567-.89a6.436,6.436,0,0,1,.8-.165,1.025,1.025,0,0,1-.013.2,27,27,0,0,1-1.331,3.94,5.769,5.769,0,0,1-1.33,1.855c-.072.068-.142.138-.212.208a.214.214,0,0,0-.015.05,5.755,5.755,0,0,0,2.835-1.678,7.858,7.858,0,0,0,.759-.969q.76-1.154,1.476-2.333a3.021,3.021,0,0,1,1.713-1.406,15.544,15.544,0,0,1,5.106-.67c-.039.112-.064.211-.106.3a12.31,12.31,0,0,1-3.333,4.428,7.448,7.448,0,0,1-2.948,1.355c-1.346.362-2.7.7-4.03,1.117a17.466,17.466,0,0,0-4.463,2.1,4.955,4.955,0,0,0-2.231,4.75,13.883,13.883,0,0,1,2.66-2.031,18.637,18.637,0,0,1,3-1.485c-.062.285-.129.539-.175.8-.16.922-.3,1.846-.472,2.765-.072.389-.193.768-.3,1.149a4.436,4.436,0,0,1-1.137,1.7c-.808.9-1.633,1.774-2.447,2.662a5.473,5.473,0,0,0-1.488,3.593,7.375,7.375,0,0,0,.094,1.288,20.018,20.018,0,0,1,5.039-4.666c-.021.343-.032.622-.057.9a47.887,47.887,0,0,1-.715,5.369,3.616,3.616,0,0,1-.755,1.531c-.8,1-1.631,1.979-2.46,2.958-.385.455-.415.455-.176,1,.371.85.8,1.674,1.154,2.529.254.611.43,1.254.641,1.882l-.057.044-.3-.119a34.755,34.755,0,0,1-4.509-2.181,5.647,5.647,0,0,1-2.772-4.127c-.187-1.138-.3-2.291-.427-3.437-.082-.733-.136-1.469-.193-2.2-.017-.21,0-.421,0-.668a19.665,19.665,0,0,1,5.133,5.189c-.06-.267-.11-.537-.183-.8a2.912,2.912,0,0,1,.165-1.911.431.431,0,0,1,.022-.06,1.056,1.056,0,0,0-.053-1.2,8.5,8.5,0,0,0-1.7-2.052c-.655-.629-1.308-1.26-1.971-1.88a4.352,4.352,0,0,1-1.31-2.672,22.531,22.531,0,0,1-.142-4.138c.025-.65.072-1.3.111-1.988a1.611,1.611,0,0,1,.147.123c1.062,1.211,2.135,2.41,3.177,3.634a14.154,14.154,0,0,1,1.555,2.507c.028.049.054.1.083.149.006.008.021.011,0,0,0-.265,0-.546,0-.825a4.715,4.715,0,0,1,.5-2.175.546.546,0,0,0,.042-.3,3.958,3.958,0,0,0-1.009-2.028c-.5-.577-1.072-1.091-1.594-1.65a14.139,14.139,0,0,1-1.235-1.427,3.322,3.322,0,0,1-.611-2.457,2.68,2.68,0,0,1,.845-1.513,8.606,8.606,0,0,1,2.29-1.526C287.079,406.987,287.521,406.8,287.995,406.58Z" transform="translate(-282.316 -402.89)" fill="#98a2c5"/>
</svg>
