<svg xmlns="http://www.w3.org/2000/svg" width="15.469" height="14.726" viewBox="0 0 15.469 14.726"><defs><style>.a{fill:#486EB8;}</style></defs><path class="a" d="M0,1.534,1.5,0l.7.557c.6.48,1.211.958,1.811,1.443a.407.407,0,0,1,.13.221c.072.361.126.725.194,1.087a.323.323,0,0,0,.092.164c.67.629,1.338,1.259,2.019,1.875a1.831,1.831,0,0,0,.429.224l-1.106,1.1c.006,0-.006,0-.008-.007a1.716,1.716,0,0,0-.545-.762c-.532-.524-1.055-1.057-1.588-1.581A.5.5,0,0,0,3.381,4.2c-.347-.063-.7-.105-1.045-.17a.475.475,0,0,1-.249-.139c-.653-.73-1.3-1.466-1.947-2.2A1.8,1.8,0,0,0,0,1.564Z"/><path class="a" d="M22.45,2.943c-.048.05-.085.091-.123.129-.568.567-1.137,1.133-1.7,1.7a.284.284,0,0,0-.086.19c.052.664.115,1.327.175,1.99a.474.474,0,0,0,.018.068l1.325.122c.216.02.433.035.648.061A.318.318,0,0,0,23,7.1c.556-.565,1.119-1.123,1.679-1.683.035-.035.072-.069.126-.12a2.906,2.906,0,0,1,.107.938,3.279,3.279,0,0,1-2.574,3.073,3.048,3.048,0,0,1-1.571-.045.24.24,0,0,0-.275.074q-3.895,3.9-7.792,7.8a.212.212,0,0,1-.292.053c-.548-.268-1.1-.527-1.655-.781a.227.227,0,0,1-.153-.24c0-.247-.009-.495-.027-.741a.324.324,0,0,1,.112-.276q3.874-3.869,7.746-7.739a.266.266,0,0,0,.077-.324,3.273,3.273,0,0,1,2.547-4.217A2.925,2.925,0,0,1,22.45,2.943Z" transform="translate(-9.444 -2.522)"/><path class="a" d="M82.4,77.732l1.326,1.329q1.253,1.253,2.508,2.5a.256.256,0,0,1,.078.279c-.084.337-.156.678-.227,1.018a.3.3,0,0,1-.171.225c-.692.362-1.38.732-2.057,1.093l-3.952-3.954Z" transform="translate(-71.399 -69.455)"/></svg>
