<svg xmlns="http://www.w3.org/2000/svg" width="34.252" height="34.252" viewBox="0 0 34.252 34.252">
  <path id="ShareThis" d="M17.089,22.126c0,.117-.027.228-.033.344L29.328,28.6a5.981,5.981,0,0,1,3.88-1.445A6.046,6.046,0,1,1,27.163,33.2c0-.12.027-.228.033-.344L14.924,26.725a6.046,6.046,0,1,1,0-9.2L27.2,11.389c-.007-.117-.033-.228-.033-.348a6.044,6.044,0,1,1,6.044,6.048,5.976,5.976,0,0,1-3.88-1.448L17.055,21.778C17.062,21.9,17.089,22.006,17.089,22.126Z" transform="translate(-5 -5)" fill="#98a2c5"/>
</svg>
