<svg id="Group_903" data-name="Group 903" xmlns="http://www.w3.org/2000/svg" width="37.577" height="40.75" viewBox="0 0 37.577 40.75">
  <path id="ShareThis" d="M258.669,266.254c0,.052-.012.1-.015.153l5.467,2.731a2.659,2.659,0,0,1,1.731-.645,2.693,2.693,0,1,1-2.692,2.694h0c0-.054.012-.1.015-.153l-5.467-2.732a2.694,2.694,0,1,1,0-4.1l5.464-2.732c0-.052-.015-.1-.015-.155a2.692,2.692,0,1,1,2.693,2.694,2.659,2.659,0,0,1-1.732-.645l-5.466,2.734A1.427,1.427,0,0,1,258.669,266.254Z" transform="translate(-230.969 -233.13)" fill="#98a2c5"/>
  <g id="Group_901" data-name="Group 901" transform="translate(0 0)">
    <path id="Path_1626" data-name="Path 1626" d="M250.072,255.979a2.535,2.535,0,0,1,1.648.585h2.852a8.168,8.168,0,1,0-9.9,1.512,2.682,2.682,0,0,1,2.577-2.1Z" transform="translate(-232.927 -235.563)" fill="#98a2c5"/>
    <path id="Path_1627" data-name="Path 1627" d="M237.122,252.566a3.843,3.843,0,0,0,1.1,2.235,4.164,4.164,0,0,0,1.684,1,1.546,1.546,0,0,1-.033-.378v-6.668a1.7,1.7,0,0,1,.033-.412,3.664,3.664,0,0,0-1.684,1l-.141.141V249.2a11.833,11.833,0,0,1,.172-1.925,11.483,11.483,0,0,1,1.34-3.609,10.027,10.027,0,0,1,1.1-1.58.265.265,0,0,0,.069-.142,1.017,1.017,0,0,0,.825-.274,10.7,10.7,0,0,1,15.116,0,.975.975,0,0,0,.825.274c.035.038.035.107.069.142a10.025,10.025,0,0,1,1.1,1.58,13.734,13.734,0,0,1,.824,1.754,17.248,17.248,0,0,1,.516,1.889,11.851,11.851,0,0,1,.172,1.926v.278a.536.536,0,0,0-.141-.141,4.15,4.15,0,0,0-1.685-1,1.656,1.656,0,0,1,.035.413v6.633a1.3,1.3,0,0,1-.035.378,2.973,2.973,0,0,0,.516-.172V257.8a3.469,3.469,0,0,1-.069.654.955.955,0,0,1-.172.378.762.762,0,0,1-.276.172,1.723,1.723,0,0,1-.446.069h-6.351a1.142,1.142,0,0,0-1-.585h-2.823a1.109,1.109,0,0,0-1.1,1.1,1.137,1.137,0,0,0,1.13,1.1h2.822a1.185,1.185,0,0,0,1-.584h6.633a2,2,0,0,0,.652-.142,1.82,1.82,0,0,0,.687-.447,2.262,2.262,0,0,0,.413-.757,4.094,4.094,0,0,0,.141-1v-2.853l.1-.1a3.84,3.84,0,0,0,1.1-2.234c.036-.036.069-.036.069-.069h0a.637.637,0,0,0,.169-.409v-2.853a14.483,14.483,0,0,0-.172-2.131c-.206-.721-.378-1.408-.618-2.1a10.219,10.219,0,0,0-.927-1.959,10.1,10.1,0,0,0-1.237-1.753.335.335,0,0,0-.172-.142,1.048,1.048,0,0,0-.276-.927,12.609,12.609,0,0,0-8.965-3.713,12.744,12.744,0,0,0-9,3.71,1.044,1.044,0,0,0-.274.927.6.6,0,0,0-.173.141,10.16,10.16,0,0,0-1.236,1.753,17.08,17.08,0,0,0-.927,1.959,11.077,11.077,0,0,0-.549,2.1,10.94,10.94,0,0,0-.172,2.133v2.85a.56.56,0,0,0,.172.412C237.088,252.533,237.122,252.533,237.122,252.566Z" transform="translate(-233.479 -236.517)" fill="#98a2c5"/>
    <path id="Path_1628" data-name="Path 1628" d="M253.629,266.629a8.489,8.489,0,0,1,3.8-7.079,11.839,11.839,0,0,0-3.81-.649h-7.9a11.8,11.8,0,0,0-11.783,11.788H254.66A8.457,8.457,0,0,1,253.629,266.629Z" transform="translate(-233.931 -233.088)" fill="#98a2c5"/>
  </g>
</svg>
