<svg xmlns="http://www.w3.org/2000/svg" width="34.301" height="34.219" viewBox="0 0 34.301 34.219">
  <g id="Group_2450" data-name="Group 2450" transform="translate(-322.725 -398.91)">
    <path id="Path_5391" data-name="Path 5391" d="M324.848,411.434a6.046,6.046,0,0,0,4.6,10.608l.048-.007c.148-.018.295-.043.442-.071a6.063,6.063,0,0,0,1.166-11.488c-.025-.011-.05-.025-.076-.035-.128-.054-.26-.1-.392-.144A6.035,6.035,0,0,0,324.848,411.434Z" fill="#295ca8"/>
    <path id="Path_5392" data-name="Path 5392" d="M357.026,427.109a6.047,6.047,0,0,0-6.047-6.045,5.98,5.98,0,0,0-3.88,1.445l-.019-.009a6.042,6.042,0,1,0,9.946,4.609Z" fill="#295ca8"/>
    <path id="Path_5393" data-name="Path 5393" d="M347.546,409.869c.055.039.108.08.163.117a6.349,6.349,0,0,0,.553.325c.151.078.3.154.46.219.138.058.282.108.425.156a6.113,6.113,0,0,0,.665.183c.1.02.2.033.3.048a5.911,5.911,0,0,0,.821.076c.025,0,.049,0,.075,0a6.071,6.071,0,1,0-3.458-1.128Z" fill="#295ca8"/>
    <path id="Path_5394" data-name="Path 5394" d="M336.635,414.783l8.594-4.3a8.036,8.036,0,0,1-2.116-4.259l-8.573,4.285A8.029,8.029,0,0,1,336.635,414.783Z" fill="#b23339"/>
    <path id="Path_5395" data-name="Path 5395" d="M345.191,421.556l-8.556-4.274a8.03,8.03,0,0,1-2.1,4.273l8.566,4.279A8.032,8.032,0,0,1,345.191,421.556Z" fill="#b23339"/>
  </g>
</svg>
