<svg xmlns="http://www.w3.org/2000/svg" width="31.298" height="36.451" viewBox="0 0 31.298 36.451">
  <path id="Path_504" data-name="Path 504" d="M12.693,10.128c-.207-3.771,5.342-6.511,9.559-6.454,2.247.028,3.956.82,3.7,2.322a3.718,3.718,0,0,1-2.618,2.558c-.421.132-.572.314-.572.666,0,.544,1.612,1.571,2.922,1.571,2.991,0,5.612-2.011,5.612-4.908C31.292,2.448,27,0,22.267,0,14.933,0,7.184,5.1,7.184,10.684c0,8.588,13.989,7.991,13.989,14.232,0,4.277-4.625,7.589-9.565,7.589-3.893,0-6.643-1.452-6.643-3.947,0-1.7,2.093-3.142,3.67-3.142a1.351,1.351,0,0,1,1.527,1.295c0,1.009-1.068.9-1.068,1.807,0,.754,1.172,1.555,2.828,1.555,2.828,0,4.4-1.845,4.4-3.975,0-2.357-2.536-4.905-6.944-4.889S.563,24.428.051,28.174c-.66,4.855,4.776,8.277,11.259,8.277,7.227,0,15.847-4.4,15.991-10.916C27.493,16.422,13.048,16.551,12.693,10.128Z" transform="translate(0.003)" fill="#0088ce"/>
</svg>
