<svg xmlns="http://www.w3.org/2000/svg" width="20.044" height="23.343" viewBox="0 0 20.044 23.343">
  <path id="Path_504" data-name="Path 504" d="M8.127,6.486c-.133-2.415,3.421-4.17,6.122-4.133,1.439.018,2.534.525,2.369,1.487a2.381,2.381,0,0,1-1.676,1.638c-.27.085-.366.2-.366.427,0,.348,1.032,1.006,1.871,1.006a3.355,3.355,0,0,0,3.594-3.143C20.039,1.568,17.29,0,14.259,0,9.562,0,4.6,3.268,4.6,6.842c0,5.5,8.959,5.117,8.959,9.114,0,2.739-2.962,4.86-6.126,4.86-2.493,0-4.254-.93-4.254-2.528,0-1.089,1.34-2.012,2.35-2.012a.865.865,0,0,1,.978.829c0,.646-.684.574-.684,1.157,0,.483.751,1,1.811,1a2.565,2.565,0,0,0,2.817-2.546c0-1.509-1.624-3.141-4.447-3.131S.36,15.644.032,18.043c-.423,3.109,3.059,5.3,7.21,5.3,4.628,0,10.148-2.817,10.241-6.991C17.606,10.517,8.355,10.6,8.127,6.486Z" transform="translate(0.003)" fill="#98a2c5"/>
</svg>
