<svg id="Group_876" data-name="Group 876" xmlns="http://www.w3.org/2000/svg" width="44.421" height="38.08" viewBox="0 0 44.421 38.08">
  <path id="Path_1603" data-name="Path 1603" d="M273.84,435.359c.211-1.6.411-3.163.627-4.725.093-.675.107-.673-.562-.736a5.276,5.276,0,0,1-4.758-4.12,5.634,5.634,0,0,1-.139-1.318q0-7.705,0-15.41a5.334,5.334,0,0,1,5.494-5.543c4.856-.022,9.711,0,14.566,0,3.4,0,6.809.016,10.213,0a5.418,5.418,0,0,1,5.684,5.649q0,7.683,0,15.365a5.428,5.428,0,0,1-5.452,5.442q-8.882-.007-17.763-.006a.975.975,0,0,0-.612.2q-1.934,1.415-3.875,2.822-1.537,1.117-3.077,2.231A.5.5,0,0,1,273.84,435.359Zm10.241-20.066.094-.015c.052.133.109.264.157.4q.874,2.418,1.746,4.835c.268.745.265.728,1.06.758a.515.515,0,0,0,.6-.41c.64-1.827,1.305-3.645,1.962-5.465.028-.077.021-.186.169-.175,0,1.849.012,3.7-.01,5.544,0,.409.106.554.514.5s.944.169,1.2-.074c.284-.267.083-.812.086-1.234.013-2.457,0-4.914.015-7.37,0-.314-.09-.409-.4-.4-.532.024-1.066.024-1.6,0a.433.433,0,0,0-.5.356c-.665,1.943-1.345,3.881-2.021,5.82a.689.689,0,0,1-.231.418c-.059-.157-.108-.279-.151-.4-.66-1.913-1.326-3.825-1.973-5.742-.11-.324-.244-.485-.62-.453a10.122,10.122,0,0,1-1.508,0c-.366-.024-.436.113-.434.45.013,2.412.005,4.825.008,7.237,0,.442-.148,1.029.076,1.287.257.3.863.047,1.312.1.391.047.457-.113.453-.471C284.071,418.961,284.081,417.127,284.081,415.293Zm-6.542,6.077a4.025,4.025,0,0,0,1.835-.3,2.368,2.368,0,0,0,.542-4.153,6.315,6.315,0,0,0-1.663-.818,6.408,6.408,0,0,1-1.749-.736.988.988,0,0,1-.284-1.336,1.406,1.406,0,0,1,1.442-.576c.559.049,1.128.227,1.243.817s.431.628.889.59a4.468,4.468,0,0,1,.709,0c.276.021.333-.116.3-.349a2.53,2.53,0,0,0-.663-1.468,4.1,4.1,0,0,0-5.1-.191,2.285,2.285,0,0,0,.243,3.648,9.006,9.006,0,0,0,1.551.753,8.478,8.478,0,0,1,1.687.662,1.093,1.093,0,0,1,.522,1.218,1.029,1.029,0,0,1-.845.808,2.411,2.411,0,0,1-1.4-.047c-.413-.133-.81-.378-.845-.823-.051-.656-.421-.689-.915-.637a3.287,3.287,0,0,1-.62,0c-.269-.022-.37.074-.352.352a2.317,2.317,0,0,0,.948,1.823A3.858,3.858,0,0,0,277.539,421.37Zm19.033,0a4.031,4.031,0,0,0,1.786-.292,2.376,2.376,0,0,0,.591-4.127,6.329,6.329,0,0,0-1.907-.92,6.513,6.513,0,0,1-1.432-.587.98.98,0,0,1-.455-1.323,1.482,1.482,0,0,1,1.568-.671,1.312,1.312,0,0,1,1.249,1.01c.034.179-.013.405.29.4.429-.008.858-.005,1.287,0,.2,0,.268-.095.244-.276a2.543,2.543,0,0,0-.673-1.552,4.064,4.064,0,0,0-5-.24,2.242,2.242,0,0,0,.1,3.671,4.706,4.706,0,0,0,1.008.552c.676.259,1.362.491,2.026.776a1.154,1.154,0,0,1,.8,1.285c-.071.5-.485.84-1.149.93-.928.126-1.907-.259-1.974-.948-.07-.733-.47-.625-.915-.618-.222,0-.444.014-.666,0s-.281.075-.281.286a2.283,2.283,0,0,0,1.141,2.028A3.978,3.978,0,0,0,296.572,421.37Z" transform="translate(-269.009 -397.279)" fill="#98a2c5"/>
  <path id="Path_1604" data-name="Path 1604" d="M311.166,427.32c-1.039-.754-2.028-1.474-3.022-2.187a.281.281,0,0,1-.1-.381,7.517,7.517,0,0,0,.357-2.8q-.009-7.372,0-14.745a6.181,6.181,0,0,0-2.588-5.275,6.338,6.338,0,0,0-3.92-1.173q-10.614.016-21.229,0c-.605,0-.605,0-.549-.6a5.332,5.332,0,0,1,5.368-4.785q5.152-.009,10.3,0c4.9,0,9.8-.007,14.7.005a5.331,5.331,0,0,1,5.53,5.545q0,7.728,0,15.455a5.309,5.309,0,0,1-3.593,5.131,3.945,3.945,0,0,1-1.432.268c-.442-.013-.532.144-.469.566.237,1.594.437,3.194.651,4.791A1.567,1.567,0,0,1,311.166,427.32Z" transform="translate(-271.603 -395.38)" fill="#98a2c5"/>
</svg>
