<svg xmlns="http://www.w3.org/2000/svg" width="27.273" height="36.35" viewBox="0 0 27.273 36.35">
  <g id="Group_1343" data-name="Group 1343" transform="translate(-290.138 -374.759)">
    <path id="Path_1759" data-name="Path 1759" d="M292.695,414.429c-.018-.015-.033-.038-.054-.043a3.039,3.039,0,0,1-2.5-3.3V398.744c0-.718.262-.981.983-.981h25.3c.72,0,.982.265.982.981V411.2a3.022,3.022,0,0,1-2.469,3.176.339.339,0,0,0-.087.055Zm11.077-9.6-.83-1.1c-.263-.35-.522-.7-.789-1.049a.76.76,0,1,0-1.2.919q1.07,1.436,2.151,2.866a.763.763,0,0,0,1.349-.019c.471-.622.937-1.248,1.4-1.873.27-.359.551-.711.8-1.082a.752.752,0,0,0-1.2-.9c-.094.106-.175.223-.259.337Z" transform="translate(0 -3.32)" fill="#98a2c5"/>
    <path id="Path_1760" data-name="Path 1760" d="M309.31,374.759c.194.169.4.326.582.507q3.555,3.548,7.109,7.1a1.293,1.293,0,0,1,.411,1c-.015,2.366-.007,4.732-.007,7.1,0,.694-.268.961-.969.961H291.127c-.726,0-.988-.261-.988-.976q0-6.281,0-12.564a3.021,3.021,0,0,1,2.433-3.066.584.584,0,0,0,.122-.061Zm-5.544,9.6c.108.135.181.226.252.319.469.623.931,1.252,1.407,1.869a.753.753,0,1,0,1.214-.891c-.743-1.008-1.491-2.012-2.255-3a.741.741,0,0,0-1.2-.026c-.789,1.017-1.565,2.046-2.315,3.092a.738.738,0,0,0,.543,1.147.783.783,0,0,0,.752-.374C302.685,385.794,303.212,385.1,303.766,384.361Zm6.058-6.932v.366q0,1.42,0,2.839a1.548,1.548,0,0,0,1.692,1.7c.97,0,1.941,0,2.911,0,.1,0,.2-.014.285-.021Z" fill="#98a2c5"/>
  </g>
</svg>
