<svg xmlns="http://www.w3.org/2000/svg" width="71.478" height="29.478" viewBox="0 0 71.478 29.478">
  <path id="stripe" d="M71.578,139.37c0-5.082-2.457-9.093-7.171-9.093s-7.585,4.01-7.585,9.059c0,5.976,3.385,8.735,8.21,8.735a11.112,11.112,0,0,0,5.5-1.285v-3.731a10.492,10.492,0,0,1-4.87,1.095c-1.932,0-3.63-.681-3.854-3h9.707c.022-.257.067-1.3.067-1.776m-9.819-1.877c0-2.234,1.374-3.172,2.614-3.172,1.218,0,2.513.938,2.513,3.172Zm-12.611-7.216a5.591,5.591,0,0,0-3.887,1.553L45,130.6H40.637v22.877l4.96-1.05.011-5.607a5.557,5.557,0,0,0,3.507,1.251c3.552,0,6.791-2.592,6.791-8.891.011-5.764-3.273-8.9-6.758-8.9m-1.184,13.684a2.979,2.979,0,0,1-2.335-.938l-.034-7.372a2.976,2.976,0,0,1,2.368-.983c1.81,0,3.061,2.033,3.061,4.624.011,2.67-1.218,4.669-3.061,4.669M38.782,124v4.044L33.8,129.1v-4.044L38.782,124m-4.971,6.613h4.982v17.113H33.812Zm-5.339,1.463a3.39,3.39,0,0,1,4.144-1.463v4.557a3.531,3.531,0,0,0-3.787,1.039v11.516H23.881V130.613h4.289l.3,1.463m-9.941-1.463H22.3v4.222H18.531v7.06c0,2.927,3.128,2.011,3.764,1.754v3.776a7.714,7.714,0,0,1-3.485.659c-2.938,0-5.149-1.9-5.149-4.837l.022-15.906,4.837-1.028ZM5.1,135.651c0,2.234,7.585,1.173,7.585,7.082,0,3.574-2.837,5.339-6.959,5.339a13.746,13.746,0,0,1-5.418-1.128v-4.468a12.512,12.512,0,0,0,5.429,1.586c1.106,0,1.9-.3,1.9-1.218,0-2.368-7.54-1.474-7.54-6.97,0-3.507,2.681-5.607,6.7-5.607a13.238,13.238,0,0,1,4.926.9v4.669a11.113,11.113,0,0,0-4.937-1.273c-1.039.011-1.687.313-1.687,1.083" transform="translate(-0.1 -124)" fill="#6772e5"/>
</svg>
