<svg xmlns="http://www.w3.org/2000/svg" width="39" height="39" viewBox="0 0 39 39">
  <path id="tag_outline" data-name="tag outline" d="M8.824,11.748A2.925,2.925,0,1,0,5.9,8.823,2.925,2.925,0,0,0,8.824,11.748ZM39.85,20.681a3.905,3.905,0,0,1,.008,5.524l-13.65,13.65a3.9,3.9,0,0,1-5.516,0L3.145,22.31A3.889,3.889,0,0,1,2,19.548V5.9A3.9,3.9,0,0,1,5.9,2h13.65a3.887,3.887,0,0,1,2.759,1.141ZM23.451,37.1,37.1,23.451,20.526,6.876,6.876,20.526Z" transform="translate(-1.999 -1.999)" fill="#98a2c5"/>
</svg>
