<svg xmlns="http://www.w3.org/2000/svg" width="20.307" height="20.209" viewBox="0 0 20.307 20.209"><defs><style>.a{fill:#333;}</style></defs><g transform="translate(-281.444 -370.469)"><path class="a" d="M291.518,370.47c.22,0,.44,0,.66,0a1.444,1.444,0,0,1,1.455,1.454,1.962,1.962,0,0,0,.18.789,1.438,1.438,0,0,0,2.27.3,1.485,1.485,0,0,1,1.556-.394,1.591,1.591,0,0,1,.576.341c.309.273.585.582.881.87a1.414,1.414,0,0,1,0,2.1,1.323,1.323,0,0,0-.347,1.548,1.485,1.485,0,0,0,1.376,1.037,2.384,2.384,0,0,1,.783.128,1.264,1.264,0,0,1,.844,1.268c-.007.474.024.953-.028,1.422a1.347,1.347,0,0,1-1.4,1.224,1.622,1.622,0,0,0-1.587,1.734,1.409,1.409,0,0,0,.45.879,1.363,1.363,0,0,1,.415,1.39,1.59,1.59,0,0,1-.339.6c-.281.319-.6.607-.9.907a1.531,1.531,0,0,1-2.186.009,1.267,1.267,0,0,0-1.363-.4,1.653,1.653,0,0,0-.834.567,1.583,1.583,0,0,0-.269.934,1.408,1.408,0,0,1-1.04,1.456.609.609,0,0,1-.161.033c-.6,0-1.2.047-1.791,0a1.331,1.331,0,0,1-1.219-1.376,1.607,1.607,0,0,0-.921-1.534,1.242,1.242,0,0,0-1.228.082,1.9,1.9,0,0,0-.356.278,1.536,1.536,0,0,1-2.1.014c-.339-.322-.67-.653-1-.989a1.272,1.272,0,0,1,.063-1.829,1.458,1.458,0,0,0-.958-2.56,1.519,1.519,0,0,1-1.558-1.58c.017-.391,0-.784,0-1.176a1.475,1.475,0,0,1,1.467-1.474,1.3,1.3,0,0,0,1.3-.8,1.422,1.422,0,0,0-.277-1.707,1.376,1.376,0,0,1-.038-2.068q.426-.464.851-.928a1.428,1.428,0,0,1,2.138-.042,1.348,1.348,0,0,0,1.216.51,1.367,1.367,0,0,0,1.267-1.006,1.319,1.319,0,0,0,.026-.388,1.442,1.442,0,0,1,1.557-1.613Zm-5.329,10.139a5.409,5.409,0,1,0,5.445-5.4A5.443,5.443,0,0,0,286.189,380.609Z"/><path class="a" d="M305.628,388.4c.415,0,.792-.008,1.17,0a.843.843,0,0,1,.838,1.046.732.732,0,0,1-.694.626c-.466.024-.934.013-1.4.016-.248,0-.5,0-.743,0a.791.791,0,0,1-.858-.866c-.007-.461,0-.921,0-1.382,0-.619-.007-1.238.007-1.856a.749.749,0,0,1,.555-.757.818.818,0,0,1,.939.288,1.206,1.206,0,0,1,.181.593c.022.68.008,1.361.008,2.042Z" transform="translate(-13.185 -8.629)"/></g></svg>