<svg xmlns="http://www.w3.org/2000/svg" width="13.2" height="15.846" viewBox="0 0 13.2 15.846">
  <g id="trash" transform="translate(-96.038 -64)">
    <path id="Path_4185" data-name="Path 4185" d="M109.142,66.863c-.1-.371-.165-.578-.165-.578-.107-.384-.38-.384-.784-.45L106,65.559c-.272-.045-.272-.045-.38-.281-.359-.809-.47-1.279-.862-1.279h-4.249c-.392,0-.5.47-.858,1.283-.107.231-.107.231-.38.281l-2.195.276c-.4.066-.689.1-.8.487,0,0-.05.169-.153.536-.132.491-.186.437.268.437h12.475C109.328,67.3,109.279,67.354,109.142,66.863Z" fill="#98a2c5"/>
    <path id="Path_4186" data-name="Path 4186" d="M126.785,176H116.6c-.685,0-.718.091-.677.606l.771,10.008c.066.507.116.611.722.611h8.548c.606,0,.656-.1.722-.611l.771-10.008C127.5,176.087,127.469,176,126.785,176Z" transform="translate(-19.057 -107.38)" fill="#98a2c5"/>
  </g>
</svg>
