<svg xmlns="http://www.w3.org/2000/svg" width="13.972" height="16.773" viewBox="0 0 13.972 16.773">
  <g id="trash" transform="translate(-96.038 -64)">
    <path id="Path_4195" data-name="Path 4195" d="M109.909,67.031c-.1-.393-.175-.611-.175-.611-.114-.406-.4-.406-.83-.476l-2.319-.293c-.288-.048-.288-.048-.4-.3-.38-.856-.5-1.354-.913-1.354h-4.5c-.415,0-.528.5-.908,1.358-.114.245-.114.245-.4.3l-2.323.293c-.424.07-.729.109-.843.515,0,0-.052.179-.162.568-.14.52-.2.463.284.463h13.205C110.106,67.5,110.053,67.55,109.909,67.031Z" transform="translate(0 0)" fill="#c1484a"/>
    <path id="Path_4196" data-name="Path 4196" d="M127.421,176H116.643c-.725,0-.76.1-.716.642l.817,10.594c.07.537.122.646.764.646h9.048c.642,0,.694-.109.764-.646l.817-10.594C128.18,176.092,128.145,176,127.421,176Z" transform="translate(-19.009 -107.109)" fill="#486eb8"/>
  </g>
</svg>
