<svg xmlns="http://www.w3.org/2000/svg" width="20.096" height="20.123" viewBox="0 0 20.096 20.123">
  <g id="Group_1710" data-name="Group 1710" transform="translate(-528.999 -261)">
    <g id="Group_178" data-name="Group 178" transform="translate(-301.777 -1001.392)">
      <path id="Path_355" data-name="Path 355" d="M840.815,1310.588q-4.145,0-8.29,0a1.66,1.66,0,0,1-1.711-1.328,2.079,2.079,0,0,1-.035-.443q0-2.721,0-5.442a.675.675,0,0,1,.735-.743c.347,0,.695,0,1.042,0a.684.684,0,0,1,.736.747q0,1.966,0,3.932c0,.532.232.764.762.764h13.541c.532,0,.765-.232.765-.76q0-1.956,0-3.911a.691.691,0,0,1,.774-.772c.34,0,.68,0,1.02,0a.666.666,0,0,1,.716.718c0,1.842.006,3.685,0,5.527a1.645,1.645,0,0,1-1.72,1.709Q844.981,1310.595,840.815,1310.588Z" transform="translate(0 -28.075)" fill="#c1484a"/>
      <path id="Path_356" data-name="Path 356" d="M850.716,1272.394v4.23a.723.723,0,0,1-.816.824c-.354,0-.709,0-1.062,0a.576.576,0,0,1-.625-.582c-.021-.374-.012-.751-.012-1.126q0-3.836,0-7.673c0-.306-.1-.454-.337-.516a.487.487,0,0,0-.491.177q-1.08,1.084-2.164,2.165a.646.646,0,0,1-1.089,0c-.246-.245-.494-.488-.736-.737a.607.607,0,0,1,0-.952q2.784-2.791,5.576-5.577a.611.611,0,0,1,.967.01q2.78,2.8,5.556,5.6a.615.615,0,0,1,.007.969q-.392.4-.8.8a.613.613,0,0,1-.968-.006c-.733-.729-1.462-1.464-2.2-2.192a.864.864,0,0,0-.294-.2.38.38,0,0,0-.505.311,1.421,1.421,0,0,0-.011.233Q850.716,1270.268,850.716,1272.394Z" transform="translate(-8.635 0)" fill="#c1484a"/>
    </g>
  </g>
</svg>
