<svg xmlns="http://www.w3.org/2000/svg" width="53.752" height="62.306" viewBox="0 0 53.752 62.306">
  <g id="Group_1715" data-name="Group 1715" transform="translate(-771.456 -398.231)">
    <path id="Subtraction_6" data-name="Subtraction 6" d="M29.677,62.306H6.2A6.222,6.222,0,0,1,0,56.076L.03,6.231A6.223,6.223,0,0,1,6.231,0H31.152L49.845,18.691V38.335H43.614V21.808H28.037V6.231H6.231V56.076H29.677V62.3Zm-1.64-12.461H12.46v-6.23H28.037v6.23Zm9.346-12.46H12.46V31.153H37.383v6.23Z" transform="translate(771.456 398.231)" fill="#486eb8"/>
    <path id="link_variant" data-name="link variant" d="M11.338,14.438a1.1,1.1,0,0,1-1.55,1.55,5.48,5.48,0,0,1,0-7.75h0l3.875-3.875a5.48,5.48,0,0,1,7.75,7.75l-1.628,1.628a7.692,7.692,0,0,0-.444-2.656l.522-.522a3.288,3.288,0,0,0-4.65-4.65L11.338,9.788A3.288,3.288,0,0,0,11.338,14.438Zm3.1-4.65a1.1,1.1,0,0,1,1.55,0,5.48,5.48,0,0,1,0,7.75h0l-3.875,3.875a5.48,5.48,0,0,1-7.75-7.75l1.628-1.628a7.693,7.693,0,0,0,.444,2.656l-.522.522a3.288,3.288,0,0,0,4.65,4.65l3.875-3.875a3.288,3.288,0,0,0,0-4.65A1.1,1.1,0,0,1,14.438,9.788Z" transform="translate(802.19 437.519)" fill="#c1484a"/>
  </g>
</svg>
