<svg xmlns="http://www.w3.org/2000/svg" width="50.074" height="62.306" viewBox="0 0 50.074 62.306">
  <g id="Group_1711" data-name="Group 1711" transform="translate(-760 -423.999)">
    <path id="Subtraction_6" data-name="Subtraction 6" d="M29.677,62.306H6.2A6.222,6.222,0,0,1,0,56.076L.03,6.231A6.223,6.223,0,0,1,6.231,0H31.152L49.845,18.691V38.335H43.614V21.808H28.037V6.231H6.231V56.076H29.677V62.3Zm-1.64-12.461H12.46v-6.23H28.037v6.23Zm9.346-12.46H12.46V31.153H37.383v6.23Z" transform="translate(760 423.999)" fill="#486eb8"/>
    <path id="upload" d="M9.767,18.492V11.341H5L13.342,3l8.343,8.343H16.918v7.151ZM5,23.259V20.876H21.685v2.384Z" transform="translate(788.389 463.046)" fill="#c1484a"/>
  </g>
</svg>
