<svg xmlns="http://www.w3.org/2000/svg" width="30.016" height="39.52" viewBox="0 0 30.016 39.52"><defs><style>.a{fill:#98a2c5;stroke:rgba(0,0,0,0);stroke-miterlimit:10;}</style></defs><path class="a" d="M7382.121-8468.973H7360.4a3.186,3.186,0,0,1-3.4-3.393c0-10.373,0-20.894,0-31.267a3.349,3.349,0,0,1,.929-2.443,3.386,3.386,0,0,1,2.451-.924h10.882v10.9a3.191,3.191,0,0,0,3.377,3.364q5.15,0,10.3,0h.56c0,.069.007.135.011.2v.017c.006.1.012.2.012.3,0,6.59,0,13.271,0,19.857A3.186,3.186,0,0,1,7382.121-8468.973Zm-10.8-18.271-5.23,5.23h3.228v5.338h4v-5.338h3.228Zm13.984-8.683h-10.861v-10.858l10.859,10.856Z" transform="translate(-7356.5 8507.992)"/></svg>