<svg xmlns="http://www.w3.org/2000/svg" width="23.826" height="18.532" viewBox="0 0 23.826 18.532"><defs><style>.a{fill:#333;}</style></defs><path class="a" d="M21.841,32H1.986A1.986,1.986,0,0,0,0,33.986V48.546a1.986,1.986,0,0,0,1.986,1.986H21.841a1.986,1.986,0,0,0,1.986-1.986V33.986A1.986,1.986,0,0,0,21.841,32Zm0,16.546H1.986V33.986H21.841ZM8.6,41.266a2.647,2.647,0,1,0-2.647-2.647A2.65,2.65,0,0,0,8.6,41.266ZM4.9,46.561H12.31a.867.867,0,0,0,.927-.794v-.794a2.6,2.6,0,0,0-2.78-2.383A9.987,9.987,0,0,1,8.6,42.92a9.841,9.841,0,0,1-1.853-.331,2.6,2.6,0,0,0-2.78,2.383v.794A.867.867,0,0,0,4.9,46.561Zm9.994-2.647h4.633a.332.332,0,0,0,.331-.331V42.92a.332.332,0,0,0-.331-.331H14.891a.332.332,0,0,0-.331.331v.662A.332.332,0,0,0,14.891,43.913Zm0-2.647h4.633a.332.332,0,0,0,.331-.331v-.662a.332.332,0,0,0-.331-.331H14.891a.332.332,0,0,0-.331.331v.662A.332.332,0,0,0,14.891,41.266Zm0-2.647h4.633a.332.332,0,0,0,.331-.331v-.662a.332.332,0,0,0-.331-.331H14.891a.332.332,0,0,0-.331.331v.662A.332.332,0,0,0,14.891,38.618Z" transform="translate(0 -32)"/></svg>