<svg xmlns="http://www.w3.org/2000/svg" width="16.175" height="16.175" viewBox="0 0 16.175 16.175"><defs><style>.a{fill:#486EB8;}</style></defs><path class="a" d="M8.087,8a8.087,8.087,0,1,0,8.087,8.087A8.086,8.086,0,0,0,8.087,8Zm0,3.131A2.87,2.87,0,1,1,5.218,14,2.87,2.87,0,0,1,8.087,11.131Zm0,11.218A6.249,6.249,0,0,1,3.31,20.125a3.636,3.636,0,0,1,3.212-1.95.8.8,0,0,1,.232.036,4.318,4.318,0,0,0,1.334.225,4.3,4.3,0,0,0,1.334-.225.8.8,0,0,1,.232-.036,3.636,3.636,0,0,1,3.212,1.95A6.249,6.249,0,0,1,8.087,22.349Z" transform="translate(0 -8)"/></svg>