<svg xmlns="http://www.w3.org/2000/svg" width="162.312" height="133.688" viewBox="0 0 162.312 133.688">
  <g id="Group_1463" data-name="Group 1463" transform="translate(-58.927 -219.113)">
    <path id="Path_4158" data-name="Path 4158" d="M81.044,219.588h.707l1.18.23,1.411.236L88.11,221l5.179.938,2.829.71,3.06.707,3.3.47,3.3.942,3.533.469,3.531.943,11.3,2.118,3.533.944,3.768.7,3.294.707,3.533.707,3.293.705,3.3.473,2.825.707,2.829.468,2.355.705,2.117.473,1.882.234,1.649.236,1.18.237.706.234h.467l3.063.706,2.827.472,2.356.706,1.88.471,1.886.705,1.414.472,1.881.943.705.472,1.18,1.174v.236l.238.237v.23h10.12l.945.238h.942l.705.237h.705l.705.236,1.886.937.234.475,1.649,2.589.472,3.059-.472,3.768-1.177,3.534-1.412,3.53-1.417,2.828-1.174,1.883-.47.707-.473.236-1.177.468-1.648.706-2.354.942-2.593.94L179,271.388l-3.536,1.411-4,1.411-4.475,1.887-4.708,1.649-4.707,1.88-10.361,4.245-5.417,2.118-5.416,1.881-5.415,2.351-5.649,2.125-5.416,1.881-5.183,2.357-5.414,1.881-4.947,1.88-9.419,3.774L90.7,305.762l-4,1.416-3.53,1.411-3.06,1.179-2.593,1.179-2.116.709-1.65.708-.942.226-.238.238H194.306l19.777-93.715H81.044Z" transform="translate(7.156 0)" fill="#004c82"/>
    <path id="Path_4159" data-name="Path 4159" d="M141.788,240.237l-.71.236-4.707.937h-1.179l-.943.238h-.937l-1.417.237-.705.235-.471.233-.238.475v.469l.475.47h.939l.943.235h2.354l1.411-.235h1.412l3.3-.47h1.65l1.883-.239,1.646-.23,1.418-.236,1.644-.239h6.359l.7.239.476.236.467.705v.939l-.235.942-.232,1.18-.476,1.412-.7,1.65-.471,1.648-.237.939.471.473.473-.239.943-.942.467-.705.709-1.174.706-1.413.705-1.65.7-1.412.473-1.415.234-1.175V241.18l-.468-1.18-.705-.706-.942-.7-1.179-.472-1.413-.235-1.646-.237h-9.891l-.235.237h-.236l-.468.235-.475.944-.468.232-.471.472Z" transform="translate(37.541 9.723)" fill="#004c82"/>
    <path id="Path_4160" data-name="Path 4160" d="M80.541,233.324,65,305.372l.71-.238,1.411-.934,2.356-.948,3.063-1.649,3.528-1.648,4.006-2.113,4.709-2.119,4.473-2.357,4.709-2.125,4.474-2.35,4.473-2.119,4.236-2.119,3.535-1.887,3.06-1.411,2.355-1.179,1.649-.7L120.1,278.3l2.119-1.179,2.589-1.179,2.59-1.411,2.354-1.178,2.826-1.179,2.59-1.411,2.825-1.173,2.828-1.423,14.126-5.88,6.36-2.119.941-.237.939-.468,1.181-.236,4.235-1.412,4.946-1.416,1.649-.236,4.943-1.412,2.829-.467.939-.236.705-.238h.71l.705-.231.472-.474h.237v-.237l-.475-.937-.705-.236-.943-.239h-.939l-1.411-.232h-1.418l-1.646.232-2.827.239-3.061.467-3.294.707-3.534.711-3.528.939-3.769,1.179-3.534,1.175-3.766,1.179-3.53,1.414-3.536,1.174-3.295,1.18-3.059,1.179-2.829,1.412-2.354.94-2.119.947-1.648.94-8.946-27.788h56.984l.232-1.174-.939-1.18-1.415-.706-2.119-.705-2.356-.705-6.122-.944-9.888-.7Z" transform="translate(3.186 7.456)" fill="#004c82"/>
    <path id="Path_4161" data-name="Path 4161" d="M200.085,297.2H61.133l.2-2.088H200.285Z" transform="translate(1.157 39.875)" fill="#ea4156"/>
    <path id="Path_4162" data-name="Path 4162" d="M66.854,297.747l-1.064-.082-1.067-.245-.82-.245-.738-.492-.491-.575-.329-.738-.082-.819.082-.986.412-1.8.326-1.641.329-1.4.245-1.147.165-.985.165-.738.082-.409.079-.165h2.706l-.081.328-.165.82-.328,1.229-.245,1.4-.329,1.4L65.3,292.5l-.084.245-.081.657v1.148l.165.41.328.328.41.245.573.165.657.082L68,295.7l.573-.081.575-.249.41-.41.328-.409.329-.494.491-1.311.081-.656.245-.985.249-1.229.245-1.313.328-1.23.165-1.067.163-.738.082-.244h2.706l-.492,2.378-.245,1.23-.165.409v.165l-.082.492-.245,1.229-.573,2.378-.082.492-.245.494-.166.409-.245.41-.328.41-.656.656-.412.247-.491.247-.41.245-.491.163-.492.082-.492.163-1.148.165Zm126.134-10.5h-3.856l-.654.163-.492.329-.082.162-.082.247v.328l.082.329.245.328.245.41.739.738.491.328.41.329.492.409.82.82.328.41.491.985.084.491-.084.575-.162.575-.249.573-.409.492-.575.41-.656.326-.82.247-1.066.165-1.148.081H182.9l.492-1.967h4.429l.41-.082.328-.082.247-.163.247-.328.162-.328-.081-.657-.492-.657-.82-.656-.82-.738-.9-.82-.739-.9-.491-.9-.082-1.064.165-.575.329-.656.328-.492.572-.41.739-.328.738-.245.985-.165H193.4l-.412,1.968Zm-9.515,0h-6.149l-.739,3.2H182l-.409,1.721h-5.414l-.657,3.362h6.152l-.412,1.968H172.4l2.624-12.218h8.857l-.412,1.968Zm-10.66,0h-3.77l-2.215,10.25h-2.706l2.214-10.25H162.48l.491-1.968h10.252l-.41,1.968ZM153.951,297.5l1.066-1.968h3.856l-1.067-7.789-5.413,9.758h-2.706l7.053-12.218h3.2l1.888,12.218Zm-.492-10.25h-3.772l-2.215,10.25h-2.706l2.215-10.25h-3.854l.491-1.968h10.252l-.41,1.968Zm-11.728,0h-3.772l-.412.081-.326.082-.247.165-.328.326v.575l.082.329.163.328.329.41.738.738.409.328.494.328,1.229,1.23.329.41.326.492.166.491.081.492v.575l-.165.575-.245.573-.492.491-.491.412-.738.326-.822.247-.983.165-1.23.081h-4.1l.412-1.968h4.51l.41-.081.328-.082.245-.163.247-.329.082-.326-.082-.659-.492-.656-.738-.656-.82-.738-.9-.82-.738-.9-.491-.9-.084-1.066.166-.573.244-.656.412-.492.573-.41.657-.328.82-.245.983-.165h4.755l-.491,1.968Zm-24.766,4.1-1.23,6.15h5.495l.656-.081h.656l1.148-.329.656-.246.576-.328.983-.656.982-.985.822-1.148.328-.656.245-.656.166-.74.081-.328.081-.492.165-1.148-.081-1.064-.245-.9-.412-.82-.656-.738-.82-.492-1.066-.328-1.232-.082h-5.986l-1.311,6.068Zm8.939,0-.084.41-.245.492-.163.41-.163.492-.247.326-.328.41-.657.659-.819.491-.41.165-.492.162-.985.165h-2.461l.822-4.182.9-4.1H124.1l.656.246.494.329.409.491.245.492.163.654v1.314l-.163.491v.082Zm-10.006-4.1h-6.07l-.736,3.2h5.33l-.329,1.721h-5.411l-.657,3.362h6.068l-.326,1.968h-8.857l2.622-12.218h8.776l-.41,1.968Zm-10.58,0h-3.854L99.25,297.5H96.626l2.214-10.25H94.985l.409-1.968h10.252l-.328,1.968ZM90.967,297.5H88.343l2.542-12.218H93.59L90.967,297.5Zm-5.248,0H82.355l-3.036-9.1h-.081l-1.886,9.1H74.974L77.6,285.282h3.444L84,294.468l1.886-9.186h2.461L85.719,297.5Z" transform="translate(1.75 34.716)"/>
    <path id="Path_4163" data-name="Path 4163" d="M65,306.3h-.328l-.165-.081h-.492l-.163-.084h-.163l-.165-1.72h.656l.081.081h.492l.656-.081.985-.329.328-.328.492-.657.165-.328v-.328l.081-.41v-.409l-.081-.329-.165-.245-.492-.329H66.39l-.326-.081H63.849L61.633,310.9H58.927l2.625-12.218h5.823l.9.082.657.329.573.409.329.575.163.573.082.656v.657l-.082.575-.247.819-.41.738-.492.656-.654.576-.657.41-1.641.491-.9.081Zm134.989-5.658h-6.231l-.657,3.2h5.414l-.412,1.8h-5.412l-.656,3.363h6.15l-.41,1.883h-8.857l2.624-12.219H200.4l-.412,1.97Zm-10.906.163-.329-.082H188.5l-.654-.163-.412-.081h-.409l-.329-.084h-.491l-.9.084-.822.244-.819.329-.738.575-.573.572-.575.74-.328.9-.329.982-.165.985.084.9.244.738.329.573.491.492.657.41.738.247.82.081h.492l.491-.081h.412l.819-.165h.328l.412-.082.328-.081-.657,2.048-.328.084h-.409l-.329.082h-.41l-.328.081h-1.886l-1.313-.165-.575-.162-.573-.245-.492-.247L179.81,310l-.41-.329-.409-.41-.245-.492-.245-.573-.247-.492-.082-.654v-.657l.082-.738.081-.822.245-.738.247-.819.656-1.313.409-.573.986-.985.575-.41,1.148-.656,1.311-.492.657-.165.654-.082.739-.079h1.721l.328.079h.329l.328.082H189l.329.084-.245,2.049ZM175.547,310.9h-2.706l2.624-12.22h2.706l-2.624,12.22Zm-8.694,0h-3.2l-1.8-12.22h2.706l1.23,9.842,5.412-9.842h2.624l-6.971,12.22Zm-9.924-5.248L158.9,310.9h-2.952l-2.215-6.643h1.56l.492-.081.491-.165.409-.245.329-.245.329-.329.162-.41.166-.491.079-.328v-.328l-.162-.492-.165-.165-.328-.163-.82-.165h-2.461L151.6,310.9h-2.7l2.625-12.22h5.658l.817.084.741.163.575.247.409.328.328.409.247.576.081.656v.654l-.081.822-.247.738-.328.657-.409.491-.494.491-.656.329-.573.246-.657.082Zm-7.789-5h-6.152l-.656,3.2h5.33l-.328,1.8h-5.412l-.657,3.363h6.152l-.41,1.883h-8.939l2.624-12.219h8.857l-.409,1.97Zm-11.154,0H134.54l-.819.165-.328.082-.165.163-.247.165-.162.328v.41l.081.328.165.328.328.329.328.409.41.328.409.41.492.329.412.409.491.329.328.491.329.409.328.492.165.412.081.573v.492l-.163.657-.245.491-.986.985-.656.328-.9.245-.982.162H127.9l.41-1.883h4.511l.41-.084.328-.163.245-.165.245-.244.163-.329-.163-.657-.491-.656-.738-.738-.82-.738-.9-.738-.738-.9-.491-.985-.082-.982.165-.657.245-.575.41-.492.575-.409.654-.328.822-.247.985-.163,1.147-.084H138.4l-.41,1.97Zm-14.6,10.25H115.1l2.543-12.22h2.789l-2.214,10.336H123.8l-.41,1.884Zm-17.549,0,1.066-1.884h3.854l-1.148-7.873-5.33,9.758h-2.708l6.972-12.22h3.278l1.888,12.22Zm-.492-10.25h-3.856L99.275,310.9H96.569l2.215-10.25H95.012l.41-1.97h10.25l-.326,1.97Zm-11.728,0H90.173l-.82.165-.245.082-.247.163-.326.328-.082.165v.41l.082.328.492.657.326.409.412.328.409.41.492.329.492.409.41.329.328.491.41.409.245.492.165.412.163.573-.081.492-.165.657-.247.491-.409.491-.492.494-.739.326-.9.247-.985.162H83.613l.329-1.884h4.592l.326-.082.657-.328.163-.244.165-.329-.082-.657-.491-.656-.738-.738-.9-.738-.82-.738-.738-.9-.492-.985-.165-.982.165-.657.328-.575.41-.492.492-.409.657-.328.9-.247.983-.163,1.066-.084h3.609l-.409,1.97Zm-22.8,4.182-.165,1.311.247,1.723.492.985.326.491.739.738.491.328.492.247.575.244.656.166.656.081h1.4l1.311-.163.656-.162.657-.247.575-.247.491-.328.575-.329.492-.41.409-.491.492-.491.328-.575.657-1.313.245-.738.163-.82.165-.656v-1.229l-.082-.657-.082-.575-.492-.985-.654-.82-.412-.326-.491-.329-.492-.244-.657-.247L80,298.594l-.654-.079h-1.4l-1.311.162-.656.165-.657.249-.575.244-.491.328-.575.41-.491.328-.492.494-.41.573-.41.492-.328.654-.247.657-.245.819-.245.74Zm10.25,0-.245.983-.41.9-.41.738-.572.575-.659.491-.738.41-.738.247-.9.081-.9-.081-.656-.328-.573-.41-.41-.575-.247-.575-.163-.819v-.82l.163-.822.247-.982.41-.9.41-.74.573-.572.656-.575.738-.329.738-.244.9-.084.82.165.738.163.575.494.409.491.247.657.163.735v.822l-.165.9Z" transform="translate(0 41.658)"/>
  </g>
</svg>
