<svg xmlns="http://www.w3.org/2000/svg" width="94.572" height="26.227" viewBox="0 0 94.572 26.227">
  <g id="layer1" transform="translate(260.955 41.214)">
    <path id="path1139" d="M-260.955-23.352h5.626l3.276,8.382,3.319-8.382h5.478L-251.5-3.509h-5.513l2.258-5.258Z" transform="translate(0 -11.478)" fill="#5f01d1"/>
    <path id="path1141" d="M-207.875-24.285c-4.227,0-6.9,3.791-6.9,7.567,0,4.249,2.93,7.617,6.82,7.617a4.624,4.624,0,0,0,4-1.768v1.377h4.907V-23.951h-4.907v1.314a4.932,4.932,0,0,0-3.915-1.648Zm1.044,4.647a2.884,2.884,0,0,1,2.957,2.936,2.9,2.9,0,0,1-2.957,2.971,2.969,2.969,0,0,1-2.964-2.907A2.864,2.864,0,0,1-206.831-19.638Z" transform="translate(-29.674 -10.878)" fill="#5f01d1"/>
    <path id="path1145" d="M-166.06-20.37V-41.214h5.133v7.749a4.752,4.752,0,0,1,3.773-1.7c3.123,0,4.953,2.327,4.953,5.652v9.139h-5.1v-7.887c0-1.125-.536-2.213-1.75-2.213a2,2,0,0,0-1.88,2.213v7.887Z" transform="translate(-60.976)" fill="#5f01d1"/>
    <path id="path1147" d="M-116.69-24.28a7.48,7.48,0,0,0-7.724,7.625A7.47,7.47,0,0,0-116.672-9.1a7.433,7.433,0,0,0,7.727-7.482,7.458,7.458,0,0,0-7.746-7.7Zm.046,4.688a2.913,2.913,0,0,1,2.893,2.943,2.959,2.959,0,0,1-2.893,2.893,2.865,2.865,0,0,1-2.872-2.907,2.791,2.791,0,0,1,2.872-2.929Z" transform="translate(-87.736 -10.881)" fill="#5f01d1"/>
    <path id="path1153" d="M-71.1-24.28a7.48,7.48,0,0,0-7.724,7.625A7.47,7.47,0,0,0-71.08-9.1a7.433,7.433,0,0,0,7.727-7.482,7.458,7.458,0,0,0-7.746-7.7Zm.046,4.688a2.913,2.913,0,0,1,2.893,2.943,2.959,2.959,0,0,1-2.893,2.893,2.865,2.865,0,0,1-2.872-2.907,2.791,2.791,0,0,1,2.872-2.929Z" transform="translate(-117.032 -10.881)" fill="#5f01d1"/>
    <circle id="path1155" cx="3.408" cy="3.408" r="3.408" transform="translate(-179.743 -26.88)" fill="#5f01d1"/>
    <path id="path1157" d="M-22.574-28.132H-28.71l5.446-13.082h6.113Z" transform="translate(-149.232)" fill="#5f01d1"/>
  </g>
</svg>
