<svg xmlns="http://www.w3.org/2000/svg" width="46.126" height="43.99" viewBox="0 0 46.126 43.99"><defs><style>.a{opacity:0.5;}</style></defs><g class="a" transform="translate(-815.437 -1249.647)"><path d="M815.437,1285.338c.1-.4.189-.812.318-1.207a6.506,6.506,0,0,1,10.161-3.151l.38.294c.156-.1.317-.2.476-.311,2.208-1.474,4.413-2.954,6.628-4.417a.516.516,0,0,0,.269-.7,7.973,7.973,0,0,1,6.266-10.163.525.525,0,0,0,.506-.488c.374-1.9.776-3.788,1.182-5.679a.422.422,0,0,0-.218-.511,5.1,5.1,0,1,1,3.831.741c-.468.086-.956.054-1.431.108-.122.014-.31.132-.332.232-.394,1.816-.768,3.637-1.155,5.5a8.064,8.064,0,0,1,4.7,13.6l5.706,4.526a5.582,5.582,0,0,1,3.554-1.094,5.523,5.523,0,0,1,5.186,4.458c.022.115.063.226.1.339v1.441c-.062.228-.125.456-.185.684a5.509,5.509,0,0,1-10.827-1.1,5.616,5.616,0,0,1,.861-3.312l-5.958-4.726a8.078,8.078,0,0,1-10.807-2.378l-7.113,4.75c.082.158.151.289.218.422a6.454,6.454,0,0,1,.637,3.848,6.5,6.5,0,0,1-12.688.918c-.1-.358-.178-.724-.266-1.087Z" transform="translate(0 0)"/></g></svg>