<svg xmlns="http://www.w3.org/2000/svg" width="124.819" height="118.106" viewBox="0 0 124.819 118.106">
  <g id="Group_138" data-name="Group 138" transform="translate(118.669 -243.354) rotate(90)" opacity="0.1">
    <g id="Group_130" data-name="Group 130">
      <circle id="Ellipse_17" data-name="Ellipse 17" cx="2.667" cy="2.667" r="2.667" transform="translate(243.354 -6.15)"/>
      <path id="Path_553" data-name="Path 553" d="M246.021,16.253a2.667,2.667,0,1,1,2.667-2.667A2.667,2.667,0,0,1,246.021,16.253Z"/>
      <circle id="Ellipse_18" data-name="Ellipse 18" cx="2.667" cy="2.667" r="2.667" transform="translate(243.354 27.989)"/>
      <circle id="Ellipse_19" data-name="Ellipse 19" cx="2.667" cy="2.667" r="2.667" transform="translate(243.354 45.058)"/>
      <path id="Path_554" data-name="Path 554" d="M246.021,67.461a2.667,2.667,0,1,1,2.667-2.667A2.667,2.667,0,0,1,246.021,67.461Z"/>
      <circle id="Ellipse_20" data-name="Ellipse 20" cx="2.667" cy="2.667" r="2.667" transform="translate(243.354 79.196)"/>
      <path id="Path_555" data-name="Path 555" d="M246.021,101.6a2.667,2.667,0,1,1,2.667-2.667A2.667,2.667,0,0,1,246.021,101.6Z"/>
      <path id="Path_556" data-name="Path 556" d="M246.021,118.669A2.667,2.667,0,1,1,248.688,116,2.667,2.667,0,0,1,246.021,118.669Z"/>
    </g>
    <g id="Group_131" data-name="Group 131">
      <path id="Path_557" data-name="Path 557" d="M262.131-.816a2.667,2.667,0,0,1-2.667-2.667,2.667,2.667,0,0,1,2.667-2.667A2.667,2.667,0,0,1,264.8-3.483,2.667,2.667,0,0,1,262.131-.816Z"/>
      <path id="Path_558" data-name="Path 558" d="M262.131,16.253a2.667,2.667,0,1,1,2.667-2.667A2.667,2.667,0,0,1,262.131,16.253Z"/>
      <path id="Path_559" data-name="Path 559" d="M262.131,33.323a2.667,2.667,0,1,1,2.667-2.668A2.668,2.668,0,0,1,262.131,33.323Z"/>
      <path id="Path_560" data-name="Path 560" d="M262.131,50.392a2.667,2.667,0,1,1,2.667-2.667A2.667,2.667,0,0,1,262.131,50.392Z"/>
      <path id="Path_561" data-name="Path 561" d="M262.131,67.461a2.667,2.667,0,1,1,2.667-2.667A2.667,2.667,0,0,1,262.131,67.461Z"/>
      <path id="Path_562" data-name="Path 562" d="M262.131,84.53a2.667,2.667,0,1,1,2.667-2.667A2.667,2.667,0,0,1,262.131,84.53Z"/>
      <path id="Path_563" data-name="Path 563" d="M262.131,101.6a2.667,2.667,0,1,1,2.667-2.667A2.667,2.667,0,0,1,262.131,101.6Z"/>
    </g>
    <g id="Group_132" data-name="Group 132">
      <circle id="Ellipse_21" data-name="Ellipse 21" cx="2.667" cy="2.667" r="2.667" transform="translate(275.575 -6.15)"/>
      <path id="Path_564" data-name="Path 564" d="M278.242,16.253a2.667,2.667,0,1,1,2.667-2.667A2.667,2.667,0,0,1,278.242,16.253Z"/>
      <circle id="Ellipse_22" data-name="Ellipse 22" cx="2.667" cy="2.667" r="2.667" transform="translate(275.575 27.989)"/>
      <circle id="Ellipse_23" data-name="Ellipse 23" cx="2.667" cy="2.667" r="2.667" transform="translate(275.575 45.058)"/>
      <path id="Path_565" data-name="Path 565" d="M278.242,67.461a2.667,2.667,0,1,1,2.667-2.667A2.667,2.667,0,0,1,278.242,67.461Z"/>
      <circle id="Ellipse_24" data-name="Ellipse 24" cx="2.667" cy="2.667" r="2.667" transform="translate(275.575 79.196)"/>
    </g>
    <g id="Group_133" data-name="Group 133">
      <path id="Path_566" data-name="Path 566" d="M294.352-.816a2.667,2.667,0,0,1-2.667-2.667,2.667,2.667,0,0,1,2.667-2.667,2.667,2.667,0,0,1,2.667,2.667A2.667,2.667,0,0,1,294.352-.816Z"/>
      <path id="Path_567" data-name="Path 567" d="M294.352,16.253a2.667,2.667,0,1,1,2.667-2.667A2.667,2.667,0,0,1,294.352,16.253Z"/>
      <path id="Path_568" data-name="Path 568" d="M294.352,33.323a2.667,2.667,0,1,1,2.667-2.668A2.668,2.668,0,0,1,294.352,33.323Z"/>
      <path id="Path_569" data-name="Path 569" d="M294.352,50.392a2.667,2.667,0,1,1,2.667-2.667A2.667,2.667,0,0,1,294.352,50.392Z"/>
      <path id="Path_570" data-name="Path 570" d="M294.352,67.461a2.667,2.667,0,1,1,2.667-2.667A2.667,2.667,0,0,1,294.352,67.461Z"/>
    </g>
    <g id="Group_134" data-name="Group 134">
      <circle id="Ellipse_25" data-name="Ellipse 25" cx="2.667" cy="2.667" r="2.667" transform="translate(307.795 -6.15)"/>
      <path id="Path_571" data-name="Path 571" d="M310.462,16.253a2.667,2.667,0,1,1,2.667-2.667A2.667,2.667,0,0,1,310.462,16.253Z"/>
      <circle id="Ellipse_26" data-name="Ellipse 26" cx="2.667" cy="2.667" r="2.667" transform="translate(307.795 27.989)"/>
      <circle id="Ellipse_27" data-name="Ellipse 27" cx="2.667" cy="2.667" r="2.667" transform="translate(307.795 45.058)"/>
    </g>
    <g id="Group_135" data-name="Group 135">
      <path id="Path_572" data-name="Path 572" d="M326.572-.816A2.667,2.667,0,0,1,323.9-3.483a2.667,2.667,0,0,1,2.667-2.667,2.667,2.667,0,0,1,2.667,2.667A2.667,2.667,0,0,1,326.572-.816Z"/>
      <path id="Path_573" data-name="Path 573" d="M326.572,16.253a2.667,2.667,0,1,1,2.667-2.667A2.667,2.667,0,0,1,326.572,16.253Z"/>
      <path id="Path_574" data-name="Path 574" d="M326.572,33.323a2.667,2.667,0,1,1,2.667-2.668A2.668,2.668,0,0,1,326.572,33.323Z"/>
    </g>
    <g id="Group_136" data-name="Group 136">
      <path id="Path_575" data-name="Path 575" d="M342.682-.816a2.667,2.667,0,0,1-2.667-2.667,2.667,2.667,0,0,1,2.667-2.667,2.667,2.667,0,0,1,2.667,2.667A2.667,2.667,0,0,1,342.682-.816Z"/>
      <path id="Path_576" data-name="Path 576" d="M342.682,16.253a2.667,2.667,0,1,1,2.667-2.667A2.667,2.667,0,0,1,342.682,16.253Z"/>
    </g>
    <g id="Group_137" data-name="Group 137">
      <path id="Path_577" data-name="Path 577" d="M358.792-.816a2.667,2.667,0,0,1-2.667-2.667,2.667,2.667,0,0,1,2.667-2.667,2.668,2.668,0,0,1,2.668,2.667A2.668,2.668,0,0,1,358.792-.816Z"/>
    </g>
  </g>
</svg>
