<svg xmlns="http://www.w3.org/2000/svg" width="51.577" height="62.048" viewBox="0 0 51.577 62.048"><defs><style>.a{fill:#1fcb5d;}.b{fill:#ffa155;}</style></defs><g transform="translate(-280.038 -364.976)"><path class="a" d="M308.756,364.976a3.14,3.14,0,0,0,.326.144,2.428,2.428,0,0,1,1.855,2.336c.031,1.19.013,2.382-.025,3.572a1.487,1.487,0,0,1-1.395,1.551c-.356.061-.713.108-1.139.172,0,.851-.034,1.7.033,2.534.011.141.446.3.706.36,1.335.3,2.69.506,4.013.846a21.105,21.105,0,0,1,5.5,2.32.659.659,0,0,0,.974-.132c.842-.891,1.729-1.741,2.638-2.647l-.888-.963c.612-.593,1.222-1.17,1.814-1.764s1.145-1.183,1.7-1.763l5.3,5.323-3.51,3.512-.75-.675-2.538,2.54c.1.107.247.269.4.42a24.482,24.482,0,0,1,7.293,13.188c1.9,10.189-1.139,18.731-9.078,25.414a24.2,24.2,0,0,1-13.079,5.507c-.7.08-1.394.169-2.092.253h-1.939c-1.017-.126-2.041-.208-3.049-.386A25.407,25.407,0,0,1,282.4,411.912a24.206,24.206,0,0,1-2.312-12.169,25.368,25.368,0,0,1,7.614-16.858,5.556,5.556,0,0,1,.722-.538l-2.615-2.664-.837.75-3.46-3.485,5.282-5.293,3.477,3.488-.809.882c.981.981,1.923,1.944,2.9,2.869.1.1.448.032.62-.065a23.972,23.972,0,0,1,5.673-2.374c1.263-.33,2.554-.561,3.842-.785.816-.142.825-.1.828-.91,0-.663,0-1.326,0-2-.272-.071-.485-.122-.7-.182a2.555,2.555,0,0,1-1.876-2.4c-.02-.827-.02-1.655-.005-2.483a2.471,2.471,0,0,1,1.982-2.605,1.1,1.1,0,0,0,.208-.117Zm-2.912,12.862a23.325,23.325,0,1,0,23.316,22.875A23.38,23.38,0,0,0,305.844,377.838Z"/><path class="b" d="M291.4,415.837l9.94-9.941a6.979,6.979,0,0,0,3.418,1.7,6.541,6.541,0,0,0,7.553-5.693,13.928,13.928,0,0,0-.7-4.818,2.022,2.022,0,0,1,.638-2.289c2.609-2.5,5.133-5.091,7.69-7.647.156-.156.318-.3.545-.521,4.49,4.7,6.635,10.273,5.852,16.673-1.082,8.848-6.051,14.825-14.522,17.583A20.115,20.115,0,0,1,291.4,415.837Z"/><path class="b" d="M305.877,385.973c.56,2,1.114,3.83,1.579,5.679.755,3,1.5,6.011,2.155,9.037a3.738,3.738,0,0,1-3.009,4.237A3.863,3.863,0,0,1,302.109,402a6.326,6.326,0,0,1,.275-2.977c1.076-4.209,2.2-8.406,3.309-12.607C305.718,386.324,305.767,386.237,305.877,385.973Z"/></g></svg>