<svg xmlns="http://www.w3.org/2000/svg" xmlns:xlink="http://www.w3.org/1999/xlink" width="438.568" height="39.604" viewBox="0 0 438.568 39.604">
  <defs>
    <linearGradient id="linear-gradient" x1="0.5" x2="0.5" y2="1" gradientUnits="objectBoundingBox">
      <stop offset="0" stop-color="#f7c64f"/>
      <stop offset="0.267" stop-color="#efc14d"/>
      <stop offset="0.623" stop-color="#e2b649"/>
      <stop offset="1" stop-color="#cda643"/>
    </linearGradient>
    <linearGradient id="linear-gradient-2" x1="0.5" y1="1" x2="0.5" gradientUnits="objectBoundingBox">
      <stop offset="0" stop-color="#10ae6e"/>
      <stop offset="0.139" stop-color="#0fa96b"/>
      <stop offset="0.332" stop-color="#0ea065"/>
      <stop offset="0.559" stop-color="#06905b"/>
      <stop offset="0.807" stop-color="#007a4c"/>
      <stop offset="1" stop-color="#00663e"/>
    </linearGradient>
    <linearGradient id="linear-gradient-3" x1="0.5" y1="1" x2="0.5" gradientUnits="objectBoundingBox">
      <stop offset="0" stop-color="#507ec0"/>
      <stop offset="0.25" stop-color="#4f7cbc"/>
      <stop offset="0.449" stop-color="#4c78b6"/>
      <stop offset="0.63" stop-color="#4871ad"/>
      <stop offset="0.801" stop-color="#4268a0"/>
      <stop offset="0.963" stop-color="#3a5c8e"/>
      <stop offset="1" stop-color="#375889"/>
    </linearGradient>
  </defs>
  <g id="Group_129" data-name="Group 129" transform="translate(-138 -2971)">
    <g id="drive" transform="translate(138 2971)">
      <g id="Group_123" data-name="Group 123">
        <path id="Path_525" data-name="Path 525" d="M22.89,13.321,7.69,39.588,0,26.3,15.209,0Z" fill="#10ae6e"/>
      </g>
      <g id="Group_124" data-name="Group 124" transform="translate(15.209)">
        <path id="Path_526" data-name="Path 526" d="M217.447,26.292l-15.38.016L186.9,0h15.4Z" transform="translate(-186.9)" fill="url(#linear-gradient)"/>
      </g>
      <g id="Group_125" data-name="Group 125" transform="translate(7.69 26.283)">
        <path id="Path_527" data-name="Path 527" d="M132.566,323.008l-7.682,13.313L94.5,336.3l7.665-13.3Z" transform="translate(-94.5 -323)" fill="#507ec0"/>
      </g>
      <path id="Path_528" data-name="Path 528" d="M186.9.1l7.682,13.313-3.149,5.444Z" transform="translate(-171.691 -0.092)" fill="url(#linear-gradient-2)"/>
      <path id="Path_529" data-name="Path 529" d="M94.5,336.488l7.665-13.288,7.673,13.288Z" transform="translate(-86.81 -296.9)" fill="url(#linear-gradient-3)"/>
    </g>
    <g id="Salesforce_logo" transform="translate(227 2970.5)">
      <path id="Path_530" data-name="Path 530" d="M23.546,4.819a9.916,9.916,0,0,1,7.175-3.081A10.017,10.017,0,0,1,39.45,6.914a12.058,12.058,0,0,1,4.934-1.049,12.306,12.306,0,0,1,0,24.611,12.142,12.142,0,0,1-2.4-.239A8.917,8.917,0,0,1,30.3,33.9a10.173,10.173,0,0,1-18.912-.46,9.38,9.38,0,0,1-1.941.2A9.562,9.562,0,0,1,4.722,15.84,10.988,10.988,0,0,1,23.546,4.819" fill="#00a1e0" fill-rule="evenodd"/>
      <path id="Path_531" data-name="Path 531" d="M39.371,81.692c-.036.093.013.112.024.128a3.4,3.4,0,0,0,2.015.59c1.161,0,1.882-.617,1.882-1.611v-.02c0-.919-.814-1.253-1.577-1.494l-.1-.032c-.575-.187-1.072-.348-1.072-.727v-.019c0-.325.29-.563.74-.563a3.346,3.346,0,0,1,1.475.377s.113.073.154-.036c.022-.059.215-.579.236-.635a.108.108,0,0,0-.056-.131,3.286,3.286,0,0,0-1.663-.447h-.116a1.622,1.622,0,0,0-1.8,1.562v.02c0,.969.818,1.284,1.585,1.5l.123.038c.558.171,1.04.319,1.04.712v.02c0,.36-.313.627-.818.627a2.74,2.74,0,0,1-1.495-.43c-.082-.048-.128-.082-.191-.12a.093.093,0,0,0-.153.052l-.229.636m16.991,0c-.036.093.013.112.025.128a3.391,3.391,0,0,0,2.015.59c1.161,0,1.882-.617,1.882-1.611v-.02c0-.919-.814-1.253-1.577-1.494l-.1-.032c-.575-.187-1.072-.348-1.072-.727v-.019c0-.325.29-.563.74-.563a3.345,3.345,0,0,1,1.474.377s.113.073.154-.036c.022-.059.215-.579.236-.635a.107.107,0,0,0-.056-.131,3.286,3.286,0,0,0-1.663-.447H58.3a1.622,1.622,0,0,0-1.8,1.562v.02c0,.969.818,1.284,1.585,1.5l.123.038c.558.171,1.041.319,1.041.712v.02c0,.36-.314.627-.818.627a2.739,2.739,0,0,1-1.5-.43c-.082-.048-.13-.08-.191-.12a.1.1,0,0,0-.152.052l-.229.636m11.6-1.947a2.392,2.392,0,0,1-.311,1.317,1.043,1.043,0,0,1-.944.46,1.031,1.031,0,0,1-.939-.46,2.42,2.42,0,0,1-.306-1.317,2.393,2.393,0,0,1,.306-1.312,1.034,1.034,0,0,1,.939-.456,1.046,1.046,0,0,1,.944.456,2.363,2.363,0,0,1,.311,1.312m.969-1.041a2.339,2.339,0,0,0-.441-.842,2.128,2.128,0,0,0-.744-.566,2.694,2.694,0,0,0-2.077,0,2.127,2.127,0,0,0-.744.566,2.34,2.34,0,0,0-.441.841,3.87,3.87,0,0,0,0,2.082,2.338,2.338,0,0,0,.441.842,2.081,2.081,0,0,0,.744.561,2.753,2.753,0,0,0,2.076,0,2.082,2.082,0,0,0,.745-.561,2.341,2.341,0,0,0,.441-.842,3.876,3.876,0,0,0,0-2.082m7.956,2.668a.092.092,0,0,0-.124-.059,2.217,2.217,0,0,1-.451.129,3.444,3.444,0,0,1-.531.038,1.475,1.475,0,0,1-1.108-.415,1.851,1.851,0,0,1-.416-1.325,2.054,2.054,0,0,1,.372-1.276,1.264,1.264,0,0,1,1.075-.473,3.241,3.241,0,0,1,1.024.147s.076.033.112-.067c.085-.236.148-.4.238-.662a.087.087,0,0,0-.061-.114,3.781,3.781,0,0,0-.646-.163,4.878,4.878,0,0,0-.727-.049,2.643,2.643,0,0,0-1.08.208,2.24,2.24,0,0,0-.78.565,2.388,2.388,0,0,0-.471.842,3.34,3.34,0,0,0-.158,1.043,2.79,2.79,0,0,0,.644,1.928,2.451,2.451,0,0,0,1.913.72,3.949,3.949,0,0,0,1.372-.245.088.088,0,0,0,.039-.115l-.238-.657m1.7-2.165a1.908,1.908,0,0,1,.265-.774,1.045,1.045,0,0,1,.938-.476,1.018,1.018,0,0,1,.919.476,1.621,1.621,0,0,1,.217.774H78.582Zm3.262-.685a2.042,2.042,0,0,0-.42-.768,1.909,1.909,0,0,0-.623-.475,2.393,2.393,0,0,0-.939-.191,2.569,2.569,0,0,0-1.083.211,2.155,2.155,0,0,0-.755.576,2.369,2.369,0,0,0-.444.852,3.685,3.685,0,0,0-.144,1.047,3.529,3.529,0,0,0,.149,1.047,2.1,2.1,0,0,0,1.3,1.38,3.28,3.28,0,0,0,1.19.193,3.425,3.425,0,0,0,1.652-.328c.036-.02.071-.056.028-.157l-.215-.6a.1.1,0,0,0-.123-.057,3.151,3.151,0,0,1-1.346.243,1.342,1.342,0,0,1-1.5-1.477l3.279,0a.1.1,0,0,0,.1-.085A3.511,3.511,0,0,0,81.844,78.521Zm-29.527.685a1.911,1.911,0,0,1,.265-.774,1.046,1.046,0,0,1,.938-.476,1.018,1.018,0,0,1,.919.476,1.623,1.623,0,0,1,.217.774Zm3.262-.685a2.042,2.042,0,0,0-.419-.768,1.907,1.907,0,0,0-.623-.475,2.4,2.4,0,0,0-.939-.191,2.569,2.569,0,0,0-1.083.211,2.16,2.16,0,0,0-.755.576,2.382,2.382,0,0,0-.444.852,3.693,3.693,0,0,0-.143,1.047,3.508,3.508,0,0,0,.149,1.047,2.1,2.1,0,0,0,1.3,1.38,3.281,3.281,0,0,0,1.191.193,3.425,3.425,0,0,0,1.652-.328c.036-.02.071-.056.028-.157l-.214-.6a.1.1,0,0,0-.124-.057,3.15,3.15,0,0,1-1.346.243,1.342,1.342,0,0,1-1.5-1.477l3.279,0a.1.1,0,0,0,.1-.085A3.509,3.509,0,0,0,55.578,78.521Zm-10.35,2.833a.64.64,0,0,1-.189-.195.785.785,0,0,1-.1-.427.718.718,0,0,1,.293-.635,1.471,1.471,0,0,1,.951-.237,6.647,6.647,0,0,1,.89.076v1.491h0a6.659,6.659,0,0,1-.886.118,1.476,1.476,0,0,1-.961-.191Zm1.3-2.3c-.133-.01-.305-.015-.512-.015a3.111,3.111,0,0,0-.808.1,2.12,2.12,0,0,0-.685.317,1.532,1.532,0,0,0-.651,1.3,1.711,1.711,0,0,0,.15.749,1.36,1.36,0,0,0,.428.514,1.811,1.811,0,0,0,.668.289,3.925,3.925,0,0,0,.868.089,6.012,6.012,0,0,0,1-.083q.415-.071.826-.16c.109-.025.23-.058.23-.058a.1.1,0,0,0,.075-.107l0-3a1.837,1.837,0,0,0-.521-1.448,2.231,2.231,0,0,0-1.506-.453,5.4,5.4,0,0,0-.879.081,3.159,3.159,0,0,0-1.011.37.1.1,0,0,0-.03.13l.232.624a.083.083,0,0,0,.108.053.422.422,0,0,0,.054-.027,3.332,3.332,0,0,1,1.429-.333,1.324,1.324,0,0,1,.811.212c.179.137.27.344.27.781v.139C46.792,79.073,46.533,79.049,46.533,79.049Zm26.452-1.69a.089.089,0,0,0-.049-.118,2.886,2.886,0,0,0-.55-.093,1.622,1.622,0,0,0-.846.136,1.478,1.478,0,0,0-.554.409v-.4a.1.1,0,0,0-.094-.1H70.05a.1.1,0,0,0-.094.1v4.892a.1.1,0,0,0,.1.1h.862a.1.1,0,0,0,.1-.1V79.742a2.878,2.878,0,0,1,.108-.861,1.229,1.229,0,0,1,.288-.482,1,1,0,0,1,.4-.244,1.6,1.6,0,0,1,.44-.062,1.853,1.853,0,0,1,.36.044c.063.007.1-.032.12-.089.056-.15.216-.6.247-.689" transform="translate(-31.176 -60.654)" fill="#fffffe" fill-rule="evenodd"/>
      <path id="Path_532" data-name="Path 532" d="M102.348,67.123a2.755,2.755,0,0,0-.324-.077,2.539,2.539,0,0,0-.446-.035,1.877,1.877,0,0,0-1.389.5A2.71,2.71,0,0,0,99.53,69l-.04.222h-.744a.11.11,0,0,0-.11.1L98.513,70c-.009.065.02.106.107.106h.725l-.735,4.1a5.152,5.152,0,0,1-.2.809,1.658,1.658,0,0,1-.229.466.608.608,0,0,1-.3.232,1.215,1.215,0,0,1-.386.056,1.494,1.494,0,0,1-.263-.029.783.783,0,0,1-.177-.057.09.09,0,0,0-.119.053c-.027.07-.22.6-.243.667a.1.1,0,0,0,.051.131,2.449,2.449,0,0,0,.3.088,1.98,1.98,0,0,0,.48.046,2.4,2.4,0,0,0,.8-.125,1.507,1.507,0,0,0,.606-.423,2.175,2.175,0,0,0,.426-.733,6.262,6.262,0,0,0,.288-1.1l.739-4.181h1.08a.111.111,0,0,0,.11-.1l.122-.682c.009-.065-.019-.106-.107-.106h-1.048a4.451,4.451,0,0,1,.173-.74.952.952,0,0,1,.23-.35.68.68,0,0,1,.275-.171,1.139,1.139,0,0,1,.352-.051,1.37,1.37,0,0,1,.269.027c.1.022.141.033.168.041.107.033.121,0,.142-.051l.251-.689a.087.087,0,0,0-.06-.114M87.7,74.216a.1.1,0,0,1-.094.1h-.87a.1.1,0,0,1-.094-.1v-7a.1.1,0,0,1,.094-.1h.87a.1.1,0,0,1,.094.1v7" transform="translate(-68.627 -52.684)" fill="#fffffe" fill-rule="evenodd"/>
    </g>
    <g id="gmail" transform="translate(327 2910.017)">
      <g id="Group_126" data-name="Group 126" transform="translate(3.389 60.983)">
        <path id="Path_533" data-name="Path 533" d="M79.234,122.808l-3.319,33.326H36.053l-2.674-32.681,22.6,12.656Z" transform="translate(-33.379 -116.53)" fill="#f2f2f2"/>
        <path id="Path_534" data-name="Path 534" d="M82.362,60.983,60.238,81.766,38.114,60.983H82.362Z" transform="translate(-37.633 -60.983)" fill="#f2f2f2"/>
      </g>
      <path id="Path_535" data-name="Path 535" d="M6.063,116.387v30.008H2.451A2.452,2.452,0,0,1,0,143.943V111.967l3.96.108Z" transform="translate(0 -45.807)" fill="#f14336"/>
      <path id="Path_536" data-name="Path 536" d="M458.351,109.273v31.976A2.452,2.452,0,0,1,455.9,143.7h-3.611V113.692l2-4.724Z" transform="translate(-406.363 -43.113)" fill="#d32e2a"/>
      <path id="Path_537" data-name="Path 537" d="M51.988,63.434V66.16l-6.063,4.42L25.994,85.107,6.063,70.58,0,66.16V63.434a2.452,2.452,0,0,1,2.451-2.451H3.87L25.994,77.108,48.118,60.983h1.418A2.452,2.452,0,0,1,51.988,63.434Z" fill="#f14336"/>
      <path id="Path_538" data-name="Path 538" d="M6.063,116.387,0,115.447v-3.48Z" transform="translate(0 -45.807)" fill="#d32e2a"/>
    </g>
    <g id="box_logo_blue_simpleshape_vector" transform="translate(422 2971)">
      <g id="Group_127" data-name="Group 127" transform="translate(0 0.001)">
        <path id="Path_539" data-name="Path 539" d="M140.228,74.816a8.59,8.59,0,1,0,8.591,8.591A8.6,8.6,0,0,0,140.228,74.816Zm0,16.953a8.363,8.363,0,1,1,8.363-8.362A8.362,8.362,0,0,1,140.228,91.769Z" transform="translate(-101.654 -57.776)" fill="#fff"/>
        <path id="Path_540" data-name="Path 540" d="M38.574,11.695A13.937,13.937,0,0,0,26.258,19.1,13.942,13.942,0,0,0,5.579,14.481V2.737h0A2.789,2.789,0,0,0,0,2.737H0v23.13H.006a13.939,13.939,0,0,0,26.252,6.3A13.942,13.942,0,1,0,38.574,11.695Zm0,27.656a13.7,13.7,0,0,1-12.115-7.287l-.2-.378-.2.378a13.712,13.712,0,0,1-25.823-6.2l-.006-.137V2.742A2.576,2.576,0,0,1,2.79.234,2.576,2.576,0,0,1,5.35,2.742V14.936l.365-.274a13.714,13.714,0,0,1,20.341,4.546l.2.378.2-.378A13.714,13.714,0,1,1,38.574,39.351Z" transform="translate(0 -0.006)" fill="#fff"/>
        <path id="Path_541" data-name="Path 541" d="M32.084,74.816a8.59,8.59,0,1,0,8.59,8.591A8.6,8.6,0,0,0,32.084,74.816Zm0,16.953a8.363,8.363,0,1,1,8.363-8.362A8.363,8.363,0,0,1,32.084,91.769Z" transform="translate(-18.143 -57.776)" fill="#fff"/>
        <path id="Path_542" data-name="Path 542" d="M239.088,74.785l-7.14-9.544,7.14-9.544h0a2.789,2.789,0,0,0-4.459-3.349h0l-6.163,8.238L222.3,52.346h0a2.789,2.789,0,0,0-4.459,3.349h0l7.14,9.544-7.14,9.544h0a2.789,2.789,0,0,0,4.459,3.349h0l6.162-8.238,6.163,8.238h0a2.789,2.789,0,0,0,4.459-3.349Zm-.728,3.677a2.561,2.561,0,0,1-3.554-.468l-.02-.025-6.14-8.207-.182-.244-.182.244-6.12,8.182-.04.051a2.561,2.561,0,0,1-4.094-3.075l.034-.048,7.1-9.494.1-.136-.1-.137-7.094-9.483-.042-.058a2.576,2.576,0,0,1,.541-3.543,2.561,2.561,0,0,1,3.554.468l.033.042,6.127,8.191.182.244.182-.244,6.134-8.2.026-.033a2.561,2.561,0,0,1,3.553-.468,2.576,2.576,0,0,1,.541,3.544l-.034.049-7.1,9.493-.1.137.1.136,7.089,9.477.047.065A2.577,2.577,0,0,1,238.36,78.462Z" transform="translate(-167.817 -39.599)" fill="#fff"/>
      </g>
      <g id="Group_128" data-name="Group 128">
        <path id="Path_543" data-name="Path 543" d="M38.574,11.688A13.937,13.937,0,0,0,26.258,19.1,13.942,13.942,0,0,0,5.579,14.475V2.731h0A2.789,2.789,0,0,0,0,2.731H0v23.13H.006a13.939,13.939,0,0,0,26.252,6.3A13.942,13.942,0,1,0,38.574,11.688Zm-24.632,22.3A8.363,8.363,0,1,1,22.3,25.63,8.363,8.363,0,0,1,13.942,33.993Zm24.632,0a8.363,8.363,0,1,1,8.363-8.363A8.362,8.362,0,0,1,38.574,33.993Z" fill="#0081c6"/>
        <path id="Path_544" data-name="Path 544" d="M239.088,74.777l-7.14-9.544,7.14-9.544h0a2.789,2.789,0,0,0-4.459-3.349h0l-6.163,8.238L222.3,52.338h0a2.789,2.789,0,0,0-4.459,3.349h0l7.14,9.544-7.14,9.544h0a2.789,2.789,0,0,0,4.459,3.349h0l6.162-8.238,6.163,8.238h0a2.789,2.789,0,0,0,4.459-3.349Z" transform="translate(-167.817 -39.592)" fill="#0081c6"/>
      </g>
    </g>
    <g id="slack" transform="translate(537 2971)">
      <path id="Path_545" data-name="Path 545" d="M289.552,288.554c-1.722,0-3.444.008-5.165,0a4.132,4.132,0,0,1-3.822-5.792,3.926,3.926,0,0,1,3.752-2.514c3.5-.046,7.011-.029,10.516-.009a4.148,4.148,0,0,1,3.62,6.066,4.01,4.01,0,0,1-3.735,2.248c-1.722.02-3.444,0-5.165,0A.014.014,0,0,0,289.552,288.554Z" transform="translate(-259.364 -259.37)" fill="#e9b330"/>
      <path id="Path_546" data-name="Path 546" d="M9.406,140.133c1.71,0,3.421-.01,5.131,0a4.157,4.157,0,0,1,.132,8.313q-5.279.032-10.559,0a4.162,4.162,0,0,1-.94-8.2,4.605,4.605,0,0,1,1.1-.118C5.986,140.136,7.7,140.134,9.406,140.133Z" transform="translate(0 -129.704)" fill="#37c4f0"/>
      <path id="Path_547" data-name="Path 547" d="M139.939,289.957c0-1.76-.017-3.519,0-5.279a4.15,4.15,0,0,1,8.3-.032q.048,5.315,0,10.632a4.152,4.152,0,0,1-8.294.143c0-.062-.01-.124-.01-.186q0-2.639,0-5.279Z" transform="translate(-129.522 -259.708)" fill="#de1e5c"/>
      <path id="Path_548" data-name="Path 548" d="M288.508,9.421c0,1.722.01,3.443,0,5.165a4.152,4.152,0,0,1-8.3.032c-.007-3.468-.022-6.936.007-10.4A3.972,3.972,0,0,1,282.824.336a3.914,3.914,0,0,1,4.423.886A3.951,3.951,0,0,1,288.5,4.181c.01,1.746,0,3.493,0,5.239Z" transform="translate(-259.347 0)" fill="#30b581"/>
      <path id="Path_549" data-name="Path 549" d="M282.617,420.279c.631.038,1.436-.056,2.24.054a4.158,4.158,0,1,1-3.736,6.88,3.947,3.947,0,0,1-1.057-2.668c-.019-1.3.005-2.6-.014-3.9,0-.313.113-.373.387-.367C281.107,420.288,281.776,420.279,282.617,420.279Z" transform="translate(-259.216 -389.008)" fill="#e9b330"/>
      <path id="Path_550" data-name="Path 550" d="M148.252,6.22c0,.669-.009,1.338.006,2.007.006.247-.077.315-.318.313-1.326-.011-2.652.012-3.978-.012a4.193,4.193,0,0,1-4.013-3.736,4.162,4.162,0,1,1,8.3-.394C148.253,5.006,148.251,5.613,148.252,6.22Z" transform="translate(-129.518 -0.193)" fill="#39c5ee"/>
      <path id="Path_551" data-name="Path 551" d="M8.643,282.842c-.037.678.049,1.483-.052,2.286A4.149,4.149,0,1,1,4.585,280.4c1.226,0,2.453.011,3.679-.007.316,0,.4.1.386.4C8.628,281.428,8.643,282.073,8.643,282.842Z" transform="translate(-0.318 -259.529)" fill="#de1e5c"/>
      <path id="Path_552" data-name="Path 552" d="M422.374,148.6c-.83,0-1.511,0-2.193,0-.169,0-.28-.017-.275-.236.034-1.473-.084-2.951.056-4.419a4.141,4.141,0,1,1,8.22,1.011,4.184,4.184,0,0,1-3.251,3.547A14.822,14.822,0,0,1,422.374,148.6Z" transform="translate(-388.654 -129.86)" fill="#30b581"/>
    </g>
  </g>
</svg>
