<svg xmlns="http://www.w3.org/2000/svg" width="55.314" height="38" viewBox="0 0 55.314 38">
  <path id="Path_603" data-name="Path 603" d="M659.857,1040v3.45h-6.888v31.1h6.852V1078H642.614v-3.416h6.841V1043.47h-6.884V1040ZM608,1068.737c.766,1.9,1.487,2.378,3.554,2.377h36.164v-1.729h-36.43c-1.174,0-1.56-.381-1.56-1.541q0-8.8,0-17.6c0-1.235.366-1.6,1.614-1.6h36.375v-1.728h-.36q-18.2,0-36.4,0a3.036,3.036,0,0,0-.641.064,3.073,3.073,0,0,0-2.319,2.31Zm55.314-19.446c-.766-1.9-1.48-2.376-3.551-2.377H654.71v1.728c1.873,0,3.706,0,5.539,0a1.194,1.194,0,0,1,1.335,1.331q0,9.039,0,18.078a1.2,1.2,0,0,1-1.336,1.331c-1.655.006-3.31,0-4.965,0h-.572v1.723c2,0,3.957,0,5.916,0a1.511,1.511,0,0,0,.32-.044,3.1,3.1,0,0,0,2.368-2.326Zm-15.6-1.262H609.394v21.914h38.325Z" transform="translate(-608 -1040)" fill="#ffa155"/>
</svg>
