<svg xmlns="http://www.w3.org/2000/svg" width="14.945" height="11.743" viewBox="0 0 14.945 11.743"><defs><style>.a{fill:#c4c4c4;fill-rule:evenodd;}</style></defs><path class="a" d="M15.053,11.494a1.285,1.285,0,0,1-.942.392H1.834a1.285,1.285,0,0,1-.942-.392A1.285,1.285,0,0,1,.5,10.551V3.929a4.421,4.421,0,0,0,.842.726Q4.361,6.706,5.487,7.532q.475.35.771.546a4.764,4.764,0,0,0,.788.4,2.4,2.4,0,0,0,.917.2h.017a2.4,2.4,0,0,0,.917-.2,4.76,4.76,0,0,0,.788-.4q.3-.2.771-.546,1.418-1.026,4.153-2.877a4.6,4.6,0,0,0,.834-.726v6.622A1.285,1.285,0,0,1,15.053,11.494ZM14.019,3.762l-3.9,2.711q-.083.059-.354.254t-.45.317q-.179.121-.434.271a2.521,2.521,0,0,1-.48.225,1.325,1.325,0,0,1-.417.075H7.964a1.325,1.325,0,0,1-.417-.075,2.526,2.526,0,0,1-.48-.225q-.254-.15-.434-.271t-.45-.317l-.354-.254Q5.07,5.939,3.644,4.951T1.934,3.763A4.141,4.141,0,0,1,.959,2.8,1.948,1.948,0,0,1,.5,1.661,1.684,1.684,0,0,1,.846.577,1.191,1.191,0,0,1,1.834.143H14.111a1.289,1.289,0,0,1,.938.392,1.278,1.278,0,0,1,.4.942,2.2,2.2,0,0,1-.409,1.259A3.962,3.962,0,0,1,14.019,3.762Z" transform="translate(-0.5 -0.143)"/></svg>