<svg xmlns="http://www.w3.org/2000/svg" width="32.022" height="32.022" viewBox="0 0 32.022 32.022"><defs><style>.a{fill:#1877f2;}.b{fill:#fff;}</style></defs><path class="a" d="M99.522,83.511A16.011,16.011,0,1,0,81.011,99.329V88.143H76.949V83.511h4.062V79.984c0-4.009,2.386-6.229,6.045-6.229a24.427,24.427,0,0,1,3.588.316V78.01H88.626a2.311,2.311,0,0,0-2.606,2.5v3H90.46l-.711,4.632H86.02V99.329A16.014,16.014,0,0,0,99.522,83.511Z" transform="translate(-67.5 -67.5)"/><path class="b" d="M187.9,153.188l.711-4.632h-4.439v-3a2.315,2.315,0,0,1,2.606-2.5H188.8v-3.939a24.423,24.423,0,0,0-3.588-.316c-3.658,0-6.045,2.22-6.045,6.229v3.527H175.1v4.632h4.062v11.186a15.681,15.681,0,0,0,2.5.193,16.774,16.774,0,0,0,2.5-.193V153.188Z" transform="translate(-165.444 -132.545)"/></svg>