<svg id="Group_60" data-name="Group 60" xmlns="http://www.w3.org/2000/svg" width="61.14" height="75" viewBox="0 0 61.14 75">
  <path id="Path_343" data-name="Path 343" d="M1172.109,1340.9a13.762,13.762,0,1,1-13.762,13.762A13.762,13.762,0,0,1,1172.109,1340.9Zm-1.376,19.957,9.633-9.633-1.946-1.946-7.687,7.687-4.247-4.247-1.946,1.946Z" transform="translate(-1124.731 -1293.424)" fill="#fff"/>
  <g id="Group_59" data-name="Group 59" transform="translate(0 0)">
    <path id="Path_344" data-name="Path 344" d="M1033.257,1361.708a2.042,2.042,0,1,0,0,4.084H1052.2a16.339,16.339,0,0,1,2.343-4.084Z" transform="translate(-1020.043 -1310.558)" fill="#fff"/>
    <path id="Path_345" data-name="Path 345" d="M1033.257,1248.444h28.122a2.042,2.042,0,1,0,0-4.084h-28.122a2.042,2.042,0,1,0,0,4.084Z" transform="translate(-1020.043 -1213.928)" fill="#fff"/>
    <path id="Path_346" data-name="Path 346" d="M1000.636,1140.454H985.562q-5.56,0-11.12,0c-1.763,0-2.449-.685-2.461-2.417,0-.4,0-.806,0-1.208V1097.9q0-9.832,0-19.665a1.945,1.945,0,0,1,2.11-2.186c.161-.007.322-.006.483-.006q14.5,0,29.006,0c.286,0,.572.024.831.036,0,3.867-.005,7.651,0,11.435,0,1.969.826,2.77,2.808,2.771q4.875,0,9.75,0h1.258v26.839a16.233,16.233,0,0,1,4.046,1.291v-25.58a7.386,7.386,0,0,0,.028-1.962,7.1,7.1,0,0,0-1.686-4.245q-5.681-6.216-11.354-12.439a6.506,6.506,0,0,0-5.071-2.2q-14.987.018-29.974.005a5.963,5.963,0,0,0-6.267,6.209q-.018,30.02.006,60.041a5.924,5.924,0,0,0,6.318,6.217q14.575,0,29.149,0A16.386,16.386,0,0,1,1000.636,1140.454Z" transform="translate(-967.944 -1071.993)" fill="#fff"/>
    <path id="Path_347" data-name="Path 347" d="M1033.257,1307.118h28.122a2.042,2.042,0,1,0,0-4.084h-28.122a2.042,2.042,0,1,0,0,4.084Z" transform="translate(-1020.043 -1262.243)" fill="#fff"/>
    <path id="Path_348" data-name="Path 348" d="M1033.257,1189.771h14.171a2.042,2.042,0,0,0,0-4.085h-14.171a2.042,2.042,0,1,0,0,4.085Z" transform="translate(-1020.043 -1165.613)" fill="#fff"/>
  </g>
</svg>
