<svg xmlns="http://www.w3.org/2000/svg" xmlns:xlink="http://www.w3.org/1999/xlink" width="1366.002" height="168.514" viewBox="0 0 1366.002 168.514"><defs><style>.a{fill:#ffa155;opacity:0.2;}.b{fill:url(#a);}</style><linearGradient id="a" x1="0.5" x2="0.5" y2="1" gradientUnits="objectBoundingBox"><stop offset="0" stop-color="#ffa155"/><stop offset="1" stop-color="#ffa155"/></linearGradient></defs><g transform="translate(0 -1187.976)"><path class="a" d="M683.123,33.5H1366V11.192s-136.914-25.182-342.142,0c-200.205,24.566-334.293,1.2-340.737.044v-.044s-136.915-25.182-342.142,0S0,11.192,0,11.192V33.5Z" transform="translate(1366.001 1356.49) rotate(180)"/><path class="b" d="M-809.141,157.322c-200.205-24.566-334.293-1.2-340.736-.044v.044s-136.914,25.182-342.141,0-340.98,0-340.98,0V140.413h0V0H-467V135.014h0v22.307s-60.862,11.191-162.226,11.192A1480.909,1480.909,0,0,1-809.141,157.322Z" transform="translate(1833 1187.976)"/></g></svg>