<svg xmlns="http://www.w3.org/2000/svg" width="31.389" height="32.022" viewBox="0 0 31.389 32.022"><defs><style>.a{fill:#4285f4;}.b{fill:#34a853;}.c{fill:#fbbc04;}.d{fill:#ea4335;}</style></defs><path class="a" d="M287.478,226.353a18.833,18.833,0,0,0-.277-3.253H272.1v6.165h8.648a7.411,7.411,0,0,1-3.2,4.865v4h5.159A15.637,15.637,0,0,0,287.478,226.353Z" transform="translate(-256.089 -209.974)"/><path class="b" d="M43.208,337.243a15.326,15.326,0,0,0,10.613-3.865l-5.159-4A9.711,9.711,0,0,1,34.224,324.3H28.9v4.124A16.013,16.013,0,0,0,43.208,337.243Z" transform="translate(-27.197 -305.22)"/><path class="c" d="M6.971,160.254a9.59,9.59,0,0,1,0-6.13V150H1.653a16.024,16.024,0,0,0,0,14.378Z" transform="translate(0.05 -141.174)"/><path class="d" d="M43.208,6.319a8.7,8.7,0,0,1,6.142,2.4h0l4.571-4.571A15.388,15.388,0,0,0,43.208-.017,16.008,16.008,0,0,0,28.9,8.807l5.318,4.124A9.577,9.577,0,0,1,43.208,6.319Z" transform="translate(-27.197 0.018)"/></svg>