<svg xmlns="http://www.w3.org/2000/svg" width="84.846" height="75.799" viewBox="0 0 84.846 75.799"><defs><style>.a{fill:#1fcb5d;}.b{fill:#ffa155;}</style></defs><g transform="translate(-649.885 -1104.765)"><path class="a" d="M756.822,1129.8c2.228-1.072,4.508-2.181,6.8-3.267,1.222-.58,2.486-1.075,3.687-1.692a6.119,6.119,0,0,1,5.8.071,19.109,19.109,0,0,1,8.6,8.488,27.417,27.417,0,0,1,3.3,15.662,11.548,11.548,0,0,1-3.758,7.334,80.771,80.771,0,0,1-15.15,11.273,21.526,21.526,0,0,1-6.011,2.192,15,15,0,0,0-10.178,7.682c-.364.651-.72.592-1.266.344a35.44,35.44,0,0,1-8.864-6.1c-1.736-1.555-3.25-3.361-4.849-5.068a1.239,1.239,0,0,1-.018-1.823c.9-1.18,1.455-2.754,2.581-3.591,1.067-.795,2.689-.825,4.05-1.247,9.215-2.857,14.194-9.425,16.069-18.6a22.435,22.435,0,0,0-.624-10.59c-.071-.254-.14-.509-.2-.766A1.383,1.383,0,0,1,756.822,1129.8Z" transform="translate(-67.86 -15.539)"/><path class="b" d="M930.948,1336.093a4.787,4.787,0,0,1,3.928,1.8c2.515,3.228,4.924,6.539,7.34,9.842a1.03,1.03,0,0,1-.036.942c-5.983,8.612-13.531,15.043-24.1,17.276a1.549,1.549,0,0,1-1.92-.809c-1.988-3.081-4.1-6.082-6.09-9.161a8.993,8.993,0,0,1-1.191-2.791c-.274-1.18.233-1.6,1.4-1.84a11.464,11.464,0,0,0,2.993-.978,45.839,45.839,0,0,0,13.7-10.935,11.781,11.781,0,0,0,1.172-1.716C928.967,1336.319,929.323,1336.095,930.948,1336.093Z" transform="translate(-207.583 -185.459)"/><path class="a" d="M661.323,1336.091a2.9,2.9,0,0,1,2.861,1.579,23.469,23.469,0,0,0,3.889,4.707,41.553,41.553,0,0,0,11.543,8.254,9.426,9.426,0,0,0,2.65.728c.863.107,1.265.606,1.151,1.291a8.439,8.439,0,0,1-.933,2.86c-1.085,1.847-2.339,3.595-3.532,5.378-.954,1.427-1.986,2.807-2.854,4.284a1.465,1.465,0,0,1-1.836.788,33.191,33.191,0,0,1-12.8-5.547,45.193,45.193,0,0,1-11.283-11.57c-.28-.409-.456-.737-.091-1.224,2.333-3.116,4.6-6.279,6.969-9.369A5.213,5.213,0,0,1,661.323,1336.091Z" transform="translate(0 -185.457)"/><path class="b" d="M740.934,1126.177c.664,3.2,2.823,4.833,5.7,5.782a1.608,1.608,0,0,1,.943.8,20.9,20.9,0,0,1-8.112,23.75,20.447,20.447,0,0,1-8.24,2.932,2.759,2.759,0,0,1-2.512-1.123,7.465,7.465,0,0,1-1.634-7.339c2.006-6.766,4.234-13.471,6.535-20.145A7.244,7.244,0,0,1,740.934,1126.177Z" transform="translate(-61.613 -17.164)"/><path class="b" d="M893.091,1316.193a99.116,99.116,0,0,0,16-11.385c1.29,1.872,2.557,3.681,3.777,5.522a.976.976,0,0,1-.051.862,14.03,14.03,0,0,1-1.472,1.986,45.155,45.155,0,0,1-11.277,8.966c-2.487,1.379-2.512,1.334-3.961-1.025C895.111,1319.49,894.113,1317.86,893.091,1316.193Z" transform="translate(-194.982 -160.378)"/><path class="b" d="M828.334,1107.1c-1.987.945-3.739,1.773-5.487,2.611-1.25.6-2.522,1.16-3.731,1.834a2.353,2.353,0,0,1-2.253.093,4.489,4.489,0,0,1-2.781-2.5c-.184-.507-.2-.921.463-1.167,2.533-.948,5.052-1.931,7.569-2.921a3.556,3.556,0,0,1,3.314.279C826.329,1105.872,827.224,1106.424,828.334,1107.1Z" transform="translate(-131.553)"/></g></svg>