<svg xmlns="http://www.w3.org/2000/svg" width="36.19" height="38" viewBox="0 0 36.19 38">
  <path id="rotate_left_variant" data-name="rotate left variant" d="M5.619,2.81h5.429a3.619,3.619,0,0,1,3.619,3.619V35.381A3.619,3.619,0,0,1,11.048,39H5.619A3.619,3.619,0,0,1,2,35.381V6.429A3.619,3.619,0,0,1,5.619,2.81ZM34.571,26.333a3.619,3.619,0,0,1,3.619,3.619v5.429A3.619,3.619,0,0,1,34.571,39H18.286V26.333ZM23.714,6.429A14.477,14.477,0,0,1,38.19,20.9l-.114,1.81H34.42l.151-1.81A10.856,10.856,0,0,0,23.714,10.048v5.429L16.476,8.238,23.714,1Z" transform="translate(-2 -1)" fill="#ffa155"/>
</svg>
