<svg xmlns="http://www.w3.org/2000/svg" width="80.289" height="85.641" viewBox="0 0 80.289 85.641"><defs><style>.a{fill:#fff;}</style></defs><g transform="translate(-761.75 -1204)"><path class="a" d="M761.75,1351.022c.168-1.35.294-2.707.517-4.047.182-1.1.463-2.175.727-3.254a10.455,10.455,0,0,1,5.556-6.925,53.147,53.147,0,0,1,10.431-3.963c2.449-.725,4.907-1.422,7.312-2.117.463,1.986.8,3.961,1.388,5.859a30.48,30.48,0,0,0,10.874,15.841c.511.384,1.1.67,1.585,1.082,1.218,1.033,2.293.809,3.572-.023a29.7,29.7,0,0,0,11.854-15.306c.856-2.363,1.335-4.864,2.014-7.408-.11,0,0-.025.089,0,4.753,1.476,9.528,2.884,14.245,4.465a18.516,18.516,0,0,1,6.367,3.757,5.016,5.016,0,0,1,1.041,1.279,21.345,21.345,0,0,1,2.517,9.352c.147,2.583.14,5.174.2,7.762H761.75Z" transform="translate(0 -67.737)"/><path class="a" d="M819.262,1204c1.7.285,3.426.449,5.087.877,7.049,1.812,12.518,5.682,15.7,12.4a13.4,13.4,0,0,1,1.283,5.908c-.022,2.843-.005,5.687-.01,8.53,0,1.068-.485,1.689-1.305,1.7s-1.324-.62-1.326-1.674c0-2.175-.069-4.351.013-6.522a15.6,15.6,0,0,0-4.113-11,21.234,21.234,0,0,0-14.426-7.4,23.25,23.25,0,0,0-16.026,3.651,18.086,18.086,0,0,0-8.028,11.288,20.631,20.631,0,0,0-.268,3.821c-.042,1.532-.024,3.066,0,4.6a1.625,1.625,0,0,0,.268.805c.425.66.967,1.254,1.326,1.944a18.137,18.137,0,0,1,.829,2.223l.244-.052c-.128-1.041-.26-2.081-.382-3.122a30.928,30.928,0,0,1,.125-9.16,14.793,14.793,0,0,1,7.111-10.252,22.534,22.534,0,0,1,13.781-3.12,21.741,21.741,0,0,1,7.591,1.831c6.4,2.894,9.754,7.871,9.864,14.879.043,2.771-.345,5.55-.539,8.325-.013.191-.04.382-.059.569,1.826.412,2.5,1.125,2.605,3.106a10.379,10.379,0,0,1-2.824,7.874,2.8,2.8,0,0,0-.795,1.581,13.5,13.5,0,0,0,1.452,7.032,8.533,8.533,0,0,0,4.161,3.835c.147.066.289.141.468.228-3.792,1.678-9.59,2.623-13.583-1.184a23,23,0,0,1-2.276,1.808c-1.677,1.031-3.376,2.046-5.146,2.9a6.806,6.806,0,0,1-5.6.043,23.343,23.343,0,0,1-6.707-4.171c-.231-.2-.464-.391-.731-.615-4.208,3.784-8.834,2.947-13.585,1.331.079-.112.1-.18.142-.2,4.279-1.8,5.651-5.405,5.938-9.651a8.783,8.783,0,0,0-.214-2.126.693.693,0,0,0-.6-.309c-2.139.745-3.666-.234-5.005-1.736a3.656,3.656,0,0,1-.742-1.1,57.268,57.268,0,0,1-2.284-6.607c-.525-2.241-.019-4.337,2.258-5.594a.8.8,0,0,0,.268-.607c.013-2.257.069-4.517-.022-6.772a16.477,16.477,0,0,1,4.538-11.864,24.174,24.174,0,0,1,15.061-7.906c.822-.125,1.646-.234,2.47-.35Zm8.365,17.34c-.4.636-.631,1.017-.88,1.385s-.507.734-.785,1.082c-3.042,3.807-7.2,5.57-11.84,6.438a44.565,44.565,0,0,1-9.573.623,3.007,3.007,0,0,0-3.044,3.318c.294,1.862.651,3.714.981,5.57-.193-.28-.291-.6-.458-.883a24.1,24.1,0,0,0-1.419-2.239.807.807,0,0,0-1.2-.087.786.786,0,0,0-.285,1.078c.418,1.061.794,2.139,1.161,3.219.357,1.052.674,2.117,1.026,3.171a2.421,2.421,0,0,0,.451,1.013,50.169,50.169,0,0,0,3.966,3.443,17.9,17.9,0,0,0,6.289,2.885,3.005,3.005,0,0,1,3.336-1.847c.611.039,1.226,0,1.839.012a2.651,2.651,0,1,1,0,5.3,16.328,16.328,0,0,1-4.539-.427,29.134,29.134,0,0,1-6.763-2.572c-.18-.1-.372-.178-.559-.266a28.375,28.375,0,0,0,7.307,6.929c3.161,2.136,6.129,2.075,9.288-.033a30.51,30.51,0,0,0,10.892-12.716,5.122,5.122,0,0,1,.951-1.444,7.719,7.719,0,0,0,2.207-6.249,1.732,1.732,0,0,0-1.225-1.649c-.76-.214-1.157.433-1.474.978-.45.772-.818,1.592-1.259,2.467.366-2.058.686-4.034,1.075-6a9.417,9.417,0,0,0-1.322-7.5,19.267,19.267,0,0,0-1.141-1.745C829.7,1223.513,828.693,1222.486,827.628,1221.34Z" transform="translate(-15.361)"/></g></svg>