<svg xmlns="http://www.w3.org/2000/svg" width="41.991" height="42.047" viewBox="0 0 41.991 42.047"><defs><style>.a{fill:#ffa155;}</style></defs><g transform="translate(-830.776 -1262.391)"><path class="a" d="M851.752,1319.259q-8.661,0-17.323,0a3.468,3.468,0,0,1-3.574-2.775,4.349,4.349,0,0,1-.073-.926q-.009-5.685,0-11.371a1.411,1.411,0,0,1,1.536-1.552c.726,0,1.451,0,2.177,0a1.43,1.43,0,0,1,1.539,1.56q0,4.108,0,8.217c0,1.112.484,1.6,1.592,1.6h28.294c1.111,0,1.6-.484,1.6-1.588q0-4.086,0-8.173a1.443,1.443,0,0,1,1.618-1.613c.711,0,1.421-.007,2.132,0a1.391,1.391,0,0,1,1.5,1.5c0,3.85.013,7.7,0,11.549a3.438,3.438,0,0,1-3.595,3.572Q860.458,1319.272,851.752,1319.259Z" transform="translate(0 -14.823)"/><path class="a" d="M858.958,1283.291v8.839a1.51,1.51,0,0,1-1.705,1.722c-.74,0-1.481.005-2.22,0a1.2,1.2,0,0,1-1.307-1.215c-.045-.782-.025-1.568-.025-2.353q0-8.016,0-16.033c0-.639-.205-.949-.7-1.079a1.017,1.017,0,0,0-1.027.369q-2.257,2.265-4.521,4.524a1.35,1.35,0,0,1-2.276,0c-.515-.512-1.033-1.019-1.537-1.541a1.268,1.268,0,0,1,0-1.99q5.818-5.833,11.651-11.652a1.277,1.277,0,0,1,2.021.02q5.809,5.842,11.609,11.694a1.284,1.284,0,0,1,.015,2.024q-.82.844-1.664,1.664a1.28,1.28,0,0,1-2.023-.013c-1.532-1.524-3.055-3.058-4.591-4.579a1.811,1.811,0,0,0-.613-.416.8.8,0,0,0-1.056.651,2.967,2.967,0,0,0-.023.486Q858.958,1278.85,858.958,1283.291Z" transform="translate(-4.559)"/></g></svg>